/* XPM */
static char *texture__12_1724505259[] = {
/* columns rows colors chars-per-pixel */
"64 64 14 1 ",
"  c #10141F",
". c #151D28",
"X c #19332D",
"o c #202E37",
"O c #394A50",
"+ c #577277",
"@ c #4F8FBA",
"# c #73BED3",
"$ c #819796",
"% c #A8B5B2",
"& c #D0DA91",
"* c #E7D5B3",
"= c #A4DDDB",
"- c #EBEDE9",
/* pixels */
"OOOoOOOO+OOOOOo+Oo +OOo+O+ooO.OoOoOO+oOOoo oOOO++oOOO+OOoOO+oOoX",
"o$O+O+Oo+++oOO++OOOO++Oo+O++OOO+OO+++OO+++OOO+++O$++O+O++O+OOOOX",
"O+O++++O+++OOO+++o$+++OO++++OO+++OO+++O++++OO+++$O++OOO++O+O+++O",
"o+O++OOo++OOOo++o+o+++++o+++OO++OO+++O+O++Oo+++O++O+OOOOO++O++OO",
"@OOOOO+O++OOOOO+OOO+OOO+++OOOOOoOOOOO+OO+OOO+o+oOO++oOo$OOO+Ooo+",
"+++OO+++OOO++++++++OOO+++OO++++o+++OO+++O++++O+O++OO+OOoO++OOoO+",
"+++O++++o+O+++$O+++OOOO++oO+++Oo+++OO++++O+++o+O++OO++o.O++oO+O+",
"++OOOOO++O++O+OO+OO+O++o++++o+O+$OoO.+O++O$O$OO+++OOO+.OooO+.+OO",
"OOO+++OO++++oO++OO+++O+oO++OOO$$+O++O+++++O+O++O+++O+OOOoOoOOO+O",
"+OO+++OO++++O++++o+++++oO++++O$$$+O++O$+++O++++O+++O++O+O+O++Oo+",
"O+OOOOX++++O.O+++oO+++OOO+++OO+$+OO+++O+++O++O+OOo++O+++++O++OoO",
"OO+O.++OOo+o+++o++O+++oO+OOO+o+OO++OO+O++O+OOOOO+OOOo$+O+o+OOOO+",
"++++O$$$+O+O+OOO+$+O+O+$O+o+$+OO+$+O+++$Oo+$$$+OO++++O+XOOO$OO++",
"+++++$$$+O++++O++$$+O+$$+OO+$$OO+$+O+O+++O+$$$+OO+++++OO++O+O+$+",
"++OOO+++Oo+O+++O+++O+O+++OO+$+O++++OOO++OOO+$++OOO+++++O++OoOOOO",
"OOoO++.+OO+o++O+XOO+++$.++OOooOO+OOoO++o++O+Oo+OO++OO$+OoOOOOoOO",
"O++++OOO++++OO++O++++++O++++O++++O+O+++OO+++OOO+++O++++++o+++O+$",
"+O++++OO++++OO++$+$+$$OXO+$+O++$++O++$+OO$$+OO+$$+++++OO+O+++OOO",
"OOOOOO+OoOO+++OOO++OO+$OO+++O++++O++++OOO$O++O+$++OOO+O$+O+o+O+O",
"+Oo++++O++o++OO$#++O++++++OO++OO+OO++++++OO$O+$OO$++++O++++oO+OO",
"++O+++$+O+O$$+O+%$$O+%$$$O$+$$$++++++O+$$++O$+++$+$$OO+++++o++++",
"OOO+++$+O++$$+OO$$$O+$$$$OO+$$$+$+++$O+$$+++$$+%$+$$OO+++O+OO+OO",
"o+O+o++++oO++O+O+++OO+++OOOO++$oo+++OOO++$O++$+$O$+O+OOO++oO+OO.",
"$OO++OO$O+++Oo++oO+$Oo+O+$$$OO+++OO++OO+O++o+$+OO+OOO+OOOO+O+O++",
"O+++$+#+$$++oO$$+OO$%++O+$%$+O$$$+O+$$+OO+$$O$+$$++O+++Oo+++O+++",
"+O++++$O+$++X+$$+++$%++O+$$$+O$$$+O+$$$++$$$O++$$$+++$++++++++++",
"Oo+O+++O++++++++OO+$$O+O++++o+++O+$++$+$+$++$$O++O++++O+O++OOOOO",
"+$$O++++OO+$$%++o$++$oOO$O+$O++O+++O++++++$O+++$++$$OO+++OOO+OO+",
"+$$+++++OOO$$$+++$$O$+$$$+++$$O$O$$$O++$%+++$$$++$$$+O+$$+OO$$++",
"+$$+++++OoO+$$+++$$O$+$$$+O+$$+$+$$$O+$$%+$O$$$+O+%$+O+$$$+O$$++",
"++$oO+++oo++++OOO+OOOO++OoOO++$+#O+O++O$++OO$++++O++O++++O+O+Ooo",
"OO+O+++O+O++O+O+O$$OO++O$+++O+$$$+$O+++$O++++O+O+OO++O+$+$O+O++O",
"++O++++++++++++++++$$++O+$$++O%%%+++$$$++$$$+$++$O++$$$O++$++$$+",
"++O$$$$++$+oO++$+++$$+++$$$$OO$%%+++$$$++$$$$++++++++$$O$+$+++$+",
"$+o+++O+++O++O$+$.O+O+OOO++++++$+O+O$$$OO+$$+++O+O++O++O++O++OO$",
"O+++OO+$OO+$+++O$O$$O+OO+O+OOO+OO$+$$OO$$+$+O%%$$o$+$+$+++OO++OO",
"O++O++$$+++$$+OO+$$+O+$+O$O+$$O$+$$+O$%*&+$%$&*%+++$$O++$$+O++$+",
"+++O++%%$++$$+OO+$$+O+$+O$+$$$++$$$$$$%&%+$=+*-%+$$%%OO$$$+O+$$+",
"O$+OoO$++O+O++OX%+++O+++O$++++OO+$$+Oo$++++$+$%$O$$$$$O$$$+o+$+O",
"+O+++++oO+$oOO$$+OO++$OOO+O$O$#+OO+$++$+o$O+O+O$O++OO+++OO+++OO.",
"+O+$$+O++$$+++$$$++$$$+o$$$++O$$$+O+$$++$+$$++$+$$+O+$%$+$++++O$",
"OO+$++O++$$++O$$$++$$$OO+$$$+O$$$$++$$++$$$$$O%$$$+O+$$$++O+++O+",
"+OO+++O++++++++$+o$+$++O+$$OO++$$+O++++O$+$$$O$++$OO++$$OOO+++O$",
"OOO+O+Oo+O$+Oo+O+oO.+O++$+OO$+O+++O+OOO++O+O$O+o+O+OO++O+O$OO.+O",
"+$++OO+++Oo++++O#+O++$$$++++$$+O++$$++++++Oo#O+O+O$OOOoO+++++$++",
"$$++++++O+$++++O+$$O+++$$++$%%$+++$$$++$$$++O$$$+$++++oO+++++++$",
"++++O++++O+++++O+$$O+O+$$+++%%$+++$$++O+$++OO$$$+++$++OO++++++O+",
"+OOO++OoO+oO++oO++++oOoO+OO$+++O$O+++OO+++O+o+++O+O++OO+O++.ooOO",
"o +OO+.$O++OO+O+$OOO$$+++$+O++O++O$oO$O$oO++O+X+O+$O$oO+oOOOOoOo",
"o+O++OOO+$$O+O++++O+$$+O++$+++++$$O+O$$+%O+$+O++$++++++++oO+++.O",
"O+O+++O++$$O+O+++$O+$$+O++$+++++$$++O$$+$O+$$O$+$$+O+++++oO+++o+",
"Oo+++OoO++++o$++OOOO++$O+O++OO+O++OOO+++#O+++OO++++O+O+++O+OOOOO",
"+OOOO$+o++O#+o$+OO+O+O+@++%OO$$++O+O++Oo$+o+++OO+OOO+OOO++$OO+O+",
"++.++++OO+@$++O#+$++$O+$$$O$+$$+OO+++OO++$$OO+++OO+++OOO++++$+OO",
"++O++$$++++$++O#++++$++$$$+++$$++O+++OOO+$++O+++++O++++O+$$+++++",
"+OOO+$+++++++++$O+++OOO+++O++$++OO+++OO+++O+.++++OO+++Oo++++++++",
"++Oo++O+OOoO+O+OOOOO$OoOO$oo++o#OOO++Oo+O+OO$Oo$o+.O+OO+OOO$oOOO",
".O+$+.O+++OO+O+$+OOO++++O+++$OO+++O+++++O+$OO+++o++O+++++O+OOOoO",
"oO$$OOO+++++O+$$$O+O$$$O$++$$+++++O+++$$++++++OOO+++OO+++O$O++OO",
"X++$OOO$+++oOO+$O+OOO++OOO+++++++OO+++++OO+++++OO+++O+O++O+O++oO",
"+O+O+OOo+o+++o+OX++O+O++OOOOo+++OOO+oO+O$OOoOO+oOO++OO+O+Oo+oo+O",
"OOOOO++O+O+++OO+O+++++++++OOO++O+O+++O$++++ooO+++OOO+++o+O++OOOO",
"++OO++++Oo++++$O+++++++++++++++++O+++O$+++++o+++++OO+++O+++++OO+",
"+OOOO++OOoO+++oo+++OOo++++OOO++++o+++O$OO+oO+O++++ooO++Oo++++O+O"
};
