/* XPM */
static char *texture__1_1724505256[] = {
/* columns rows colors chars-per-pixel */
"64 64 15 1 ",
"  c #090A14",
". c #10141F",
"X c #151D28",
"o c #241527",
"O c #341C27",
"+ c #19332D",
"@ c #202E37",
"# c #4D2B32",
"$ c #394A50",
"% c #577277",
"& c #819796",
"* c #A8B5B2",
"= c #E7D5B3",
"- c #A4DDDB",
"; c #EBEDE9",
/* pixels */
"&&&&&&%&&&&&&&%%&%%&%&%&%$@@@$$X$$$@@@@@@@@@@@@@o@@@$@@X@@%%%%&&",
"&%&&&&&&&&%%%@ @+@o.X@$$$$$@$$$$$$$$$$$$$$$$$$@oXX..XXo@@@%&%&&&",
"@@@@@@$$%%%;;;;;;;;;;;;;;-*$$$$@$$$$$$$$$$@@$@@@XXXXX@@@@@$$$@$@",
"         *--***********-;;-;-;;=;;;;;-;;;*-*-=***&&&&**%@@X     ",
"%%@@@@oX%&&%%&&&&&&&%-&&*********&**************&*&*&&&*$$*&&&%%",
"$$$$$$$$%%%%&$&&%&&$&&&&&&&&&&&%**********&**&&&%&&*&%&&@@&*****",
"%$$$$$$$%&$$*%&&&&&&&$&%&&%&&&%%%%&%%%%%%%%%%%%%%&&&&%&&X@%%%$$$",
"&%%@@@$%$@@@@@@@XXXXX@$$$$$%%$$%$@@@@@@@@@@@@@@@%%&&&%%%XX%%%$@@",
"%$%%%%%$$@@$$$@@@@@@@@@@@$$$$$%$XXXXXXXXXXX.   $$%&&$%%@XX%*&&&*",
"$@@@@@@@@@XX$%$$$$$$$$$$$$%$@$X.XXXXXXXXXXX.oX@$.  .X@@%@@$&***&",
".........XX..@$%$%%%$@$@$$$&@.XXXXXXXXX@oX@@@X@X$$$@@$$X@...    ",
"@@@@@@@@@@@@@@X.           ..XX@o@@@@@@@@@@@@@@@@@@@@@@@@@@@XXXX",
";;-----***%@@@@@@@@@XXXXXX@@@@@@@@@$@@$@@$$$$$$$$$@$$$$$@$@*--;-",
"**%%&&&&&%%&&&&&%%%%%&%%%%%%@@$&&&*&%&&&%&&&$$$&&*****&&@$*&&&&*",
"&&&&&%&&&%&&%%%&&&&&&&&%%%&%$@$&&*&&&&&&&&%%%$$&*****&&&$$%%%$$$",
"*&&%$@@@@%&&%%%&&&&&&&&&%%$%%@%&&&&&&&&&&&%%%$@%&%$$&&%$@@&%&&&&",
"&&&&&&&&&&&&%&&%%%%%&&&&&&$%%@$&&&&******&%%%$$%%%$$&&%%$@&%*&&&",
"$&%&&%&&&&&%$O@@@@@#$$@&&&%&%@$&& @$@@@$$&&&%@@%&&%%%%%&$$%&$@@@",
"&@&@......Xo&&&&o.X..$&&%&%%@$$$$&XX..X@%$%$@@@%$X@.X$%&@$$@&&&&",
"$$$$%%%%%%%$$$$$%%$$$$$$%%%$$$%%%$$$$$$$$$%$$@$$&%%%%$%%@@@@$$$$",
"XXo@@@@XX...XX@@@@@@@$$$$$$$$$$$$$$$$$$$$$$$$$@@@@@@@XXX@@@XXXXX",
"@@@$$$$@$@@@@@$$$$$$$$$$$$$$$$$$$$$$$$$$$$$$$$$@$$$$@@$@@$@@XXXX",
"**--;;--*$$$$$&*****-----------;;;;;;;;;;-*%$X$-;;;;---*%**-****",
"&&&**&&&&%$%%%&*%&&&&&********&&&****&&&&******&&&&&&***&**&%%&&",
"&&&&&&&&%%$%&%&$%%%%%%%%%&&&&&&&&&&&&&&&&&&*&&&%%%&&%&%&%&&&&$&&",
"&&&&&%&&%$$%%%%@%%@@@$%%%%%&&%&$$&&&%%%%%$%%%%$%&%&&&&&%$%%&%$&&",
"%%&%%%%@@@@%$$%X%%$@@$$%$$$%$$%%%%%$$$$$$$@o   %%&&&&%@%$$%$%%%&",
"%$      @@@$-;;;;---;*@ ..X.    ..... ..  .  . %%%&&&%&%  @@$$$%",
"$.XXXX@@@*;;;;;;;;;;;;--&%X....XXXXXXXXXXXo..X.%%&&&&%&% .     .",
"X@@@@@@@&-**%%%%%%$$*&******%.XoXoXXXXo@@@@XXXX%%%&%%$&%Xo@@o@@$",
"$@@$$$$$%&%%%$$%%%%%&&&&%&&*&&%XXXXXXXXo@@@@@@.%%&&&&%$%.X@&---;",
";;;**$$@$%%%%$%%%%%$&&%%%%&&&&%@@@@@@@@@@@@@@@@%%%%%%%$%XX&*&&&&",
"$$%&*&$@@@$@@$$$$$$$$$$%%%%%&%%@@o@@$$$$$$@@X@@%&&&&%$$%X@&&&&&&",
"$%$&&*&%@oX@oXXX@@@@@o@@@@%$$$$o.@@@@@$@@o@@@o@%%&&&&&$%X@%%&&&&",
"$$$@$&&$%oX.                  .XXXXXX.Xo@oXX. .        . @%%&&&&",
"$@$@%&%$$$oXXXX............. X@@@@@@@@@@@$@@@@@@@XXXoX@@X@%%&&&&",
"%%%&%%$@$$@@@@$%$$$$$$$@$$$$%&&&&*************&%&*****&@  %&&&&&",
"%%$$$XX.X@@%%%%%%%$%%%%$&&*&**%%%%%%%$$$%%$%&*;;-;;;;;*&@@%&&&&&",
"X$@@@$$$$$$%%%$%$$$$$@%%%&&&&&&&&&&&&&&&&&&&&&**&&&&%%*&@@%%&&&&",
"$$$@$%%%$@$%%%%%@@$$@$%%%%&&%$&%%%%&%&&&%&&&&&&&&**&%%&%@@%&&&&%",
" ..     X@@$$$$$@@@$@X$%%%%$%%$%%%%%%%%$%%%&%%%%$%%%$%%$XX%&&&%%",
"----;**-&@@$$@@@X. ..@@$$$$$@@$$$$$$$$$$$@$$$$@@$$$$@$@.oX%&&&-;",
";;;;;;;;--&$@@@@@XX...        ..............  .       .@@@%%*-;;",
"*-*--;-*&-****&-&$@@@XXX..X.. .... .......X..XXXXXXXX@@@@o$&***;",
"&&&&&&&&%*%*&&&&&&%&%%%%%%XXXX@@@@@@@@X@X@@X@X@%%&&&&&&@@@%***&*",
"&%&&&&&&&&&&&&&%%&*&&%%%%%%$@@@%%%$@@@@$%%%%@X@%%&&**&&&@@%%%&%&",
"%%%&%%%%&&&&&&&%&&&&%%%%%%%%$@@%%%%%%%%%%%%%%@@%%&*&%&%%@@%%%$%&",
"%$%&@@@@$@@@@@$$%%%%%%%%%%$X$@@%%%%$%%$$$%X@%@@$%%$$%&$$@@$%%%&&",
"XXo.............XXXXX.X%%%%$$@$%%%%%%%%%%&%%%@@%%&&*%%$%@@$$$@@@",
"%$%$$$$$$$$$$$$%$%%%@%%$%%%%%@@$$X$@@@@@.%%%X@@%%&&&%%%%@@@@@%%%",
"%%%%%%%%%%%$$@@@.XoX@XXXXX..$@$@@$@o.XX@@$@X$@@%@@@Xo@&%@@$@$$%&",
"@@@@@XX.X@@$X@$$$$$$$$$$$$$@@o$$$$$$$$$$$$$$$@@@@@@@@@@@@@o@@.@@",
"  ..XX@@@@@@@@$$$$$$$$$$$@@@@@$$$$$$$$$$$$$$$@@@XXXXXX.XXXXX..  ",
".X@@@@@@@@@&*;;;;;;***&@@@@@@X@@@@@@$$$$@$@@@@@@@@@@@@@@@@@@oX..",
"&&&*%@@@@*--*;;;;;;;;-----*****-----------*.X.X**&&%&*&&@@&$**&*",
"%$&%$@@@&-&$X@@@$$@@&********-*-**-**--*******&&&&&&&&%&@@&%%%%$",
"&&&%$$$$%%%$%$%%%%%$%&&&&**$&%&&&&&&&&&&&&%%&%%%$%%%%$%&XX%@@%&&",
"%%%%$$$@$$%&$$$$@$$$%&%%&%%%%%%&&&&%&&%&&%%%%$$%%%&&&%&%oX%%%%%%",
"%&%$@@@@o@$@@@@@@@@@$$%%%%$$%$$$$$$@@@@@@$$X   $%$%&%$&%XX@%&&&&",
" ..XXXXX.. $%$$$$$$$%%%%%%X.                   %%&&&%%%&XX.     ",
"XXX@@@@@o.XX......... ....................... .%%&&&%&%&X@X.....",
"-*******&*&&$$@... .......XXXXXXXXoXXoXXXX@XXXX%$%&&%%&%@@$*--;-",
"*****&&&&&&%&%$$$@@@@@@@@@@$$$$$$$$$$$$$$%$%$XX%$%%%&%$%X@&%%&**",
"*&&&&&&&&&&%%%%$@$$$$$$@%&@&&&&&&&&*&&*&*&&&*@.$%%%%&%%%.X&&$%&&"
};
