/* XPM */
static char *texture__9_1724505258[] = {
/* columns rows colors chars-per-pixel */
"64 64 13 1 ",
"  c #090A14",
". c #10141F",
"X c #151D28",
"o c #241527",
"O c #341C27",
"+ c #19332D",
"@ c #202E37",
"# c #4D2B32",
"$ c #394A50",
"% c #7A4841",
"& c #577277",
"* c #819796",
"= c #A8B5B2",
/* pixels */
"==#===**** ==*=*o* ==**=O==&o====**====*======*=*== ==*&****====",
"*=====O****==*=*&*$========*====*=**===*===*=**=**= ***#= ******",
"*=*.OO.******==* *+=========.#& . *o**** ==*===****&===*==***=**",
"=***==*****====****========**===***=*=***==**=*==**.*** =*=====*",
"=*****#===*===*===*=========*===*=*=*****===*==*===*=====*=====*",
"o&$=**%=****======== =O&O=== &&%&&*$*==*=======*oo$o%&ooo OO$&.&",
"===***%*=**&=*======================****===*===**====**$====*===",
"===&***==*=&========*==*****======*=*===# $& ##oOo O . X==***==*",
"=******====$***===========*=====**===========***===**=*$*=****=*",
"=****** **& =*==**=**==*====*=====*=**%$O=***$* *=======********",
"=***=*=**===   *==**======***===***==========*=====*====*===&***",
"*******=*======$=======*==*=$=$==============*=*===*====***=*=**",
"******=======*=%o$=====*=*====================****====**********",
"******&==*==**=&==**===*===*&*=======$***=====****=***=*******=*",
"==*****=====*==$======**=**$======*=====*==========*=*=*=====**=",
"*==*==. OO=====&==**===*=***=====*===*==*======*=====*====*==**=",
"**====****=====.& O&&*$ **====****===*==*=====*=*&**=*==**===***",
"#*=*=*#*****=**===*=*====*=*=$==== ****$*=====*======o*.&*&$=*==",
"==**=====*=======**=*======.======$==*==========*===****=====*==",
"==******=======*====*====****$*=&$$*=========**====******==*=*==",
"==*== ===*============**=***=*==*===$=**&*O$$#=======***==*=====",
"==*==* #$$O&*========*=====o**==========*==========**#$$$. **&*O",
"=*=======*=======&=========*===========*==&&$.*===*=*=====*=====",
"=**===*===.==$.============*===========*=**===*===========***===",
"&&$===**=**========= && ===*===========*=**===&***=**==*=%=====$",
"===***=**=&=========*=====* ===========*==*==*=======***=*=====*",
"== ******* o  .==*==*======O===========*=============**=**=* *==",
"===*==*=**&=========*======*===========*==.$&o.oOo&*****o ** ===",
"====******%====*===**======*=*====== &* *&*==**======*===*=*#===",
"#====** ==*========= $=$*=* *#=******=*===********=*=$****** ***",
" *=====*==*======*=*========**=======*============$==$===*======",
"*======*==========**&===******====================&==%#@$$****&&",
"#=*====*==*=======***====*==*=======**=======**===*==*=========&",
" =**** &== ======****====*** &#o . # *&&O$&&& *======&****======",
" ===*=*======******=#===**===== =====**===*=***=**#*#&$&O$O&====",
"===*==*==========***&**=**=====$=**=======****===========*=*====",
"*===*=*=======**$=======**=====$==&=*&====&**O========*==*=&====",
"==***========*=*&*======&&   =====*===**$ &==*====*======*=*   .",
"**#=======*=====$=======*====*====*==*============*=====**=&=**=",
"%**=======*=====o=======*===*==*=* $& =====================$====",
"=*=* **=*=*=====*=======*==*====**&==*=====================*====",
"======**==*====**======**=*====***===*=======*=****$  =***=&====",
"=&*=%=**@=**=*==O=======*====o===**=====* ===o====***====== $**=",
"====&====**=======================&===*=========*===*======*=*==",
"====%===****=*=* ===========*=*==*&===*======&*=====*======&====",
"*&==$======***==*==*====**=*#=====@==========&====*======== **==",
"***=&*=*O==&*****==*===*****======.$* $**&=**#===*===#===**=*.**",
"* **%==========**=****=*=****=========*==&*===********==*=======",
"**=**======*=**=*===&**==***=====**======*====***==***==**====*=",
"**=*$*=*==****=&***=.**&*****=****$======*===*=*====*==********=",
"=*=*&****=****===*==*=*=========*=@=*====&****=*====**=********=",
"****@****==***=*====*==============*****&$=======***#=&$=&*$#=**",
"*=====**=*** =*=$*== *======@. *==========*==**====*$====*=***=*",
"$**==****=*==*===&** *******=*=====O&*===**===******@$*****&$&&$",
"======*==&**%*===.===**=======**=*===*====*=**===*==**====*=====",
"===*==**=****===*$==***=====*==*==*==*===========****==*==**====",
"==#**===*********#==.**=====**=======*=======*===****==**=*$%&%*",
"==&=======$&==*==$==&=======*===*====****======% **********$====",
"=*&======$==**==*&==*==========**==***====**====*==********#=**=",
"==.==****$*=*=*====*=. =======*******$==******=********#*******=",
"%&**===***==***===*****======**===**==*====*======****=.*===+O@*",
"=**=====*&======*==*******==***==******===*&****=****== *==*====",
"=====*O==*=  ===&***** **===*$*#%&&&* =@$.*****=*==****$===*====",
"==*==========***&==**==**=======*=&======**** *=====**=&=***===="
};
