/* XPM */
static char *texture__25_1724505262[] = {
/* columns rows colors chars-per-pixel */
"64 64 30 1 ",
"  c #090A14",
". c #10141F",
"X c #151D28",
"o c #241527",
"O c #341C27",
"+ c #19332D",
"@ c #202E37",
"# c #411D31",
"$ c #4D2B32",
"% c #602C2C",
"& c #25562E",
"* c #253A5E",
"= c #402751",
"- c #394A50",
"; c #7A4841",
": c #577277",
"> c #884B2B",
", c #AD7757",
"< c #DA863E",
"1 c #DE9E41",
"2 c #C09473",
"3 c #3C5E8B",
"4 c #4F8FBA",
"5 c #73BED3",
"6 c #819796",
"7 c #A8B5B2",
"8 c #D7B594",
"9 c #E7D5B3",
"0 c #A4DDDB",
"q c #EBEDE9",
/* pixels */
"67-7677777777766666666666:76666666666666666666666666666:6:::$:6:",
"7669777777677676666666666::66666666666666666666666:666::::::-:::",
"666766667667666666666666666666666666666666666666:::66:::::::-:::",
"66666666666666666666666666666666666666666666666666666:::::::::::",
"666-667797777766666666666666666666666666666:666666::::6::::::q::",
"6$-6:667777766:6666666666::::66$:::6:666:6:66::::-:::::::::::6::",
"6-$-:-:6::::66-:6666777766:6:::-6:::666:66:66:::-$:$-------:@6O:",
"O:O:676:667772999q9889988889999,8888899888888282222:::::,;:- :..",
"6:O::7q9999992222,<,,222<,,,2<2,<<<<<2,<,,<2,%<<,,>,,,,,,:-@O6OO",
"6-o:629<2222;2222,22,222<<,<<<2,<<<<,,<<,,,,,$,,,,,,,,,,,;-O-6OO",
"6;$::88<222296666666666767777776-:66666::::---::---;;,,,,,$oO:OO",
"6-O::,<<,,,6@oooooOOO@OOOoO$O@OOOO@O.OOoOoO@@OOoOOO-O%,>>,oOo:O@",
"6--::;2,,;6$  ooooo .... o                .         $$>,,>oO.:O@",
"6--6:;222,-  $$@@$-..... -$----@$-o@--- ... --::::@  :,,>,OOO-o$",
"6-:6:;<,,>-..-@,---o.ooo.-@X::::-::::@- .@oo@----:$  :,;>%OOo-o$",
"6:67::226;-o.----$-o----$--+55500445-+: O--$:400056  :26$$OOo-O$",
"6-76::<;;,-X.-@,;O:@----$--+545543:4@O: X-$$:40000:  :,,$$O@.Oo$",
"6::-:;2,:,-..--,:@-$-------+:::3:--:$$:.o--$--:-:-- .6,$$%OOX:O@",
"6---:;2;$,;..Oo$$$$.--@---:--$@OO@O$@@$.O--@---$$$$  :,:$%O# .O$",
"6:.-:;,,:;-.X-.....o---:6   o@@$.      .o--@ ....o  X:,6-;OO.-O$",
"6:.::;,;;,-.X-6:::6X---:qqqqqqq9997767776@$@---$$$@oO:,:$;OO.-O$",
"6:X:--,;-,-.X-$OoO@O---:@--------------$:o-$$--$---@$:,;$$OO..XX",
":: @6-,,,,-o.---$-$o---6$XXXXX.....XXXXo: O$$%;--;$$$:,;$$OOX$O$",
"6: ::-,,,,-X@-,1%1,o---7@ .++X+..XX+XX @6 O::66666;$O:,O$$oO o+-",
"6: ::-,,,,-.o-$$ O$O---9@ ..X...XX++&X -6 .$---:::-;O:,,,$OO -@$",
"6: @:-,,,,-.o-o$OO..--$7@..XXXXXX+++XX.@6.ooO@@O@$$;@:,,,$OOo-@-",
"--@::;,,,,-.o---------@7@.++++++++++++.-; OO-$$$$O$;@:,;,$OOo-@-",
"6:X-:-,,,,$.o6-$@@@$--$:@.+45533333+&X+-- oO--@@@-$-O-,;>$OO.XO$",
"::X-:-:O:-O.o:-----$-:--@.+++++++++++XX-;...:@-$$$$.@:,,>$OOo-O$",
"::o::-::4-ooo:-----O----@X&*-3-&333-+++-- ..:o%O,>O o:,,;$OO.-o$",
"::@::Oooo ooo:-------:$-@+33*55443534:3-- o.:O;$;;@ O:,,,$Oo.-@$",
"::77:$;$O$Oo..    .o$-o-@X+++****&&&+++@- . :o$.;oO.o:,>;$OO.-o$",
":-:6:-,,,%O..-.....O--o-@X+++++++++++++@- o -o$;;$O.@:,>>$OOO@O-",
":-O-:$,,,%$..-o$$O$.--o-@.X++&+++++++++@$.o $OOOOoO.O7;::--o .O$",
"::O-:-,;,,$..@%O=;;o--o:@X+*33-&--33*++$-.oo.....  oo:$---Oo.oo$",
"::o-:-$$%$- .$-Oo@:X--@6@.+*+++++++++XX--ooOOooooOoo.:-55-OoO$o$",
"::$---;;;;O.X@.$$-:X--$6+.++++X+X+++++X--oo.-@@@--@Oo;-05:OO$-o$",
"::-:--;>>;$..@O$-$o.@-@6-.X++XXX.X..++X-:Ooo---;;@@--:-q5:Oo..o-",
"::----;>;;$oo$Oo@@@@@-O6-XX++XXXXX..XX.-:Ooo-@O@@Oo-$;-55:OOooO-",
"::.---,>>;$o.$----------@....X.........-6oo.@ooOOoO--:-54:OoO@O-",
"::.@--;;>;$o.@-::::-X----@@@oX+X@X@@@@@-6oO.$$$$$O.----54:@.X.O-",
"::.--;;;;;$.o@------X--$7q99997766677677$ooo$-$-$-X-@--04:Oo.Oo$",
"::-:--;OO;@ XO-4554-.--.$ooOOOOOOOoX@Ooooooo@-:$:-@-$--3-:Oo.@O$",
":--:--;---$. O:5030-.---;q97977777777228o.oo-O$$--o---$--:Oo@:O-",
"::@@-;;;;;O. .-4535-.---%:::::::::::::::O.OO-2%;%;X--:$$-$Ooo$O$",
"::@$-;;;;;O..o-33*3-.--O%:*05505434050-:O.oo-@OOOO--$-%;;$Ooo-o$",
":-.$@-;;;;$ .o:----: $$$%:*3*--*---333@: .oO---:--o$@-;;%$$oo-o$",
":- -::;;;;O oO---:-$.$--;-330543334545@: .oO$---$$O-@-;;;$Ooo$o-",
":-$---;;;;O..@:::::;.---O--------------: oo.$-$.--$-@-;;>$O.O-o$",
":-----;;;;$X.@--3--@ ---o--------------- oo.@-$$-$O-@-;%;$O.O-O$",
":-----;;;;$$.o-0540- $$@ ;-@@---:----@:- oo.-----OO@:-;;;$oo@$o$",
":-@---;>%>O$- -4545- o@O -+$@OO@O@OO@O$-    OOOoo@O-$:;;;$Oo@-O-",
":-@-$-$$;;;$-@X+OOO O----o               ..O---@$$--:-%-OOOo$-O-",
"$-$-@-OO--;-$:;----:---$-$#@@@@@@$@OO$$@O@$$$$:--::--$$$$o$oO-o@",
":-$-@-@$OooooOoooooOO@@$$OOoOOOOOOOO...OOOOOOooooo...o.oO@Oo@-O-",
":---@@$$@OO@OO@OO@OOoooo..o.......o...o.o... .   OooOOO@@OOXO-O-",
":----$..oOo    .. .o.  .  . ..Ooooooo      ... .. .....O.  .@-O-",
":-O-@o@$@@O@@@OOOOOOOOO@OOOOOOoooOOOOOOO@OOOOOOoOOOOO@OO@OOOO$O-",
"--@.ooo.oooooooOooOOoooooooOOOOOOOOOOoOOOOOoOoOOOOOOOOOOOOOOOOO-",
"::-OOOOOOOOOOO@OOOOOOOO@@@@OOOOO@OO@@@@OO@@@@OO@@@@@@@@O@@@@@@@-",
"::---$---$$$$$$@$$$$@@$$-$$$$$$$$$$$@$$$$$@$$$$$$$$$$$$$$$$$@$@-",
":---------------------------------------------------------------",
"---------------------@------------------------------------------",
"----------------------------------------------------------------"
};
