/* XPM */
static char *texture__2_1724505256[] = {
/* columns rows colors chars-per-pixel */
"64 64 18 1 ",
"  c #090A14",
". c #10141F",
"X c #151D28",
"o c #241527",
"O c #341C27",
"+ c #19332D",
"@ c #202E37",
"# c #4D2B32",
"$ c #394A50",
"% c #7A4841",
"& c #577277",
"* c #AD7757",
"= c #C09473",
"- c #819796",
"; c #A8B5B2",
": c #D7B594",
"> c #E7D5B3",
", c #EBEDE9",
/* pixels */
"=%#O$&$$&&&-;;;=::>:::::=;;:::::::=;>>>>>:>:>:;:::::==::::;:=;;:",
"%##O$&&$#&#$&&***&********=*=************===****==**%********&&*",
"#O.$$&$%$#@@#$$%%$%$$$%%%%%%%%%%%$%%%%%%$%%%%%%%%$$%%%%%%%%%$$%$",
"o.#$$$$$$$#oOOOOOO#OOO#OOOOOOOOOOOOO####O#OO###OOO##OO###OOOO#OO",
".$%%%$$%$$$$@X..............o...............ooo.................",
"O##$$$$$$$$$@o.........   ... ..................................",
".oo@@oooOO#OOOo.... .o.XXoooo.X..o.oXXXoooXoooooooooooooXoXooo.o",
"$$$%%$&$$$$$$$$$$$$$$$$$$$$$$$$$$$$$$$&$$$&$&$%&$$$%$$$##$$$$$$$",
"o&%$&&&&&&$&&&&&&&$&&&$$&&&&%&&&&&$$$&&%&%%&&&&&&$&&&&%%#%$#O&$%",
"o&%&&&&&&&&&&&&$&&&&&&&&&&&&&&&&&%$$$&&%%%&&&%&&$%&%&&%%#&%&&&$$",
"o$&-&&-&&-&---&-&&&&-&&&&$%&&&$--%$&%&#$&%&&&&%&%#&&*%&&#%%$#&$%",
"O&&&&%&&&&&&%&&$&&&&&&&&%%&&&&-%#*%$$&&%&&&&%&-&%#&%&%*&#%%--&$%",
"O$$$$%$&$$$$$$$$$$$&&&&&$&$&&$o..o%#$&&&&%&&&&&%%#&&*%*&#&&&&&$&",
"#&$$$$$$$@@@OOO@OO@o$$#&&&&$&$o#%####%&%%%&&&%&&%#&*%%*%#&&&&%$%",
"O&&&$$$$$$$$$$$$$$$@$$$&&$%$&$.$$o#O#&--&%&&&&&%%#**%%&%O&&&&%$%",
"O$&&&$$$$$$#$$#$$$#@$#$$%&$$%$#$#$$#$&$%&%%%&%&%%$&&%%%%#%&&&$%%",
"O$&$$$$$$$$$$$$$$$$$$$$$%##%%$o&$%o#$&%%&%%%&%%%$$&%%%%%#&%%&%$%",
"O&&&&&$$@$$&&%#%&&$$$$&$%%&%&$$Xo#$%$%&&&%%&&%%%$##&%%%%#%%%%%$%",
"O$%&&&&%$%&$$&$&&&&$&&%&%$%%&&%$&&%%$%$%%%&%%%%%%$%%&%%%#$%%%$$%",
"$$$&$$$$$%&$$$$$&&$&&$$$%&$$%$$$%%O%$$$%#$$%$$%%$O&%%$%%#o$&$$O#",
"$$#$$%$$$$$$$$$&$$&$$$$$$$$$$$$$$$$$$$$$$$$$$$$$##$$$$$$O$$$$$$#",
"#OoO@@OO@OOOO@@@#@O#@@#@$##@OO###@@##@OOOoO#o@OOOoOOOOOOoO#O####",
"$&%$##O$$$##O#OO#$$$$#$###OO@#O##@##$$$$#OO$#$$$$&%$$$$$$$%OoOO@",
"&&&&&&&&&&&&&&&&&&&&&&&&&&%&%&&&&&$&&&&$&&&&&&&&&&&&&&&&&&&$&$&&",
"***&&&&&-->>>>>>>>>>>>>;>>>;>>>>,,>>>>,>>,>>>>>;::>:>:>>,-:==;:=",
":=*%&&$&&&%%%==:;;;;====*-;;;=::=::;;:;;==:::;:=:*:::::::=::::::",
":*%#$$$O$&&**=-:::=:=====*==:=====::::::====:=====:::=:::::::>>=",
"%%##$$$$@&$$%*%**&%%**%%%%%%%&%%%%%%%%%%&%%%%%%%%#%%%%%%%%&%%%**",
"%#O#$$$$$@@#O$#$$$$$#$#$#$##%$###$$$$$#$$$$$####$#$$$$#$$#$%%%%%",
"OoO#%%%%%$#ooooooooooooooOooooOoooooooooooOoooooooOoOOooooOoooOO",
".o###$$$#@$Ooo.....oo......oo...o..ooooo.....oo.......o.....oo.o",
"oOO##$###@#@O...............  ................................. ",
"oO Oo.X.oO.OOoooXX...oooo...o.o.ooXoooOoooO.OOOOOOOOOOOO@OOOO.oo",
"#$%%$$$$#$$$$#$###$$$#$##$$$$$$$$$$$$%$%%$%#$%$$%%%%$%%$%O####%#",
"%&&&&&-&&&&&&&&&&&&%$&&&&&&&&%$#&%&%&%%%%%&&%%%%%$$%%%&&&%&*%%%%",
">o$%&&&%&&&&&%%&$&&%%$&&&&%&&&$#%%&%%&%%$&%%%%%%%%%&%#%%%%%&%$$-",
"=##&&-*&&&&&&&&$-&%&%$&&&&&&%$$%&&&%%&&&%-&&%%&%%%%%%%%%%%%%%#&*",
"#o#%%*%%%%%%%%%%$&%%$$&&&&&&&$$$&&&%%&&%%&&&%%%%%#%%%%%%%%%%%$#*",
"%%O%%*####$##$#OO%%%$$&&%&&O$$%$&&&%$&&&%%&%%%%%%%%%%%%%%%#%%##%",
"&%#$&*OO$$$$$$$O$%%%%$%&&%&&%$$$%%%%%%&%$%&%$%%%%%%%%%%%%%$$%#*%",
"#%O#%%#$$$$%%$%$&%%%$$&%&%#$&$%#&&%%%%%%%%%%$%%%%%%%%%%%%%####%O",
"O#O#$%%%%%%%$$$$$%%%%%$$$OoO$$$#%%%%%%%%%%%%%%%%%$%%%%%%%#%#$#Oo",
"O#OO$$$%%$%$$$$$$$#%$%%%&%&%%$$$%%%%%%%%$%&%%%%%%%%%$##$$%#%##Oo",
"OOO$O%%%%$%$$%%%%$$#$$%%%%%$$$$#%$%%%%%%%%%$%%%%%%%%$$$%$%%%##Oo",
".O#$&@%#%$$$$$$$$$$##%%%&%$$$$$#%%%%%%%%%%%$$%%%%%$%$$$##%%%#$o ",
"####$#$$%$$$$$$$$$##$$$%$%$$$$$$$%%%%$%$$$#$$%%%$%%%%%%%$#$$$O#O",
"$%$$##$$$$$$##$$$#$$$$$$$$$$$$$$O$$$$$$$$$$$%$$$%%$$$####$###@#O",
"$%&$$$$%$$$OoooOO.OOOo.ooO@@O#o$$@ .o.##OOO#@oOO$$#$$%%%O&%%%$%#",
"O$%%$%%%%%&&%%$%%%%$%$$%%$$$$$%$$%%%$$##$$$$#$$%&&&&&&%#O#%%%%%%",
"O#&&%%%%%%&&&&&&&%&%&&%&$$$$&$$$%&$$$$$$$$$$$$%$$%%%%%%%O$%%%%%%",
"O#$$%%%%%&&*=-=*--=----&------&--;-;---==***=#=&&-**%##%O$%%%%%%",
"O#%%%&%%$$&&-;:;;;;>>::;:>>>>::>>>>>:>>:::>>:=>::::=*#%%O#%%%%%%",
"O#%%%&%&$#o#$&----==**=-*====**=--=========***====**%%%%OO%%%%%%",
"o#%%%%$&$$@oOO$%%%%%%%%%%%%%%%%%%%%%%%%%%%%%%%%%%%%%#O#%O#%%%$%%",
"O$%&%%&-&$##ooooOOOOOOOOOOOOOOOOOOOOO#OOOOOOOOO#OOOOO###O#$%$%%%",
"O$%$$$$&&%$$#Oo......oo.oo..o.........o.o..oooooo..o#O##O#%$$%%%",
"o$&#$%$$$%$$##O.  .... .   . ... . .  ..   ......oOO#%$#o#%%$%$%",
"@#$%$%$$$$$$$$#OoOOoooooOooooooooooOoooOOOOOo. .OO##O###O##$$%%$",
"##@$@#@$###OOoo+oooOOOO#O@OOOOOOO@OOoOOOOooooOoO#OO####O$#oOO###",
"OOoO##O###OO@OOOOOOOOOOOOOOOooooOOOOo.oooO@O#OooOOOOOOOOOoO@##O#",
"$%$$$$$$$$$$$#$#$$%$$$$$$$$##O###$$$####$$##$$####$$#$$$$$$$$$$$",
"$$%$%%%$%%&&&&&&&&%&&&&%$&&&$%&%%%$&%&$%&%%%%%%%%$%%$%%&&%%%%%%%",
"#%*$%&&&&&-&&&&%%%&&&%$&$$%&&#$&%&$&&##-&&%&&&&&&&$$%&&%%$$$%%%%",
"=*%#$%$@$%&-;;;:::>>:;;::::::::::>>>>:;>>>>::::::>>>>>>>::>>>:>>"
};
