/* XPM */
static char *texture__18_1724505261[] = {
/* columns rows colors chars-per-pixel */
"64 64 17 1 ",
"  c #090A14",
". c #10141F",
"X c #151D28",
"o c #241527",
"O c #341C27",
"+ c #202E37",
"@ c #4D2B32",
"# c #394A50",
"$ c #7A4841",
"% c #577277",
"& c #AD7757",
"* c #C09473",
"= c #819796",
"- c #A8B5B2",
"; c #D7B594",
": c #E7D5B3",
"> c #EBEDE9",
/* pixels */
"$#%%==%==%%=%===%%==%%%=============%=========%====%%===========",
"##%%%%#%=%=====%%%%%%%%==============%%=======%====%@===========",
"###%%%#@#%%%%%%=%%%%%%%####%$%%%%%%%%%%%%%%%%#$%%%%%%%%%%#%%%%%#",
"%%%%%%O%#=%%=%=%%%==%%#%####%%%%%%%%%%%%%%%%%%%%%%%%%%%%%%%%%#%#",
"OXooX#oOo@++@O++O@oooooooo+.++o++O+++.Xoooo..@o#@###+oo+OooOoXOo",
"=====%%+##+#%%%$%#=#%%%%%#%%#%%%%===%#%%%=@%======-$%-%=%====%%#",
"=====--===%%%%%#%%%%%%%======%%%======%%%========%==%%%=====-===",
"===========%===%%->-=%========%====%=%%%=%=%%=-=-=%==%#%====-===",
"=======%%%%%==#======%$======%%=========%=%%%====%=%%%#========%",
"   .==%%Xo+#@+%=======#oOo+o++.OO++@#======%%#. o+XXooo. ..... .",
"=%%#@+@o%%%==%=============%==%%%====%======%%===%==-%%=%=======",
"===%###%%%%%%=======%%====%%%%%%=============%===%====%========%",
"==%%%#%%%%%%=======%%%==%%%%%=%=============%=========%========#",
"%%%#%%%$#%%%===========%==%===%%%=====%===========%=%%===%===%%=",
"==%===%%==---:--:-----=-==---==---==-%--=---------:-#:=------==%",
"=%%%%%%%%%%===========%%======%=%%%==%================%=======%%",
"=%%%%=========================%%%%%=%=======%=-===============%%",
".+#########%%$=======%##oX++++####++OOo%%==%%%=========%%@#@++@@",
"-------==--===@%%%%%%#=============-==%%%$%%%%%%%%%%==#$=--==--=",
"--====-================%==========--====%%%%%%%=%====-==---=====",
"==========%==%========%%===-============%%%%====%%%%%===========",
"=============%========%=================%%==%==%%%%%%===========",
"oo++==% ......%======%%==O. ...  ...@====%%=====%%%%===%. ..... ",
"-==%===-----;:============;::::-:;::===%%%%%%=%=%%%%====::::::--",
"=================%====%%=================%%%%%==%%%%============",
"=================%%%%=================%====%%%%%%%%%============",
"==================%%%==%====================%%%%%%%%============",
"=====%-==========%%%%==%=========%===========%%%=%%%==========--",
"===========%==%$####%==%%%======%==%%%%%%@%###%%%%%%%%%%%=======",
"%%%%%.%%#%%%%%%==--==#%%%%%%=%%=%%%$#$%%====%=%#@####%$#%%===%=%",
"%=%==%==##%%%#%======%O##%%%%####%%%##%%====%%%#@@###@#####%%%%%",
"%%%%%%====%%===%===============%%$%%=====%=======%%%%====%%%%==%",
"%%%%%%=========================%=%=======%%===%%%%%%%==-==%=%=%%",
"...Oo+++#########+#++#@++O+++@+O+Ooo++O+#+++Oo+++o+++++@++++o+Xo",
"%@%###%%%%%====%%=%$=%#%%%%%$%$%=%$#%%%%%======%%%######%###$%%%",
"%%#%#%%%%####%========%%%%==%%%%%%%%%##%%-=-===%%%%%%%%%%%%$%=%%",
"====#%%%######%%===========%%==%=%=%%##%%======%%%%%%%%%=%%%===%",
"====%%%%#######%%###@####%%%%%%%%%%%%%####%#%###=%%%%%#%%%%%%%%%",
"=====%%%$#####%@==--======% ++++@@+@+#=$$%%%%%%==##OO@OO++#+@++O",
"%%%===%%%%%%##@%==-===========%%%%%%%$%%%========%%===%=========",
"##%%%%######@o%=======%=======%%%%%%%%%&%==%=====%%=%%%=========",
"%====%%%%%%%%=======%%======%=%%%%%=%=%===%%%====%%=%%==========",
"%%===%%%%%%%##%===%%%%%=======%%%%%=====%%%%%=======%%%=======%%",
"%%%%%%%%%%#%==#%===%%%======%==%%%%====@%%%%%=.==%%==%+=======%%",
"%%%%%%%#%%#%%###%%%=%%O%====%==%%======##%%%%+%==%%%==@======%%$",
"%%%%%%######%%%#@#####%%%%%%%%%%%%%%%%%%.O####%%%%%%%%O%%%%%%%##",
"#%%%%%%%%%%%####%####%%#%%%###%%%%%%%%%%%#%%%##%%%%#O# ##%%%%##%",
"%===*======%===-=-============--%=%===%==%%%----=%%=--=%=-==-=%%",
"%%=====%=========-========-===============%===-=====--=%====-==%",
"#%%====%%=====-=====%================================-=%=====%=%",
"#%%%%%%%%%%%%=======%====%=%======%%=========%===============%%%",
"#%##%## +########o====%%%######%%%%%%%%=%=%==%@%%%%%%%%%%%#@####",
"##%%%%######%%%%%%@###%%##%%%%%%%%%%%%%=%##%#.%#%%%%%=%%%%%%####",
"%%%%%%%%%%%%%=====%%%==%%%%%%%%=%===%%====#%$==$%=====%==%%%%%%%",
"%%===%%=%%%%%=======%%=%%%%%%%%%%=%%%=========%%$%%======%=%%%%%",
"%%===%%%%%===========%%$%%%%%%=====%======%=====%%%===%=%%%%%%%%",
"%%==%==%%============%&$$%%%=======%======%==============%%%%%%%",
"oooo ==#.Oooo.+oo======%$$o.oXoo.ooooX%=%%%%====%ooXX..#=#.X..Xo",
"%%%==========%%%=%%=%====%====%=%=======%%%%=================%%=",
"%=========%%%%%%%$%%%%========%====%==%==%===============%=====%",
"=========%%=%%==%%%%%%%%=====%%==================%==%===========",
"%%======%%=%====%%%%%%%%================%====%%=====%===========",
"%%=%=#%%%%======%%%%%%%%%%%%======%==========%======%===%%======",
"%=%==#%%%%==%%=%%==%%%%%%%=====%=======%%%=%%%=%===%@%=========="
};
