/* XPM */
static char *texture__28_1724505263[] = {
/* columns rows colors chars-per-pixel */
"64 64 20 1 ",
"  c #090A14",
". c #10141F",
"X c #151D28",
"o c #241527",
"O c #341C27",
"+ c #19332D",
"@ c #202E37",
"# c #411D31",
"$ c #4D2B32",
"% c #402751",
"& c #394A50",
"* c #7A4841",
"= c #577277",
"- c #AD7757",
"; c #819796",
": c #A8B5B2",
"> c #D7B594",
", c #E7D5B3",
"< c #A4DDDB",
"1 c #EBEDE9",
/* pixels */
"&&&&&&&&&$&=oO&&&&=====&===o:&&&&====;1*$ ==::::::::: ::;=;=;;::",
"=&&&&&&&&OO=@$&&&======&=;;O:&&&&====;1=& *o::::::::: ;O====;=:<",
"=&&&&&&&&O&=O&=&&====&$==:*o=;&&&&==;1&$o ;:&:::::::: ,==*==;&::",
"=&&==&&&&O&=.&=&====&&==O&*  &=&&&&=:&=$;; ::&::::::: 1;===;;=::",
"==&&&&&&&#&=O&=&===&&==.=&$>&.@&&=====o*@.; ::&:::::: 1=====;;:<",
";=&=&&=&&O==@&=&==&*==.= o.@=&...ooo=o=&@. & ::=::11: ,==$&&=;:<",
"=&&&&$O=&O=;@&=+=&&== =.&&@.@=&o.....;&&=&@.%.::;:::: :&;::=X=:<",
"@oO$OO=&$&=;@&=&$&== =.&==&@oO&==;;;.$&====&.X.::::::X:o;&:;&ooo",
"========&;=;&&=$==; = &&===&& ;===;;* ===;==&.@.;1@::&:X;-:;;:::",
"XXXXXXXXX.=;&&.$== =.&&=====& ;===;;;====;;;;&.@.;,<1.:@.oOoOO@o",
"==*=,;::* =;&@ &&.=.&&======= :==;;;;===;;;;;;& @:::1&;&$&&&;111",
";=&&==;;===;&$.O = &&====&=== ===;;;;====;=;;;=O&OX:1@:@;;;;::::",
"  .O@ =*=;&;&Oo=$O;.&&&&&O*== .&&&&& &=====;;==;;;=;:@;@;;;;   .",
"=====OX&&==;$&OO =&::&.O&=&&&&&&&&&&;-=$===;;=o::;::;X=@&=&X$=;;",
"==$&=&&&& =;&&:+&=&&;&&$O.&&===;;;;;;;;====;;oo:::;:=X;$====;;::",
"==&===&&= =;&&:O&=&=:&&&&&======;;;;;;;:&==;; @:;:;::.:==;;;;;::",
";========o=:$&:o&===<&&&$=======;;;;;;;;1$*== O:::; : :=;;;;=;::",
":=;======O=:$&=X&===:$&O&========;;;;;;;;1&== O1::= :@;*;===;;::",
";========#==@&=X&===:;;O&========;;;;;;;;:<<:<,:::= :&:=;*;==;::",
":========$=.=&=O&===:=;@1&========;;;;;;:::<<<<;::; :@;;==;==;:<",
":;=======$=&=&=o&===;  .&&========;;;;;;::;..X.=::= :@;;=====;::",
":=====&==$;&=.=o==&=.. .==========;;;;;;:&.oooo;;:= o ;;=====;:<",
":;====&==$;&&=&@&=&&&$@ O&&========;;;;;&;O==&$;;:==;&:======;:<",
":;=======O=&&==@@=&&&&$@..&XXXXXooX+X+@@=&====@&;:=O:@:;;====;:<",
";===&=&&=$=&&==&@=@&&&&&O.OOooooooooOOoO ====&O=;.=;:&;;*===;;::",
";==&&&O&&$=&&==&=;&&&&&&&$@@@@@@@o@o.O@.&====$@;:::::&=*====;:::",
";==&& @==:&oO==&&;=&&&&&&&&&&$OOOOOoo$&&======@=::;== &@====;=::",
";;== &=&==& &&&&&&&&=&&&&&&&$&=;;;;;1*&======&o&;;;;X=;&====;;::",
"OoO@@@&====.&&=OO=&O=;&&&&$$&=&===;;;1*&*===&&*&;==@;=;&=:,O=;:<",
"==&&&===&@= &&==&@=&=&;&&&O===&====;;:1*&=&&$&&:=;o::==o&;;=&;::",
"@@@@@oXXX = $==&&=X=X=&=$$.1&&&======;1=&&$&$&;=;o;::=;O*O&&&O$$",
"&&&$&**&&&& @&;&=&=.OO=$&O.1&&&&&====;<=$$&&&;==X;;;:&=o======::",
"===&=&&=$;&;@&&&&&&=$.&.Oo&:&&&&======:;$;&=;==X;;;;;o=oO&&&&$X@",
"o.    O&$&&;&@&&&&&&=o&O:O@:&&&&=======;;*$ &=@;;;;;=o=XoooOO&$*",
";===&$O@&.=;&@&&&&&&&=O&$OX1&&&&&&====;=&$oo=X;;;;;;;o=&$&==;;::",
";==&&&$&&o==@@&&&&&&&&=o&=.1&&&&&=====;=;$O;.;;;;;;;;@;;$$* ....",
";&==&&&O&.=&@X&$&&&&&&=&o&.1$&&&&=====;=$=&X:;;;;;;;=O=; XX$=;;:",
";==&&&&&&o&;&.@:&&&&&&&& & :&$&&&&====;$..===;;;;;;&;.=;$&&==;::",
";===&&&&&o&;&=X@&&&&&&=& &O@@&&$$&&&==@&$&;=;;;;;;&;OO==*&===;;:",
";===&&&&&O&=$&;oo:O&&=&& &@$$O@$$&&&&@@@&@;=;;===;=@=@=;=$====;:",
";===&&&&&$$&&&&&. :&&&&& @@@oOo&@&@@@oX$&o;:;;;;=&@=:X=$=&====;:",
"====&&&&&&&=$&&&=. ;&&&= &OO.X        $.&@o.==$=&$:$=.=&**====;:",
"===&&&&&&&==&&&&&X$o;&=@@Oo$&&@@@@@@@&&&.o===&@O&;o==.=&=======;",
"====&&&&&$==@&&&&;&.&&&&&@&&&&&&&&&&&&&&&@@.:*X;;;&==.&========;",
"====&&&&&&&=@&&&&;$.$&&&&&&&&&&&&&&&&&&=&&&&&&@;;;&==o=&&&&&&=;;",
"==&&&&&&&@&=@$&$&;@.$&&&&&&&&=&&&&&&&&&=&&&&&&@==;;=*.&&=&&&==;;",
"=&&&&&&@@O&&@&@&&&;o&&&&&&&&&&=.Oo&o.&====&&&&o=;=;=&$&&$$&&==;;",
"@o@@@@@@;=&&$&@&O=&;$&&&&&&&&&&$&=&==&&&&&&&&&O;;O=X=o&@$$$$@&&&",
";======&O&&&@X&&&,@&:&&&&&&&&&&&&&&&&&&&&&&&&&o=@O;== &o&$O**;;;",
"@&&&@&&&&@&&@&@&&&:O&:&&&&&&&&&&&&&&&&&&&&&&&@&&O;=;;O&X.$O$$$$$",
"oXX.... .&O&$&&=&&&:O&;$&&&&&&&&&&&&&&&&&&&$O&@.;==;=.&o@@@.  $@",
"=&====;:;=&&@&&&=&&&:O@;.OoOOOOOOO$OO$OOOOoO&$ ;== == &o1,,;===&",
".....X&&&&&&@&&&&& &&:.@&&&&&&&=====&&======&O==== == &@O&&&. @@",
"&&&&&$@X. &&@&&&&&&.&&:O&&&&XXX&=;;;;X@o@&&&$=&&===== &@.X..&&=;",
"=&&&&&&&&&&&$&&&&&&=.&&;O$&&&&=&&&=&&&&&&O&&=&=&====& &&&&&&&==;",
"=&&&&&&&&o$&&&&&&&&&=.&&.&&&&&&&&&&&&&&&&.==&&$====== &&&&&&&&=;",
"=&&&&&&&&O$&&&&$&&&&&= @@& =&&&&&&&&&&==&&&&&====;1=& &&&&&&====",
"=&&&&&&&&O$&&&&&@&&&&&&&&oO.&.X.XXX.oX@@&@@.&====X&=& &&&&&&&==;",
"&&&&&&&&&O$&$&&&&&&&&&&;&=OO@@@$&=;;*O@$$$O&========& &&&&&&&&==",
"&&&&&&&&&&&=@&&&&&&&&&&&;;:O@O&;&&&$=&$&$O&========== &&&&&&&&==",
"&&&&&&$$&&$&$@&@&&&&&&&&&@$=o$=&&&&&&:&$$&=O=======@$ $&&$&&&&==",
"&&&&&& &==@&@@&&@&&&&&&&&&&&.O&$&&$O&&&OO&&&========= @o; ..&&==",
"&&&&&.&$&&&:O&&&&&&&&&&&&&&&oO&&&&&&$&&O.&&&=====@&=&o@1=&&&&&&=",
"&&&&&&&@O.&<O$&$&&&&&&&&&&=&.O&&&&&&&&&Oo&=&&&&&&&&&&.==@&$&&&&="
};
