/* XPM */
static char *texture__27_1724505263[] = {
/* columns rows colors chars-per-pixel */
"64 64 15 1 ",
"  c #090A14",
". c #341C27",
"X c #202E37",
"o c #394A50",
"O c #577277",
"+ c #819796",
"@ c #7A4841",
"# c #10141F",
"$ c #241527",
"% c #A8B5B2",
"& c #4D2B32",
"* c #151D28",
"= c #19332D",
"- c #E7D5B3",
"; c #411D31",
/* pixels */
"  .X.oooOOOOOOOOOOOOOoOOOOO+Oo+O@OoO+OOOOOoOOOOOOOOOOOOOooo.X.  ",
"#X$o..@OOOOOOOOO.ooOOoOoOO+OOO OO+OOO+OOoOoOOoo.OOOOOOOOO@..o$X#",
"X$oo+OOOO++O+++%+oOOOOOOOOO++O$OOOO++OOOOOOOOOo+%+++O++OOOO+oo$X",
".oo+OXoOooOoo+++%oOOOooOOoooo@.+++@ooooOOooOOOo%+++ooOooOoXO+oo.",
"X&OOo         .+O&Oo         .o$O+.         oO&O+.         oOO&X",
"ooOo #$#ooo&oO#&O$o #XXOOoO%O..$#&.O%OoOOXX# o$O&#Oo&ooo#$# oOoo",
"oo+$   *@OOoo&. O..$Xo&.*XO%+&Xoo&&+%OX*.&oX$..O .&ooOO@*   $+oo",
"ooO&#oo$+OOOo+o$O.@#X&&ooo+%+&.oo&&+%+ooo&&X#@.O$o+oOOO+$oo#&Ooo",
"ooOo#oO.OOOOO+o$O$@=ooOOOO+%+.+o&..+%+OOOOoo=@$O$o+OOOOO.Oo#oOoo",
"oooo$oO.+OOOOOO.O$&XOOOOOo+%+.oo&o.+%+oOOOOOX&$O.OOOOOO+.Oo$oooo",
"ooOo$.X#+OOOoOO.O.@.oOOOOo+%+&o$o&&+%+oOOOOo.@.O.OOoOOO+#X.$oOoo",
"ooOo$&&X+OOO@OO.O$&XoOOOOo+%+oOoO&o+%+oOOOOoX&$O.OO@OOO+X&&$oOoo",
"ooOo#oO.+OOOOOO.+#@XoOOOOo++O&OoO&&O++oOOOOoX@#+.OOOOOO+.Oo#oOoo",
"ooO.#oo.OOOOOoO.+#@XOOOOOoO+O&ooO&&O+OoOOOOOX@#+.OoOOOOO.oo#.Ooo",
"ooO&#oO.+OOOOOO$+$&XoOOOOoO+O&OoO&&O+OoOOOOoX&$+$OOOOOO+.Oo#&Ooo",
"o+O&#oO.OOOOOOOXO.O.oOOOOoO+O.oXO&.O+OoOOOOo.O.OXOOOOOOO.Oo#&O+o",
"oX+o$oO.+*OOooOXOoO.oOOOooO+O&oOO&&O+OooOOOo.OoOXOooOO*+.Oo$o+Xo",
"oooo#ooXOO.ooOOX@#oXoOOOOoO+O&OOO&&O+OoOOOOoXo#@XOOoo.OOXoo#oooo",
"ooOOO$&ooooo&&&+O.OXoOOOOoO+O&OoOo&O+OoOOOOoXO.O+&&&ooooo&$OOOoo",
"ooOOOoooooOOO@o&.&@XoOOO$OOOO&ooo@&OOOO$OOOoX@&.&o@OOOoooooOOOoo",
"o&OOo&oO@OOo&.Ooo.ooO+++OOOOOXoOo&XOOOOO+++Ooo.ooO.&oOO@Oo&oOO&o",
"ooooooOOOOOO#OOOo.. ##$.XOOOO.Xoo&.OOOOX.$## ..oOOO#OOOOOOoooooo",
"ooo&oooOoooooo&o@@O#Xo..$&@O+.Ooo..+O@&$..oX#O@@o&ooooooOooo&ooo",
"oXoOOOOO@Oo++OOO++o$oOoOooOO@&@oo&&@OOooOoOo$o++OOO++oO@OOOOOoXo",
"oXo+oOOOoOo++OOOOOo.oOoo&&OO&&o.o&&&OO&&ooOo.oOOOOO++oOoOOOo+oXo",
"ooo **$$.X XX$.XX.$$oOoo.*Ooo&+OO.&ooO*.ooOo$$.XX.$XX X.$$** ooo",
"ooo$XXXXXX$XX#&$*&&.oo&ooo.$O&%++&&O$.ooo&oo.&&*$&#XX$XXXXXX$ooo",
"ooOoooOoooooooO@o.&@OoO@++++OO++OOOO++++@OoO@&.o@OoooooooOoooOoo",
"ooOooooooooOOOO@o$OO@o@OOOOO.OOOOOO.OOOOO@o@OO$o@OOOOooooooooOoo",
"ooOooooooooOooO&o$ooo&&o&ooo.$oo.&$.ooo&o&&ooo$o&OooOooooooooOoo",
"ooO&oooooo&Ooo@&o.o*##*#                #*##*o.o&@ooO&oooooo&Ooo",
"ooO&ooo&oooOoOo&@.oXooooOOOOoOOOo$OoOOOOooooXo.@&oOoOooo&ooo&Ooo",
"o&OoooooooOOoo@.o$oXo@OX# ## $o&X.$ ## #XO@oXo$o.@ooOOoooooooO&o",
"ooo&&ooo.X$$.oo..$.++++OooOO@OO@OOO@OOooO++++.$..oo.$$X.ooo&&ooo",
"ooo@&$++oOOOOOo.&#$XX..XoOooo.ooOo.oooOoX..XX$#&.oOOOOOo++$&@ooo",
"ooooo ooXoooooo.@$.$XXX#####    ##  #####XXX$.$@.ooooooXoo ooooo",
"o&oXXo.X.ooooo&$o.&.ooo&XoX ##&$  ## XoX&ooo.&.o$&ooooo.X.oXXo&o",
"oooOOo%+oOOOOoo$o.&XoooXoOo#.oo$oOo.#oOoXoooX&.o$ooOOOOo+%oOOooo",
"o&o&&X&&Xooo&o&.o.&$X#XOooo#.oXoOOo.#oooOX#X$&.o.&o&oooX&&X&&o&o",
"..o..$.$$..X&oo.o.oX&. oooO$oo$OOOoo$Oooo .&Xo.o.oo&X..$$.$..o..",
"..oo&&o&&oo#X#&&o .#ooOo $O#@o$OOOo@#O$ oOoo#. o&&#X#oo&&o&&oo..",
"ooo#.OoOOOOOOOooX.&XooOoooO#&OXOOOO&#OoooOooX&.XooOOOOOOOoO.#ooo",
"oooo$........X& o.&$ooooooo#&OXOOOO&#ooooooo$&.o &X........$oooo",
"o*oooooOOOOOO++oo.oX+++$ooO &o$OOOo& Ooo$+++Xo.oo++OOOOOOooooo*o",
"&XoooooOOOOOOOOoo.&XoOO+ oO.oo$OOOoo.Oo +OOoX&.ooOOOOOOOOoooooX&",
"o#ooooooO&oOOOOo&#&XoOOOOoO#&o$OOoo&#OoOOOOoX&#&oOOOOo&Ooooooo#o",
"oXo&ooooooooO+o&&&O.&&ooooo#&&*Ooo&&#ooooo&&.O&&&o+Ooooooooo&oXo",
"oo&##$#$.....X&o&&o%%%-oooo#&o$oooo&#oooo-%%%o&&o&X.....$#$##&oo",
"o&&&    ### # &o&&&oooooooo#&o$oOoo&#oooooooo&&&o& # ###    &&&o",
"o&&o .X#XXX$&Xo#&$&#$#OooXo#oo$oOOoo#oXooO#$#&$&#oX&$XXX#X. o&&o",
"XXoo#oo$&&oXooo$&$&XoXO&&.o#&o$oOoo&#o.&&OXoX&$&$oooXo&&$oo#ooXX",
"&Xo&#oo.&oo&ooo.&$oXoXO+++++Oo$ooooO+++++OXoXo$&.ooo&oo&.oo#&oX&",
"&oo&#oo$oooXOooo $&=o$*$*##$Xo$ooooX$##*$*$o=&$ oooOXooo$oo#&oo&",
"X&oX oo$ooooOo&oo#.XooXX&.$ #o$oooo# $.&XXooX.#oo&oOoooo$oo Xo&X",
"$XoX$oo$Ooooooooo$&XoooooXo#.o#oooo.#oXoooooX&$ooooooooO$oo$XoX$",
"..o&#oo*ooooOoooo$&XoooooXo#&o$oooo&#oXoooooX&$ooooOoooo*oo#&o..",
".Xo.#X&*&oooooooo$&.ooooo.O+Oo#&oooO+O.ooooo.&$oooooooo&*&X#.oX.",
"XXoOXo&$oooXoo&oo#&$XX.XXXooo$o...$oooXXX.XX$&#oo&ooXooo$&oXOoXX",
"&XXoOX.XoooXoX@oX$&oOOo+$Ooo..oooO..ooO$+oOOo&$Xo@XoXoooX.XOoXX&",
"XX&o&-OOOOOOOOoo.#;oO+.+.Oo&oO@OOOOo&oO.+.+Oo;#.ooOOOOOOOO-&o&XX",
".oXXXOooo.&&&&&.Xo&ooo$O$ooooooOooooooo$O$ooo&oX.&&&&&.oooOXXXo.",
"o.&& #*####*##$$&&*$*#*#*####*###**####*#*#*$*&&$$##*####*# &&.o",
" @XX&      $##$#. ..$$$.$.$$*$$ $$$*$$.$.$$$.. .#$##$      &XX@ ",
"  @XXX..$.&.X.X&&&&&&&&&&ooo&&.&&&&&ooo&&&&&&&&&&X.X.&.$..XXX@  "
};
