/* XPM */
static char *texture__31_1724505263[] = {
/* columns rows colors chars-per-pixel */
"64 64 34 1 ",
"  c #4D2B32",
". c #AD7757",
"X c #090A14",
"o c #7A4841",
"O c #819796",
"+ c #241527",
"@ c #341C27",
"# c #577277",
"$ c #394A50",
"% c #202E37",
"& c #5B4960",
"* c #735C60",
"= c #BCA195",
"- c #9CCBDE",
"; c #917979",
": c #7AA3AC",
"> c #F0E7D9",
", c #547D83",
"< c #D7B594",
"1 c #C09473",
"2 c #C2E9FF",
"3 c #2E4649",
"4 c #A8B5B2",
"5 c #10141F",
"6 c black",
"7 c #151D28",
"8 c #E3CFB6",
"9 c #3C5E62",
"0 c #E7D5B3",
"q c #19332D",
"w c #FFFFFD",
"e c #46856E",
"r c #845E77",
"t c #DFFFFF",
/* pixels */
" .XoO+o.@@+o.#.$+@@@@%o&**=-;;*:>*&&,::&+o  @%%+$ o<1@o$oOo++1@%",
"1.o.11O1.ooo1o#+@%%@ $@*&&:;*;*&*:**;23=oo$%   @+#+   #.O411<<1O",
"oXX5XXX55555@5X5 $$@$ o6:*=:;=***&***;;;      @@5oX@5X5XXX55X455",
"oXX++XX+XXX +@<+X@@@@5@**6*:****;&*;;**&+o @  @@X$@.$+@5+@XXX4XX",
"o+5 <@@1+5X  1<+557555@3336:;8&&9*&;,,**@.@%%@@@5# .o%+  7o750 %",
"#@ $1o@1+5X  o< ++@++5 :;;*=*=;&=,&=,>;,%<   $$ +# 4o@o$o0.751$$",
"#O#@1@#.o1o. .< oo oo@@;:;8==8==>8;2-8=8.<.# o#. 4 4O o  <#o+.oo",
"5XX$#X$o5XX@@ <55@5555@&366&6666=66&66635oX5++++5oX#$+ @o15XXO5X",
"@5Xo1X .++5o@o<@5575XX &&9*=*&93;&633;335 X5X5755#X#o5#5#< 5Xo@%",
"@+5 OX+1@+5o oO+%@@+++<,,,=-:,*&-,9,*3*&+o7++@%%7o5O# $@o$$5X# %",
"@@5$17 . +5o o1 %%%%%$.,,,=-:*,&=,9,;**,%o%%%@%%5oX#$+ @o15XXO5X",
"@@5$47 1@@5.@.O5@%%% +.,,*:=:*,*-,&:&;;; o %%%+@5#X#o5#5#< 5Xo@%",
"@@5o47$< @7. O1@@@%%@@.,,*=:=*,;-,&;,,:*@o   %%++o5O# $@o$$5X# %",
"@+7$17$1@+7o .1@@+@@@@#,,*=:;*,*2,&&,;=*@o %%%%+5<@Oo@o@ Oo5X. %",
"@@7o17$4@+5o oo5@++@%@#,,*==;;,*:,,,,*:*@#  %% %5<+#$% @@1o7X.  ",
"@@7 .+$1@@5 +#.++@%%%@.,,*=-;*,&=;&,,*;; .    %%+.@#o@ + <o+X.  ",
"@@7 o7 O@+5  oO5q@%@%%.,,*=-;,,9;*9*,*;*@o%   %%+o@#$%   Oo7X. %",
"@@++X @.@+@  oO@%@@%%@#,,,=-***&;,9*;;;*@o%%%%%%+o+o$@ 5 1o5Xo  ",
"oo..<1<<1<<.oo# @@@  @@&*&&;&;*&;==::;:; <   o@ <O+# @ 5 .o+X.  ",
" 5+55XX5+5X5+5 @.Oo oXo**&3&===63&&**&,97155+5XX@ X@+X5X57555o+@",
"5X5o#X5$XXX  oo5@@@@5XX33&;36**6;66&3*36X.555555X +# 5+@# @+X.55",
"XXXoOX@. +5@oo@ 77+5+7$**3:=*666;93*&***@1  @%@+51@. Xo .1o@XO@@",
"755$.5@$@75ooo1@X+7++5o*&&:-;;33=&*=*:635.@++@+@+.@# + @ .@XXOo+",
"++5$#@@<@75 oo1+@@@@+5$&**=>;=&9=,&*,;*&+1+%%+@+@o@o@@ $ 1 5XO +",
"+++o#@X.++5 oo1 @+@@+5+:,*=:;;*&,,&,*:;971@%%@++5@@#$@o  . 55. @",
"==88w>ww>ww8==-;***;;***,*:=*;,*,;&e,;;9;w;;;=*;w2&-;*;3;8=&68;;",
";3&33663&363&3;*82=;=6=*&=::;;,&**9,*;;&9>33&366*;6*&63639333=&*",
"363=-63:666;;==3****366&*&&;;=*&=,&****:683333336;&-;3&*-;*&6833",
"666=26*8;&3*==*;99&3&9:&*3=-;;**=&**&*-&*>;;*,*&3>*8;6=;8>=*62**",
"933:83*:*93===>*6&9&&3=&**-**3r*=*&*&:;*38*&&*&*&8*-;&;*;8*662=&",
"&&3:-**w*93;==>&****&3:=-8-2288>8=8>8--8&>&,,&*&*=*=**;:;>;362;&",
"&&&=-*68&&3;==>;*&**&3&-====8>=8>>w>>>>>9>*,,*&&3**-:*=;;8;338;*",
"&9*:=&;w&&3;;=:33&*&&9&:*=:==8=8-8>--8-=98*,,,*&6=**=*=;;8;3*8;,",
"&&&=8*;w*&3=;=;&3&9&**=666;3&6&6&3&36&*3&:*,,,,*&=3=;&==;8;3&=;,",
"&&3;8*;>*&3===-&&&&&&&=336*3*333;3;33:;&:8,:*,,,&-&8:&&;;=;&6;,,",
"&&9;:3;8&&3=*;-*,**&&&=&9&;3;**&=9=&9&;9&8,*&,;*&8*==;*3;=;**:,,",
"&33;=:;8*&3=*=-&*&***&=*9&:;;:&&=&-&33*&*8,,,,*&&=&=;*=6*8;*&**,",
"-=2-82===8==-w2-8>>8888&&e==*;;&8&8&&&;&88=8888=*w=2-2>8===8&;;8",
":82>w>;>w2t28>>>>>>>>88===8===*-=:8=-==->8>>8wtt-88=w>t>2w8>>>;=",
"*;----6=:e*;;-::;==;;;==:;===:;-;2822-:2==8--=2;;**:=;;-*;*=-:3=",
"XXX #X o55XO+ #+555X55o3666633*6;68*36=*@XX5X555XoX@ 5XX@$@X5oX5",
"55X@#X$o+5X@@#.55+7+++#&&3&*;33&=98&33-*@7+77+775#Xo$++X+oo55++5",
"555$oX5 $55  ..5++++++o&9&;*;&33=&;&&3-*@5++++++X.+$o+@5+o XX @+",
"+75$oX@o+55@$ .X7++++7o&&9:*:333=9-:&9-; +++++++X#+  7+5@#$5X @+",
"775$ 5%#5%5@5@o@+7@++5o&&9=***33=&:3*9:; +++++++5O+  7@5@oo5X@++",
"755$oX@#55X+@ $X++ @+5o&&&=&;&3&=983&&:; +++++++5#5$$@ + # 5X+++",
"o @$o@@o$ $o@ooOOOO# $o;;=;=;*;;;*:;:*==o oo$o  @# .o@   oo @.oo",
"@oX$@@5X$$o$$.#@@@@#o#$&333&3339336336*35X+55X55+$@o#@o ooo@@ @@",
"XXX@XXX5XXXX55+XXXX5XX%336636666*6;366;35XXX7XXXX@X+5XXX55XXX55X",
"XXX #X555XX@7 oXX55555@33336633333=336;*@5555555X X@ XXXX++XX$+5",
"XXX%#X $5XX@+o.5575555o&336*3;33*3=&33;*@+777+75XoXo+5+5@$ XXo5X",
"XX+$o5 $XXXo@$.5+77775o6333**633*9;*99;; +++++775#X  5 5Xo+55$+5",
"755+@5@#55Xo $#5777775o3363***&&*9=3&9;; ++++++55o@ @5@5+$+5X$55",
"55X5#X5#5XX 5$.5+77575o3333***33=3=*33;; ++++7 5X$@$ 5++5o 5X$+7",
"555 #X5#55Xo5o#X@57775$9933*;&33=6;333*&+@@@57+75o@  @ 5@#@5Xo+7",
"55X $X5 X Xoooo+55@755o3&33&*333=3:333;=o55+777+5o@$ 5 5 # 5@o@+",
"##o@#$+# o$.oo.o###.#. 8--8>=8---8=--888.#1OO#OOO.o.o##  #  Xo.o",
"@5X oX@.%$$ +@$75$ ooo#==;*;:-=-82>;;**; $$  $$$##+ o+55@o@XXo55",
"55X+$XX XXX@X+%5X5XXXX+336363336;663333&+5555555X5X5+X5X@  XX@XX",
"55X@oX+#XXX$+  5XX5XXX@333*;3336;36333*; 55555555+X @5+5@o XX$55",
"55X o5+o@5Xo o$+555555o333*:3333=33333;=o55555555@X @5@5@# 5X#55",
"555@oX@#+5Xo $@@555555o333*;&333=33333;:$55557555 5 @55X@# 5X$57",
"555@oX5$555  $ X5X5555o333*=&333;33933;; 5575555Xo5 @5o5@$+5X%75",
"555@o5+#+5X$@ooX55X555o333;=3333=33&33:; 5755555XoX$$57X@o 5X757"
};
