/* XPM */
static char *texture__19_1724505261[] = {
/* columns rows colors chars-per-pixel */
"64 64 15 1 ",
"  c #090A14",
". c #10141F",
"X c #151D28",
"o c #241527",
"O c #341C27",
"+ c #202E37",
"@ c #4D2B32",
"# c #394A50",
"$ c #7A4841",
"% c #577277",
"& c #AD7757",
"* c #C09473",
"= c #819796",
"- c #A8B5B2",
"; c #E7D5B3",
/* pixels */
"%%%%+==---------====%%=%%@@%%%%%#$%%%%%%%%%=------------===##%#%",
"%%%%#=---=------====$%%%%%%%%%%%%=====%%%%%---=-**---===%%=%#%%%",
"#@##+-----===---*-==#%%@######@#####@###@%%=----==-----====#####",
"%%%%====----=-----=====%%%%%=%%%%%%%%%#%%=%=----------===%$#%%%%",
"=====%-==----------======%%%=======%%======----------===========",
"====%=-----=------====-==###=-======%======;--------===%%%==---=",
"======----==-----==%=========%%%===========----==------=========",
"========-================%==========%%===%%====-==========%%%===",
"#####+OOooOOOOOooooo#######################OOOooooooOooooO######",
".........oXooooo.....o.... ...XooXo..XXo. ....XoooooXooo......X.",
"#@@#+oOooOOOOOOOOOOo@OoOO.ooo++++@#####++.oooooOO+OOOOOoo.oo+##+",
"@@###++oO++O++++++Oo@@.ooo@++#+++@###@@@oo+ooO+++++O+++OO.+++O@+",
"==%%#++oOO+O+++@@@Oo##@@+@#@+@$$%%%%%%%%%O+oO+@@@++++++OO.+#%%%%",
"----$+OO@@##@######O$$######@-==----*-=-=oOO@#####@#@@@@Oo@%---=",
"===%%@#@#$%%%%%%%##O%%###$%#$-=%=&=**=%=%+#O#%%%%%%%$$$##o#=--==",
"=--=%##@$%%%%%$%%$#+%=%%%%%$#%=&======%==O#O#%%%%%%%%%%%#o%====-",
"@@==%##@%%%%$%%%=%%@===%%%%%#$%&.o@O@O=-=O#O#$%==%%%%%%%#O%====O",
"==-==##@%%%%%%%%%#$@===$%%%$$=%%=%&=%%---+#@#$$&=%&%&%%$$O%====*",
"%%$=%#%O#%%%%$%%$##O===%%%%%$=@=#%#%#$==-#%oO##%%%%%%%#@Oo%==%=%",
"=====#%#%%%===%==%%@===%$%%$%===--*======#%O$%%%%%%%=%$$#O====--",
"=====###%%========%@%=%%%%%#=-==--====%==##O#%=====%==%%%+%=--=-",
"===%%##@%%%=======%#%%%$=%%#%===--=======##O#%=========%%+%=----",
"===%%###%%%%===%%%%#%%$$=%#%%===--=======@#@#%%%%%%%%%%%%O%==-==",
"====%###%%%%%%%%%%%#%%$%%%%#%=-=-========@#@#%%%%%%%%%%%$O%====-",
"====%##@%%%%%%%%%%%@%%%$%%%#%==$-=&==%===+###%%%$%%%%%%$$O$===%=",
"%%%%%##@$%%%%%%%%%$@$$%$%%$$%==%=====%===@###$%%%%$%%%%%$O#=====",
"%%%%%@#+#$$%$$$$#$#@$###$$$%%%=%===%%$%==@####$$$$#$%%%##o#===%%",
"%$%$%+@+######$$###+#####$#%%%%%==$$%==&&+#+@###$$#######o#%=&$=",
"####@++o@####@###@#O#####$O#$%%===%%%%%%$O@O@###$#####@@@o#$%%$%",
"@#@@#++;;;--;-----%O########%&=%====%%%%%O+O@@######@@@@O.@#$$$$",
"@@@@@o------=-=--==#O+@#####%%%%%$$$%$#%$o+OOO+@@@@@@OOOO.+##$##",
";;-------------=--==%o+@@+@@##$$$$$#$##@#o++=---;;----;-%.+@@#@#",
"++@#===--==--------=%%+OoooO+#@@#######@@.O@----===-=====#O@@@@@",
"###=@==------=-----=%-=;;;;;;;;-;;;;-;;----=-----=-------;;;---;",
"%##%#=-------------==%=######+#O++@@++@#O=%==-----------===%####",
"%%%##==--------==--=%==@@#@@#####@@#@#@@==%=-=----=---*==%=%O#@#",
"=%=%#=----=-===*--==#==%%%$%@@%%%%%%$%%%%%%----=---===*=%==####%",
"####@===--==------==#====%===%%===%=%%%%%%%-----=-------===#%=%=",
"%%%%==---=--------====%%%%%%%%#%%%%%%%%%%##==--==-=----=-=%%%%%%",
"=%%%==---=-==---=*====%=%%%%%%%========================--=%=====",
"==%%==---=-=%=================================%=-===-===========",
"==%%%=--===--===-=-%==%==%%%=====%=%%%==%%=========--===-=%%====",
"%%%%%####@#######@@@%%%%%%%%%%%%%%%%%%%%%##@@#@########@##%%%%%%",
"X...... ..Ooooo.......oo.XoOoX.........X.....Oooooooo.X.........",
"+@@OooOoOOOOOOO+OOOoOo#+.Oooo+Xo+++##@@+@oO.oOOO++OO+OOOo.oOOO++",
"#@@@O+@oO+++++++++Oo+O#@oXo.++o#####%#%#Oo+oO++@@+++++++OX++++++",
"###@@+@OO@@@@@@@@@+o+O%$##@###+O####%#%$%o@O+@@@@@@@@@++O.+$@###",
"--==##@O@@@@@@@@@@@o#+%$######O--=--==---+@+@#@#######O@+.#%--=-",
"====%#@O$%$$%%%%$$#O#@$%%%%#%##-%$%%%%===+#@#$%%$$$$$$###o%-=-=%",
"##==$##+%%%%%%%%%%%O##=====%%%#=%%%###-==@###$%%==%%%%%%#.%====#",
"=-==%##O%%====&%%%%O%#=====%%$#=-------==@###$%%==%%%%%%#O%%====",
"%%==%#%o$%%%%%%%%$#o%@====%%%##--%%&==-==+#@@##%%%%%%%$%@O%===%%",
"====%##O#$%%%%%%%%$+%+==%=%%%$%=----=%==%@#@#@#%%%%%%%%%#o%===--",
"=====###%%%====%%%%#%@&===%%%%%=========%@###%%===%%%%%%$O%=====",
"=====###%%%%===%%%%##+===%%%#%%-=====%-==#@@#%%%%%%%%%%%%+#=-===",
"===&%##@%%%%=%=%%%%@%+%==%%%%#%--==-=--==+###%%%%%%%%%%%$O%=====",
"====%##@%%%%%%%%%%$@#+&==%%$%#%-=-=====-=####%%%%%%%%%%%#O%=====",
"=====##@%%%%%%%%%%$@#+%===%%##%======%===@###$%%%%%%%%%%#O%%====",
"===%%##@$%%%%%%%%%$@#+%%%=%###%======%===@O###$$$%$$$$$$#O#%==%=",
"%%%%=@#O#####$$$$$#@++%%%%%###%==%===%&==+@O@############O@%%%%%",
"%%%%%@@O###########@@O$%%$####%%%%%=%%%%%O@O@#####@#####@.@%%%%%",
"%%%#$+@+==%----=--#O@o$$####@@#%$%$%%$$#$O+OO===--====%=@.@#$#$$",
"$$$#$++==---===--=-#@o$####@+@##$$$$%#$##o+O=%--=--===%-%+@####$",
"####%O===--====-=-==#o#####++@@#######@##.+-%=--=---===--%+@@#@#"
};
