/* XPM */
static char *texture__23_1724505262[] = {
/* columns rows colors chars-per-pixel */
"64 64 19 1 ",
"  c #4D2B32",
". c #241527",
"X c #10141F",
"o c #341C27",
"O c #394A50",
"+ c #202E37",
"@ c #577277",
"# c #7A4841",
"$ c #151D28",
"% c #819796",
"& c #090A14",
"* c #A8B5B2",
"= c #D7B594",
"- c #AD7757",
"; c #19332D",
": c #EBEDE9",
"> c #E7D5B3",
", c #C09473",
"< c #602C2C",
/* pixels */
" .XoO.OOO o+@o@OO@@O## O @ @@Oo .XoO.OOO o+@o@OO@@O## O @ @@Oo@.",
"o$X @OOOOO @@O@O@@@O@@OOO@@%@@#o$X @OOOOO @@O@O@@@O@@OOO@@%@@#@o",
" Xo& #O#O#@O& OO.O +oO+X&&&XX&O Xo& #O#O#@O& OO.O +oO+X&&&XX&OO&",
" .. oXoo.o @O@@O@@@ +%@.o.O O#@ .. oXoo.o @O@@O@@@ +%@.o.O O#@@.",
"@OXOO OOO+@O#%@OOOOO+%o  . OOO@@OXOO OOO+@O#%@OOOOO+%o  . OOO@@o",
"O+& @*ooo.O #@@O+.ooO= O  o+o.OO+& @*ooo.O #@@O+.ooO= O  o+o.O@ ",
"%oXOO-OOOO  @%@O@@O. * O  @%%O@%oXOO-OOOO  @%@O@@O. * O  @%%O@@ ",
"@ &OO+  ooO @%@O+++o *OOOo OOX%@ &OO+  ooO @%@O+++o *OOOo OOX%%O",
"O & @; O +oO#@@O@@#X *@OOXOO@ %O & @; O +oO#@@O@@#X *@OOXOO@ %%O",
".+& @XO@@O #@%@OO+@o %O # OOOo@.+& @XO@@O #@%@OO+@o %O # OOOo@%@",
"XX&O%&OOOoO#@@@@OOOo@#OO@ O@@o@XX&O%&OOOoO#@@@@OOOo@#OO@ O@@o@%O",
"O+& %Xoo+o  %#O@OOO O@OO#..o++@O+& %Xoo+o  %#O@OOO O@OO#..o++@@O",
"+..O*OOOO @O#@OOO .&o@OOOoOOO @+..O*OOOO @O#@OOO .&o@OOOoOOO @@O",
"OX&O@ O%@OoO%@@OOOO .%@ O oO#+OOX&O@ O%@OoO%@@OOOO .%@ O oO#+O@O",
"++$oOO O+.+O@@@OOO+X.:@OO@ OOoO++$oOO O+.+O@@@OOO+X.:@OO@ OOoO%O",
"OOXO% +O oOO@@%OOOO +>O OO+OOooOOXO% +O oOO@@%OOOO +>O OO+OOoo@O",
"+ X %OoO &%O@@ Oo++o@> oO+ O . + X %OoO &%O@@ Oo++o@> oO+ O . #O",
"O Xo%OOOOO@O%@@#OOO @*  O&OOO@@O Xo%OOOOO@O%@@#OOO @*  O&OOO@@@O",
"+o& %O@@%OO@%O@OO@OO@>OoOX@@%@ +o& %O@@%OO@%O@OO@OO@>OoOX@@%@ %O",
"++X#@O..oX %%@@OoooXO> o#&+OO+ ++X#@O..oX %%@@OoooXO> o#&+OO+ % ",
"Oo& %#OOOOo@#O@O o+oO*OoO.++Oo+Oo& %#OOOOo@#O@O o+oO*OoO.++Oo+OO",
".o&O#ooooX+%%O@ o+   , .Oo+OO+ .o&O#ooooX+%%O@ o+   , .Oo+OO+ @ ",
"O &o# OO#@O#@OO  OO @%O.O@#@O# O &o# OO#@O#@OO  OO @%O.O@#@O# @ ",
" $&.XX..o.oooOO<OOooo.o..X.oo O $&.XX..o.oooOO<OOooo.o..X.oo O@o",
"++.&o.+ o&oOOOO+ oo$+o&+Ooo+o. ++.&o.+ o&oOOOO+ oo$+o&+Ooo+o. O&",
".o&O#@.+++O#% O+    +OOO+ooO O@.o&O#@.+++O#% O+    +OOO+ooO O@O&",
"O+XO@@o+ o@@%OOOOOO  @OOoo...o#O+XO@@o+ o@@%OOOOOO  @OOoo...o#O.",
"O@XO@%O@O  #%O@OOO+oO@   @@@O@#O@XO@%O@O  #%O@OOO+oO@   @@@O@#@o",
".O. %%ooo.oO@O@O@OOo#@OoOO +oo@.O. %%ooo.oO@O@O@OOo#@OoOO +oo@O+",
"+ & @@O@@OO#@#OOoX.X#%O O#OOO O+ & @@O@@OO#@#OOoX.X#%O O#OOO O@+",
".+. @@o.&&@ @@XOOO   @O+OO+OO++.+. @@o.&&@ @@XOOO   @O+OO+OO++@O",
"%oX %%O@O+ o##OOO++o@@Oo o OOo+%oX %%O@O+ o##OOO++o@@Oo o OOo+@ ",
"@+. %OOOOO#O@#@O..oo#@OoO#OOOOO@+. %OOOOO#O@#@O..oo#@OoO#OOOOO@ ",
"+o.O% oOOO  @#@OO O+ @O.OOOOO# +o.O% oOOO  @#@OO O+ @O.OOOOO# @O",
".X& @OOOOOO O@OO  OOO@ oO@OO@o#.X& @OOOOOO O@OO  OOO@ oO@OO@o#@ ",
"o.X  OOOOOO##@OOO@OOO# +O@@@@%@o.X  OOOOOO##@OOO@OOO# +O@@@@%@#+",
"O.&&X...XXXX. &o..XXX.XX.oX..X+O.&&X...XXXX. &o..XXX.XX.oX..X+O&",
"+o++oo  o+ + . oooo+..oXoo  o.o+o++oo  o+ + . oooo+..oXoo  o.o +",
".O o+O++ oO  OO@O@#OO*%o#OOO##@.O o+O++ oO  OO@O@#OO*%o#OOO##@@.",
"+OX OO@@O   OOO@OO oo%@o &.oo. +OX OO@@O   OOO@OO oo%@o &.oo. @o",
" O&o@ooo..o @OOOOO +@%@o o  + o O&o@ooo..o @OOOOO +@%@o o  + o@+",
".O& O#o+o.#O#OOO..o #@@+Oooo.&..O& O#o+o.#O#OOO..o #@@+Oooo.&.@o",
"oo& @OOOOOOO#OOO oo.O#O O. OOO.oo& @OOOOOOO#OOO oo.O#O O. OOO. o",
" +X @+o+oo O@OOOO  + % . +@@O X +X @+o+oo O@OOOO  + % . +@@O XO+",
"O+& @+o+ oO OOOOo++&O@O.O.X+o& O+& @+o+ oO OOOOo++&O@O.O.X+o& O+",
".+& @+ O++ OOOO ...X #ooOo  +.O.+& @+ O++ OOOO ...X #ooOo  +.O# ",
"oo& OOo +  o#OOO @O  @O @ooo+. oo& OOo +  o#OOO @O  @O @ooo+. #+",
"Xo&oOOOO@O+o@OO .o+ooO o o+  ..Xo&oOOOO@O+o@OO .o+ooO o o+  ..O.",
"OO&oo +  .Oo#OO o  +oOo     O  OO&oo +  .Oo#OO o  +oOo     O  O+",
"$ X o....XX.#O o  Ooo@ OOoO O+ $ X o....XX.#O o  Ooo@ OOoO O+ Oo",
"@+&Xo +OO++o oO O OOoO oXoOO##O@+&Xo +OO++o oO O OOoO oXoOO##O o",
".+.&&ooooooo    o+ o. o..X.Xo. .+.&&ooooooo    o+ o. o..X.Xo. O&",
"..o.o..ooo.ooOO+  o oOooo    Oo..o.o..ooo.ooOO+  o oOooo    Oo X",
" o.oOOOOOOOOO O OO OO%    OO O  o.oOOOOOOOOO O OO OO%    OO O Oo",
"Oo.+O oo   + o +OOOoo%OOoo+++o Oo.+O oo   + o +OOOoo%OOoo+++o O+",
"X$.oO+.XX.oo    OOO+ # Ooo.+oO.X$.oO+.XX.oo    OOO+ # Ooo.+oO.#+",
".X.Xo$+++ooo.+O+.XX&oO Oo..o+&o.X.Xo$+++ooo.+O+.XX&oO Oo..o+&oOo",
"..&X Xo.XXoo.oOoo+o.+#  .XXXXXO..&X Xo.XXoo.oOoo+o.+#  .XXXXXO .",
"oo&XOooo..oo + +++o. @o..&.  o oo&XOooo..oo + +++o. @o..&.  o  .",
".o.X o+ +.+oOOO OOO+ Ooooo$XoX .o.X o+ +.+oOOO OOO+ Ooooo$XoX  X",
"&o.. X.  oX  OOooO +o .o.X&&XX&&o.. X.  oX  OOooO +o .o.X&&XX& X",
".+XXX&&Xoo. O OO OO &OO.+oo   +.+XXX&&Xoo. O OO OO &OO.+oo   +OX",
"o o& ..+  OO  O   O  O@O OOOOO o o& ..+  OO  O   O  O@O OOOOO Oo",
"XoX+OX&.o.O@O . oo+o@o  . OOOO+XoX+OX&.o.O@O . oo+o@o  . OOOO+O&"
};
