/* XPM */
static char *texture__14_1724505260[] = {
/* columns rows colors chars-per-pixel */
"64 64 13 1 ",
"  c #090A14",
". c #10141F",
"X c #151D28",
"o c #241527",
"O c #341C27",
"+ c #19332D",
"@ c #202E37",
"# c #4D2B32",
"$ c #394A50",
"% c #577277",
"& c #819796",
"* c #A8B5B2",
"= c #A4DDDB",
/* pixels */
"%&%%&&%%.&& &&&&&&&&&&%%@O%%&%&&&&&%&%&&.&&%&&&&$%.&$X&%& %&%&%&",
"%&%%&&%%.%& &&&&&&&&&&%%@@%%&%&&&&&%&%&& $&%&&&&%%.&$.&$&.&&&&%&",
"%&%%%%%%X&& &&&&&&&&&&%%o@%%&%&&%&&%&$&& %&%&%&%$$X&$X&%&%%&&%%&",
"%&%&&&%%X&& &&&&&&&&%&%%@@%%&%&&&&&&%@&& %&%&&&%%%$&$X&%&&%&&%%&",
"%&&****&X&&.&&&&&&&&%$$%@@%%&%&&&&&&%$&& $%&&&&&&&&$$.&%&&%&&%&&",
"%%&&&&&&X%$@$$$%%%%$$XX$o@%%&%&&&&&&%%&& @$@@@@@@$@@$X&%&&%&&%%&",
"%%%&&&&&.&&.%&&&&&&&&&%%@@%%&%&&&&&&%%&&. **=****&*$$.&%&*&&&&%&",
"%&&&&&&&X&&$%&&&&&&&&&%%@@%%&%&&&&&%%%&&.&&@$%%%%%%&$.&%&&%&&&%&",
"%&&&&&&&X&&@%&&&&&&&&&%%@@%%&%&&&&&&%$&% &&%&&&&&&$&$X&%&&%&&&&%",
"%&&&&&&&X&& .&&&&&&&&$@%@@%&&%%%%%&&%$&& &&&&&&&&%%&$.&%&&%&&%&%",
"%&&&&&&&X&&.@&&&&&&&%&%%@X%%$&&&&&&&%$&& &&%&&&&&%$&$.&&%&&&&%&%",
"%&&&&&&&.&& @&&&&&&&&%%%@X%@@%%%&&%%%$&& &&&&&&&&%$&$.%%&%%&&&&&",
"%&&&&&&&.   &&&&&&&&&&%%@@%@%%$@@@$%%$&& &&%&&&&&%$&$X&@ . .X&&%",
".@@.@XX%.&%@&&&&&&&&&&%%@@%$%&%%%%%%%$&& &&$ ...@$X%$X&$&&&&&%&%",
"$%%%%%%$.&& &%%&&&&&&&%%@@$$%&%&%&&&%$&& &&&&&&&%&&&$X&$&&&&&&%&",
"%&&&&&&$.&& &&&&&&&&&&%%@@$$$%%&&&%&%$&& &&&&&&&%%&&$o&$&&&&&&%%",
"%&&&&&&%X&& &&&&&&&&&%%Xo%$%$&&&&&&&%$&& &&.X@@$@$%&$.&$&&&&&&%%",
"&&&&&&&%X&& %&&&&&&&&&%@@%%%$&&&&&&&%$&& %&%&&&&&&%&$X&$&&&&&&%&",
"%%%%%&&%.&& %&&&&&&&&&%$$%%%%%%&&&&&%%&& $&%&&&&&%%&$X&$&&&&&&%&",
"$$$$$$$$  X %%&&&&&&&&&@$%$%%&%&&&&&%%&& &&%&&&&&&%&$X&$&&&&&&%o",
"$$$@$@@@ && %&&&&&&&&&&&&&*$$%%&%&%&%$&&.%&%&&&&&%%&$Xo@&&&&&&&&",
"@@@@@@+.@&& %&&&&&&&&%&&&&%&&%%%$$&&&%&&.&&%&&&&&%$&$@$%%%%%%%%%",
"..X.oo@o$%% %%%%%&%%%%%%%%$%%%%%%%%%%$&&.&&%&&&&&%$&$@@$$@o@X@@@",
"%%%%%%&&@$%%&&&&&&&%&&&&&%%%%%%%%%%%%%%@X&&%&&&&&%$&$$X@@@@@@@@@",
"&&&&&&*%@%XXXX.XXXXX.XXXXXXXXXXXX.XXXXo.o&&&&&&&&%$&$$@@Xo@@o@@@",
"%%$oo@&%@%$  @@@@@@@@@@@@@@@@@@@@@@@@Xoo@%&&&&&&&%$&$$&&&&&&&&&&",
"%%$%%$&%@%$ X$%$$$%%%$$$$$$$$$$%$$%%%%%@@%&&&&&&%%$&$X$%%%$$$$$%",
"&&&&&%&%@$$$$@@XoXoXX@o@@@@@@@@@@@@@@@@X@%%@$$$$$$$&$@&&&&&&%%%%",
"&&&&&%&%@$@...XXXX@@XXXX@@oX@@ooX@@@@@+@@%%$%%%%%%&&$@%&&%%&%&%$",
"&&&%&%&%@&&&&%&%%&%&%%%&@@%%%%%%%%%%%%%%O%&%&&&&&&%&$X&%%%&&&&%$",
"&&&%&%&%@&&%%%%$%%%%%$%%@@%%%%&&&&&&%&%%@%&%&&&&&&&&$o%%&%%&%%%%",
"&&&%&%&%o%&.&&&&&&&&%%%%@@%%@$##$$$$@@&&@%&%&&&&&&%&$X%%&X%%%%%$",
"&&&%&%&%o%% &&&&&&&&&&&%@@%%%&&&***&&&&%@$%%&&&&&&%&$.%%&&&&&&&%",
"&%&%&%&%X&& &&&&&&&&&&%%@@$$X@$$@@$$$@%%@$&%&%&&&&%&$X%%&%&&&&&%",
"&&&%&%&%X&% &&&&&&&&&&%%@@%$$@%$%%%%$$%%@$%$%%%%%%%$$X%$&%&&&&%%",
"&&&%%%&%X&% %&&&&&&&&%%$@@%%$$%%&&%%%$%&@@&@@@@@@$@@$X%$&@$$$$$%",
"&&&%&%&%X%%.%&&&&&&&&%%$@@$%%%%%&&&%%$%%@X%&&&%&%%&&$X%$&$&&&%%%",
"&%&%&%&%X&% %&&&%&&&&%%%@@$%%$%%%&&%%$%&@X@@@@@@@@@@$X%$&$&&&%%%",
"&%&%%%&%o&%.%&&&&&&&&%%%@@%%@@%$%%%%%@%%@@%$$$$.$$$$$X%$&$&&&%%%",
"&&%%%%%%@%%X%&&&%&&&%%$%@@$%%&%%%%%%%$&%@$&&&&&&&&&%$X%$&$&&&%%%",
"&%%%&%%%@%%@%%&%%%&%%%$%@@$$%%$%%%%$$$%%@$%%%%%%%%%%$.%$&$%&&&%%",
"&%%%%%%%@%%.%&&&&&&%%%$%@@$$%&%%%$$$ .%%@$%%%%%%$$X%$X%$&$&&&%%%",
"&%%%%%%%@%% %%&&&&&&%%%%@@$$%%$%&&&%%$%%@$&%&&&&%$@%$.%$&$%%%&%%",
"%%%%%%%&@%% %%%&%&%&%%%%@@$$%&$%%%%%%$%%@@&%&&&&%%@%$X%$&$&&&&%%",
"%%%%&%%&@%%.%%%%&%%%%%%%@@$$%%$%%%%%$$%%@@%%&&%%%$@%$X.@&@%%&&%%",
"%%%%&%%%o.. %%%%%%$%$ $%X@$$%%$%%%%%%$%%@@%%%%%%$$@%$X%$%$%&&%$%",
"$%%%%%%%@&%.%%%%&%&&%&%$XX$$%% XXX..   O@o%**&&****@$X%$%$%%%$$%",
"%%%%&%%%@%%.%%%%%%%&%%%$Xo$$%%$%%%%%%$%%@@%%%%$$%%%%$X%$$%%%%$$%",
"%%%%&%%%@%% %%%%%&%&&%%$X@$$%%$%%%%$$X.@@%%%%%&&%%$%$X%$$%%%%%$%",
"%%%%%%%%o%%.%%%%%%%%%%%$o@$$%%$$%$$%$$$%O%%%%&%&&%$%$X%&%%%%%%%%",
"%%%%%%%%o%% %%%%%%%%%%%$X@$$%%$%%%%%%$%%X%%%%&%&&%$%@X%%$$$$%%$$",
"%%%%&%%%@&% %%%%%%&%%%$%@@$$%%$%%%%%%$%%o%%%%%%%%%$%@X.. .......",
"%%%%&%%%o%% %%%%%%%%%%$$@o$$%%$%%%$$$$$%X$%%%%%%%%%%@@@X.X......",
"%%%%%$%%@%% %%%%%%%%%%%$@@%%%%%$$$$$$%@& $&$%%$%$X$%@@$%%%%%%%%%",
"%%%%%&%%@%%.%%%%%%%%%%$%@@%@@$$$$$$$$$@%.$%%&&&&%$$%@@%$%$$$$$$$",
"%%%%%%&%@%%.%%%%%%%%%%%%oO%%&&&%%%%%%%%%.$%%%%%%%$$%@X$&&%$$%%%%",
"%%%%%%%%@%% %%%%%%%%%%@%@@.@@@@$$@$$$$$@.$%$$$$$$$o%$.%%%%%%%&%%",
"%%%%%%%%@%&.&&&&&&&&%*%%@@X....... ....XX$%%%%%%%%#%@X%$&%%%%%%%",
"%%%%%%%%@%%.%%%%%%%%%%$%@@%%$$%$%%%$$$%&X%%%%&&%%%$%@X%%&%%%%%%%",
"%%%%%%%%@%% %%%%%%%%%%$%@@%@@@@@@@$@@.%%X$%%%%%%%%@%@X%%&%%%%%%%",
"%%%%%%$$@%% %%%%%%%%%%$%@$%@$$$$$$$$$o%%.$%%%%%%%%%&@.%%&%%%%%%%",
"$$$%%%@.X%% %%%%%%%%%%$%O$%@%%%%%%%%%$%%.$%$%%%%$@$%@X%%&$%%%%%&",
"$$$$%%$$ %%+%%%%%%%%%%$%@o%$%@%$$$$%%$%%.%&%&%%%$$$%@.%%%o%&%%%%",
"$%%%%%$$ %%@%%%%%&%%%%$%O@%$%$%%%%%%%%%% $%%%%%%%$@%@.%%%o%&&%%%"
};
