/* XPM */
static char *texture__33_1724505264[] = {
/* columns rows colors chars-per-pixel */
"64 64 13 1 ",
"  c #232038",
". c #4E3063",
"X c #1A242B",
"o c #0E1913",
"O c #222145",
"+ c #7734A7",
"@ c #432878",
"# c #842F8A",
"$ c #AE40D0",
"% c #DB42D4",
"& c #BF30B1",
"* c #3C2F51",
"= c #DF45C4",
/* pixels */
"   . .    X  XXoO .  .....+++......   X@...@.  .  X..   ....   .",
"   Xo   .X     XX  X ..  .@. .O... o  Xo.  . X  .    . ... XX  .",
"... ooX......O  ..Xo ...  ...@.   oXX  o  ..   ..    .. X.@X    ",
"OO.... ...+++@..#.  ..   ....  .  o  X X ..  X @...@@@  ...     ",
"+ ...... @+$@....+..  ...+. ....       X @+    .++.+@@#@ ... ...",
"+. ..Xo..+$++.@+...    +.  ..@. o   ..  @@+X .....@@.#+. .@...  ",
"o$ @+.o .+++. ....OXX..#.O. .    o ...oo.+#+... #++@@@+.  +.O. @",
".# +...O..+@+. .... X+@@+....o  .X.@.X ...+. @#.. .@+@.. .......",
"...@ . ...#++...$+   .@...+..   ....+@..  .....@@@#+  ... ...+ O",
".... ...@. .....+.. ... ....@. ..@+. .   #. .. @.@+.  ......... ",
"  .@..@...+@+...+. .O...@..... . .+..   X. .+. .+.+++.... .....#",
".@++.@@.+.+$$++ #..#.. .@....  #+.@.......@#@...+.$%$$+#@.#.....",
"@$&$# @@+X+$&++ #..+@@ @+++.+. ++.$. .+#@@+$#@.#+ +$$$.#.#.+++@.",
"@$$+#... ..$#++  .@#.##$+++.@@.##......+++$+++.++X.+++. .##+++#+",
"+$+#..o .@ @@#   + ##++$+@..++@++++....+.++%#.++  .#. ..  .+++++",
"$$+#... + ....O.X . @@+++.#.+++##.@ .#.++++$@.#+. . ...$ ..@@++@",
"++@+.    ... ..   #X@o#+@.#@++@+. @   .++. #.+++  @ .   ...@+#..",
"@+#++.............@ . ++++++++.+X..  ..++#.@@#$+.... X  ...+.+$@",
"++++@.#   ..@+#...+  X .@++@@.#o.     ++++++@+$++..@ . O...#+#$$",
"#++@# . .@++#.+#@..@@@+++$%$$#. .+....@+$++$+$%+$$.+.@ .@...&$#$",
"+$@...@.+$+.+@.@....+@..@@+++++@%.....+...$+++@+.++@.$$+.+ . .++",
"#$$X  .   . .......... .. .++.+@+.@.......@.........@. . # @..#+",
"+++....@.....@....+........@++.++#+.+@#...... .....+...@.. .. ..",
".+....X .#. ....@@.   ....@ @@+$++$$++.#.  .X .... ...@.X.  .O  ",
".....+ o.#....  .... .   ...+#++%++..... .   .@.  ...@. ....  @.",
".....#..#+......Xo  ... O..@$+.#$++$.. ... X   XX.@.......@@.. .",
".@..++..@+....## .   ..@@.@$+. ..#+#.    .   oXX.##@.....#@@ ..#",
". . @#. .+#...@+ ..+...+..++........  X ..#X oo.@....+@...@..@..",
"@+. ..@...... . . ...@+@..@@@... .  .   #+$     .@ .....@.@#++#+",
".@ +@   ...... . ....@@#..#.......  . .o...@. ..X  ...@...+@.+#+",
".#     ..  ...@..+##.@+++...@.... oX. + .....+..o  . ... .+.#+ .",
" @. XX. .....++ .#.+ ...@@.....@.  X .......@..    .   ..+ +#@#X",
"...  Xo  . . ...#+@. .....@#.........#+...@++@. oXX  X  .+ + .+.",
" .X     . .....$+#.  ..@@@.@..#.@....++@@@+%$+#.    .. .XX  ... ",
". X X   . .O    #@  .. ....@@...  @$.@+@...@+.@..  o .  XX.  .. ",
"..  X o   o  .  X. O Xo.....#.    ...@..#..+@.....    . ...   . ",
".@.  XX     .   X  X.   ....@. o   . .......#+. ..      X       ",
" ...  X.......        ....+..       ..  . ..@. ....X  ..  X X.. ",
"..@..   .....O   #.............       XX ....#@++++@..     XX   ",
"$ .#@... .#+#+++.@...@. ......  XX   X  #+ ....@#.++@++.  ..@ . ",
"+  ... .@#+##++#@@+ .#........   . .... +..o......++@@@# ...@O  ",
"+$  @+ X.++#@.#+...@+.@.++#. oo  .....o .@+ .... #++@.@. o@@. X ",
"+$ ..#. .++++.+++....+ .++... XXX.....X.#@# .#...++@@@+...+.O ..",
" ..+ ... .#.#@..@#.. +O+++ ..  . ......  .... ##.@+.@.... . ... ",
"o@.. ...@.##@...++.@. ... .+.@@$.@@@  ..*..   .+@@++.@@@.....@  ",
"  .#.....+++++@.+@...O@. @..@++++.  X+X  . .@ .+#.#...@@......#.",
". .#.@+...$%&$+.+..  .O #++ ..#+++..O... ..#@. .+ +@+++..#.... .",
".+$$@++#+.+$$++##....  ..$+.+#$$$+...+@+@.#=+@..+.#$$%++.+#.++..",
"+%$+##+# ..++++.+@#@+.###+ +++$$$+..@+.++$%%$...+.@$$+@ #+@+++++",
"+$$+@.   ..+@.. ##@+##++@#+$@++$$.....+++$$%...++.@#@..OX .+++++",
"$$++@.. +. ..+@ .+@..++@...+.+++++....+$$%%+...+ ...   +. ..++$$",
"++@#@...............@++o@@....+.+@.@@.. #++++.@+ ..  ..@ @..@.+@",
".##$+.. ..@.. . X..##++ @X ..#++@++.. ....+.@@@.X. .. . *X..$++.",
"+$$@#.@O.#.+...  .+++#.X@ ....++++++..@...  .+@....@#.......++++",
"$%+$+... @.+@...  @.++##... ...$%$$+@++@ o.........#.#+. ..+@&$$",
"@.@#@++. +#+++++.. .++$++@....+@#+@##+++@##++@...@+@+@+X.++ +++&",
"@@++ +++ .++$$$++...@+&+...+ .+++..#+++%+++++#....+$+.# @+.@#+.@",
"@.# .....+$#$$$+$++@+++#.....#..#+++$$=$$$$++#+@+$$$+.+#+..@.@++",
"..+...++++@@O..+#$%$++.......#..###.$$@...++$+$+$....@.+++#...@.",
"  +....+.......@.++#.@.... ....@++..@@....#...++@+.@..@.+..$#.. ",
" .++ .....#. ..@+$+.++@........@.@....@..@....+++@.@.@@.....+.. ",
"...... . ........@.++#..@...@...@..... .@+@@...+....++......@@@.",
"...  .@o. . ... ....+++#......@#...+. ..#@#.... ....... .@@ . .@",
"+......  o.     ....#+.@.....  .. #+ X .+$# ...        o.    ..."
};
