/* XPM */
static char *texture__13_1724505260[] = {
/* columns rows colors chars-per-pixel */
"64 64 17 1 ",
"  c #090A14",
". c #10141F",
"X c #151D28",
"o c #241527",
"O c #341C27",
"+ c #19332D",
"@ c #202E37",
"# c #4D2B32",
"$ c #394A50",
"% c #7A4841",
"& c #577277",
"* c #AD7757",
"= c #C09473",
"- c #819796",
"; c #A8B5B2",
": c #D7B594",
"> c #E7D5B3",
/* pixels */
"#O%##$&&**&&&&&&**&--XO##$@  @-&&&&&%$$$$$$$$@@@@@$$$$$#&$ #$$O#",
"----$$O#&&-&-*&&&&&&&o-&-----&%%&&&&&&-&&&&&&&&%%$-&--&-&#&-&---",
"--;--&@O$%&&&%&&&&&%&%&%%%%%%%&&&&%%%%%%%%&&&&%&&&&%%%&%%;;#----",
";--;--@Xo#$$&&&&&&&&&&&&-&&&&&&&&&&%%&&&&$&&&&&&--&&&&%&O;;$;---",
"------X. XoOOOOOOOOOOooOOoOo... o##$$#O..           .    >;O-&--",
"------@ X+$$%%%$%%$%$%$%%$%$$$$O%$#O&&&--------------&@Oo>-$---&",
"------@XX$%#$%%$%%%%%$%%%&%$&%$O$OO-%$%#$$$$%%%#$$$-&#$Oo>-#--&&",
"-----&X.@$$&&&*--&&&&&&&-&&&$&OO%O;-&&&&&--&$O>-&-&----$o>*$&---",
"----&$XX@$-&&*-----&-&--&&&%&&OO$O---&*&&&&&.o;&&&*----&.:-$--&&",
"----&$XXO&*&--=----&*--*-*&&&&$O&O---*&-&&&&.X;--&&----$.:&.&&&&",
"%%%$%O.oO**--------*-----&&&&&O@&O---*--*-&&.X;-*-&----$.&&#$$$$",
"     .X$&*-&------------&&&&&-$O&#--&&-----&.o;-&--&--&$.O      ",
"&&&&O #%&**-------------&&&&&&#O&#-&*------&.o;&---&&&&&..%&&&&&",
"-----$@%&**---------*--*&&&&&&#O&O&--------&Xo;&&-&&&&&&.:----=-",
"&&---@X#&&*------&----*-&&&&%%#O&o---------&.o;--&-&&&&$.;---&&&",
"---*-@X#&&-------------&&&&&%%OO&O-----*---&.o;--&&&&&&$.:------",
"-----@X$&&&--------&--&O##$&&%$o&O----*&&--&.+;--&&&&&&$ :------",
"&---&@X$%&&-&&--&-*&-&-%$%%%$##$&o--&---&-O&.o-&&&&&-#O+ ;----&&",
"---&&.X$&&&&&&*----&%O$%#$%%%OO&&$ $$##$###.oO $$$##O#o O=---&&-",
"     XO##%%%O@ooo.  .OO#####$o&&&$$#@@O@O@@Oo.OOO@@@@@@oOo      ",
"@##$$$%&&&&&&&%%%.O$&&&&&%&%&%&&&&%$$#####$$##$$$$$$$$$#$$$$##@#",
"#$$$$$$$$%%&&%%&&$$#$##$%$$$$$$$$$$$$$$$$$#$#$##$$#$$$$$$$%$%$$#",
";;;;;-;;;;;;;-;;;;;;;-;-;%;;$>>>;;;;;;>;;;;;--$&;;;;;;;;;;;;;;;;",
"--;--&-------&-----------&--O::;&--------&&&&$X$----------------",
"--------&&*--%&------------&#::=&&&------&&$&$@@%---&------&&---",
"-----&-o#OoO-&---------;-&-&O::=#.     &&&$$&$Xo$---------*&---*",
"-----&--=--==%---------;-&-&O:&;O-------#$&@&$@X$---&&----**----",
"-----%- ..  -%---------;-&--O:;;#&------@@$@$$XX$&-&&-----*&----",
"-----&*------$---------;-&-&O;==#&------.@$+$$@X$&&%&--&--**-*--",
"..oOO OOO#### #$#O$o####. &&#:==O$&-----o$$+$$@X@O$#O####OOoOoOO",
"-&---%*&&&***#*---*-&**-&&$&#:=:@&&*----@&$o$$@X@&&**&%%%$-&&--*",
"##O@#O####$$$$#@#$$#$###%&&&O;;;O-*&----@$@@&$@X@#$$$$####O$####",
"ooOOO##O##$$$$$$$$$$####$$&#o;--.---&&&&@$@X$$@.@$$$$#$$$@.ooooo",
".      .$&&&&&&&&&&&&&&&%%%OO:%&$&&&&&&%O@@X$$@.#$&&&&&&&O...   ",
"----=---@#&$%&&&&&&%&&&&%o&Oo;%%%&&&&%&%###@$$@.$$&&&&&%&%.;----",
"--------+ #&&-&&&&&&&&&&%o&OO;&##&&#@@O$%$$@$$@.#$%&&&&&&&#&----",
"-*&-----X  $&&&&&%&&&&&%O#&$O;&%%&&$#@O@@@@X$$@ $$&&&&&&&-O-----",
"--------@.X@$##$$$$$$##$#&#&#;%%&&*&&%%&&%%$$$@ $%&&&&&&&-O-----",
"------*&@X+$&&&&&&&&&&&&&&*$o=*%&---&&&&&&&$$$@ $%&&&&&&&&#-*---",
"&-----&&@Xo#%#$%$%%$%%%&&&&*&%O#---&--&&&&$$@@X $$$##$$$&&O-&&--",
"%%%%%##@ ..OooXooOo.OOOo .%&&$$#... . .  . .  .  .  .......%$%$$",
"-&&@  O@#%%%-&----&$&&&&-&&%*&%o$$$####OO@#@@@#$$-&&--&---------",
"-&&@.$$#%%#&*--*---&$%###$&$$&%O;-&$$$$$$&&&$$$o;;;;;;;;;;;o&---",
"-&&@XX&&---&*-----&--&&%%%$&%&#o-%---------&&@$#--.-------- &---",
"*#%+.$%*--**-----&&**&&%%%&&%&OO=-&&$%%%%%%$$@@O;----------.&---",
"*%&@X$&&-&&-----*&--&&-&&&&&%&oO;-%%$%%%%%%$$@oX;---&------.&**&",
"-%&@X#&&*&-------*--&&&&&&&&%&#o;-####$####@$@oX;--------O-.&**-",
"-&&@X$&&&**----------*&&&&%%%&OO=-%%%%%&%%%@$@O.;----------.&---",
"-&&@.#&&&*----------&&&&&%%%%&oO;-$%%%%%%%%@#@O.;----------.&*-*",
"%O&@.#%&&&&------*----&&%%$#O%@O=-#%%%%%%$$@$Xo.;-----&----.O$%%",
"--&@X$%&*-*--------*---&%&Oo#.OO--#####OOOO#$Xo.-----------.&-*-",
"---@.$%&&*&*------&&-$&&&$&-#X@OO*&&--&&&&$#OXX.------&---%.&--=",
"&-&@       O&&*--*&&o####%&*# #.&%O+oo..X....O@#&-----&--&%.&-*&",
".o$&&&&&---@    .  o&&-&&&$$#@#&&&$###@OOOOoo@OOOOoooXo .Oo  ..X",
"$$$&%$$$&&$$.&&&&&&&&&%$O#OO#$&-&&%$$$$$$O#@#$$$$$$###@@$$O$$$$#",
"%@;;;;;;;;;--;;;;;;;-&-O-----O;;;:;;::;;;;;;-&$o&$%%$$$%$O&.%&%&",
"&@;------&--&------&&@$#----&#=----------&&&$$@.&&-&&&&%$&o&&&&&",
"&@:&&----&----------&$##*---&.---*&%&%&%&$$#@$@ &&&&&&&&%- &-&&&",
"&@;**&&&*&&&&&&&&&&&-@@O--&-&o=----&--&-&&%$$$@ $%&&&&&&%-.&&---",
"-@;--&*-&------------@@o&O+&&o==-**-----&&&$$$$.@&&*&&-*&# %&&&&",
"&@;-&---&&&*-------&&@@o-OO&&o;=-------&&$&.$@@ $&&--&--&& &&&&&",
"*@;---&-&-&&--*--*-&&o@O&##%%o-----&&-&%$##.o$@ $#$$$$$-&& &&&&&",
"&@;&****&&&*&-*-&&-*&X$o*%%%&.-==&&-----&&%X$$@ $&--&&&&&& %&&&&",
"&@:&*&**&&&&&&&&&&&&&@#o%&&&$o==-&&&--&&&%%o$&$ @&&&&&&&&& $&&&&"
};
