/* XPM */
static char *texture__38_1724505264[] = {
/* columns rows colors chars-per-pixel */
"64 64 14 1 ",
"  c #090A14",
". c #241527",
"X c #341C27",
"o c #411D31",
"O c #4D2B32",
"+ c #602C2C",
"@ c #7A4841",
"# c #A53030",
"$ c #884B2B",
"% c #BE772C",
"& c #CF573C",
"* c #AD7757",
"= c #DA863E",
"- c #C09473",
/* pixels */
"++++$$$$$$$$$$$++$$$$$$$$$$$$$+$$$$+$$+$$$$$$$$%%$$$$$$+$$$$$$$+",
"$$$+$$$$%$$$$$$+$$$$$$$$$$$$$$X$$$$$$$$$$$$$$$%%$$$$$$$$X$$$$$$$",
"++X+XX+$+X++XX++$+$$+++++$+$$X+$$$$++$X+XXo+$$$%%$$$$$$$+XX+++++",
"$$$$$$$$$+$$$$$$$+X+++$$$$$$$$XX+$.$+$+++$$$$$%%$$$++++$+X+XX++$",
"$$$$$$$$$$$$$$$$$$++X++$$$$$$$+OX+$$$$$$$$$$$%%$$$$++++$$+++++$*",
"$$$$$$$$$$$$$$$$$$$++$$$$$$$$$$$+$$$$$$$$$$$$$$$++$+++$$$$$$$$$%",
"%$$$$$$$$$$$$$$$$$$$$$$$%$$$$$$$$$$$$$$$$$$$$$$$+$$$$$$$$$$$$$$%",
"%$$$$$$$$$%%&$%%%%$$$$%%%$$$$$$$$$$$$$$$$$$$$$$$$$$$$$$$$$$$$$%%",
"%%$$%%%$$$$$$$%%%%%$$%%%$$$$$$$$$$$$$$$$$$$$$$$$$$$$$$$$$$$$$$%*",
"%%$%%%%$$$$$$$$$*%%%%%%%$$$$$$$$$$$$$$$$$$$$$$$$$$$++$$%%%%%$%%*",
"%$$%%%%$$$$$$%$$%===**-*%%$%$$$$$$$$$$$$$$$$$$$$++$$$$*%*%==****",
"%$$%%%%%$$$$$$$%****%$**-**%$$$$$$$$$$$$$$$$$$$$$$+$$%%%%**%*$**",
"$$$$%%%%$$$$$$$%*%$$%%*****%%%$$+$$$$$$$$$$+++++$$$$$%%*%*$%%***",
"*$*%%%$%$$$%%%%%%%$$$$%*$*$$$$$$$$$$$$$$$$$$++++++$+$$%$$%%%%*$$",
"***%%%%%$$%$**%%$***%****$$*$$$$$$$$$$$$$$$$+++++++$$$$$$***%*$*",
"**$%$*%*-*****$$*$*---****$$$$$$$%$%%$$$$$$$++++++$#$$$$****--**",
"$$$$+$$$**$**$$$$$*$*$$$$$$$$$$$$$%$$$$*$%$$++++$$$$$$$$$*-***$$",
"$$$$*******$$$$$***$$*$$$**$$$$$$$$$$$$%%*$$$$$$$$$$$$$**-*$**$$",
"$$$*-*******$**$$$$$$$$$$$**$$$$$$$$$$$%*$$$$$$$$$$*$$$**$$$$$$$",
"$$$$$$*$%**$$**$$$$$$$$$$$X+$$$$$$$$$$$$$$$$$$$$$$$$$$$$*$$$$$$$",
"$$$$$$$$ X.X$++$+$$$$$$$++$$$++$$$$++++++++$$$$++X.X$$$$$*+$$$$$",
"+$$+$$++++++$$$+X$$$++$$XX$$$$+$$$$$$+++$+$+++$$$$$$$$$+$+++X+$$",
"$$$$$$$$$++$$$$$%$+$+$$$$$$$$$+$$$$$+++++++++$$$$$$$$$$$$$$++$$$",
"+++$$$$$$$$$$$++++$$$$$$$$$+$+$$$$+$$$+$$$$$$+$$$$$$$XX$+$$$$$$$",
"++$$$$$$$$$$$++++$$$$$$$$$+$$$$$$$$$$$$$$$$$$$$$$$$$$$++$+$$$$$$",
"$$$$$$$$$$$$$$$+++$$$$$$+$$$$$$$$$$$$$$$$$$$$$$$$$$$$$++++++$$++",
"$$++++++$$$$$$$+++$$$$@$$$$$++++$++$$+$+++$++++X$%%$$$$$+O++$+$X",
"O+++$$$$$$$$$$$$$+X++X.XX$.XXXX++$$$$$$$+$$$$$$$$$$$$$$++++++X.+",
"$+$$$$$$$$$$$$$$$++X+XX+++++$$$$$$$$$$$$$$*+++$$$$$$$$$$++XX.X+.",
"..$$$$$$$$$$$$$$$$$+XX.+X$$$$$+$$$$$$$$+$$$+++++$$$$++$+++++++O+",
"$$$+$$$$$$$$$$$$$$$$+++++XX+O+$++++++$$+++++++$$$$$$+$++$$$$$$++",
"$$+$$+$$$$+$$$$$$$$$$$++++++$+$XXX+XX+  +X X+X$X+++++++$$$$$++++",
"$$$$+$$$$+$$$$$$$$$$$$$+$+++$$+$$+++++++$+$$X$+++++$$$$$$$$$++$$",
"++$+$$$+++$$$$$$$$$$$$$+$$$$$$$$$$++$$+$$$$$$$+$$$$$$$$$$$$$$$$$",
"+$$$$$+++$$$$$$$$$$+$$$$$$$$$$$$$$$$$$$$$$$$$$$$$$$$$+++$$%$$$$$",
"$$$$$$$$+$$$$$$$$$$$$$$$$$$$$$$$$$$$$$$$$$$$$$$$$$$$$$$+$$$$$%$$",
"+++$$$$$$$$$$$$$$$$$$$$%$$$$$$$$$$$$$$$$+++$$$+$$$$$$$$+$+$$$$$$",
"$++$$$$$$%$$$$$$$$X+$$$%$$$$$$$$$$$$$$$$$$$$$$$$+++++++$$+X+++++",
"+$$$$$$%$$$$$$+$$$$$++$+++X++++$+++$+$$$$%%%$$$$$$$$$$$$$+++X+$$",
"+$$$$$$$$$$$++++++$++XX+++$$$$$$$$$$$$%%%%%$$$$$$$$$$++$$$$++$$$",
"++$$$$$$$+$+++++++$$$+++$$$$$$%***$$$%%%%%$$$$$$$$$$$$$$$$$$$$$$",
"*$$$$$$$$$$$++$+$$$$$$$$$$$$$$$%*$$$$$%$%$$$$$$$$$$$$$%%%$$$$$$%",
"$$$$$$$+$$$$$$$$$$$$$$$$$$$$$$$$$$$$$$$$$$$$$$$$$$$$%%%%%%%$$%%%",
"$$$$$$$$$$$$$$$$$$$%%$$$%%%$$$$$$$$$$$$$$$$$$$$$$$$%%%%%%%%%%%**",
"$$$$$$$$$$$$$$$$$$%%%%%%%%%%$$$$$$$$$$$$$$$$$%%%$$%%%%%%%%%=****",
"$$$$$$$$$$$$$$$$$%%%%**$***%%$$$$$$$$$$$$$$$$%%$$%%%%%%%*=%%*$**",
"$$$$$$$$$$$$$$$$%%%%%%%**-***%%$$$$$$$$$$$$$%%%%%%%%%%%*$*%*%***",
"$$$$$$$$$$$$$$$$$$$$$$%%*$$$$$$$$$$$$$$$$$$$$$%%%%%%*%%%$%%%**$$",
"$$$$$$$$$$$$$$$$$$%$$$$%*-$$$*$$$$$$$$$$$$$$$%%%%%%%***%$%*$****",
"*$$$$$$$$$$$$$*%**-****---*%$$$$$$$$$$$$$$$$$$$$$%$**********---",
"$$$$$$$$$$$$$$$$%*$***$$$*$*$$$$$$$$++$$$$%$$$$$$$$*-**++$***$**",
"$$$$$$$+$$$$$$$$$****$$*$*$$$$$$$$$$$++$$$*$$$$$$$$$$******$$$$*",
"$+$$+++++$$$+++$$$*$$$$$$$+X$*$$$$$$$$++$$$$$$$$$$$$$$$$$$$$$$$*",
"$$$$++++++++++++$$$$**$*$$++$**$$$$$$$++$$+$$$$$++XX+$$$$$$$$$++",
"$+$$+++XXXX++$+++$$+*$$$XX$+++$+XX++X+++OO+XX+$$$$$$$$$$$$$$$$++",
"$$$$+$++++$$$+$$$$$$$$$$++$$$$$$++$$++++++++++$$$$$$$$%$+X$$$$++",
"$+$$$$$$++++$$$+X++$$++++$$$$$$$+$$$$$+++$++$$$$$$$$$+X$$$$++$$$",
"+$$$%$$$$$$$$$$$$+++++++$$$+++$$$$$$$$$$$$$$$$$$$$$$$+$$+++$$$$$",
"$$$$$$$$$$$$$$$$$$$++++++$++$$$$$$$$$$$$$$$$$$%$$$$$$+++++++++++",
"$$$$$$$$$++X+$$$+++++++$X++++$$$$$$$$+++++$$X+$$$$$$$$$+++$$++++",
"+++X$$++++$$$$$$++++X++X++++++++++$$$*$$$$$+$$+$$$$$%$++++++++$+",
"XX+$$$$++$$$$$$$$++++O++.XXXXO++$$*****$$$$$$$$$$$$$$$$$+X+$$XXX",
"$$$$$$+++$$$$$$$$$$$$$+X++$$$$+$$$****+$$$$$$$$$$$$$$%$$$++XXX++",
"$$$$$$+$$$$$$$$$$$$$$$$++XXX$$$$$$$%%*$$$$$$$$$$$$$$$$$$$$$$++OX"
};
