/* XPM */
static char *texture__10_1724505259[] = {
/* columns rows colors chars-per-pixel */
"64 64 15 1 ",
"  c #090A14",
". c #10141F",
"X c #241527",
"o c #341C27",
"O c #202E37",
"+ c #4D2B32",
"@ c #394A50",
"# c #7A4841",
"$ c #577277",
"% c #AD7757",
"& c #C09473",
"* c #819796",
"= c #A8B5B2",
"- c #D7B594",
"; c #E7D5B3",
/* pixels */
"***&&**%%*$*$#$$$******$*****$****$$**$$$#$$*****$$$@ @#$$$$%*$*",
"***$%%%*$$$$$$***$$*%%**$*******%$$$*%*%$$$$**$$***$@ @##$%***$$",
"*%$%%%%*$$$$$%%%$%$%%$$%$*%***$$$#$$%**$$##%$$$$%$*$@ @$$%%%%%%*",
"%%$$*%**$%%%%%$#%%$$##$$$#$##$$$$$%$##$$$$##$$#$$%$#@ +%$%$%$%%%",
"$##$%$#$$%$#$#+#$$$#$@$$$#+$###+#@#############$#$$#+ +$####$##$",
"X   o+ooo+++XX..XXXXXoo.      .      .XoXooXXXXXooooo XXXXXX. X+",
"@##@@+.                .+##@$$$$$$#@ .             .         XO+",
"$$$$$#+oo@#@@@@#@@@@+@@$$$**%**$*$$@.@@#@@@@##@#@@@$@@@@+@@@@@##",
"***$*$@o@$$%$@$$$$$$$$$$*******#*%$#.#$%%$$$$$*$$$$$$@$$$$$$$#$%",
"#*%$*$#+@$*%$*****$$*$$***********$$@@$***%******$**%$$*$$$*$###",
"***%*$#@#$**%$******$****$*******$$$@+#********$*********$******",
"%#**&$#@#$*&$****$***************$*$@+#*&**%***%****$$$*$***%***",
"*$&**@@+$%**#$****$****$*******$***$@@**************$$****$*****",
"#%&&**#X$***%**&&*%$***************$@@%******&******#**********%",
"&&%#&*$o%%**$***&&*****$****$***$*$$#@*%*****&*******$**********",
"&%%&&*$+%**%$****&&&%******$$*****$$@+%****%******$*************",
"#*&*&*$ $*&*%*&*$**&*$***********$#$#.#%&**&&***$***************",
"##%&*%$.$$%&**$@$&***$$$*&**%***%$#$$.$*%*%*%****%$***********$$",
"##%%#%@.$%+#*&****&**%**********%*$$$.%*%*$%%%**$$***********%$#",
"#$%*%$@ %%**&***&*************$*$$$$#o%%*%$*%%%***%***********%#",
"###$$$@.*%#*%%%********%*%%*%*%%%$$#@@%$$%%*%****%*%*$$%**$$*$##",
"######++++++####$%%%$####++##++++++@@##$$%$$%%%$$##$%#$$$##++++#",
"+@++@@+.+o++++#####+++o++++o+++++++oX++++++###+++@@+###@#$#++++o",
"o+++++o.ooooooo++o+oo+++oooooooooooXo+++oo++o+++++++++++++oooooo",
"X.. .X@ooX    . XXXXXX.O+OOOooOo+oX  .o+++@+o+ooooXXXXXoXo+++..X",
"*$$@$$*******$$$$$$#@@@$%***$$$$$#@+ @$#$#@$##$$$$$$$$$###$$$***",
"*$#$%*************$#@@#**%**$***$##@ #$$$*#**%****$$*****%*$$***",
"*$$$$*************@#@#$%**&**%***$$@ #$**$$*$$*$$***$$******%***",
"*%****%***********$$#$$**&&%*****%#@.#$$$$*$******************$$",
"*%**%%%%******$****$$$$%%**$**$**%$@.#$#%$**********$*******$$$$",
"*****%%%**$*****%%*$#$$#$%$*%$****$@.#$$$%********$****$****$$$$",
"%***$*%$%$$******%*$##$#%***%#%**$$@X#$$%$******$%%****$***%$$$$",
"%*#%#%$%%%$%%*****$$##$#$%**$$%$*$$@.#$%%%$%****$$$*********$$$$",
"%%%%$%$%%%$$%$$**%$$###$#$%$$$%%%$#+ @$%%%%%$*%%%%%%$%%%$%%$$%$%",
"$$$$$**$$%$$$##$#$$$###$%$$$##$%$$@o +$%%$%%%$*%%$%%%%$$###$$$$$",
"$#@#@#%$##+++@####+##+++#######$#++o.o##$$@##$$$#$$$####+@#$$$$#",
" ...X        .X..  .o++o.    .X.XXoo+@X+o  .XX o++.    X@X     .",
"&%+*&--=$+*---*-=$@oo+oo@=-*$$*$$$$$*&&$$@$&=*@@@+O.*---&------&",
"*&*$***%@ #$******$$******&&**************$$%**$#$@o#$%*&&==****",
"******%$@ $$****%$$****&*%%***$$**************$$$@+X#%%*%&&*$***",
"***%***$@#%%*****$***$***$%************&*****$$$#$@.$***&&&*****",
"%****$$$@$%%%%%****&******%*******************%$$$@.$%**********",
"*****$*$o%%%%****&&**&****%**$%***************$$$$@X$***********",
"$***%$*$+%%%%%******&*****$$$%$%$*************%#@$@.$$**********",
"#***%$*$@$%%%$********&**%$$$$$$$*%*%**%**%%$***$$@ #$**%*******",
"*****$##@X**%%%%%%*******%$%$%%**%*$$$$$**%******$@ #$**%***$***",
"%***$*$#@.%%%%&&%%%$%******$%*%%%%**%%$%$*******$$@ @#$*%%%%****",
"***%*$$$@ %%%%%%**%*%%%%***$%%%$$%*%$%%$$$%*%*$$$@+.@$%%%%%%****",
"%***$$$#@@%#%%%%%%$**%%%$%%%$#$$$$$$$%$$$$$$$$$$$@O +#$%*%*%%$**",
"%*%$$#@@+@#$%$*%%%%$$$##$$%$$#$$$$$$$$#$$#$###$#$@o ++##$$%$%$$$",
"$$$$##++o.+#$#%##+####++###$$##################@#@o o@####$$$$$$",
"$##+@+@+o +XXo++++oooooo+++@@@+@+#@++++o@+@@++@+++X o+@o+oooo###",
"XXX..o X@@#&-&#@@@##$@@@+++@++@+ooo..o.Xo....  XO@@@@XXoXXX..+@#",
"$$$$$$*--;;--;;;------&&&&&&&*&***$@@..$$$$*$$*#$*********&*%*==",
"&*$&&&-=&**&**%---&***&&&&$*&****&*$@.X%&************$*&********",
"&&***&**&&*&***%********%********#$@@oo$%****$%**$***%$**&**%***",
"*&****%******%*****$***$*$*******$#$@o+$%**$$%%%****%$*%*******&",
"********%%*&&&**$**%**$$********$$#$@@o%*%%$$$$$$$%$$%******%***",
"$**$*%&&%*****%$*%%***%**$*******$$$#@.$$****$$$$%$$%$$***%%***%",
"**&**%%%%%%%%%*%*%*%$%$*$$******%$#$#@o#%***$**$%***$*****%$%$*#",
"**&*$*%%*%***%%**%%$$$***$$***%$%*$$@@X$%#%*$$$$%*****$**$$$$%%*",
"****%%*$$********%%%$$%**$$***%*%%$$$@.#$%#**$******%$$%%$%$$***",
"*%$%**$$$%$%%$***$%%*$%%$$$$%*$$$$$$$@ $%#$$$$$******%$%$$$$*%**",
"**********$$##$$**$%$#$%$$$$$**$%$$$@+ ####$#$**%**$$*%$$$$**%*&"
};
