/* XPM */
static char *texture__5_1724505257[] = {
/* columns rows colors chars-per-pixel */
"64 64 21 1 ",
"  c #090A14",
". c #10141F",
"X c #151D28",
"o c #241527",
"O c #341C27",
"+ c #19332D",
"@ c #202E37",
"# c #411D31",
"$ c #4D2B32",
"% c #602C2C",
"& c #394A50",
"* c #7A4841",
"= c #577277",
"- c #AD7757",
"; c #C09473",
": c #819796",
"> c #A8B5B2",
", c #D7B594",
"< c #D0DA91",
"1 c #E7D5B3",
"2 c #EBEDE9",
/* pixels */
",;;--,;;;-:**==;---$ooo...X$+++oOoOoOO. o...**$&&&*&$&$&1;;,:1,,",
"1,,,:,1,1,:;,,>;.-*;XoOoooOo@OOOoOOO  ..o.ooOO@&&&*&$$-,,->>1111",
",-;--,-:-,,;,;;$*$**XoooO$+oOOOOO.oO@O$$$&&&$&&&&$*&,1111-11,,,,",
"*;:=:=**&>;;;;;O$O$$+$&$OooXXXooo$$&&&&&&&&&&&&&1111>>111->;>,;,",
"...     :=-:.o ;;;*o$&&$$$@@$&$&O&&&&&&&&**&&&&@.OOOOOo.oOo. ...",
"O$&&&&&:$$$$$$OoOOOo$&&&&&&$&&&&$=&&&&&&*&&&&&&&$O$OOOOOoOOOOOOO",
"@&OoO.oOOo.o..oOOOo$&&&&&$&$&&&&$*&$&&&*&**&&&&&&&@@oOOOo$O$$$&=",
".oooooooOOOO@@$$$$$$$&&&&&&&&&&&$&&$&**&&&**&&&&&&&&&$OOOoXo....",
"$$$$$$$$$$&$OOOoO@O$$$$@@@OOOOOOO$$o&O&&&&&&&&&&&&&==&&&&&&&&$$@",
"**&*********&&&*<;,$;&&&&&&&&&&&o$&O&$*&&&&&&&&&*&&=========*&&&",
"======****::;-*1>,,;$&&&&&@&&&&&@$&$&O&$&*$$&****&&=:========**&",
"=====*$--:;;;,,,,,,>>>;-;-*=:::-;;;;;--**--=$&****&::=====::==**",
"=*=&1,;*$OOOOOO;;,,,,,1,,;>;;**;,**;-*---;,;*&&&&&=::-==-==:====",
"==*-,;;OO&$*$&$O$;>:$*$o$-::;*$->**;;----:=-;$&&&&&:-:==-====:==",
"--;--*=;;;;-==$$o**&$$$.oo$$OO$OO*$O.$**-=--$$=**====:==-====:==",
",,$*-*OO*-:;>;;O$O$O.oOOoOoOOoo.oooO..OO$***O$**===:==-=--:=::==",
",--;;;-;;;::***$$OO$ .o.OOOoOOOOOoooOO$OO$O$O$$O*$$$%$$$$-$=:===",
"*&**$$*$$*$$O$$$$$$.O$OOOOOXoooOoOOOOOOOO@$&*===::=::::::::=:=-=",
".O@&&&@O#o@..o..ooo@$$$O$$$$@O$@$$&&&$&&&&*====-:::::::::::=&***",
".OXo&&@+@$o.XoOOOO$$$$$@$OO$$$O$&&&&=******==::::::::::::::=&&&$",
"@Ooo...oooO$O$$$$$&$$$$$$$$$$&&&&&&&=======::::::::::::::::=&*$;",
"&$$@@@O@@$$$$$$$$&&$$$$$*&%*&&&&&&&*=*====::-::::===::::::=**&&o",
"&$$$$@@@$$&&$&&$$&&$$$$$*&$$$$$$&&&**$**:;>-:>>;,;$**=*&$=$$$$$$",
"$$@&&&&&&&&&&@@$$$@@O@OOO@$$@@$$$$$&&&&&=:>:>;;=-;$&&*&&***&&&&&",
",;;11>;>,,&&&&&&$&&&&&&&&&&$$$$&&&$*,;;,;OOOOOO$$$$&&&&&***&&&&$",
"-**;-*-=*-*&&&2,,;&&&&&&&;,>;&&O$&**=****&&$$&$O$$&&&&&&&**&&$OO",
"*$$$OOOOO$O$&*;1>:$&&&&*$:,,;;,,,,***==**-;:--:@$&&**=*&&&$*;;;*",
";;***$%*$*--;->=;;O*&&&$o  O>>$*$;;$$*$$;;>>;-:@&&&***&&O:>>>>>>",
",,>;,**$>,,,,,;-:*=-;---:==::;;>>;;;;--$;-:;;--o$&&&&***OOooOOOO",
";;=;;--*$--*$$;**;>;;>;>>*oO$::*=-=*$$*$$*$O$*-o$&&$&&*$$@ooo&oO",
"1****--**$***==$::*O$$&&$$$OOOOOO...o.oo o .O$$$&&&&&*&*&&&@OX.o",
"oOOOOooOOoOOOO$==$O.OO..o.Ooooo&$$OOOO$$OOO$$$;-$&&***&*&&&&&&@o",
"o....ooo Oooo.O.....OOo.o@@OO.XO$oO$$OOo..oOOo$OO&&&&*&$&&&&&&&&",
"OOOOOOo.O..oo+oOOOOO@@+oo&&&&&X.oO....O@O$$$&&&&*=============**",
"...ooooOO$@$&$.@$$$&&&&&$$OOOO$$O$&$$&&&&========:=====:=-======",
"&&&&&&&&&&&*=*&***&*==****&&&*&&&=*$*******=*=====:=*=======:==*",
"====**=**====*&===**====*=**===**:=****=:>::*-=-&=:***====;;-:=*",
"=::===--:::::==:=====*-=====*===*==1;,1$===:;--*$=:***==**,,,111",
"==:==--::::--===*==-========***$**------.OOOO.o$$=:&&&**.  . ..o",
"11;--=-==-===*==***=====11;,-$$$O$$$OOO.&$&$.@@@*==&&***&*::>>>:",
"11,122==:==-=:===**=-=*;**;-;;:;;;;;-**=;**=o$&&&:,111>1,,,,1111",
">-$O$$$*::=::*==**=;,,,,,,,:---*;;,*$O,,;;;--&*&$OOOOoo**==*==:*",
"..  .oO*:=--=:=*1111>111,%$$*$**-%-::>>,;,;;-$*=$o$ .o.OoOOOoo..",
"$$Oo$O&*-**==-=&OOO&&*$O$OOOOOOOOOOOO$;;:;;:-$***&$OoOOOo$$$OoOO",
"OOOoO&==-*======&OO.   . oOOoOOO$$OOO:o--*OO$$******$Ooo...O$OOO",
"o@&**========*==**$OoO$O$O&====:&==::$$$O$$*$%$*=*===*&$$$$$@@oX",
"&**====*===**===****$@oO$$$OO$.oX.....o...ooO$*******=********&&",
"======--====*********&$@OooOooooOOOOOOO$$$$$$$*****-=*===*=*=**=",
"=========*****$*******&&&&$$$$$$$&$&$$$$$&&&***=*=*****=*=======",
"===:==**=*=***=-==***=************=*************=*==***===*===*=",
"==----==*==***======-==*====****=-=&**=$&=$&&***:=*&***-$*=----=",
"==-=====*O**&*****$**&$=**=-****=-*$***==-=*=*&*=--&****O***==**",
"-==-=*****,,,;&******&**===-=*=--=*O*-**-:*--=-=**:::;:=o***==**",
";,,*=***$$.oOo*;-*********==*=====*O*=--***--**-*$---:*=O*****;,",
";,-;,;,;;;>;-;:;-:&&&$&$**=======**O*=--****-*&*-**==-*$O$&$:,,;",
";--;>;;;;;**=**;;-:$&&&&&**==******O****$$&&$$&&$$$$$$** -=,,,>>",
"--$==******$$$*--O$&&&*&&&********$O*$O$.o.ooooooooOOO.O ;-**---",
"== .    oOOOOO$$o*O&&&&&&&*==*****$$OO.-::=:*:::.oooOOoo.=$*$**=",
"O...@@@$@OOo.oOOoO@$&&&,,,,*&**1,,,,,,,$=:::::-*o@@$$$&&$Oo.ooOO",
".o@&@&&&&&&$@OO@@@&&&&;;,,;--;-******&O* .oO. ..O$$$&&&&&&$Oo   ",
"$$$&&&&&&&&&&&&&&&&&$Oo o . **$$$ OOOo O***$oO@$&&&&&&&&&&&&&&&@",
"&&&&&&&&&&&&&&$$;;;;->;>:-*&:,O$$*Oo*:*--::;:@&&&&&&&&&&&&&&&&&&",
"&&&*%$$&&&&&&$O*;:-;=,,,;;::;;;:-:;***-;;:-*:O&&&&&&&&&&&&&&$$&&",
"*$*$$$$*$&&&$$:;;-;$O&&&&*&&=;-**-*-*---**$*-o&&&&&&&&&&&$&:;::&"
};
