/* XPM */
static char *texture__6_1724505257[] = {
/* columns rows colors chars-per-pixel */
"64 64 9 1 ",
"  c black",
". c #0A2A33",
"X c #353F23",
"o c #61393B",
"O c #5C5D41",
"+ c #895654",
"@ c #988F64",
"# c #CC817A",
"$ c #CDC599",
/* pixels */
"$@OXXXOXXXXXXXXXXXOOO+OOXOO@@$$$@$$$$$$$$@+OOoooXO@@+OO O@$$$$$$",
"$$@++@OoOOOOOoOoOO@+@@O+O+O@@@@@@@$@@$$$$$$@@++O+@@@@++O+@@@@@@@",
"@@@+@@+oOOOO+OOOOOO@@OOO+@+@@+OO++@@@@@@$@@@@@@+O++@@++O@@@$@@O+",
"O++@@@@oOOO++@+O@+O@++oOO@+@+OOoOO+++@@@@@@@@@@O++@@+++O@@@@@+Xo",
"++@+@@@oOO+@@@OO@O@@O++OO@@@+OOOXXO++@@@@O@@@+OOO++OO@OX++@@@OoO",
"@+OX+O+XOOOOOOOOO@@+OXXXXO@@O+OOOOOO+++@@++++OoXoOOOO@+OOO@++OO+",
"OOXXooOXXOOOOOO+OOOOOOOOOOXOOo+OOOO+OOO++oOOXXXXOXoOoooXXX++@+OO",
"XX.XXXXXX .X   OXoXOXXX.  XXXXXXoooXXXXOoOX   . ... XX   .OoXXOo",
"XX.XXXXXX XXXXXXXXXX .XXXXXXOOOOXXXXOXOOO..XXXXXXXXXXXXXXXXX....",
"OXXOOO++OXOoXoXXXXXXXXoOOOOXXXXXXXXXXXXXXXXOO+OOO+@OoXOOoXOOOooO",
"@@@O@+@@OXOOOoXoO+OO+@+@++@+++OOOOOO+++O@O@@@@@@@@+XoXO+OO+@@@@@",
"@@@@O@+oXXOOOOoO++@@@@@@+@@@+@@@@@@@@@@@@@@@@@@@@@+XOXO++OO+@+@+",
"@@@O+O@@OoOOXOoOOOO+@@@@@@@@OX+@@@@@@@@@+@@@@@@@@@OooXO++O+@@@@@",
"@++@+++OXXXXooXXXOOXXooOOXooooOOOO+O@O@@@@@@@@@+@OX OXO++@+@O@@@",
"@++++OOOXXXXXXXXoOOX .       X+O XXoOOO++@+O@OoX..X.@XoOOooOO++@",
"OOOoXOXXXXXXXXOXXXX .XXXXXXXXXX++OOOXOOOOOoOXX.XOOOoXXXOOXXooOOO",
"XXXXXXXXXXXXXXXXXXXXXXXOXXXXXXXXX.X..XXXXXXXXXO+@@+OXXXXXXXXXXXX",
"OOXXXooOoXOOOOOoO@OOooXoXXoXXoOooXXXooOXXOOOoO@@@@@@@++@OOOOOOOO",
"O+OOOOOooOOOOOOoO++OOOoooXXOXXO+O+OO@OOOOOOOXOX++OO++XOOOOOO++OO",
"XOOoOoXXXoOOOoXXXooOoOXXXXoOXXXooO++OOOOOOOOOoOoOXoXXXOXXXOoXXXX",
"XXXXXXXXoXXXX.X ..XXXXXXXX.XXXXXXXXXOXOoXXoXXXXXXXX..X.XXo      ",
"OOOOXXXXXX  XoOoXXXoO+++OOOXXOOOOOOoooOOXX.. .XXOXXO++@@OXOOOXXX",
"@@@@OXXXXXXXO++OOO++@@@@@@@@@@@@@@@@+OooXXXXXOO@@$@@@$@@@@+OoXXo",
"@@@@OOO@@OOOO@@++++@@@O@@@@@@@@$$$@$$@@@OXO@@@@@$@$$$@@$$$#@@+++",
"@@@OO@@@@OO@@@OOO+@@@@O@@@@@$@@$@@$$@@@@OO+@@@@@@@$$@@$@@#$@@@@O",
"@oO+@@@@@OOO@OOOO+@@@@O@@@@@@@@@@@@@@@@@OO@@@@@@@@@@@@@@@@@@@@@O",
"@@@@+@@@@OOOOO+@OO@@@@@@@@@@@@@@@@@@O@@@OO+@@@@@@@@@@@@@@@@@@@@+",
"@@@@@@@@OoOO+OOOoOOO@@@@@@O@++@@@@@@O@@@OXX@+@@@@@@@@+@@@@@@@@++",
"XX+OOOOOOXOoOXOOOOOOX+O+++O++++@++@@+O+OOOOOOO++@@XO@++O@XOOOoXX",
"OO+O++OOoOO@@O.    .XXXXXoOoooXXoXOOoOO.XXXX    X+@OOO++@O+OOOOO",
".  XX....XXXXXXXXXXXXO+OOOoOOoooXOO+OX  . X.... ....   ..  ...  ",
"XoOXXXXXXXXXXXooOO+OOOXXXXXXXXXOX.XX.XXXOoXXXXXXXXXXXXXXXXXXXXXO",
"@@OOoOOOOoOOOOOOOO+OOOOXXXXXXXoXXXXXoOOXO+O++@@O++OOOO++@@++OOO+",
"@+OOOOOOOOOOOOO+OOOOOOOOOoOOOOOOOOOO+OOOOX@@@@@@@@@@@@+@OOOO+++@",
"OO++OOOOOOOOOOOOOOOOOO++OoOOXOOXXOOOOOOXO@@@@@@+@@@@+OO+OOOO+OOO",
"O++OOOoOOOOOO+OOO+OO++++OOOXOOOXXOOOOOOoOO@@@@@@@@@@OOOOOOOOO+OO",
"OOOOOOoooOOO++OoOXO+++OOOOOOOOoXXOOoOOOXoo++@O+O@O@OOOOOOOO++++O",
"OOOXXOXXoooXOoXXXOOOOOOOOOoXXoXOoOOOOOOoXOOOOoOOOOOOOOOOOOO++++O",
"XOOOoOOoooOO+OOXoOOXXOOOooOO+OOOoXOOOoOOoOOOXXXXooOOOOOOOOOO+@OO",
"XXOXXXXXXXoOOOOXXXXXXXXXXOOXOXXXXXXXXXXXXoOXXXXXXXOOOXOoXXXXo+OX",
"++OXXXXXX    XXXX.XXooOXXXooXX.XOOXOOoOoXXoXXOo. XXoXXO+XoX.OOOO",
"@@+OXO++@@+@@@+@XOoXXoXXOXOOO++@++oXoOOOoXXXXXXXO@@@@@@@OXoXoXOX",
"@@@+O@++@O@@@@+OO+OoOXXO++o+@@@@@+@@+OOOOOOO++OOO@@@@@@@O++OOOOO",
"@@@@O@@@+@@@@@@Oo@OO+OX++O+@@@@@@@@@@@O+@@@@@@OO++O@@@@@@+@O@O+@",
"$@@@O+++O+OO@@@OX@@+OOO+@++@@@+++@@@@@+@@@@@@@++O+@@@@@@@@@@@@@@",
"@@@@O+@@@++@@@@+X@++O++@@@++@@++@+@@@OO@@@@@@@+@O+@@@@@@@@@+@X@@",
"@@@OOO+++++@OOOOX++OOOOO@@O@@OO+OOO@@OoO++@@@@O+OOO@@@+@@@@@+X@@",
"@@@@+@@@@@@@+OO+O@@@@O@@@@+@+O+++++@@OO+@O@@@@O++@@@@@@@@@O@+X@@",
"@@@@++@@@@@@+O+OO@@@@O@@@++@@@@@@@@+@+X+++@@@+OO+@@@@@@@@@@@+X@o",
"++@@+@@@@@@@+++OO@@@@@@@+O+@@@@+@@@@+OoO+OOO@@+O+@@@@@@@@@@@@X@+",
"+++@+@@@@+@++++@+@O@@+++@+O@@@@@@@@@@OOOO+@O@@O++@@@@@@@@@@@@XO+",
"+@@@@+@@@+@++++@++OO+@+@@O+@@@@@@@@@@OOOO+@@@+OO@@+@@@o+@@+@@XOO",
"@@@@+@@++@@+@@O@OOO@@@@@@O@@o@@@@@@++OO@++++@OOO@+OO+o+@@+OOOOOO",
"O++OOOO++XOOOOOXXoXOOOoXoXOOXO+OOOOOOoOOOOOoOoXXOOOOOXO++OoOOXOX",
"O+OOXoOOoOoOXooOOOOOoXOOOoOOOoOOXoOOOOOOOOXOOoOooOOOXoOOOOoO+OXX",
"  .X.X...X .        ..OOoXXXXXXXXXXX..... ... XOOOOO XXXXX.XX.XX",
"XXooOOOXOOOoXXXXXXXXX XoXX.oXOOOOOOOOoOOoOXXXXXoXOXXXoOoOOXXXoOO",
"OO@++@+@@@O+OOXoOoXXXoOXoOoO++OO@@@@@@@+@+OO@@+OoOOOO+@@+O+OO+@@",
"+O++@@+@@@@+++O++OOoooOO+o++++++@@@@@@@@@++O@@++OOOO++@@++@++O@@",
"@O+OXooOOO+O++@@++OOoOXoOO+OOO+O++@@@+@@+O++@@@++OO+OO+@@+@oOOO+",
"OOOXoOXXXOOO+@++OO+OOXoOOO+OOOOoOOO+OO+OOoOo+++OOOOOO++++OoXXOOX",
"XXXXXXXXXXoooOXoXXOOXXXOoOOOOOXXXOOXOOOooXXXOOOOXOOoXXOOOXXXXXXX",
"   XXXXXXOoXXX.   XOOXXXX ...      .. XXX.  XXXXXXXXOOOX    .   ",
"XOOO@OOXXXXXXXXXXXooOOXOXOO++@@@+OOOO+@+OOOOOOOoX .XXoXXXXoO@@@@"
};
