/* XPM */
static char *texture__36_1724505264[] = {
/* columns rows colors chars-per-pixel */
"64 64 17 1 ",
"  c #884B2B",
". c #AD7757",
"X c #BE772C",
"o c #602C2C",
"O c #4D2B32",
"+ c #DA863E",
"@ c #DE9E41",
"# c #C09473",
"$ c #CF573C",
"% c #E8C170",
"& c #341C27",
"* c #241527",
"= c #090A14",
"- c #10141F",
"; c #411D31",
": c #7A4841",
"> c #A53030",
/* pixels */
"   ...X    .            oooo..   X XoooO oo  o       X++...++X  ",
"XX.+@#.X X$..#%..          ....... o o X o  ooo        .  . XX X",
"$X..++++XX X+%#...          .  ooooo XXXX   ooo     oo&o&&oooo  ",
"$XXXXXXXXX.X#++@.X           o&o  o  X$X     ooo    &**=&==oo   ",
"XXXXXX..+XX#+@#.#$XX       o=&===oo  X      oooo   o&*==ooo&o  X",
"$X XX ..X..XX++#.XXX  X o&*o     oo  X      o      ooo& XXXo&  X",
"X.XXXX+.X..X XXX  XX$XXX=o  XX        $X       ooooooo& XXX     ",
"  XX$.+X..X .X XX $XX XX $X$$X$X     X   oooo&&&&ooooo XXXXXo& X",
"o  XXX.X.X.X$    ...$  X XX$X$$        o&===&oo  o      XXXX   X",
"ooo XX+X .#.X   . X+ XXXX  $.X       oo==&oo&oo  XXXXXXXX XX  o ",
"=&oo&  &  .XXXXX@..+.X XX  XXX      o*&oooo &o   XXXXX++XXX ooO=",
" oooo&oo & ....##+.+XXX  .XXXX$   o&*o o    oo  $X XXX+XXX  o&oo",
" ooo o  oo .....#.    $$o $XXX & o&== Xo  o oooo XXX$XXXX$  oo o",
"  o  o  o &o o    XXXX.X $XXX.  &&*&&     oo&o-&o XX    X       ",
"&&      o  o&&&&Oo   X.X. XXXX    o o         oo&O          *&&&",
"   XX  oo  o&*==Oo&o ..X    $$oo  o oooo       oo*oo   o o oo . ",
"  o $    o o  o===&o.#.      *  oo  oooo o     o o====o&*&&&o   ",
"       o  o    o&&o ##+.  X o   o o              oooooooo  o    ",
"X       o    X$X    .+##X  o$$      o    oo o     o    o   o&o  ",
"XXX   Oo   & $$X$X  X# . oo.$ o  o                   o   o  o   ",
"o        oo oooo ++o&             o ooo O&o&&&&=&&=&&&oooooo o  ",
"ooooooo          o   .. o          oo&    o    oooo&o &oooooo   ",
".X  o     XX X .       XX.X           &    o&&  oo  X. &&oo   X.",
"X$      X .+.X... X ...XXX$              XXX X     X   &    $X$X",
"XXX.X   ...+.XXXX......XX$$  X.   oo    XXXX+X     $  o     X X$",
"XX  XX.#.... o   ...#...X           o    XXXXX           $$$X$$$",
"$ + +XX...$.   X   X..++. XX             XXX              $$$$$ ",
"XXX+.$X.#..X   XXXX  .... $X             XXX              X$$$ o",
"$XX+$$X ..XX     X  ....            o      X              $$$   ",
"  X+$$$XX         X.. .  X              XXXX         $$  $$X$   ",
" $X$$$$   XX      XX.##                  X                oo    ",
" oX$$$$    $$       ...  X             o                ooo &o  ",
"&o $$$$ XXo $$ o   XX  XX            o           $      ooooo&oo",
"&  $$ X      $        XXXX$        X  oooo      X        oo=&&==",
"    X$  o                    ooo   $  oooo&&o     $       o oooo",
"  oo $X$                  o ooo        ooo**oo         oo o     ",
"**&o $              oo oo&Oo&ooo        &*    &=     o=&;oo    o",
"&==o                oooo&*o&&&o        oo     = o&ooo&o&=&o    o",
"o&&oo o oo    o    o&oo&*&  oo*oo      ooooo&&  o &=oo  o=o  &oo",
"oooo&=&&&OooooO&oooo o& ooo    oo    o  =&Oo&          o        ",
"&o   oo  o&ooooo    ooooooo    &oooo&oo*o    o  o      X.. X  oO",
"oo   o   oo&*ooo  ooo&oO&&oo    *o===*o     .oo&oo&oo oooo :o   ",
"  XX &  o  o &oo   oooo&         & o&& .#.++.X..  XXX ...+XX.X  ",
" XXX$X. X.... oooo ooooo     oo   oO XXXX@@++XXX.XXX..X .XX.X$  ",
" $X $X+#+#+.. oo   ooo  Oooooo  o      X.+XXXX$  XXX X$XXXXX >$ ",
">$$$XX$..+#. oo     o&;&OooO     .XXX XXXXX$$$$$$XXXX$XXXXX   $ ",
" $$$$X$X..X  oo       oooooooo  XXX$X  $$$X $$XXX$X$$ $X     X$X",
"  >  $XX$XXX  o    $Xoooo           $X$X$$  >$$XX$$X $ $$      $",
"$$$  $$XX X$          oOo          $ $X$$    XXXXX$$$X.XX       ",
"$    $XXX $X  o       oooo o      $$X$$$$ $     $$ $   XXX    >$",
"$ XX$XX$$    &o      X  o  o o      $  $  X$ $$  X$    X      $$",
" $$$> $$  $>o oo     X        >      >    $  $$$ $$            $",
"   .$ X >            $                       X$$$$              ",
"         o  oo      $  o                 $$$ $$> $$             ",
"            oo  o                   $     $X  o           o  >  ",
"           $ o     $                     $$                     ",
" o   o      &      $$                $$ $$                      ",
"     oo    o oo  X            o     $$$oooo         oo  o   &o  ",
"======&o      oo X$ X     o             o&*=o           o   o===",
"ooo&ooooooooo      XXX$   o   o oo      &====         o     oo&&",
"  oo oo&&&ooo X . $ XX          oo     o&oooo& o       o     oo ",
"o           o  .+ $    ooo        oo  o=O    ooooooooo        oo",
"     $   X$     XXX      o    $X   ooOo   o   &&&o&*o oo  XXX oo",
"X    X  X.       X $XX.       X   o .  &oo  ooooooo o&  .#++.+.X"
};
