/* XPM */
static char *texture__34_1724505264[] = {
/* columns rows colors chars-per-pixel */
"64 64 13 1 ",
"  c gray4",
". c #131313",
"X c #191919",
"o c gray13",
"O c #323232",
"+ c #373737",
"@ c #464646",
"# c gray32",
"$ c #6C6C6C",
"% c #808080",
"& c #929292",
"* c #9A9A9A",
"= c #B9B9B9",
/* pixels */
"   o oX$***=*%%##%**##OOOO+OOOO##o##%##+oo#*%%&**%%%%%**oooX    ",
"%##%###%***%#%#%%#*%##ooo##OOoOoO.oOO++OX.#%%%%%%###%#%*###%+###",
"ooOoXoXoooOO##OOOoXXoO####%%##%*#o%%%%%%oOoooOooO####ooo XX.ooX.",
" X #ooXOOO#%%%%###oOXO#+O+O##O##Oo#%%##%XOOOO###%%%###oO Xo# .X ",
"##+oXOoOOO#%%%%%%#OOoO+ooO##OoOO#o##%*%%oOO#O##%%#%%%#OOXoXo#+##",
"#%##o#O#O######%%%@+oO#######oOO#O##%*#% +O++######%%###o#o##%%%",
"###Oo+O#O###%##%##OOo+##OOOOOo#O#O##%###.#O+##O#######OOXOO####%",
"###OO+O#+o####+###O+o###++##OXO+#O##+###.#O+#####%######XO+###%%",
"%%##o#O#O#+#OO####OOX##OOOOOOX+OOoO%%###X#o+####OO####OOo#O##%%%",
"%###o#O+oOOOOOO#OOOOoO#OOO#OOoOO#X+##+##o+oOO+OOOOO#+#OOo#O###%#",
"##++o#OOoOOOoooOOOoOoO#OOO++OooO#.oO#OO+XOXooOOOOoOOOOoOo#O#O##%",
"####OOO#oooooooooOoOoO#oooooooo##XOO#oOO.OooOOoooooOoOoOo#O#####",
"#O+#oOooXX..XXX.XoXoooOoXoooo.oo#oOOOooo XXXX.. .X...oXooooOO+O#",
"%%#####OO##%%%##%%O+o####%%%%%#%#o#%%#%%O#oOOO##%%##%%#Oo#O%%%%%",
"%%##oOoOoO#%$#%%##OOXXXOOO#+OOO##o######ooooOO#%%#%%##OOoOo##%%%",
"%%##O#OOO+##%%###%O#O##OO+O###+##X#####%o###++#%%%##%%##o%o##%##",
"####.oO#O+#ooXO##%o+oXo########+#o######o####+#Oooo#####XOo#####",
"###+o#OOOO#OOOO###oOoO#%O######+OO###O##X#OOOO+OOOOO###OXO.O#+##",
"+++O ooOOOOOOOO#+#OOoOXoooo#####+O+#####o#OOOO#OOOO+##OOX#.O##O#",
"#OO+.+OOoOOOooOOOOooo+XOoOOooO+O+oOOOOO#o+oOoOOOoOOOOOOOX#.OOO#@",
".OO# OOOOooooOoOOOoOOOOOOO#@oOOO#o+#####o+oOooOooOoOOOOOXOX#oXXo",
" oO#.OOOoooXoooooO OO#OOXX..XOO##oOOOOO+XOooOooooooooOoo.+X#OXo ",
"@@O#o#OX ... .XXoX ooOO+     o###Oo.OOXOXOoX..X...XXo.ooo+X#O#@@",
"  .OO#X%%%%%%%#%#%*%#OOOOOOOOo#O+OOOoOOo  #%%%%%%%*%%%*%O#oO    ",
"oXXO.oo. Ooooooooooo.O#####%########%%%%##OooooooOoOooooooXOoOXX",
"OOo#XOoX oooOoooooXo..XoooooooooOoooooOoXooooXoOOOoooOXoXoX#o#  ",
"   #XO%%#%######%%**###+####+##O#+#####O+#O+###oO#Oo##%%##oOOOOO",
"   OXXXOOooOoooOOoOoo#O###########%#%####O###%#O###o####XoXOO@@#",
"###OoOoOO##oooooooo.OOXooooooXoXXOOooooo.OO###########O+XOO# X  ",
"   #oOO##$##########OO%##O+OOOoOo.ooooO+ OOO#++##O###OO+XOoO    ",
"#OOooX   X.XX.XoX..XO###OOOOOOOO+OoooooOXOOooOoOOOOoOoOOoOoOOoOO",
"   oooXOOOooooOooooo#%##.X.X.OO#+OXXXXX#oOoo. .  . X.oOOoOOO    ",
"   OooOOo#oooOOO#%##$#OOXoooooOO#Ooooooo OOoOOooooooXXOoXOOO   O",
"OOOOXoOoO%#######%###########%#####%####O#%O######%#%OOOX+OOooOO",
"OOO#ooo%%#*%%%**%%%#O+#O####%%###OoOOooo.o%**%###+OOOo&*oo.%##%%",
"    .oOoXooOO#OOoXOO#OooooooOO.oooOooooO XOoXoOOooOoooOoooX     ",
"###+ooOOOOOOOOOo##+###OOXXXXOoo## oOOOOO.oOoOOOOOOOOOOoOoooOOO##",
"oXXoXX OOOOOOOOOOOO+O+OOOOOoooo## XOOooo OOoooooooooo.OOXX.ooOOo",
"oOoo OooooooooooooOOoOOOOOOOOoO#%oO###OOoOOoooXoooooooOOoOXOOOOo",
"#%%%%%#X.XXXXXoooooOOOOOO##OOoo##o%#####.OO+.XoooooooOoOO%#%##%%",
"%%%oXooOoOO#######oOXO#%%#%%%####o##%%%%.O#OOO#%%#####oO.o#%##%%",
"#%%##%#OOOO#%%%###OOXO##OO###O#%%o#%%%#%XOOOOO##%%%###OOo%%%%%%%",
"####oooOOO#%##%%%#OOXo######+o#O#O###%%%XOO#O+#%%%%%##OOoOo+O#+#",
"%%%#o#O#O#######%#OOoO#OO+++OX#O#O+#%%%#.+OOO######%##OOo#O#####",
"%%##O###O+####+####OX##XXXXOoX###o##%###.+OO##O#########o+O###%%",
"%%##o#O#Oo####+###OOo##OOOOOOoO#+o######X#OO##########OOo######%",
"####.#O#OO########OOo##O#OOOOo+#+XO#####X+oOO#########OOo#O####%",
"####.##OoOOOoOoOO#ooO##OOOOOOo###.O#####X#ooo#OOooO#O+OOo#O#+###",
"####.##OooOOooOoOOoOO##OOOOOOo#+#oOO#OO#XOoooOOOooOooOOOo#O#O###",
"+OOOXOOOooXoooXooooOoO#OO##OOoOO#oooOOoOXoXooooooooXooXoXOo++###",
"%%#%O##OO#%%%%#### OO#%%$%%%oO##%%%%%%%%O#oOO####%####OO##O#%#%%",
"%%#+oXXooo####OOOo OXoX####O#O#O#oOOOOOO.XXooo#####OOooo.Xo+####",
"OO#Oo#+OO+#+ooO###.OO###O####O#O#OO#####o%OOOO##Oo####OOo#o##O#+",
"##+#.###OOO#+#O#+#.Oo###OO+#+o+O#O###%%#o#@+#O##++O#+#OOoOX####%",
"#+#o OOOOOOO###+O#XoO#XOOO###OO+#O######X+OOOOOO###+O#OOo+.O#++#",
"oX o OoOOOoOOOOOOOXOO###OOOO#o+#+OO##O##o#oOOooOOOoOOOoOoO o ooo",
"OooO.#OOooooOoOOOOOoO#O#OOOO#O+++OooooOOoOooOoooOOOOOOooo+ +oOoO",
"  o# XX  . Xooo.oOoo.OO+OOO+#OO+#ooX.X.+oO  ..X oooXoOoo.o #o   ",
"ooO#oO %%*%&&*%%**%%@OOOOOOO###+#X.....O.#$**&***%%***%%Oo#%OOoo",
"oOO#oo %%########%%%OOOoO###%#O##oo  . O.o#%%%#######%*%oo#%Oooo",
"OOoo Oo###OOO+OO+O###OO+####%##++o#####OO###O#+OOO+OOOO#ooooOOOO",
"##OooOO+#++O#####OOOoOO#####OO###o+###O+oOO###+O####OOOOoOoo####",
"##OOO#o###OOOOOO+#OOoOO#%###Oo###o#%%###o#O####OOOOOO#OOo#O#####",
"%###O#oO+OOoXXXOOOOOo########O%##o##+#++oOOOOOOoX.XOoOOOo#O###%%"
};
