/* XPM */
static char *texture__8_1724505258[] = {
/* columns rows colors chars-per-pixel */
"64 64 10 1 ",
"  c black",
". c #0A2A33",
"X c #353F23",
"o c #61393B",
"O c #5C5D41",
"+ c #895654",
"@ c #919B45",
"# c #988F64",
"$ c #CDC599",
"% c #A293C4",
/* pixels */
"XOO#OOOOOOOOOO#+#+O+O#OX#######O#######OO####OOOOOOOOOOOOOOOOOOO",
"@@OOOOOOOOOOOOOOOOOOOOOO##O@############OO###OOOOOOOOOOOOOOOOO#O",
"#@OOOOOOOOOOOOOOOOOOOOO####+#@#########OO#O#OOOOOOOOOOOXOOOO###O",
"#@OOOOOOOOOOOOOOOOOOOOO+OOO#######@####OOOO##OOOOOOOOOOXOOOO###O",
"##OOOOOOOOOOOOOOOOOOOOO#OO#OOO###############OOOOOOOOOOXOOOO###O",
"#OOOOOOOOOOOOOOOOOOOOOO#OOOOO@#@@#@@########OOOOOOOOOOXXXXXXO#@X",
"OOOOOOOOOOOOOOOOOOOOOOOO#O#O+##OO#OO#####OOOOOOOOOOOOOOOOOOOO##O",
"XXXXXXXXXXXXXXXXXXXXXXXXXXXXXXXXXXXXXOXXXXXXXXXXXXXXXXXXXXXXXXXX",
"XXXXXXXXXXXXXXXXXXXXXXXXXXXXXXXXXXXXXXXXXXXXXXXXXXXXX..XXXXXXXXX",
"OOOOOOOOOOOOOOO+OOOOXOOOOOO+########+OOOOO+OOOOO+OOOOXXOOOOOO++O",
"###@@OOOO+#OO#####OOOO+O###################OOOO#####O###########",
"###OOOOOOO+++###OOO#####+##O#+OO#########OOOO####OOOO###O#OO###O",
"#@OOOO##@+OOOOO#O##OOO###@###OOO+O#OOOO#OOOOOXXXXXXO###########O",
"#OOOOO#OOOOO@#@#####O#O@##@###@@####OO+OOOOOOXXOOXOO####O#####OO",
"#OOOOOOOOOO@@@@@@###########@#@###@#OOOOOOOOOXXOOXOO########@#OO",
"#OOOOOOOOOOOOOO++##@################OOOOOOOOOOOOOOOO##########+X",
"OOOOOOOOOOOO@OOOO##+#######@#######OOOOOOOOOOOOOOOOOO#####+####O",
"XOOOOOOOOOOOOOOOOOOOOOOOO#OOOOOOOXOOXOXXOOXXX.XXXXXO#OOOOOOOOOOX",
".X.....XX..X.XX..X........X..XX.XXXXX.... . .XX...........X...XX",
"OOOOOOOOOOOOOOOOOOOXXOOOOOOOOOOOOOOOOOOOOOOOOOOOOOOOOOOOOOOOOXOX",
"#+@O@###########O+#O@@########OOOO++O##################O##OO####",
"OO+#########O###########################+O###O##################",
"OO#OO######@#O#######################@##@@O++###############+OOO",
"OO###########O##@########################@O##############O##@OO#",
"X###############@####O####@############+#+O#################@OOO",
"############+@########O#####+######O##OO########################",
"########################OOOOO#####OOO#############O@O####O###@##",
"#####+#####+#@@#####O##O#OOOO##@##OOO######@#######+@#@@@#######",
"###O@####OOO#OOOOO+#O+O#OOOOOO+##O#####OOOOOOO##O#OOOO@O#O+OXX.X",
"XXXXXXXXXXXXXXXXXXXXXXXXXXXXXXXXXXXXXXXXXXXXXXXXXXXXXXXXXX.XXXXX",
"XXXXXXOXXXXOOOXXXXXXXXXXXXXXOOOOOOXXXXXXXXXXXXXXXOOOOOOOOOXXXXXX",
"###########################$#$%####$$$O+###O####$$#$$#########+#",
"#############@##########OOOOOXOOOOO#O###O#######################",
"@@+##########@O#######OOOOOO+#OOOOOOOO#OO#####@###O#############",
"OO######@@##@@O#####OOOOOXOOOO#OOOOOOOOOXO#@OO@#####@##O#O####OO",
"XXXXXXXOOOOXXOOXXXXXXOOXXO+OOO@#OOOOOOXXXXXXXOOOOOXXXXXOOOOOOXXX",
"XXXXXXX.X...X.XXXXXXXXXXO#O#OO#@#OXXXXXX.. .XXXXX..X.XXXXXXXXXXX",
"##############+O######OOO#OOOOO##OO+#O##OOOOOOO#####+OOO#+##+OOO",
"#######@@@@###########OOOOOOOO@OOOOOO###########################",
"#######@@#@###+O#####OOOOOOOOOOXO#O#@############@@O####O#######",
"#####@O@@###@#OOO###OOO+OOXXXXO+#OOOO######@OO+#@O#OOOOO#####@##",
"XOXOOXOOOOO+OOOOXXXOOOOOOOOXXOOOOOOOOOOOOOOOXXXXXOOOOOOOOOOOOOOO",
"XXXXXXXXXXXOXOOOXXXOOXXXXOOOOOOOXXXXXXXXXXXXXXXXXXXXXXXOOOXXXOOX",
"$$$##$#####$###$$$$$$$$$#####$$$$$$#$$$#####$$$$$$$####$$$O$$$$$",
"OOOOOOOOOO##O@#O##OX####OOO#OOOOOOOOOOOOOOOOOO##OOOOOOOOOOOOOOOO",
"#OOOOOOOOO##O@#OOO+#########OOOOOOO#OOOOOOOO+OOO#OOOOXXXOOOOOOOO",
"#OOOOOOOOO##O#@#OOO#########OOOOOOOOOOOOOOOOOOOO#OOOOOOOOOOOOOOO",
"OOXOOOOOOO##X##OO##+########OOOOOOOOOOO#OOOOOO#+#OOOOOOOOOOOOOOO",
"OOXOOOOOOO#OX#O####+#@#OO#@#OOOOOOOOOOOOOOOOO#+OOOOOXXXXXOOOOOOO",
"OXXXOOOOOO#OXO#OO#@#OOOOOOOOOOOOOOOOOOOOOOOOOOOOOOOOOOOOOOOOOOOO",
"XXXXXXXXXXXX..XXXX.....XXXXXXXXXXXXXXXXXX...XXXXXXXXX...XXXXXXXX",
"#OOOOOOOOOOOOOOOOOOOOOOOOOOO+OOOOOOOOOO+OOOOOOOOOOOOO+OOOO+OOOOO",
"############O################@####OOOOOOOOOOO###########@#######",
"@##O#########################@O##OOOOOOOOOOOOO########O#O#######",
"#@O#O######@##@##############@O##XXXOOOOOOOOOOOOOOOOOOOOO#O#####",
"OOOO##############OO@########OO#XOO#OOOOOOOOOOOOoX++OoOOO#OO@@##",
"XXXXXXXXXXXXXXXXXXXXXXXXXXXXXXXXXO####OOOOOXOOOOo####OOXXXXXXXXX",
"O#+####O###OO#+####OOO#OOOOOOOOOOOO#O##@#O######@##+OXOOOO######",
"###########@@##O###O#@#OOOOO#OOOXXOO+OO#OOO@OOO+O#OOXXOO@O####@#",
"####@#######@#O####O###OOOOO+OOOOXOOOOOOOOOOOOOOOOXXXOO#########",
"####OO#####OOOO######O#OOOOO#OO@OOXOOOOOOOOOXXOOOXXXOOO#@OO#####",
"####OO#@###OOOO###+@@@#OOOOOOO#@#OOXXXXOXXXXOOOOXXXOO@OOOO####@@",
"XXXXXXXXXXXXXXXXXXXXXXXXXXXXXXXXXXXXXXXXXXXXXXXXXXXXXXXXXXXXXXXX",
"OOOOOOOOOOXOOOOOOOOOOOOOOOOOXXXOXXXXOOOOOOOOOOOXOOOOOOOOOOOOOOOO"
};
