/* XPM */
static char *texture__39_1724505265[] = {
/* columns rows colors chars-per-pixel */
"64 64 16 1 ",
"  c #090A14",
". c #10141F",
"X c #241527",
"o c #341C27",
"O c #4D2B32",
"+ c #577277",
"@ c #394A50",
"# c #7A4841",
"$ c #202E37",
"% c #819796",
"& c #A8B5B2",
"* c #C09473",
"= c #AD7757",
"- c #151D28",
"; c #602C2C",
": c #19332D",
/* pixels */
"                                                                ",
".X..  .X.XoXXXOX ..XXX.X. . ..X....          ...X..  . ..XX..oXX",
"+++@+@+O@##+@o+#O@OO@O@@#O@@+++O@##@O++@@O@oOO@@#oO#o@@O@@@+@@@+",
"o@@O+@#O@OO#oO++O@++++@##OO@++@O@#@@$+++@o@oO@@+#O@+oOOOOOO+@O@+",
"@@@$OO@oO@@@#o#@o@@+@@@+@oO@@@@oOOOoO@@O@o@oO#@@OOO+oO@OO@O@@@O@",
"@@@$oo@oO@@#@O@@o@@+@@$+@oO@O#@OOOOoOO@@@O@oO@@@OoO#oO@@O@@O@@O@",
"OOoXOO@oO@@@@o@@o@@@@@X@@o@@O#oO@@OOOOOOOO@o@OO@OOO@o$@OO@oOO@o@",
"ooOX@@@oO@@@@oOOo@@OOO$@@o$OoXXOO@OOOOOOOO@o@OOOOoO@oo@@@OoOO@oo",
"oooooO@XXo$oooOOooooooo@Oo$oOoXooOOOOOOOXo@Xooooooo@ooOOOoOooOoo",
"@@OXOOOOOoo$oo@OXO@OOOXOO$$O@O$oOooooo@@@ooO$O@@@OO@o$$OoOOooOoO",
"                                                                ",
".X..  .X.XoXXXOX ..XXX.X. . ..X....          ...X..  . ..XX..oXX",
"%&%+#@@O++%&%+@@+%%%*%#++O#=%%%%@O#oOOOO+O+@#%%%%%#+o%+%%+O+@@+#",
"#oXX+@@o@ooX.X@O+Ooo@O@@##@@@o$X+@+OXooo.X@@...Xo.@#+X.ooo++@@##",
"@O#O#+@oOoOOOO@@Oo+++@@#@@@OOoO#++O@XXooO+@#oOOOOOO+oooO+#@+@@O#",
"@@@@@#@oOO@@OO@#o+#@++@+@O@+++@@@+O@o@@@+++@@@#@@OO+OoOO.@@+#@O@",
"@+@@O@Oo@@@@OO@#o@#@+@O#@O@@@@@O@@@Oo@@+@@+@@@@@@Oo@Ooo@OO@@#@@@",
"@@@OO@@o@@@@O@##O@@@@@@#@O@@@@@O@@@O$@@@@O@O@@@@@@O#OXO@@@$#@#@+",
"++@OOO@o@O@@@@@#o@@#+@o@@O@@@@@O@oOOO@@@@O+O@@@@@Oo#ooOOOO$#O@O@",
"@@@oOO@o@O@@@$O@O@@#@OoO@Oo@@@@oOO@OOOO@OO#O-O@@@ooOo$O@OOO#O@@@",
"@@OO@OOXoO@OOoo#O@@@@OoOOooOOOO$OOXo@@@@OO@@$O@@@Oo@ooOOOO$oo@O@",
"OO@oooOXooooOoOOoOO@@OoOOXoooXooOOOoO@OOOo@@@OO@OOoOX$OOOOooooO@",
"                                                                ",
".X..  .X.XoXXXOX ..XXX.X. . ..X....          ...X..  . ..XX..oXX",
"%#@o+%++X+++#O%#+X@++##+%%X++OOo+++#O++++X#+XXoo@O++#X+++++%+#O$",
"+##O++%@@OO#@@%+@O@###o++O@@@@++++@Xo@++@@#+o++++@#%O#O@+@#++Oo@",
"%%+@@++Oo#++%$++O@+++%O%+O@+@+%+@+@o@%%++@##@++@+@@+OO%%%+@++#@@",
"%%+@+++o@oO#@O++oOoOOO@#+O@#$O@+@+#o@OOOO@+@@@@O@@++oOoOoO@+++@o",
"+%+$@+#o@@#;@O++OO@@#@@#+O@@+++@@#@o@@OOOO++$@++O@@+o@@#+@@##@O@",
"++@o@+#o@@@@@@++O@##+#@#+O@@++@@O#Oo@@@@O@+#@@@@@@O+o@#++@OO#OO@",
"++@O@@#oOO@@OO@#OO#@##@O+OO#@@@OO@OooOo@OO#@@@@O@@@@o@###OO@@OO@",
"OO@o#@+o@@+#OOO+O@O@@#$@#O@O@@@OO@OO@@@@@$#OO@@OO@o@oO+@#OO@#OO@",
"@@@O@@@O@@@@OoO@OO##@@O@@oO@@@@oO@Oo@@#@@O@O@OOO@@O@OO@@O@O#@Ooo",
"OO@OO@@o@@@@OoO#oO+##@o@@oO@@OOOO@Oo@@@ooO#OO@Oo@OO#OO#+@OOOOOoo",
"XoOooO@oO@@@@oO@oO@##O$O@ooooo.oO@OXOoO@Oo@@OOOOOOO@ooo#@o$oOoXo",
"O@OoOooXoOOOoXo@o$OO@$ooOooOoOoXooo.ooO@ooOooo@OOoo@oooo$oXoOXXo",
"                                                                ",
".XXX...X.X. o.XXXXoXo .........  ..OoX ..XXX.. oX .XXXX  ..  .  ",
"%&%+%++#+%%%%%++#++#%++%+O#+%&%+##+O++%%%#%+++%&%+++@+@#%+@++#@+",
"..oO@+#OoOoO.++#@OOoOoO#+@o@oO$o@#++@....O@@oXoOoo@@+. .X@++#++O",
"%%+O+#+OO###Oo@+OooOO:O@#O@++++o@+#O@@#OOO@o@@OO#O##O@oooOO+@@@+",
"+++@+@+O@##+@o+#O@OO@O@@#O@@+++O@##@O++@@O@oOO@@#oO#o@@O@@@+@@@+",
"o@@O+@#O@OO#oO++O@++++@##OO@++@O@#@@$+++@o@oO@@+#O@+oOOOOOO+@O@+",
"@@@$OO@oO@@@#o#@o@@+@@@+@oO@@@@oOOOoO@@O@o@oO#@@OOO+oO@OO@O@@@O@",
"@@@$oo@oO@@#@O@@o@@+@@$+@oO@O#@OOOOoOO@@@O@oO@@@OoO#oO@@O@@O@@O@",
"OOoXOO@oO@@@@o@@o@@@@@X@@o@@O#oO@@OOOOOOOO@o@OO@OOO@o$@OO@oOO@o@",
"ooOX@@@oO@@@@oOOo@@OOO$@@o$OoXXOO@OOOOOOOO@o@OOOOoO@oo@@@OoOO@oo",
"oooooO@XXo$oooOOooooooo@Oo$oOoXooOOOOOOOXo@Xooooooo@ooOOOoOooOoo",
"@@OXOOOOOoo$oo@OXO@OOOXOO$$O@O$oOooooo@@@ooO$O@@@OO@o$$OoOOooOoO",
"                                                                ",
".X..  .X.XoXXXOX ..XXX.X. . ..X....          ...X..  . ..XX..oXX",
"%&%+#@@O++%&%+@@+%%%*%#++O#=%%%%@O#oOOOO+O+@#%%%%%#+o%+%%+O+@@+#",
"#oXX+@@o@ooX.X@O+Ooo@O@@##@@@o$X+@+OXooo.X@@...Xo.@#+X.ooo++@@##",
"@O#O#+@oOoOOOO@@Oo+++@@#@@@OOoO#++O@XXooO+@#oOOOOOO+oooO+#@+@@O#",
"@@@@@#@oOO@@OO@#o+#@++@+@O@+++@@@+O@o@@@+++@@@#@@OO+OoOO.@@+#@O@",
"@+@@O@Oo@@@@OO@#o@#@+@O#@O@@@@@O@@@Oo@@+@@+@@@@@@Oo@Ooo@OO@@#@@@",
"@@@OO@@o@@@@O@##O@@@@@@#@O@@@@@O@@@O$@@@@O@O@@@@@@O#OXO@@@$#@#@+",
"++@OOO@o@O@@@@@#o@@#+@o@@O@@@@@O@oOOO@@@@O+O@@@@@Oo#ooOOOO$#O@O@",
"@@@oOO@o@O@@@$O@O@@#@OoO@Oo@@@@oOO@OOOO@OO#O-O@@@ooOo$O@OOO#O@@@",
"@@OO@OOXoO@OOoo#O@@@@OoOOooOOOO$OOXo@@@@OO@@$O@@@Oo@ooOOOO$oo@O@",
"OO@oooOXooooOoOOoOO@@OoOOXoooXooOOOoO@OOOo@@@OO@OOoOX$OOOOooooO@",
"OooXooOoo.Xo $OOooOOOooOOXOX.oXo@OoXXOoOoO@@@oOOoooOo$oXooooXXXo",
"                                                                ",
".X..  .X.XoXXXOX ..XXX.X. . ..X....          ...X..  . ..XX..oXX"
};
