/* XPM */
static char *texture__43_1724505265[] = {
/* columns rows colors chars-per-pixel */
"64 64 17 1 ",
"  c #090A14",
". c #10141F",
"X c #151D28",
"o c #241527",
"O c #341C27",
"+ c #202E37",
"@ c #4D2B32",
"# c #602C2C",
"$ c #394A50",
"% c #7A4841",
"& c #577277",
"* c #884B2B",
"= c #BE772C",
"- c #AD7757",
"; c #C09473",
": c #819796",
"> c #A8B5B2",
/* pixels */
"&o@$$$$&&$$&$&&&%%$$O$$@%%:%%&&&&:>:%%&&-%%$o$&&:&&&&&&$$&&&$$$&",
"o. @$$$&&&&&&&&&@%$@o...ooooO............oo@ $&$&&&$$$@@+O@@o  O",
"&O&:&&&@@O@@+OOO&&&&$$%%&&&&&-::;>>:&:&:&::&o&&&$$$$$$$$$&&-$&&&",
"OO@&&&&$$$$$$$$@&&%%o%&&&&&&&-&&-&---&:-&&@&O&&&+&$$$$O@$&%-$%::",
"$O$&&&&....oo.o$%&%&O%:&$@@@@$$@@@@@@@@O&&@&o&$&+@OO@$$$$&&&$&:&",
"&O$&&&O@+@@@@O@O$&%&O%&                  &@&@&&$o$@oooOO@$&&$&&&",
"  $&:&O%%&--&%@O$&&%@&@&$%@@O%%$$$%%@@OOo&%&@$$$%%%@$@@@%$&&$$  ",
"&oO&%%o@@%OO@@@$@&&&@&@%%&OOO%%@@O@@O@%$@&@&@&$&$&&&&&&@%$%&$O&&",
"&O$%&%.%%&&%&&&@O&&&@&&%%&OOOO@@@OOOO$&%$&@&@&$&%&&&&&&&%$%$$$&&",
"%O$$$$.$O$$$@@@Oo&%&@&&&&&O@@@@O@@@@@$%%%%$&O&$&$@@%%$$%$@&%$$:&",
"&.$$$$. .oo....o.&%&O&&&%%OOOOOO@@OOO%%%@%$&O&%.....o..o.@$$@$&&",
"&O$$$$@$%@@@@@@@$&$&O%%@%%@@@OOOOOOo.@%@@%@&@&%&$@O@@@@%@$$@@&:&",
"OO%@&@$$%%%%$@@@$&$&O$@&%$.oooOOO..  .Oo:@$&O%&$@@%%%$@%%$O&@%&&",
"&$&$@$@%%%$@@$%$@&$%O@%%%&&%&:::::::&$$&&%@%o$%$$@@@%%%%$@$++&&&",
"&@$@$@O@$$$$$@@@@&$$.oO..O@oOOOOOoOOOOO@Ooo@o&%%@$$%%%$@@@$$O$&&",
"&@$$$$@%%%%$@o$&@$@%@&%$@&&@@@@@@@@@@.@@$@$$o&%@@&&&&%%%%O$$@::&",
"&@O$$$@%%%%%%%%%@%@$%@:&$:&%&:::&&:::$&@%%&$O&&&$&&%%%%&@@$$@:&&",
"&$$$$$@%%&%%%%%&@O$@@@@$@@@$$$@$$$%%$o@$$$$$@%$@@&&%&&&%$$$$@:&&",
"&$$$$$O@%%&%%%%@O%$O        .              .o$$@O%&&%%%%@@$$@::&",
"&$$$$$o.@@O@@@@oo&@&$&%$O$oOooooooooO@$$&&$%O$$Oo@@@@@OOO$$$$&&&",
"&@$$$%$@+oO+OooO&&$&@%&$$$$$$$$$$$$$$$$%&&$%O$&%OXooOOO.&$$$@&&$",
"&@%$$$$@OO@OOOO&%&$%@&%$@$..o.oooOooO$$$%&$&$%&%@@++OO+$&$$$@&&%",
"$+$$$$$%%%%$$$$$$%$$o+o$.$@+OOO+++@@@%$o$%$$$$%$$$$$$$$$$$$$@&&%",
"-O&&&&$&::::::-&$&&$$&&&&&:&&&&&&&&:&:&:::::o&%&:::::::&&O&:&:::",
"&@&&&&O$@@@OO@@$@&&&$&&&---:&&:::&---:&&&&$&o&%@$@$@@@@@@O&%$&&&",
"$o&&&&@%%%%%%%%$@&&&o#****=****%*=%********@o&$@O%&&&&&%$O$$$&@$",
"$.%&O$@%%&%%%%%%O$$%@%%**=*%%#*******%*%***@O%%%O%%%&&&%$@@+$&@$",
"@ .&$O@$%%%%$%&$@%$@ OOOO#@O @O@OO@##O##@@OoO$@$O$%%%%%%$@$$$.O$",
"&O&&&@O.@@O@@@@@@$@@@$$$$%$@@@@@@@$$$@@$@@@@@$@@o@@OOO@@@O&&$&&&",
"&@&&&&@   ..oo..O@@oo........Xo..o    ... o..OOo        .O&&$&:&",
"&+$&%%$oO.ooOOo@@%$$O$$$%%&%&&::::::&@&&:%%$O$$$$$OOO+o+$&&&$$&&",
"&O$$$$$$%$&&&&&&$$&$OOOOO@OO@OOOOOOOOo@OOO@@O$@&&&&&&%%$$$$$@$&&",
": O@O@O&&&$$$@@@$$$@O &&@$$O++++OOOO+@$&%$&%.&&&&&&$$$$$@$$$OO@$",
"$.@%%%&@@OOOO+o$&&$&@%&&%%$$$$$$$$$$$$%&:$%&@&&%.$@@@O$o$&&%@@$$",
"&.$$@&&$$$$$$$$$$&$%@&&&%&OooooXo...oO&o:%@&O&&$$$$$$$$@$%&@O@$&",
":.@$$%$O$$$$$@$O$%@&@&:&%%&&&&&&:::&&&%@:%$&O&$$O++@+$$$O$%$O@&&",
"$.O$$$.@O+O+OOO+@$@@O&&%&%$...o....oo%%$:%@$o@+OO+OOO++O+$$$@oO@",
"&O&$%$OoOOOOoOO@@&$%@&&%%%$@@@@@@@@@O%%$:%$@@&&$ ..Oo@@@@%$$@$&&",
"&O&&%%$@%%%%%%%%$&%%@&&%%&$@@@O@@OO@O$%%:@$$O&&$$$%%$%%%%$$$$$&&",
"&O&&%%@$@%%%%@$$O%%%O%&$%%@$@@$%$@@$@@%$&@@$@&&@$%$$$$&%@$$$$&:&",
"&O&&%$o@@%%&&%O$$%$@O$%@$%%%%%@OO%%%%%%@&@@$@%$%$@%%%%$$O$$$$$:&",
"&O$$$&$%%%%&%%%@O%$%O@%&O%%%%%%%%%%%%%@@%@@%+$$@O@$%$$%$$$$$$$:&",
"&o@%%%$@@%&%%&&$$%$$O@@@%O@@@@@$%$$%%@O@%$@%o@@$%$%%%%%%$&$@$$:&",
"&@%&%%$%%%$%%%%%$&$$.oO@O$@$$$$$%%@@@@@@@OO$.%$$%&&&::&%&%$%$&:&",
"&$$&&&$&--:-&&:%@&@:$$%$@$&$$%%%%%%$$%%$@$$: :&&@%%%%&&&:&&&$%&&",
"&$$&&&@:&%%%%&%&$&$%%-&%&%%%&&::::::&%%@&-&%$&&&@&&&-&-&:&&&$&&&",
"$$&%&&@&&&&%%&%%O%@oOO@@OOOoOOOOOOoOOooOooo.@&&$@&&%%%%%@&&$$&$$",
"$@&$%&O@@$$@@@@@o@$%&&&&&::&:&&&&:::::&&&&:&:&&%@@@@@@@@O$$$@&$$",
"@  OOO  .  .... .@O$@@@@@@@#%@%%%&$@@@@@@@#$o$$O...     .OOOo o$",
"&O$%&&O$$&&&$$$$&&&@@O@O###O#@*#O##@#OOOO@O@O%$%$$&&&$$$$%&$$&&&",
"&O$%%&@OO@++$OO$&&&o&$$&&:&&&$&:&::&&&&&:&@$o&%&O+OOOo+O$&&&$%&&",
"&.$&&&@$$$$$$$$$&&&@$&&:&-&-:::::--::::---%$O&&&$$$$$$$$$&%%$$:&",
"&.o&&&+ooooXo. @&&%$@$&&&::::::::::::;:-&:%$o%&@@...oXo.@$$$@o&&",
"&.. @OOO@$$$$$$.$%%%oOO*==****=*=====*****#Oo$@O@$$$$$$$@.oO .O&",
"&@&$$$$OoOOOOOO%+@O$OO********=**=***#**#O@o.$$%@oOOOOOO@O%&@&:&",
"&O&&&&$$$+@@$$O%$&$O +                     o.&%%@$%&%%$@%O&&$&:&",
":O&$$&@$oooOOO@$%&$%o@@@OOO.oOOo...  ......$@%&$$OOOOOOO$@&&$&&&",
"&@&$$&$$OOO@OOO$%&$%@$&$OooOOOOOOOOOOO@O &&&O%&$$%%OOO@O$@&&$&:&",
":$&$$&$@$$%%%%%%%&&$@:&O%$OO@@@@%@@OO$%%@.:&@$&%$@%%%%$%%$%&$&:&",
"&@&$$&@&&%&&&&%$@&&&@&$O@%@@@@@@%OOO@$%%%.$%o$&$@$%%%%%%$@$&$&:&",
"&@&$%&@%%%%%%%%$@&&&$&$O$%OOOO@O$@@@O@%&%.%%o$$$$%&&&&&%$O&&$$:&",
"&+&$$&O%%%%&%%%%O&&$$&$O$%OOOOOOOOOOO@%%@O%%o$$@$%%%%%%%%O&&$&:&",
"&O$$$%O%%%%%%%%@o&$$$&$%@$@$$%$$$@%$@@%$@O$%O$$@@%%%%%%%@O%%$&:&",
"&O%$%%OO@@@@OO@O@$$$$$O$%-&&&&%&&:&&&&&%&%@@.$$@OOOOOOOOO@$$@::&"
};
