/* XPM */
static char *texture__24_1724505262[] = {
/* columns rows colors chars-per-pixel */
"64 64 9 1 ",
"  c gray4",
". c #191919",
"X c gray13",
"o c gray15",
"O c #323232",
"+ c #373737",
"@ c gray32",
"# c #555555",
"$ c #808080",
/* pixels */
"OXXXXX.X++XXXXXXXXXXX.X.XXX..XXX XX.XXXXXXXXXXXXXXXXXXXXXoXXoXXX",
"+OXXXXXX+++XXXOOXOOOXXXXXoXXXXXXOXXXXOOO+XXXXXXXXXXXXo+XX++++XXo",
"+OXXoXOo@@@+XOOOO+++OXXX+XXXXXOo+OOXO+++++XXO+o+X+XXo.o+X++++++X",
"++OX+OO@@$#+XO++O+++XXX++XXXXXOO++OXX++X++OX++++++OX++++X++++++X",
"++O+++++@@@+OOO+++++OoX++++XoXO+++XXX+++++XX+++++++O++++++++X+++",
"++X+++@@@+#+XOO+++++++++++XXOX+++XXXO++XXXOXo+++++++++#+X+++X+++",
"++++++@@##@+++++++++o+oo+++XOO+++XXXXO+XoXXXoXX+++++++++++++X+++",
"+@++++@###++O+++++++XO+X+++XXO+++XoXXXo+oXXX+X++++O+@+++++@+++++",
"+@++++@@@@+o++o++++oXXO++++XOO+++XXXXX+++XXX+XX+++X+@+++X++@++X+",
"+++++++++@XXooXX+++XXX+++++XOO++XXXXXXXX+XXO+X++X+o+++++X++@@++@",
"+++++++++++XX++XXXXXXXXXXoOXXXoXXXXXXXXXXXoXOXoXXXoo+++XX+++#++@",
"+@@+@@++@+++++++oXXXXX+XXXXXXo+OOXXXXOOO+oXX++++++++++++X+@@@@+@",
"@@@++@@@@@+O+++++OX XXXXXXXXXoOOoOXXXXXXoXXXo+oO+XX+++++X@@@@@X@",
"+@++@@@@+@@o++++XX.XXXXX+XXXoO+XXOOXXX+++XXX+++++++++++XX@@@@@@#",
"++++@@+@@@@+X@+XXXXXXX+++++X+++++++XXO+++oXX++++++O++#++X@@$##+#",
"++++++++@@@+++X+++XXXX+++++X+++++++OOO+++XXX++++++O++#++o$@+#+#+",
"++++++@+@+@+++++++XXXX+++++X+++++++oO+++++XX++++++Xo+#+++@@###++",
"++++++@@@+++++O++++oXX+X+++++++++++XO+++++XX++++++++++++X#@##+X+",
"o+++++++++++++X+o++oXXXX++++++@++++XO++++XXX++++++++++++o@@o++o+",
"+++++O++++++O+XOX++XX.X++++X+O+++++XOo+++XXo.+++++X++++++@X+++X+",
"++O++XXXXXXXXXXXX.XXX ..XXXXXXXoXXXXXXXXXXXXXXXX.o+XX+X+X+++++X+",
"++++++++++oXXXXXXOXXXXXXXXX++++++++++++XOo++++++++++++++X#@+X+++",
"XoO+OX+O++O.XXXXXXXXX.XXXXX.XXoXXXXXXXXoOXXX++oXXXXX++++X##@+++X",
"OXo++O++@++X.XX+oX+XX.XXXXXXOX+X++XXX+O+OXX.o+X++++o+++++#@+++++",
"OX+++O++@++oXXo+XX+oX.XXXXoO+O+++XXXX+++oXXX++X+++XX+++++##+o@++",
"+++++X+++++oXOXXX++oXX+++X+++O+++++oX+++++XX+XXX++oO++++++++++++",
"+X+++X++@@++XOXX+++oXX+++++++O+++++oX+++++oX+X++++X+++++++++++++",
"+++++X++@@++XoO+++++XX++++++OO+++++XX+++++o.++++++oo++++++++++++",
"+++++X++@++++O++X++XXX+O++++OO++++XXXX++++XXo+++++XX+++++++X++++",
"+++X+XX+@++++O+++++XXX+X++++XO+++++XXX+++++XX.++++XX++++X+++++++",
"X++++XX++++++O++++++oXO+++++O++++++XX+++++oX+X++++X+++++X+++++++",
"+++++XO+++++++++++++OXOO+++oXO++++XXX++++++X++++++XO++++++++++++",
"+++++oo+++++++++++++XXooO+XXXXX++++XX++++++X++++++XXX+++X++X++++",
"+++++o++XXXXXoXoXX++XXXXXXXXoXXXX++XX++++X+XXXXX++XXX+++X++XX+++",
"XXoXX++XXXXXXXXXXooXX. ...XXX .XXXXX++XX+++XXXXXXXXXXXXXX++X++++",
"++++++++++++++O++XXXXXXXX+OOOXo++++++++++++++++X++++++++X++X++++",
"XXo+oXO++++oOoOXXX.X... .XXXXXooXOOXXXX++oXX++o++++++XXXX++o++XX",
"++++XXX+++XXXXO++XXXX XXXXXXXX+OOO+XX+++++XX++++X+++++++++++++++",
"+++++XO++++XXX+++XXXXXXXXoXXXXOOOXoXX+++++Oo+++++++++++++++++++X",
"+++X+XX++++XooX+oXXXXXoX++XXXXOXo++XX+++++X.++++++o+++++++##+++X",
"+++++XX++++++.X+XXXXXX+++++XXXoXoX+XO+++++O.++O##+OO+++++++++++X",
"+++++XX+++++++X+XXXXXX++++++XXXXX+XXO+++++OX+++##+OO+++++++++++X",
"+++++XX++++++X++++o+XX++++++XX+XX+XXO+++++O.++++##oO+++++++++o+X",
"+++++XXX+++++Xo+++++XX+++++XXX++o+XXO++++++X++O+#+.O++++X++++X++",
"+++++XXX+++++XX+++++XX+++++XXX++++XX++++++XX+++##+XO+##+X++++X++",
"+++++XXXX++XXXo++++XXX+++XXXXX+++++O++++++OX++O+##OX+##+o++++X+X",
"XXX+X.XXXXXXXXX+++++XXX++XXX.XX++++O++++++XX+++++#OX++++X++++X+X",
"  .XX...XXXX..XoXXXX.XXXXXX.XXXXXXXX+X+++OX.X+++++XX++++X++++++X",
"  .XX.X....X..XXXXXX X....  . ....XXXXXXXXXXXXXXXXXXX+XoX+++++oX",
" X XXXXXXXXXOXXXXXXXXXXXXXXXXXXXooXX+++XXXXXXXXXXXX+++++XXXXXXXX",
"X.  .XoXOXXXXXXXX..XX.XX...XXXXXXXXXXOOXXXX.XXXXXX  X++oXXX+XXXo",
"XX.XXXOO++XXXXX+XXXXXXXXXXXOOXX++XXXX+++oXXXXXXXXXXXo+++X+++o+++",
"O..+XXOO+++++XX+XXXXX.O+XXXOOO+++XXXX+++++X.X+X++oXX++++.+++X+++",
"oOX+XXo++++++XXOXXXXX X++XX+++++++oXX+++++X.++++++XX++++X+++++++",
"o++XXXXO+++++XXXXXXXX.X++XX++O+++++XX+++++X.++++++.X+ooXX+++++++",
"O++XXXXO++++XXoXXXXXX.++++++OO+++++XX+++++X.++++++ X+oXoX++++++X",
"++++oX.O++++XXXXXXXXXX++++++OO+++++XX++++oX.+++++X X++o+X++++++X",
"+o+++XOO++++XXXXXXXXXX++++++OX+++++XX+++++XX++++++XXX+o+X+++++++",
"+++++XOO++++XXXXXXXXX.+++++OXX++++XXX++++XXX++++++XXXXX+X#++++++",
"+++++XXX+o++XXXXXXXOX.X++++OXXoXXXX.XXX+oXXX++++++XXXo++X++++++X",
"++++XXXXXX+X..XXXXX+X.XXXXoX.XXXXXX. XXoXXXX++++++XXXXooX+++++XX",
"o+++XXX.XXXX....XXXXX.XXXXoXXXXXXXX. XXXXXX.++++XXXXXXXXX+++++++",
"XXXX ... .   .   .. ..   .XXXX X.         .XXXXXXXXX   . X+++++X",
"XXXX .  .. .      XX.XX . XXX.XX....XX. . XXXXXXXXXXX.   XXXXXXX"
};
