/* XPM */
static char *texture__17_1724505261[] = {
/* columns rows colors chars-per-pixel */
"64 64 17 1 ",
"  c #10141F",
". c #241527",
"X c #341C27",
"o c #202E37",
"O c #411D31",
"+ c #4D2B32",
"@ c #602C2C",
"# c #394A50",
"$ c #7A4841",
"% c #577277",
"& c #884B2B",
"* c #BE772C",
"= c #AD7757",
"- c #DA863E",
"; c #DE9E41",
": c #E8C170",
"> c #819796",
/* pixels */
"+##+ooX+%%+$@++$$$####%ooo##++++++++####+$+$$###$$#o++@#++######",
"Xo##o.X@&**-***;****&$####+@&&******;*--&@@-;;-**$###@*+&@*;*;;&",
"+ooooooXXo....XoooXXXooo++ooXoX...XXX..oXooo+XXoo#+#ooooXoo+ooo+",
"+o+++#oo##ooooo#+o+oo+#####++oo+o+#+#+##o+####+o##++####++######",
"############o###################################################",
"oooooo+XoXoX..XXXX...XXooooooo.Xoooo+##++XoXXXoXXXXoXXXXXXoXo#oo",
"##o+###+o+#+ooo+++#++o+oooo+##+++##########+###++##+#+##########",
"#++&;*-*;;-*-**;**&######&*&*-*&@*;**&#++++#################%###",
"+ooX+O+++++ooXXXX+++ooo.XXXXXo++XoXXXXOooooo##++++######+#######",
"#oX###+####++++o###++++#####++##+oooooXoooo+##+###+############+",
"###############%####%##%%#########+++#########%##%#####%###%%%%%",
"###.Xooo#$@@&=$$@@@@@$#+X.oX.o#@&*&@&@$$&*&&*&&>##++#$=$&&&&$$==",
"%#######+&&&&&&$@@&@@%###%%%###@&&&&&@&$&&&&&&@%%%%%%+&@&&&&&@&&",
"#+o++XoooX+#+++o+o+#++o+o#+XXoXoXX++o##o#+++###++##+##++########",
"%%##################%###+#######################%%%%#######%%%%%",
"$%%#%##############%#### +#####################%%%%%%%%%%%%%%%%>",
"#%%#%##+++++++X+++##%#+%#####+++X++++#+######X+++#######+######%",
"%%%%###@&$;:;::**-&$%%+###X$$*-*--:;&&%#@$&&==&;;;;*&;-;-;;;;=&=",
"%%%%###++X@@@@@@@@+##%+#+#X+$@@@@@@@+@##X@@@X+@@@@@@@@@@@@@@@@@>",
"############%#########oo+#############%##########%####%%%%#%%%%%",
"####%#############+#####o########+####%#######+########%%%%%##%%",
"&&$&&*&$$=&&&$&****&&&$&&&$@$$&&&&$$$$%#>%%#%%###%%%%%%$$&&&&&&&",
"&&+@X&&&+@&&@X&&&&&&&@@@@&X+$@&**&@@+$%#%#####%###%%%%#+$@@@@@&&",
"oXXXo+XoXo+++++XXX+++XX++oXXXX+X.XXX.XXoooXXX+XoXX+++####++XXX++",
"%%%%%####%%%%%#####$$###%%%%%###+ooX++##+++##++++o########%#####",
"#%###++++#####################o#+&@&$@*&&&&&&&&&&$&*&@$&&&%%%%%%",
"#####+#%%#$####+##%%%%##%%####X#X@@@$X@@&@@@@@@@@$@&&$$@&&=%%%%#",
"&*&@+#+@&&&&&&&****&$%%o+##+#+.######+#++###########%%##%%%%%%%%",
"@*&+++++XX@@@@@@@@@@####%%#%#%#########X##++X+$$+#%%%%%%>%%%%>%%",
"######+####+########%#o#%%%%%%#%#######X@*&&&@&*&$>%%#$%%%%$%%#$",
"#%#%%##########%%%%#%%+##%#%%#####%#%#%++&@&&@&&&=%%%%%%#%%%$#$%",
"##############+################################%##o%%%%%#$&*&&&$",
"%###################%%##%#############%+##++##$%%%%%%%>%#=@&&&@@",
"###$###$#$$$#+$##%%%%%#o#+&*--*&&&&&&&$$&&X*;;;*=$>#%%>%+#######",
"###+$**&&**&@*&$$%%%%%#+# @&&&@@@@@@@@$%@@X@&@&&@+%%%%>%>%%%%%%%",
"###X++++++##X#+###%#%%#######+#+#+++#####o+########$$%%%%%$####$",
"#%%%##########%%%%%%%%##########%%#%%%%#%%%%%####%>%%%%##%%%%%%%",
"#%$$############%###%%##++#++++###################%$##%$$%$%%##%",
"%##$$#####$$$$$$$$%%%%%#########+$$%$$####%%%%#%%%%%#%%%$%%%%%%%",
"##@&&&&&*;;**;**$>%%%%%###oo+&&&&&**==&&&&&@$@**@%%$+@$$$=&&*&$>",
"###%%%%%%%##%#%%$%#%%%%%##+#X@@@@&&&&@$@@@@@+++@+%$$o@&&@$@&&&+$",
"Xooo##%#+########%#%%%%%##+X+#++++#+#####+#########$+#++####+###",
"#%%#%########%%$##$#$%%%%+#######$########$%%%$%$%#######%####$%",
"##%###%##X&&******&***@%>#################%#%%%%%%###########%$$",
"%%%%%####X&&&&&&&&*&&&@>%%########%%###%##%%%%%%%%%##%%%%%%%%%%%",
"%%%#o###+X++#+++##++++X>#%#################%%%$#+%%##%##%%#$%%%%",
"#%%%#+#oo+ooooooooXo++#+#+##++#########X##+$$$%%%#%####$#$$$$$%%",
"%$%#%####+##%######%%#+####+-;;--;-;&+$+&;;;*&&$%%%##+*--;;-;;:*",
"%%%##++++X+&&&&&&@@%%#o####X+++#++++++$ +++++++#$%###oOX+++++@$$",
"##+#%####XX&&&@&&@+%%#o###############++########################",
"####%####+#o+########$#%########################################",
"#+#####++#+######%%%%#X###+oooooooooooooXoo+###+###+oooooooooooo",
"X###%####@&&&&$&&&&$%%%%>%################%#%%#%%%##%%%#######%#",
"+#######X@&&&&$&&&&=>%%#%###########++########%%%#############%%",
"########+oXXXX .ooo##%##%###############%#####%%###%%%##########",
"######++++oooooooXo+###%%######o#################+#####X#++++##$",
"+######++########+#%#######X####++######+#+#####$ ########+#####",
"+######o@&&&&&@&@%##############@*&*-*-*&&&&&***@X###+#++@&&&&&&",
"#++##+XoXX@@+@@@@X########.#####X@@++@++X+@@@+@@X #####+X++@@&++",
"@&&@&*@+.ooXX.XXo#######+###+#+o+#+o+o++oooooooo.##o####o+ooo+#+",
"&**&&*&###########%#####+##+.Xo+###+o++#++X##++++o######+oo++X##",
"oooooo#+@&&&&&&&&&+#####+##.X&&$@&&&*&&*-;;;&&@+#X&*&#X+@**-*:-+",
"###++##oX@@@@@@@XXX#####o+#X+XX+XXXX+X@+@@@@XXXX#XX@@+oXX+@@@@++",
"%###oX#############%#oo#+o###oo+o#+o++o#####+#oo#oo++o+###+++###"
};
