/* XPM */
static char *texture__21_1724505262[] = {
/* columns rows colors chars-per-pixel */
"64 64 19 1 ",
"  c #090A14",
". c #10141F",
"X c #151D28",
"o c #241527",
"O c #341C27",
"+ c #19332D",
"@ c #202E37",
"# c #4D2B32",
"$ c #602C2C",
"% c #394A50",
"& c #7A4841",
"* c #577277",
"= c #A53030",
"- c #884B2B",
"; c #BE772C",
": c #CF573C",
"> c #AD7757",
", c #C09473",
"< c #819796",
/* pixels */
"%@#o**X********%%%**************.*%%%%%%%%********************@@",
"%%%%**%**********%**************o>;;;--;>*********************@@",
"******#**********%**************O*******************************",
"<<****.*<*<<<<< <@<<<<<<<<O******<*<**<*@@**-*<**<**<<<<<*******",
"****<*o*********<*********@*<************%**;*******************",
"******#*******************@************<#%*&;**********%<*******",
"******@*******************@************O%%*-;***********<*******",
"******@***%***************@*************#@##%%%%@%%%%#@O********",
"******#*******************#**************@%*<<<<<*<<*<<*<*******",
"******@****************<<*%**************%*************<********",
"******X%OOooo###Oo%@%*****#**************%************%%********",
"******O%******************O******%*******%**************%*******",
"******O**%****************o*******%**<***%**********************",
"******.*******************O%*************#******#***************",
"******o*******************O%%**%%********%***%**<********#******",
"<*<<<<#*<******%**<<<<**<<.o*************%************#***<<<<*<",
"**************************.**************%************@*********",
"******.%**********%******* **************%************%*********",
"*%*o%*********<<***<<<<<*%%*<***********%<%*%%**<*<*@**<*<******",
";-%O**********************-;*;&*-*;;&*;*************%*****%;;*;>",
";-*o**************%****%**;;*;&*-*;;&*;*************%*****-;;*;>",
";-*O**********************;;*;-*-*:;%*;*************%*****&;;*;>",
";-*O**********************;;*;-*-*;;&*;*************%*****>;;*;>",
";-*@**********************;;*;->=*;;&*;*************%*****>;;*;>",
"-&*@**********************,;*>&&-*--&*;*******************<;;*-&",
"%%%%*%%%%@@@@**%*%.o.oX#O@%@%%%%%%%%%%@@@@O@@%%%%%%%***%**%%%@%%",
"*****************%%*********************************************",
"****************************************************************",
"********************%**************************%********%****%**",
"<<<<<<<<<<<<<<<<<<<<<<<<<<<<o<<<<<<<<<<<<<;;;;;*<<<<<<*<<<<<<<<<",
"***<**********%************* **********<%*&>>>>***<****<<*<<****",
"*****%********%**********%**.*************%*******<<***<<**<****",
"**;;;%*******************%**O*************%***<*********<*******",
"**********%****************<**************%********************%",
"****<*%<**%***.**.**********%*************%*******************<*",
"******%***@%%%O%*.*********#%*************%*****************&***",
"******%**********.*********<o*O+Oo@+XXoX**%*********************",
"******%**********o**********@*-=-%=;-%==#*%*************<o*%*%%*",
"%****%%**********o**********@*-;-%;;-%=;#***************<%******",
"*%****%**********o**********@*;;-*;;-*;;%**************:*%****@*",
"******%**********.**********#*-;-*;;-%;;#**************;********",
"******%**********.**********%*;;-*;;-%-;%*%%***********=********",
"******%**********.**********#*$$&%%%%&--**%************=********",
"%%@o..OOooXOOO@o. @Ooooooooo.*************%************;*%******",
"*******<<<<<<<<<<****<<<<<<<O*************%*****************%**#",
"******%**********%**********o@%****%*****%%*************%%%%%%%%",
"******%**********%**********#*****<********<.*<<<***<<<%%*******",
"*****%%*********************@***************o*******************",
"*****<%*********************%***************o************%*****%",
"******%***********%*********@***************o*******************",
"******%********%*%%%**%****@@%%****%%*******o%******************",
"******%**********%****%*****ooooooOOo%******.*******************",
"*****************%****%*****#********%*%%%%*o*******************",
"***%*************#**%*%*****%***********%*%*o************%******",
"%%%%**%*#********%%***%*****#************%%%.******************@",
"oo..OO%**********#****%*****#**************%.******************O",
"%**%*************O%%*%%*****%%***********%**O****%%*%***********",
"%%%%**%**********o%%**%*****%***********%%**.%***%%%*%%*********",
"%%%%*%%**********.%%%*%**%** %%%***%%%%@%%%%o****%%%%%%%%%***%**",
"%%%%%%#********%*o%%%%%**%##%@%%%#%%%%%%%%%%.o@%%%*%%%***%***%%%",
"%%%%%%%*%%%*%%%%%@%%%%%%%@%%O%%%%%%%%%%%%%%%-====%%%%%%*%%%%%%%%",
"****%#o********%o%**@%****%%******.*****%**%**%****%****%***%***",
"******o*******%%%%**************** ***********%******%%*********",
"******o********%#.**************** *******%***********%*********"
};
