/* XPM */
static char *texture__41_1724505265[] = {
/* columns rows colors chars-per-pixel */
"64 64 18 1 ",
"  c #090A14",
". c #10141F",
"X c #151D28",
"o c #241527",
"O c #341C27",
"+ c #202E37",
"@ c #411D31",
"# c #4D2B32",
"$ c #602C2C",
"% c #394A50",
"& c #7A4841",
"* c #577277",
"= c #AD7757",
"- c #75A743",
"; c #C09473",
": c #819796",
"> c #A8B5B2",
", c #E7D5B3",
/* pixels */
"::%+%*****%%%###+:OO%&O&&%%+#o%o%%o=###*O%.+**:***%%%#%%# *%&**:",
"::#.OOo#%*&%%#%Oo:OOO#ooOo. . %O&%o&O##*O%ooOO %%&*%#%%#O :%****",
"::##**:*****:**%#:#&*:o.o%%%%#Oo&%.=##&&O%.%%*%*******&%# :**:::",
">>#.    . ...Oo  *.=;;O%%***%Oo&*&.&#&#&O%.      . o oo   #%*:::",
">:O #%*&:***%*+..:O=;=O&:*OoO.#&:%.&O###O%oo..O*:**%%%%oo #.**::",
"=*%%*:>,&****:*:%:O&;= &;:::=&=&&#.& #O#O#.*:&%;&%#%*:**% *%&*:*",
"*&%#*:>::::*:****:O&=*O&&:::==*&&%.% && ##O*:=>::*****:** %%&***",
"*&%%:>::::::*:***:O&=&o%*===&==&%%.&####o#+*::>*>:*:*::**.%%%&**",
"*&%%*::::::::::**& &=#O.O.=&==$##&##.  O.++*::::::::*::** o%%&**",
"&&#%*:::::***::%%* &=%oX++&***&%%%%Oo+%+%%+*::::::::***%* .#%&&&",
"*&%%**:*::*::**%%*O&*&o+XO#####OO##O%%*%%%+**:::*:*:*:*%# %O%&&&",
"&&#%%*********&%%:O&=&O%%*%%%#%OO+++:**%+#+*:::**:******% %O%&&&",
"&*+o%%%%#%%#%%#%#:O&*&O%%%****%**%*%****%%+*%%%%%####%%%% #o%&&&",
"&*O#*:**********#:O%*&O%*#%**%%***%%**%*%++%*********:**# ##%&&:",
"**#%:>>::::*:>>%%:O&=&O%*.:***%*%%%*%%%%%%+%*:>>:*:::::%%o%#%&&*",
"&*%+*::::=:*:::%%:@#&&O%*.****%**>*%%%%%%#O*:>>:::=**:*%% *+#&&&",
"%%O .%*%%&:**%#%#* #*&o%*o******o**%*O#%O%o**:::*&*:**%%%  OO#%&",
"*&oo@%###OO%%%%*#*O&&&.%.******O*:&%:****%O*%%%%%%##%%&*% %o#&*=",
"*#OO****%*******%*O%*&O.%*****%+#**%***%*%+*************% %O#%%%",
"&&O+*:***%%%:***%*O%*&OO*%%**%%o&&&%*****%o%&****%&#****%X&%%#&%",
"&&O%%**%%..#%&*%%*O%:*OO%%%%##O.%&%+::::%%o%%**%O%O%%%*%% %%%&&&",
"*&O#*%%%%oo###*&%:O&:&o%%%%%%%%%#%#&&%%&#%o%%&&%O%#%OO*%%.%#%*&*",
"# O#**%%##&&*#*&%*O*=&o%**%:*:#%%#*:&&&&##o%%*&%%%%&&O%&%.##*&%o",
"&&+#%%%%%#O%%O#o+&o&&&O#%O:***&%*OO&#&&&#%o%O*&##O%##O%%% #*****",
"&%+O%%%#%###%O##+*o&=&O OO*****#%*.&*&&&##.%#%%#O###%O###.#%&&&&",
"%%Oo%%##oOOOOO#%O&o%=&O%.#*    o *.&   %O#.%%%&OOOO#OO### #%&*&&",
"&%OO%#%%%%%#%#%O.%o&=&O%.#%%%**%*&o,#*.*&#..*%&%%&%%#%#*+ #%%&&&",
"&#OO#.#&%%%%%O#%#*O#&&O%OO%%***%&%o&O&#*O%o%##&%&*****:#O.%+%&%&",
"%%O#%%.#&%%*O#&%#%o#%#o%OOO****%%# %O&#*o#o%&##&&***%*### %#%%%%",
"%%OO%%%#O#OOO%%%#%##%#.%O#****%*%# %@&#&o+o%%&O#%%%###&%# #O%%%*",
"**O#%%%&%##o&%%%#%O##OO%*O&&****%&.%O&%&O#o#%%%%#%%#O&%%# #+%%%%",
"%*OO#%%&%%%%*%%###o#OOo O ..o+%*## #o#O%O%o%%%%%% #O%%%%# #+%%%#",
"&%.+%***&*:>:***#O.###O#&%%*&*  %%o# o.OO#o#%%%*%%%&*&%%#.#+#*&*",
"+Oo.%%**%OOo%+o::::>>:&.%*****o.%% #&##OOOo+%*%*%*%&*%%%O #+#O+%",
"=&o#**:******%OO o*&==#&%%**%%oo%#.#&&O;o#.#%**%%***:***# O+%%&%",
"*&o#**:**%%*%*o#%%:&*&#O#%*%&=:.&%O##&%&.%.%*%$=*&***%%Oo #OOO##",
">&.O%%***:**%%o#OO##&&#O%#**OO.o&%%o o.oO%.+*&%:*:*****%Oo%+&&&:",
">:OO%%**:***#*#o..oooo o%%*&#-#o&#%#**%%%%X#%**:*:***::&% #oO*&*",
":;OO*::&.   %**%+#.oOO.+%%*%&-$o%#%%**%%%%o%*:*:   O*&**%.&#&**;",
">:o%**:&****:***&%.O#%o%%**%##oo&&#%%%%%*%X%::*****&:*:*&O&#&:::",
">:%#*:**&*%&*****:O#*%.%%*%%oOoo&&##%%%**%o%*:***&***::*& %O%**:",
":>%%%&&*********%:%#=&O%%%%%.OoO&&%%%%%#%#o#&*%***:*****% *#%**:",
"::%%%:**********&:O#&&O%%+#O++O.OoOOOO++++o#%************ *#%*::",
"*:#%***%*####***%>#&=*o+#*o.o.X...o.o+%%++ .%**%&&O##**** :%&***",
"::%%****%%%&****%:#&==.O%o#%%%%%%%%O%%%%#+O%***%%%%%%%**% :%&*::",
">>%%***O+%%%*%**%>#&;=.%O+**%%%%%%%+**%%%%+%***O#%******% *%**::",
">>OO#&%###%**%%&%% =;=Oo%**%**::**%%*:;=#+O%=#%#%%&*%%*** O%&*::",
"::%O&%%##%&%%#%%%*O*=&Oo#*******%*&#%*##o+o%&&#%#%%%%#%*% #%&**:",
"**%O#%%%#%%%O#&%%*O*&&O%%****%%%+%*%. ..o%O%&&#%###%#O%*%.&%&***",
"*&%o#%%%%%# OO%%#:o&*#O**:>>::*::**%*%%%++o#&##%%%# OO#%%.%#%&**",
"*&%O#&%OooO# ###%&o&&#o          %%%%%%%%%o#=#%O...O.####.%+%&**",
"*&#O&&&&&###&&&%#%O&&%O%&&&&&&*%%%%%%%%#%+o%%%&&%#%%#%&%# #+%&&*",
"*&%O%%%&####%%&%#  %&&O%*****&*&%%%***%%#+o%%%%%#O##%%%%# %+%%%%",
"&&#O%%&%%#O#%%%%#%o&=&O&****%&**%%%**%%%%+.#%%%&%O#%%%%%# ..%%%%",
"**#+#%&%%###&%%%%%o%&&O%**%%&**%%%%%:%%%##.+%%%%*%%%%%#%#.%%%%&%",
"&*%o#%&%%%&%###%#%O&&&O%*%%%**&*%%%%%%%##%.O%%&&%&&&%#%##.&#%*&%",
"&&Oo%*&*+O#+%++Oo%o&*&O%%%%%%%%%OOOOoOOoO+o+%*&*oo##%OO.. %O%&%%",
"&&O O#O %&&##    #o#&&o#%%% . %%%%%O+%%%%%XO%%O %**%# o   #O%&%%",
"&&OO%**%%#+.>#&#O%O###o%%%%#**%%%%%%+OOO%+o%****%OO**#%&% %o%&%%",
"*%#+%***%%%%%&%%#%OO##.#%%%%&%O%%%%#    #%o#*****%%#%%%%# #o#%&*",
"%*oO%**%%%%%%%%%##oOO#o%&*%%%#O%%%#*#O###Oo%*****%%%%%%%# #o#&&&",
"&*#O%%*::**OO%%##%oOOOo#&*=%%#OO&%*O>>>:O%o%*%::***#O%%%% #O%&%%",
"&*+O%*******&%%#+%.O##OO&&*#%#O#&O&%#Oo#O#o%*****&*&&%%%# O+#&&*",
"%&+O%**%&&*&&%&#O*OOOOO%===#%%O%*OO&#####%o#%*&%&&**&&&## #O##%%"
};
