/* XPM */
static char *texture__42_1724505265[] = {
/* columns rows colors chars-per-pixel */
"64 64 27 1 ",
"  c #090A14",
". c #10141F",
"X c #151D28",
"o c #241527",
"O c #341C27",
"+ c #19332D",
"@ c #202E37",
"# c #4D2B32",
"$ c #602C2C",
"% c #25562E",
"& c #253A5E",
"* c #394A50",
"= c #7A4841",
"- c #577277",
"; c #884B2B",
": c #BE772C",
"> c #AD7757",
", c #468232",
"< c #75A743",
"1 c #C09473",
"2 c #3C5E8B",
"3 c #4F8FBA",
"4 c #73BED3",
"5 c #819796",
"6 c #A8B5B2",
"7 c #D7B594",
"8 c #E7D5B3",
/* pixels */
"***o*-oOOOOOOOOOO@OOOOoOOOOOOOOOOoOooOO@OOoOOoOOOOoOOOOoO->##***",
"*-**O.ooooO-55>>55>55555555555555555555>>5>55>>5>>>-5### O.O*---",
"OOOOOoo-==-55>5>>1115111551155>51115555555115>>>555555--oO.OOOOO",
"555555>55>-=#######=****-=--=-=----=--------=========-55>>>>>>55",
">>>>>>>>>--==========**===##==*==#=*##=====*====##=*--55>>5>>>>>",
"=====#####OOOOOOOOOOOoOOOOOOOOOOOOOOOOOOOOOOOOOOOOOOOOO##OO=====",
"565-5#ooO oo.oo.oooooOOOooOOOooooOooooOoOOOOOooooOoooooO.-555>55",
"#.OO-oO#OOOOOO@@--------=--==OOOO##---------=-=5=5>6--==.*=*5#O#",
">5665=O==*-----*---=----5--->=>5>>>---------*==55>=5-==-.55>=>--",
"5555=>O===-----*---------------5-55---------===5----===-.6555>51",
"555=>>#===----=#OOOo                         *=OOOOOO==-O5555>55",
"11155>#=-O-555555@@##@@@*O@##*********O*####O@-55555-==-O5>>5555",
"5115>>#==O*====-=O#5655555555555555555555555*@*---=====-O5>>5555",
"555>>>#==**#*##=#O*5#*****####**#####***###-#O#==****#*-O5>>1555",
"55>555#===##@OOO####;o@@@@@@@OOOoOooooooo.$=OO--------*-O555>555",
"155555#===-*O=---#OOO***********#*****#***O*@@*=-*-****-O5555155",
"5>>55>#=-*-====--#o##*X       . . .. ... ***@O--;**#-#*-o5---555",
"-->>>>#=-*-==->>-#O##**-*@+.XXX.XXXX%%%***#*#O5-@@*@-#*-o5---->5",
"==---=O*-#-=#-=*-OO###@-2++X+222&&2X&<<%&##*#O5---**-**-o==>5--*",
"***###o-==-===***Oo*@#*+X++X2*&2222.%-,+&##*#O5-****-**>.*#*##**",
". ...  >==5ooooOO*O*o#&+X+XX**&3&**+++++&##=#o#OooOoO##-.  .... ",
"=-=Oo*O>=**##***#-@*o#2++-X+*%+++-3+&@+%&#**#OO@@####O*-o=*oo---",
"*=#@*-O>=*=#;;;O#-O**#2-*+++**+++-2+**@+*##*#O**=---##*>o--*****",
"****#-O>-*-$=$$@#-O*#**%++XX532----+X++@2##*#O#-------*=O--*****",
"##*#O-@==.-$$$$*#-#***2222XX-*X++*-++**-2##*#O#*===-=**-o--#OOoo",
"*#**O-O>#o-$$#O##-O*#*22-2+++++++%%++%222#*##O=OOOOOOO*-o=-**;*@",
"*3**#-O-*o-#$O###-O***2-***222223332*%-22*#*#@555555--=-o--O*3**",
"**@**-O>*O-##O#O#-O*##*2*-*%<;%----%*-*22*#*@O-====*O---o--O*@**",
"@@#*O-O-*O......O=O****2222%&%%%&*%%%&*%2*#*#o-#**=*O-**o--@***X",
"****O-O-*O**=****O.****-----5-----*****-**#*#@-=#**=O-O-O--****#",
"****O-O-*O*o   .#=.##**######***##**######O=OO-=@*-=#---O--#*#**",
"..o*O>O-***..OOoO=OO....................oo O @-=O*--#---O--O****",
"   OO O-=#o  . .o#@oooOOOOo....o.o......... @@-=#-**#---o..O...o",
"----- O--=5------OO5555566565555666666665655O#5=*5X-#---o. 5555-",
"1115>5555#=====--O--555=555-5--5-@oX#*O--*--*O--*O*-#-515555>555",
">55>>>>>>*=====-5O**5555555555555@Oo#@@-*--=#O=*##OO#==>>>>>>>1>",
"-----#*==#=----=-Oo**=-===----=****########*OooOOOOOO#=-=-*-----",
"55555=O=---555555##OOo................  .....O55-5555*=5O=-55515",
"67=115O*====-===-o==--=**####*###=##*###O###**######**>>@>=11167",
"55>>>>#***=O=*==-o=============---55>-*----#*566666==#--O5555155",
"555>>>#=**-*====-o**#*====*-**=*==55+**====#=51::=-==*>-O55>>551",
"555>>>#*#=-*=====O*=====--=---====5*=*#-==#O*->>>--==*--O55>5>51",
"551>>5#**=-=====-O#-*=**----------5#*=#-==-#=-##@#**=#--o5555515",
"5111>5#**=>=====-O-=***#*##******-5===#->-=#*--=-====#--o555>111",
"5151>5#**=-=---5-OO==#-**==###***=----*-==-#*>=====*-*==o55>5511",
"1185>5*==*=******@#.oOO...o.oooooO..XoooOoOo-=======*##Oo55>55>5",
"5115>5##*####O###*--*OoOoooOoOooooooo...ooO##OooOOoo#O#-.5555555",
"5----5#--**.. Oo.o**#o55-555555555555555o-*#oo *OOoO#O#-o5-==>>=",
"=--->-#->**.o..  .**#@*****************#O*O#o..oooooO##-.5=--->-",
"*****O 5##**######*.O###=******===**-*##O#O*65555565--#-O#*==*=*",
"OOOOo. >=*=******O*.*#**#**##**##******#O#o*-=--------*-O OOOOOO",
"##o..*o>>*55-55->O#O**-----------------O=Oo*-*#*###O*-*-o*ooO###",
"Xoo#*-o>>*5---==>##O**-*--5@@*@********@*#.*5-OO#OOO#=*-o=-*-*Oo",
"**#**-O>==--====-##O***#@*@@@@@@=@,*,,,@*O.*5-.  oOOO5*-O=--****",
"****#-O#=*--=-=--#*OO#*#@@+@@*@@@@=*,%*+#*O#5=****-*#-*=o=-#****",
"*4#*#-O>=*5=-==-=#***O                 .#***5*******#==5o=-##**-",
"**#*#-O>=*-======O=##O...... ...... ...O#*O*###****###=-.=-#****",
"@@o##-O>=*55-----O=##***#*#@OOO@OOOO####**O*OOOOOOOOOO=-o--OOO**",
"****#-O>-O#=*=*=*O*===*=*=*============-=====********#=-o--#****",
"***#*-O-=O#....ooO=OOOOOo=####OOO##O####OOO=*=-===-===*-o--@****",
"**=#o-O--#-=======*====-=*=-==--===-===============*=-*-O-=#****",
"---*o*o5555555555-=555555555555555555-5=5555555555555555*5*o  oo",
"...#O.o########################O######*o################Oo O.. .",
"XoXoooooooooooooooooooooooXooooooooXooooooooooooooooooooooooOOoO"
};
