/* XPM */
static char *texture__20_1724505262[] = {
/* columns rows colors chars-per-pixel */
"64 64 16 1 ",
"  c #090A14",
". c #10141F",
"X c #151D28",
"o c #241527",
"O c #341C27",
"+ c #202E37",
"@ c #4D2B32",
"# c #394A50",
"$ c #7A4841",
"% c #577277",
"& c #AD7757",
"* c #C09473",
"= c #819796",
"- c #A8B5B2",
"; c #E7D5B3",
": c #EBEDE9",
/* pixels */
"+######################%%##%%%#%%%%%%%#%#%###%#%#%%%%#%#%######+",
"%%%%==%%%%%==%%%%%=====%%=%%%%%%%o@%%%%=%==%%===%#%O%%%%%#%%%%%=",
"......oooo.oooooooooooOoooooooooO+ooooooooo..ooooo.ooooOOooooooo",
"######%#######%####%%#%####%%%#%%#%####%#%######%#%#############",
"################%##%#######%%%%%#######%##########%##%##########",
";;;;:-;=;;::;:;:;=;;;:;-;;-%%=--;--%---===-=-;;;;;==--==---=;;-=",
"=#=====%=%=---===%=========##%=====%%%%%%%%%=========@##O%%====@",
"=======%==--=====%=========##======%%%%%%%%%=========%====%====%",
"=======%=========#==================%%%%%%%%==========-=========",
"=====%%=%=======%#=================%%%%%%%%%============%===%=%#",
"%$%%%%$$%%%$%$%$$#$%%$$$%%%%%$%%%%%########.#$#$%%%%%%%%%$###@@@",
"OOOOOOOoOOOOO@@+@O@@@@@@OOOOOO@@@OOOOOOOOoOOOOO@O@OOOOOOOOOOOoo.",
"--=====%==--===-=&--==--------====-==#@@#%=%%=-----%=--------===",
"==%===#%O========$==============-=====%%===#%==--==-@========#==",
"-======%=====%===#============-============#%=-=====%#==========",
"====%%$%%%%==%$$%@#%====-=================%#========@#@=======-=",
"====%%%#$##==%%%$@#%==--===%%%%==%%=======%#========#o%=%%%%%%@#",
"%===%==%%%#==%==%#=======#%%%%%==%+@===%%%##=================%==",
"$===-==%=%=======@======$##==%===O#@=====%%%==-================%",
"=======%=========#====-==%=======%@@%=%%##%$====================",
"=%=====%======%==%==============%%%%===%####=%===%==============",
"###$##$#####################$#$###@@######@@@#########$#$#######",
"oooOooooo.ooOooOOOOOOOoOOOOOOOOoo.....oo.oo.oOooOo.oooOOoOOOOoo.",
"%%%%=%=#%O======@%%=========%==%%%%%=%#%#####%%%%====%=%%==%%%%%",
"*-&----%-=-------%==------------=-====%%=%========---=----======",
"#%%%%%%##%====$%%@%%%%===$===%%%%%##%#%#%%%#%%%%%%%%%%%%%%=%%%%%",
"%%%%%=%##%=====%%O##%%%=%%%%========%%%%%%%%%%%%%%%%%%%%%%%%%%%%",
"%%%%%==#%%======%@=================%%%%%%%%#%%%%%%%$#%%%%%%%#%##",
"Ooo%%$#O#@#%%%%=%@%%%%=======%==%=%$@@O@@@@O+@@OO+. .. @OOO ..oo",
"+@#+oo..ooOOO+OOoXooooOOoOoOooooooo.oO+@#@@@#############@######",
"########%%###%#######@#########%#########%#%%#%%%%%%%%#%#######%",
"@@##%%%%##%%%#%%##########%##%%%%%%###@@#############%##%#%%%###",
"O@#######%%%%%%%%######%%%%%%%%%%####@%%%%%%%%%%%%%%%%=%%=%%%#@#",
"+###%##%#%%%%%%%%####%%#%#%%%%%#%%##########@#####@+#+@@@+++O+Oo",
"#%%%%%##%%%%#%#%#%###%%#%###%%%%%##%%%%%%%#%%%%%%%%#%%##%#%%####",
"###%%%%%#%%%%%%%%%%%%%%#####%%%%%%%#%%%%%%%%%%%%%%%%%%%%%#%%%%##",
"+++@@++@O+O+++@+++@@@@+@++++++#@@@@@@@@@+@#@+@O@@OOO@@@##@@+@++O",
"########%######%%#%##%%%%%####%######@##%@#+@@###@@#@@OO@####@##",
"+#############################################################++",
"@@####################%#####################@#####+####@##@@+@#@",
"-----------------#------------------------=%----------=o=-------",
"================-#=====%=================-=.========---#========",
"======--==%=====-#===%o#=====%===@+#===-=-=.===========#====%===",
"=====-====##=====#===#o+====#O===Oo+=---=-=o=%#=====#==#===#@==-",
"==========%======#====%==========%%======== ========%==#========",
"=+%=======%====%=#=======#@================.===========%%======%",
"O#$$%%%$%%$%%%%%$O%%%%==%Oo%%%%%%=%%%%%%%%#.===========#=-=====@",
"o%%#####$$#$%%$$$+%$%$$%###%%%$%%$##$$##### ===========#=--====%",
"==%##$O@=#++=##o@O#@@#%%O#@%@O%%@OO@%@@@O+%o===========#=-======",
"====%%===%%====%=#==%=====$====%%%%==%=%%%%o===========#=-======",
"=====%===%%======@=============%=====%=%%%=o===========#========",
"=========%=======#=============%=====%%%===.===========#=====-==",
"=========%=======#=============%=====%%%%==O===========#========",
"=========%=======#=============%=====%%%%==o===========#========",
"=====#%%%$====@@=@%%@%%========%=====%%%%==.==#$===%==%#========",
"=====%%%%#=====%%#%%%%===%=====%%===%%%%%==o==#%===%$%%@========",
"====%%%%=%%====%%#======%#O====%%%==%%%%%=%.=%#%===%##%@==%%.$==",
"====%%%%%%=====%%@%===%%$@X%%%=%%%==%%%%%%%.=%##===%%%%@==%+#@%=",
"%%%%%%%%%%%====%%+%%%%%%%%====%=%%%$$%%%%%%.=%#%=%=%=%%O%%###%==",
"%=%%$#%###%%%%##@@$%%%#=%%=%===%=%%%##%$%#$.==@%=%%%#%%+%%#%=%==",
"##%%######%$%%###O####@%#%%%%%%%%%%$@###$##.%%%#$#$###$o%#%%%%%%",
"..ooooooooooooooo.oX.Oooooooooooooooooo.o.#oo.ooOXoOOOOoooooooo.",
"O+@#########%###@O##+#@###################@####################+",
"++###################%#%#######%%%%##%%%%%%#%%%%%%%%%%%#%%%####+"
};
