/* XPM */
static char *texture__7_1724505258[] = {
/* columns rows colors chars-per-pixel */
"64 64 9 1 ",
"  c black",
". c #0A2A33",
"X c #353F23",
"o c #5C5D41",
"O c #895654",
"+ c #919B45",
"@ c #988F64",
"# c #AFD370",
"$ c #CDC599",
/* pixels */
"XoX@@@@@@ooooooo@@@@@X@@@@@@@o@@oooooooo@oo@oo@@@ooo@@XXXXXXXX. ",
"oo@@@@@@@@O@@O@@@@@@@XOoo@@@o@@ooooo@@@@@@@ooo@@@OXoXXXoXoooXXXX",
"o@@@@@@@@+o@@@@o@@@@@Xooo@@@@@@oooo@@@@@@Ooooo@@@Xoo@@oooooooooX",
"o@@@@@@@@@@@@@oo@@@oo@@@@@@@@Oooooo@@@@@@@@ooo@@@@@@o@@@@@@@@ooo",
"oooooooooooooooXXXXoooooooOooooooooooooXoooooXoXXoXooXXXoooXoXoo",
"@XXo@@o@o@@@@@@@ooo@@ooooo@o@@@@@@oooooooooXo@@@@@@@@@@@@@@@@@@@",
"@   .....@@@@@@@@o@@@@@oo    ...  .@Ooooooooo@@@@@@@@@@o@@@@@@@@",
"oXooooooo@@@@@@@@o@@@X@ooXXXXXXoooX@oooooooXo@@@@@@@@@@@@@@@@@@@",
"XXXXXXXXX.XXX.X.XXXXXXXXXX..XXXXXXXX..XXXX..XXXXoo.X.XXXXXX...XX",
"ooooooooXooooooXXX . ..XXXXXXXXXXXXXXXXXXXXXXXXXXX.XXXXXXXXXXXX ",
"oooooooooooXXXXXoooXXXXXXXoXooXoXXXXXoooXooooooooXXooXoXoXoXoXXX",
"@@@@@@o@o@@@@@@@@oo@@oooo@@@@@@@@@oo@@@@@@@@@@@@@@X@@@@@ooo@@@@@",
"@@@oo@@@o@@oXo@@@o@@@oo@@@@@@@@@@@@@@@@@@@o@@@@@@@o@@@@@oooo@@@@",
"@@@oo@@oooooX.@@@@@@@o@@@@@@@@@o@@oo@@@@o@@@@@@@@@o@@@@@@@@@@@@@",
" ..  XXX. XXoX@@@@@ooO@@@.XX    .....XXX.X..   .XX .XXoooX.    .",
"oXoooXoooXoooX@@@@@@ooo@ooooooooooooooooooooooooo@oooooooooXXXXX",
"oooo@@ooo@oooX@@@@@@ooooX@@@O@ooooo@@ooo@@oooooo@@@ooo@@oooooooo",
"ooo@@@@@@@@ooo@@@@@@@Oo@o@@@@@@@@@@@@o@@@@@@o@O@@@ oo@@@oooooooo",
"o@o@@@@@@@oooXXXXX XXXXX@@@O@o@@@@oo@@@@@@o@@@@@@@ @@@@@@ooooooo",
"@X@@@@@@@Oooooooooo@@@oo@@@@@O@@@@oo@@@@@@o@o@@@@@ @@@@@@oooo@@o",
"@@@@@@@@@oooooooooo@@@o@@@@@oo@o@@@oo@@@@@o.XXo@@@ o@@@@@oo@@@@o",
"@@@@@o@Oooooooooooo@o@@@@@@ooo@@@@@@oo@@@ooo@@Xoo@@@ @@@@@@@@@@@",
"@@@@ooooooooooooooooo@@@@@@ooooo@ooooo@X@@@@O@@@ @O@@X@@@@@@@@@@",
"@@@@@@@ooX@@@o+@@@@@@@@@+@@@@@@oo@oo@@o@@@@@@@@@o@@@@@@@@@o@@@@X",
"@@@@@@@@$o@@@@O@@@@@@$@$@$@@@$@@@@@$$@$@@@#$$@@@@#@#@$@@$$@@$@@@",
"o       o@@@@@@@@@@@@@@@@@@oo@ooooo@@@@@@@@@@@@o@@@@@@@@@@@@oo@o",
" .XXXX.  @@@@@@@@@oo@@@@@@ooooooooo@@@@@@@@@@@@oo@@@@@@@@@@@ooo@",
"@@oooooooo@@@@@o@@o@@@@@@@@@@@@ooo@@@@@@@@@@@@@oo@@@@Oooo@@@@@@@",
"XX .XXXXo@@@@@Oooo@@oooooo . .OoooooooXXoXoXXXooooX@@o@O@Xo@o@oo",
"XXX.X.XXXXXXXX.XXXXXXXXXXXXX.XXooooooXoooooooOo@oooooooooooXoXoX",
"oooXXXoooooooooooXoooooooXooo@@@ooO@ooooooooooooooo@Oooooo@o@@@o",
"ooooooo@@@@@@@@@@@@@@@@oooooo@@@oo@@@oooooooooooooo@ooooooooo+@o",
"oooooooo@oo@@@oooo@o@@@oooooo@@@Oooooooooo@@oooooo@ooooooooooo@o",
"ooooooo@@@oo@@oooooXooo@ooooo XXXXXXXXXXXXXXXXXXXXXXXXXXX.XXXXXX",
"ooooooXXXXXXXXXooooXoooooooooooooooooooooooooooooooooXoooXXXoooo",
"oXoooXXooXXXXXXo@@ooooXX@@@@@@@@@Xo@@@@@ooooo@@@@@@@@@@@@@oooooo",
"oOoooooooooooooX@@@@@@@@o@@@@@@@@@@@@@@o     o@@@@@@@@@@@@XX@@@@",
"@o@XXoXXXXXXXXX@oo@@@@@Oo@@@@@@@@@oo@@X       @@@@@ooooo@@XX@@@@",
"ooo+@@@@$$$@@#@@ooo@@oooo@@@@@@@@@o@@@Xo.XXo.@@@@@oOooooooXXo@@@",
"@@ooo@oooooOoo@@ooo@@@oooo@@@o@@@Xo@@@@XXXXXXX@@@@oO@ooOooXXo@@o",
"@@o@@@@@oooooo@ooo@@@@oooo@@@@@@@ooo@@@@oooo@@X@@@o@@oo@@o.XoOo@",
"..       ..       XXXXXX .  XXXXX  .  ..          XXXX.. XXX  ..",
"XXXXXXXXXooXXXXXXXXXXXXXXXXXXXXXoXXXXXXXXXXXXXXXXooXXXXX.XXXXX X",
"ooooXXooXoooooXXXXooooXXoXXXXoXXXoooXXXXXooooooooooooooooooooooX",
"oo@@@@@oooo@@@@@oooooooo@@oo@@ooooo@@@@@o@@@@@@@@@@@@@@@@@ooo@@o",
"oo@o@oooooo@@@@ooooooooo@@@o@@oooooooooo@@@@@@@@@@@@@o@@@ooo@@oo",
"ooXo@oooooo@@@@oooooooooo@oo@ooooooooooo@@@@oo@@@@@@oooo@oooOooo",
"o@o@@oooooo@@@@ooooooooooooooooooooooooo@o@@o@@@@@@oooooooo@oooo",
"o@Ooooo@Ooo@@@@oooooooooooooooooooooXooo@o@@o@@@@@@@oooooo@Ooooo",
"oooOoo@@@o@@@ooXooooXXoooooooooooXXoooo@ooo@oo@@@@@oXoooooo@@ooo",
"XooXXXooooooXoXXXXXXXXXXXXoXXXXoXXXXXooooooXooooooooXXooooXooooo",
"o@@@@@$@oo@o@@$@oo@ooXXXo@@@oOO@@$@@@@@@@oXooooooO@@Xoo@@o@$@o@#",
"o@oo@@@@@@@@@@@ooooooooOO@@@@@@@@@@oooo@@@@@@@@@@@@@@@ooooo@ooO@",
"@@@o@@@@@@@oo@@ooooooOooo@@@@@@@@ooooo@@@@@@@@@@@@@ooooooooOoooo",
"@@@@o@O@@@@OOooooooooooo@@@@@@o@oooooo@@@@@@@@@@@@@oooooooo@@ooo",
"@@ooooo@@ooooooooXoo@ooo@@o@oooooooooo@@@@@@@@@@@@@oooooooo@oooo",
"ooooooooooooooooXXooOoOoooooooooooooo@o@@@@@@@@@@@@oooooooooooo@",
"oooooooooooooooXXXooooooXooooooooooo@@@@@@@@@@@@@@@@oXXXXoooXXoo",
"ooooooooooooooXXXoooooooooooooooooo@@@@@o@@@ooooo@@ooXXXXXXXXXXX",
"XXXoXXXoooooooXXXXXXXXXXXXoooooooooO@@@oX..X.XXXXXXoo@@@@@@@@@@$",
"oO@@@@oooooooooooooooo@oo@ooooooooo@ooo@oooooXoooo@@@@@@@@@@@@o@",
"o@@@@@oo@ooooOo@o@@o@@@oo@ooooooooo@oo@@oooooooooo@X@@@@@@@@@@@@",
"Xo@@@@@@@@ooo@@@o@@@@@@ooo@@@@oo@@@@@@@@oooO@ooooo@o@@@@@o@@@@@@",
"Xoo@o@@@@@@@oo@@@@@@@@@@@@@@@@@o@@@@@@@@oooooooooo@X@@          "
};
