/* XPM */
static char *texture__29_1724505263[] = {
/* columns rows colors chars-per-pixel */
"64 64 18 1 ",
"  c #090A14",
". c #10141F",
"X c #151D28",
"o c #241527",
"O c #341C27",
"+ c #19332D",
"@ c #202E37",
"# c #411D31",
"$ c #4D2B32",
"% c #394A50",
"& c #7A4841",
"* c #577277",
"= c #AD7757",
"- c #C09473",
"; c #819796",
": c #A8B5B2",
"> c #D7B594",
", c #E7D5B3",
/* pixels */
"$= &;o&=OOo&=*=%oOOOO@&OoOO&*$$O%-Ooo@%%o&$$O@@o%$&>-O&%&;&oo-O@",
"-=&=--;-=&&&-&*oO@@O$%OoOoo%$O$OoO%OO$;.&&%@$$$Oo*o$$$*=;:-->>-;",
"&  .   .....O. .$%%O%$&& %O&%$&OOOoOOO$$$$$$$$OO.& O. .   .. :..",
"&  oo  o   $oO>o OOOO.O$OO O%OOOO$oO$$OOo&$O$$OO %O=%oO.oO   :  ",
"&o.$>OO-o. $$->o..X...Oo... %$=ooXOo$@@OO=O@@OOO.*$=&@o$$X&X.,$@",
"*O$%-&O-o. $$&>$ooOoo.$*%$$O&O&$o&@o&@-$@>$$$%%$o*$:&O&%&,=X.-%%",
"*;*O-O*=&-&=$=>$&&$&&OOO$%$=&&=&&-=$;*=&=>=*$&*=$:$:;$&$$>*&o=&&",
".  %* %&.  OO$>..O....Ooo.  o    &  o   .& .oooo.& *%o$O&-.  ;. ",
"O. &- $=oo.&O&>O..X.  $OooXO&OoX.$o ..$..$ . .X..* *&.*.*>$. &O@",
"Oo.$; o-Oo.&$&;o@OOooo>O@@@&*%@Oo*@X@O.Oo&XooO@@X&.;*$%O&%%. *$@",
"OO.%-X$=$o.&$&-$@@@@@%=O@@@&*%O@o&@X@$OO@&@@@O@@.& *%o$O&-.  ;. ",
"OO.%:X$-OO.=O=;.O@@@$o=O@@O%&%O@O*@o%o$$$&$@@@oO.* *&.*.*>$. &O@",
"OO.&:X%>$OX=$;-OOO@@OO=O@@O&%&O@$*@o$@@%O&$$$@@oo&.;*$%O&%%. *$@",
"OoX%-X%-OoX&$=-OOoOOOO*O@@O&%$O@O;@oo@$&O&$@@@@o.>O;&O&O$;&. =$@",
"OOX&-X%:Oo.&$&&.OooO@O*O@@O&&$$@O%@@@@O%O*$$@@$@.>o*%@$OO-&X =$$",
"OOX$=o%-OO.$o*=ooO@@@O=O@@O&*$O@o&$o@@O$$=$$$$@@o=O*&O$o$>&o =$$",
"OOX$&X$;Oo.$$&;.+O@O@@=O@@O&*$@@X$OXO@O$O&@$$$@@o&O*%@$$$;&X =$@",
"OOoo $O=OoO$$&;O@OO@@O*O@@@&*OOOo$@XO$$$O&@@@@@@o&o&%O$.$-&. &$$",
"&&==>->>->>=&&*$OOO$$OOOoOoo$o$Oo$&&%%$%$>$$$&O$>;o*$O$.$=&o =$$",
"$.o..  .o. .o.$O=;&$& &OOOo.o&&& .ooOOo@X-..o.  O$ Oo . .X...&oO",
". .&* .%   $$&&.OOOO.   ..o$. OO $  o.O. =...... $o*$.oO*$Oo =..",
"   &; O=$o.O&&O$XXo.oX%$OO.%&O   $X.OoOOO-$$O@Oo.-O=$ &$=-&O ;OO",
"X..%=.O%OX.&&&-O oXoo.&OOoo%*$$..&oO&O% .=OooOoOo=O*$o$O$=O  ;&o",
"oo.%*OO>OX.$&&-oOOOOo.%$oOO&-$&oX&@oO@$Oo-o@@oOoO&O&OO$%$-$. ;$o",
"ooo&*O =oo.$&&-$OoOOo.oO%@O&%$$Oo@@o@O%$X-O@@Ooo.OO*%O&$$=$..=$O",
"oXO%&o$>oo.$$&%..oOooXoOO@O%&O$@O@$o+@$$X=O@@@Oo &OO&O&$$=$.O=$@",
"ooo&=O$>Oo.&$&$o.oXoOO&OOo&%%$$@oOOX@O$$o%O@@@@Oo&.&$o&&$=$.o&$@",
"oo.$=O$-Oo.&&&*ooooooo&OoOoo$$&Oo&@oOOOO%=@%O@@@o*o=%oo$$&$o $@@",
"ooX$%.$=oo.&O$*O@OOooo&ooO.&*$$OO&oOOoO*o=@Oo@$Oo=O&&$O.$&$OO%@@",
"o..$&%$=Oo.&O&*oOoOOOo&OoOO*OO.#O&OoOo%$O=@@@@Ooo&o&$O& O=$OoOO@",
"*&;*=;&&&=&&*>;*=--====*&*=*;;==-=&=-=**==&====&O>&;*;-=&&&=o$$=",
"%=;->-$->;:;=--------===*&&&&=-&=-->-----=--=>::*==&>-:-;>=---$&",
"O$**** &%+O$$*%%$&&$$$&&%O&%&&=&=*=-**=*&&=**&;$$OO%&$$*O$O&*%.&",
"    oO  o .O oo   .  ...   $.o o o.o. oO.. ....    ..   .    O X",
".. O&$.% ..OOO&O.XXXX..... O.O...$.$..%$o$ooooo..$ $O    Oo  $o.",
"...%$ .*. .$O&=OoooXXXOooXo$.$OOo&X&oXo$X&oooooo.&O%$ O o&O. $o.",
". .O*..*o..&O*=ooo.XoX$OOXo%$$%oo&o*o..Oo&oooOOO &.&$$$ O$O. $.o",
"o..*=..*o.o&$&=.oooooo&Ooo+&&O$$o=o=ooo$o&OOOO.O.$ $%.$.o$$..$oo",
"*%%&;O$-;--=&==&&=-=&&-&&&&=&&&O*&%=&*&&*&&*=&o&O$$=&$&&&&&Oo%$O",
";*&%=..OO*%& .=$%**&$*==&%$&&&%$*$;=;;*%;;&*=*%$$*O$$O%%O$&&.&*;",
"   $* $&.. ;o$*o... ..&o.    ..O $ =O. &O  . ... & O$.  O%O .& .",
".. O* %&o. OO*=..oXooo*Ooo.oO$..o&X=o..*OXoXXoXX.* &%oo o&&..oo.",
"...%& .$%..$$==.oooooo&OoXo$O$o..&o$oo.*O.oooooo =o%&oO.o&$  $Oo",
"oX.%& O&o..O%$= XooooX&OooX%O%...&X*%oX*$ooooooo *o$$Xo.O*%. $Oo",
"XX.%$.@*.@.O.O&OoXOoo.&OooX&OOO..&o%.OX%$ooooooo.;o$$XO.O&&. Ooo",
"X..%& O*.. oO$% oo$Oo.&Oooo&o$o.o&X=.oo%$ooooooo.*.%%O$o$*$. ooo",
"&$O%&OO&%$%&O&&;;;;*$%&$$$&$&$O$$$O%$%O&&$&&%&$$O*$=&O$$$&&$O=&&",
"O& %OO. %%&%%=*OOOO*&*%Oo...o...X.. .. O. o.. ..o%O&*O&$&&&OO$OO",
"   O   .    ..o    .  @$..  .    O $.  $.   X    O o.   ..   .. ",
"   $* ...  OX$&  .....O ....  .....&.. $O....... $ O$    oo  %o.",
"   @* $%.  Oo&=..X....&.o.. O.$..O.&o..$OoXXXoX. & &o.o.O%$  &. ",
"  o%&.$%   &O%=.oXXXX.&o ...OO ..OX$OXX$$oooooXX.* $$.$. &o..%o.",
"X..oO.O*.. &$%*.XXXXX.&... .OOOooOX&.oX$$oooooo..&O$O.O.o%o. %..",
".. .* .*.  $.%=.oXX.X.&O....OOO..&.&O..$$ooooX$. %O%$.oo.&$. %oX",
"...$* .*.. &.&* O.XXX.%oXX..O$o..& $...OoOOO.XoX.&O$$O$.O*O. &oX",
".. $% .$ $ &&&&o..OX..&o.o..oO...&.%...$&..oXXXo.&O%$.$.$*$.O&Oo",
"**&O*%o*$&%=&&=&***=*=$*=**=-&=***=&**===*-;;*;;;=&=&**$$*$$ &=&",
"O. $& O=@%%$oO%X.%$&&&*;&&$O$%*&*=;-$$OO$%%$$%%%**o$&o..O&O  &..",
".. o%  $   O o@. .    o... . ... $  ....o....... . .o . O$$  O  ",
".. O& o*   %o$$.  .   O....O$... $. ...O$........o $O.o.O&$  %..",
".. $&.o&O. &$&%o......&o...O%....&.....$&........O $O.O.O*$. *..",
"...O& O*o. &$%OO......&o...O$o...&.....$%....X...$.$O.. O*$. %.X",
"...O& .%...$$%$ . ....&....O&o...$..X..$$..X.... &.$O.&.O%o. @X.",
"...O&.o*o. %O&& .. ...&o...$&....&..o..%$.X..... & %%.X O&$. X.X"
};
