/* XPM */
static char *texture__4_1724505257[] = {
/* columns rows colors chars-per-pixel */
"64 64 10 1 ",
"  c black",
". c #0A2A33",
"X c #353F23",
"o c #61393B",
"O c #5C5D41",
"+ c #895654",
"@ c #988F64",
"# c #CDC599",
"$ c #A293C4",
"% c #FFCCD0",
/* pixels */
"XOOOOOXOO@OOXO+OOXOOOO+OOXXXXXXXoXXXooOXOOOOOOOOOOX+O+OoOOO+++++",
"###########+...........XXXXXXX..XXXXXXXOOOOOOOOOOOX.  ..........",
"##@####@@@#@@XXXXXXXXX@$OOOOOOXXXOOOOO@@@#$#@@#@#OOXXXXoXOOOO@@@",
"@+O@@@O@##@@+@OOOOOOOO@+XOO+O@@+OOO@@+@O+O+@@@##@@OOX+@+@@@@O@XO",
"OOXXOOOOOO+O++OOOOOOOXoXXXXXXXXXXXX@@++O@@O+@@@@#O@@@oXXXooXXoXX",
".. ........  .X@+@#@@OXXXXXXXXXXXXXOOXXXOOOO+OXOOOoOOX.XX.X.....",
"XXXXoXXOXOXXXOXOXOOo+OXOOOOOOOOOOOOXXXXXXXXXXXX...XXXOOOOOOOOOXO",
"O++@++@OXX@X$@++@@...XO@++###@##@O++OOOXOO@O@@X@@@##@OOOOOOOOOOO",
"XXXooooXXXX.OOO@@+OXOOXXXO###O##@@@#@#@X@+@O+O+O@@++++OOOOOOOOOO",
"XXXXXX.X.XXX.   .XOOO####@######O@@@@+@X            .OOOOOOOOOOO",
"@@+OXOOOOOOOOXXXOOOOOO@@@+++@@@@O+++O@.XOOOXXXXXOOO@@@@@@@@@@@@@",
"+OOOOOOOOOOOOOOO#####X   .X   .  XXXXXOOOOOOOOOOOOOXOOOOOoOOOOXO",
".XXOO#@#######OXOOOXOO...XX.......X.XXOOOOOOOOOOOOOX..  ........",
"@@@@@#@@@###@@OO.. ..XX@XX@XOOOOXXXXXOOOOOOO@@#$@@#@OOXOXXOOXXOX",
"@@@@@@@@@@@@@++OXXXOO+@@@@#@@@@@@@@@@O@@@@@@@+@++@@@@OOOOOOOXX@@",
"XXOXoXXoXXOOOXXOOOOOO+++OOOO+OOOXOOXoXXOOXOOXXOOOOOOOOOOOOOOOOXX",
"XXXXXXXXXXXXXOOOOOOOO        ..XXX.XXXX.  .....XXXXXXOOO@#######",
"OOOOOOOOOXOOOO+@@@##@@XXXXXOXXOOOOOOOOOOXXXXOOOOOOOOO@@#@@#%####",
"@OXOOOOOOOOOooO+@++++OOOOOOOOOOOO+OOOOOOXO++OOOOOOOO@@@@#@@@@+@@",
".OOOO@@#####@+       XO@##@#@@@##@@#@@+OXXXXXOO@@OOXOOOOOOoOOO@+",
"OO@####@o@O X@@OXXXXOO+@@@@@+++@OOOO+@##@@####@@O+@@............",
"@@+@@##@@#@#@@@@@@@OOOX.XXX   ..    @@@+@@#######@@@@XOOOOOXXXXO",
"@@O@@@@@@@++@@+++@@@@@+XXXXXXXXXXXXX@@O+@+@@@+@@@@@+Oo@#@@O@@@@@",
" XX.. .XXXXXXXoXoXXoooXOOOOOOOOXXOoXoX      .    XXoXX+O++O+OOOO",
"XXXXXXXXXXXXXXXXXXXXXXoOO@@@@@@@@@OOXXXXXXXXXXXXXXX...          ",
"@#@@@@@@@@@#@@@XOoXXOOO@##@##@#@@##@X@@O@O@@@@@@@@#+OOXXXXXXXXXX",
"@@++++++@@OO++@@@OOOOOOO++@@OOO+++@O@+@++O++OOOOX+++OOOOOOOOOOOO",
"XX             XXOOOOOX      .                     XOO@+@#@@###@",
"XXXOOXXXXXXXOXXOOOO@@+OOXOXXXXOO@XXXXXXoXXXXXXXXXXOOO@@@@####@#@",
"OOOOOOX+@@OOOOO@####@#@@OOOOO+@#$X@OOOOOOOOO@@o@##@@@@#######@##",
"##@#@@@@@###+@#@@#####@@@OOO+#o@@@@@@@O@OOO+@@@@++@@@@@###@@@@@@",
"OOOOOo@++@@++@@@@@+@@@++@OO+@#X##@@@@@@O@OOXXXXXXX.XXXXooXXX..  ",
"... ...      OXoooOOOOOOOXO@@@OoO@o+@@@@+@XXXXXXXXX.XXXXXXXXXXXX",
"OXXXOOoXXXXXXXXXXXXXX..XXOX XXXXXXXXXXXoooXO@###@@##OX@@@@+@@@#@",
" XO@#####@#@@OOOOOOOOOOOOOOXXXXXXXXXXXXXXOX@+@O++O@@@OO+OOoOoOoO",
"@@#@@#@@##@@#@@OOOOOOOOOOOOOOO@@XXoOOOOOOOXXXXXXXXXX.    .....  ",
"@@###@@@o  Xo+@@OO@X+@@OOO@@############+OOXXXXXXXXXXXXXXOOOOXXX",
"O@#@@O++@@@@@++@+XXXXXXXO+@O#@##@O@Xo+OO@+OOOOOOOOOXXOOO@@@@@@@@",
"oOOOOOXOoOXOoOOOXOXXXXXOOO@O@O@+O++++O@++O+OOOOOOOX@OOOXOXooOOOO",
"X.X.X........XXXO+$@@@@OOXX.    .XXXXXXX X@#######@##$OOX.......",
"@@@+@@@@@@+oXOOO@@@X@@@@@+XXXXXXXXXXXXXX+@@OOO#@##@##@@#@OOOXXXX",
"O++++++oO+++O@@@@@#@OoOOOO+OOOOOOOOOOOO@@@O@@@@O@@@@+@@@@@OOOOOO",
"           .O@O++@++@@@@@+@OOOOOOOOOOOO++@@+@O+O@+@@+OOOOOOOOOOX",
"@OXXXXXXOXXX.XoXXXXXoXXXXOXXOo@#@###@OO              ...XOOOOOOX",
"+OOOOOOOOOOOOXXXXXXXXXXXXXOO@@@@@@@@@@@@XXXXXXXXXXXXXXXOO@@@##@@",
"XOOOOOOOOOOOOOOOOOOOOOOOOOOXOOO++OOOOOXOXX@@@O@+@@@@@@@@@@+#@@@@",
"O@@@@@@#####OOOOOOOOOO@@XOXX.......XXXXXXO+OOOOO+OOoOoo+OOooOXOX",
"O+O+@@+@@@@@@++OOOOOOXXXXXOOOOOOXXXOXOOOO.....XX.....X..XX....XX",
"        ..    .@######@OOOO@@OOOOOOOOOOOOOOOOOOOOOOXXOOOOOOOOOOO",
"OXXXXXXXXXXOO+@+Xo@@+@@@@O+@@@+O@@@#@#@#@@OOOOOOOOOOOO@@@@@@##O@",
"@@OOOOOOOOOO@+++@@@O@@@OO+OO+OOO+OOOOoO+OOXOOOOOOOOOOO++++@Oo@@@",
"OOOOOOOOOO+OXooOOOOOO+OOoX.  ......   ...XOOOOOOO@#OO           ",
"..X#$@###@@#OXXX.XXXXXXXXOOXOOXXXXOOOOOOOOO@########OXXXXXXOXXXX",
"@@#@#@@@+@@@@@OOXOOOOOOOO@@#@@@#####@OOO@@+O@#######@+#@@OOOOOOX",
"@+@@@@@@@@@@@@++OOOOOOOO@@@O@++@#O@@@@O++@+@@@oXX@@@@+@@@@OOOOOO",
"@@+++O@+O@@@++OOOO@oXOO+@+@+O@@O@++@++OO@@@@@@@@@@@+O@@++OOOOOOO",
"X.            .XOX. ..O.OooOXXOOOOOoXXX            ......XOOOOOO",
"XXXXXXXXXXOXXXoO+#@@##@X.............XOOXXXXXXXXXXXXOOOOOOOOOO@O",
"@@@@@@###@@OXO@@O#@#@+++oXXXXXXOXXX@@@#@X@@@@@@@+@O#@@@@OO+@+@@@",
"+@OOO+O+OO@X@@@@OOOO@OO@OOOOOOOOOOXO@++OOXOoXOOOOoX+O+OOXXOXXoOo",
"          ..XOooOOOoOOoOOOOOOOOOOOO.  ..  ...       ....OX......",
"XXXXXXXXXXXXXXXXXXXX..XOOO@@XXOOOOOOOOOOOXXXXXXXXO@@OOO#######O@",
"@@@@@@@@@@@@@+++OOXOOO+@@@@@@@###@@@@@OOOO@##@#+@@@@@++@@@@@@@@@",
"O+O+OOXXoOoOXOOOXOOOOO@@@#########@@@@@OO@++X+O@@O@+@@@@####@XXX"
};
