/* XPM */
static char *texture__26_1724505263[] = {
/* columns rows colors chars-per-pixel */
"64 64 22 1 ",
"  c #10141F",
". c #4D2B32",
"X c #341C27",
"o c #241527",
"O c #577277",
"+ c #394A50",
"@ c #819796",
"# c #A8B5B2",
"$ c #E7D5B3",
"% c #151D28",
"& c #090A14",
"* c #202E37",
"= c #411D31",
"- c #7A4841",
"; c #AD7757",
": c #EBEDE9",
"> c #602C2C",
", c #752438",
"< c #884B2B",
"1 c #DA863E",
"2 c #CF573C",
"3 c #BE772C",
/* pixels */
" .X.XoXOX..O+O+O+O+++@O@++###@#$$#@###++@O@+++O+O+O+O..XOXoX.X. ",
" +XOOO@@@+O@#@@@O@@#@#@@@##O@#@##@#@O##@@@#@#@@O@@@#@O+@@@OOOX+ ",
"%O.OO@@@+     &  &       o     oo     o       &  &     +@@@OO.O%",
"*++OO@@. o   oo***&&&&&&&&&& *.++.* &&&&&&&&&&***oo   o .@@OO++*",
"o+.OO@+ OOOOO@@@@#O&&&&&&&o+O@@OO@@O+o&&&&&&&O#@@@@OOOOO +@OO.+o",
"&.*++=o@#@O@@O@@#@X&&&&& &X+@@@##@@@+X& &&&&&X@#@@O@@O@#@o=++*.&",
" OX-+.++&& & &&&&&& XX +OX*+#O@##@O#+*XO+ XX &&&&&& & &&++.+-XO ",
"o++O@@+o&&&&&&&&&&&oXo +#X*+@O@@@@O@+*X#+ oXo&&&&&&&&&&&o+@@O++o",
"X+.@O@o&&&&&&oo XX X*.&**o*+OO@##@OO+*o**&.*X XX oo&&&&&&o@O@.+X",
"oO.@O@X&&&   ...++X.++ oo X++.O++O.++X oo ++.X++...   &&&X@O@.Oo",
"*OXOO@.  oo X+-.--X+++*  &o *++++++* o&  *+++X--.-+X oo  .@OOXO*",
"oO.OO@.oo** X.-+-O.++O+*  &          &  *+O++.O-+-.X **oo.@OO.Oo",
"*O.OO@.X*o*%X.-.--.+++O+++*&        &*+++O+++.--.-.X%*o*X.@OO.O*",
"*O.OO#.XX++*X.-.-Xo++OOOOOO* XXXXXX *OOOOOO++oX-.-.X*++XX.#OO.O*",
"*O.OO@.XX++*X..+X&X-++OO@OOOOO++++OOOOO@OO++-X&X+..X*++XX.@OO.O*",
"*O.o+O.XoO+*X.XX &X+.+OO@O@####@@####@O@OO+.+X& XX.X*+OoX.O+o.O*",
"oO.+XO.XX+*oX... *+O+O+@@@@####@@####@@@@+O+O+* ...Xo*+XX.OX+.Oo",
"*@.%o+.Xo++*X+..X++@++O@#@@@O;-@@-;O@@@#@O++@++X..+X*++oX.+o%.@*",
"oO..X+.XXO+*X.++.+-O+.*@#O@.X######X.@O#@*.+O-+.++.X*+OXX.+X..Oo",
"*OX.+..XX++*X..+.OOO..*@OOOX.X****X.XOOO@*..OOO.+..X*++XX..+.XO*",
"*O@@#@-XX++*X....OOO..o@::@*XO#::#OX*@::@o..OOO....X*++XX-@#@@O*",
"XOOO@@-XoO+oo...+OOO.. oXXXo++####++oXXXo ..OOO+...oo+OoX-@@OOOX",
" +OOOO-X O+%X.+++OOO*++*+++XX++++++XX+++*++*OOO+++.X%+O X-OOOO+ ",
"&ooXoooo%O+%X...+OO+*oO-;X.X.X*oo*X.X.X;-Oo*+OO+...X%+O%ooooXoo&",
"*OXOOO.ooO+oX.++.OO++XO>,>*X..++++..X*>,>OX++OO.++.Xo+Ooo.OOOXO*",
".OXO@O.XoO+%X..++OOO+*.XX.oX.o....o.Xo.XX.*+OOO++..X%+OoX.O@OXO.",
"*O.OOO-X ++%X..-.OOO+*OOOO+X.XoXXoX.X+OOOO*+OOO.-..X%++ X-OOO.O*",
"*O.OO@OXo++*X..-.OO++*OOOO+*.+@@@@+.*+OOOO*++OO.-..X*++oXO@OO.O*",
"XO++O-Ooo++*X..+.+O+++OOOO+*.+:$$:+.*+OOOO+++O+.+..X*++ooO-O++OX",
"*O+OOOOoo++oX.-+.+OO*+OOOOO*.+@@@@+.*OOOOO+*OO+.+-.Xo++ooOOOO+O*",
"XO+XoXOoo++%X..+.++O*+OOOOOX..O++O..XOOOOO+*O++.+..X%++ooOXoX+OX",
"o+.@#@Ooo++%X..+.+OO*+O+.+OX.X*++*X.XO+.+O+*OO+.+..X%++ooO@#@.+o",
"oO+X.+Oo*++%X....OOO**O+OO+..O#::#O..+OO+O**OOO....X%++*oO+.X+Oo",
"X+*X+.+o*++%...++OOO*+O++O+..o    o..+O++O+*OOO++...%++*o+.+X*+X",
"o.o**+X *.+%...+.O+O*+O++O+..+O@@O+..+O++O+*O+O.+...%+.* X+**o.o",
"o+&& &oo*++%X..+.+++**O++++X.+@@@@+.X++++O**+++.+..X%++*oo& &&+o",
"%+XO+@.XX++%X..+.+++*+O++O+*..OOOO..*+O++O+*+++.+..X%++XX.@+OX+%",
"o+XOOO.XX++%X...X.++X+O++O+X..++++..X+O++O+X++.X...X%++XX.OOOX+o",
"XO.OOOOXX++%X...X+++X+++..+o  oooo  o+..+++X+++X...X%++XXOOOO.OX",
"XO.+++Oo*++%X....+++*+++...+.XXXXXX.+...+++*+++....X%++*oO+++.OX",
"oOX+++oo ++%X.....++*++.oo&++OXXXXO++&oo.++*++.....X%++ oo+++XOo",
"oOXO++XX ++%X...X++*...  + OO.>-->.OO +  ...*++X...X%++ XX++OXOo",
"oOXOO+.o%++%X...X+++.o+oO+XOO.++++.OOX+Oo+o.+++X...X%++%o.+OOXOo",
"oOXO++.X%*+ o....++**o..O+oOO+----+OOo+O..o**++....o +*%X.++OXOo",
"oOX+++.X +* .X....++.X**O.XOO..++..OOX.O**X.++....X. *+ X.+++XOo",
"o+X+++XX +* .XXX..++*X.X+o OO.++++.OO o+X.X*++..XXX. *+ XX+++X+o",
" .X+++XX +* XXXX.. ***++..o+O*X++X*O+o..++*** ..XXXX *+ XX+++X. ",
"o+X+++Xo +*X &.++.&*X*++++.++++++++++.++++*X*&.++.& X*+ oX+++X+o",
"o+o.*.XX +oo..... &XX*+++.++O++++++O++.+++*XX& .....oo+ XX.*.o+o",
"o+ ..+XX .oXoXX.X &***+++++OO++--++OO+++++***& X.XXoXo. XX+.. +o",
"o+ .<.XXo.%X......X***+++++++OO++OO+++++++***X......X%.oXX.<. +o",
"o+oX1.Xo%.oX...X..X+**++++.+.++++++.+.++++**+X..X...Xo.%oX.1Xo+o",
"o+o.2.XoX*%X...XX.X.oo++++++++++++++++++++oo.X.XX...X%*XoX.2.o+o",
"X+ .3.Xoo*%XX.XX..X.o% .++++++++++++++++. %o.X..XX.XX%*ooX.3. +X",
"o+oo;+Xo%* X......X.XX*o +++.+....+.+++ o*XX.X......X *%oX+;oo+o",
" + *++.X * X...XX.X+***.X XXX*XXXX*XXX X.***+X.XX...X * X.++* + ",
" +oX++O+  &XX.XX..o....+++.*X******X*.+++....o..XX.XX&  +O++Xo+ ",
"o+oXX.+.+&&=X.XXXXoX...+++++.+....+.+++++...XoXXXX.X=&&+.+.XXo+o",
"o+.OOX.+++&XXXXoXXXoX..+...+.oo%%oo.+...+..XoXXXoXXXX&+++.XOO.+o",
"o+XX.& ++-+.++++++.XX*..**...XXooXX...**..*XX.++++++.+-++ &.XX+o",
"o+oX.>+ ++-+OOO+++X X*XXXXXXXooooooXXXXXXX*X X+++OOO+-++ +>.Xo+o",
" X X.>ooo+++++O++++OO++O++O+O*++++*O+O++O++OO++++O+++++ooo>.X X ",
" .oo&& XXX+++++++++OO+++++O++++++++++O+++++OO+++++++++XXX &&oo. ",
" o&&&&  ooo  ooo o  ooo oo & oooooo & oo ooo  o ooo  ooo  &&&&o "
};
