/* XPM */
static char *texture__37_1724505264[] = {
/* columns rows colors chars-per-pixel */
"64 64 15 1 ",
"  c #090A14",
". c #10141F",
"X c #241527",
"o c #341C27",
"O c #411D31",
"+ c #4D2B32",
"@ c #602C2C",
"# c #7A4841",
"$ c #A53030",
"% c #884B2B",
"& c #BE772C",
"* c #CF573C",
"= c #AD7757",
"- c #DA863E",
"; c #C09473",
/* pixels */
"++++@@@@@oo%=%%%%%%%%%@%%%%%%%%%%@@@+X%*%%%%%%&%Xo@@o @=&#=%@o@@",
"@%%%%%%@@@o%=%@%%%@%%%@%@%=&%=&&&%%%%@o%%%-%%=@o@%%%@X@=&==%@%%%",
"%%%%%%%%%o@%%%&&@%%%ooo@@o%&&=&&&=&%%%%%%%=%%%@@@@%%@o@=%=&%@%%%",
"%&%%%%%%%oo@%&%%o@@@@o@X@o==&====&&%%=%=%%&%%%%%%%%%@oo%%%=@%%%%",
"&&&&%%%%%@@%=%%%@o@%%%%o@@ =%==&&=&%&&&&&& %%&&%&%&&%@ %===@%%%%",
"&===%&%%%@@==%%%%@%%%%%@@@o==&%&&=&&&&&&&%%&%%&&&=&=%@ %===%%=&&",
"&&&&&%%%%@%==%%@%%%%%&%%@@o ==%=%&&&&%%%%%%&&&=-&&==%%o@=;==%&&&",
"%%%=======;=%%o%%%%%&%%%%@@  %=&===&&%%&%&&&-&&=&&&&&%+o ==-===%",
"%%@%%@@@@@@%@@%%%%%%%%%%%%%@o  =&===&&%&%&=-==-&&&%=&%%@o@@@@@@@",
"oooooooooXXXo@%%%%%&=&%&%%%%@o  %&=&&=&%&=&=&=&&=-&&&&%%ooXooo+o",
"@@@@@@@@@@@@@@%%%@@==&%%%%%%@@o  %=&=&&&&&&====&&---&&o%@o@@@%%%",
"%%%%@%%%%%%%%oo@@@%%%%%&%==%%%@o %=&==&&&=&%&==&&---&&%%%%@%%@@%",
"%%%%%%@%%%%%%@%@@@@@@=%%%%@o%%%@ %&====&&&&=&===&&%-&%&&@%%%@@@%",
"&%%%%%%%%%%%%%%%@@%@@%%%%@@@o %@o%=&&&&&&-&&&X&&&--&&&=&&@%%%%%&",
"&%%%%%%%%%%%&%%%%@%@%%%%%%%%@@%@%%==%&&&&&=&&==&&&%%&&&&=%&%%%%%",
"%%%%&&&&&&&%%%%%%%@@%%@%%%%=@o@%@%%%%%%%%@%%%%%%%%%%%@@@@@%%%%%&",
"&=&&%&&&&&&&&%%%%%@ X%%%%&@@@oX@@@%@%@%%%%%%%%%===%%%%%==%%%%o&&",
"&&%%&&*&%%&&&%%@%%%@oo%%@@%%%@@%%%==&%@@ooo oooooo@o @%@@%%%&&--",
"&-&&%&&&&%@%%%%%%%%%@oo%%@%&%@@%%%@%%=%@ooooo   X ooX @@@@%&&&-&",
"&%&&&&&=%@@%&&%%%%%%%@X@@o@@#@o@@%%o@@@%@@@@@@@@@@@@@o %oo===&=&",
"&&&=&@%%%%@@%%@%@@%%@@ooooXoo@o@@@@@o@%o@%%%%%%%@@@@@@o ====%%&&",
"%&%=%&&%&%%@%%%%@o@o@%%%@@@@%%%@@%%%%%==@@%%%%%%%%%%%@o %%%&&&=%",
"%&&&==&&%@%@@@%@%%%$$%%%%%%%%%%@o%%%%%%%@%%%%%%%%%%%%%@o %====&&",
"&&&&&=%%%%@%%%%%%&&&%&%&&&%&&%%%@%%%%%%@@%%%%%%&%%%%%%%@X@%==%&&",
"&%%%%%%@%%@%%%%&*&&%&%&&==-&&&%%@%%%&&%@%%%%%%%&%%%%%%%@oo%=&&%&",
"%%%%%%%%%%@%%%@%&%%%%%&&&&=&*%%%%%%=&%%@%%%%%%%&% %%%%%%@ @%&=@%",
"%%%%%%%%%%@%%%%%%&%%&&&&&%&&&%%%%%%%%%%%%%%%%%%%%%%%%%%%@ %&%%%%",
"&%%%%%&%&=%%%%%%%&&&%&&&==%%@%@%%%&%%%%%%%&%&&%%%%%%%%%%@ @%&%%%",
"%%%&===&===%%%%%=&&&&%&%&&&&%o#o@%%&&&%@==;==;;=@=======@o %%%%%",
"%%=%;=---===%%&%&&&&%%%%%=&%%%%%@@%%%%&@%%%%@oo%@@@@@%==%%%%%@%&",
"%@@@@@%+%%=%%%%%%&%&&%%%%%%%%%%%%%%%%%%%%%%%@%%@o@oX o%==&&@@@@@",
"%%@oXoX Xo@@%%%%@%%%%%%%%% %%%%%%%%@%%%%%%@@@@@oo@ooo @=-&*%%%%@",
"%@@@@@@@+oo@%%%%%%%%%%%%==&=@@  o+@@@@%@%%%@@Xo@@@@+@oo@@@@%%%%%",
"@%%%%%%%%@@%%%%%%%%%%%@%@@@@oooooooooooo  @o@@@%%%%%%@@@%%%%%%%&",
"%%%%%%%%%%%%%%%%%%%%%%@@Xoo+@@@%%%%@@@@@@o@@%%%%%%%%&%%%%%%%&&o%",
"%&&&%#%%%%%%%%%%%&%%%&@%@@@%%@%%%%%%%%%%@@o@@oo@@%%%@@@@@@%%%%%&",
"&%&&&&&%&#%%%%%%&%%%%%%@%%%%%%%%%%&&%%%%%%@@%@oXooo@%@@oo%%%%%%&",
"%&&&&&&&%&%%%%%&%%%%%%XX@%%%&$%&&&&-%%%%%%%@%%@@@@@@%%%@o@@%%%%&",
"&&&&--&&%&%%%%%%%%%%@o@@%%%&*%&%&&-&&%%%%%@%%%%@%%%%%%%@o@%%%%%%",
"&-&=--%%%&&&&%&&%%@o@@%%%%%&*%%%%&==&%%%%%%o&&%@@%%&%%%%@@%%%%%%",
"%&&&%=&&&&&%&%&%%@%@@%%%%%%*&&&&&&&&-&&%%%@+%%%%o%%%%%%%@ o@@@%%",
"%%&&&&%%%%%&%%%@%%@@%%%%%%%%%%&%&&&&&&&%%%%%@%%%@X%%%%%%@@+X Xo@",
"%%@%@%%%%% %%%%%%%%%%%%%%%%%%%%&&&=&&&%%%%%%%%@@@@X%%%%%%%@@@o  ",
"%%%o@@%%%%%%%%%%@@%%%%%%%%%%%%%+%%%%%%%%%%&&%%%%%%%@@%%@%%%%@@@o",
"@%@@%oo%%%%%o@%%@@%%%%%%#%%%%%&&&%%%%%%%%&&%%&%&&&%%@%%%%%%%%%%@",
"o@@%%%@.X@@@@@@o@%%%%%%%%%%%%%&%%&%%%&&%%&%%&&%%%&%%%%%%%%%%%%%%",
"@%%%%%@@oo%%%%@%%%%%%%%&%+@%@&&&%*%%%&&&&&&&&%%%%%%%%%%%%%%%%%%%",
"%%%%%%%@@@%%%%%%%%%%%%%%%&%%&&%%%%&&&&&&&%&&&&&%%%%%%%%%%%%%%%%%",
"%%&%%%%%%%%%%%%%%%%%%%%%%%%%%&%%%%&&**&&%&&%&&&&&&&%&&%%%%%%%%%%",
"&%%%%%&%%%%%%%%%%&%%%=%%%%=%=%===%%=%=====&=&--&&&%&&%%%%%%%&%%%",
"%%*%%%%&%%%%%%&%%&%%%%@%%%%%%%%%=%%%%=%%%&&=&&&-&&&&&&%%%%%%%%%%",
"@%%%%&&%%%%%%%%%%%%%*@@@oo@@@@@@@%@@oX%%=%%%&&&&&&o%%%%%%%%%%%%%",
"@X o @@@%%%%@@@%%%&&&%@@ooo   X  oooo %%%&%&&&&&@&&&&%%%%@@@%%o%",
"%@@@+o@@%%%%@@o@%%&&&%%%%@@o@@@@@@@@@X%==%=%&&%o@%=&&&&%%%@@%%@%",
"%%%%@@ @@%@@%%@@@%&&&&%%%%%%%%%%%%%%@o ==%%@oo+@%&%&-&%%%%%@@@%%",
"@%%%%%@o  o@@@%@@%%===%%%%%%%%%%%%%%%@ ==%@oo@@%&=&&&&%%%%%%%%%%",
"%%%%%%%@@@X%%%%@@@=&=&%%%%%%%%%%%%%%%@o%==o@@%&&&-=&%&&%%%%%%%%%",
"%%%%%%%%%@@X%%%%@o@@%=%%%%%&&%&&%%%%%@o%%=@%%&&=-&-*%%%@%%&&&&&&",
"&%%%*%%%%%@o%%%%%@+@@@%&&%%&&&&&%&%%%%o@%=%%&&&&&&=%%%@@o&&@%&%%",
"&%&%%%%%%%@%%%%&%@@@@o*o%&&&&&%%%%@%%%%%%%%%&&&&&=&%%%%@%&&&%%%%",
"====-=%%%%%%@oo%*&%%@%%%%====%==%%+%%%%=%%%%&&&&---*&%%%&%%=%%%=",
"&===%%%@@%%%%%oo@@%%%%%%%=====%&=====%@%#&%%*&&&&-&&&%%o o%==%==",
"@%%@%%@XXXX+%%%%%%%%*%@@o@@@@@@@@@+Oo@@%%%%&%%&&&&&%&%%@@oo@@@@@",
"ooooooo@@@@o%%*%%&&&%%@@@o   XXX   XXX@%@%%-=&--&@%%%%%@ooX . oo"
};
