/* XPM */
static char *texture__22_1724505262[] = {
/* columns rows colors chars-per-pixel */
"64 64 13 1 ",
"  c gray11",
". c gray14",
"X c gray8",
"o c gray21",
"O c #0B0B0B",
"+ c #838383",
"@ c #848484",
"# c #565656",
"$ c #9D9D9D",
"% c #BBBBBB",
"& c #3C3C3C",
"* c #5A5A5A",
"= c gray84",
/* pixels */
" . . ..XX .    Xo.. .O X ..X.   O.. . ....   ..   ....... .  ...",
"++@#+@++++++$$$%++$$$$..oo&ooooo.&..o...oo.....ooo.o......  ....",
"&#&&&.o&**&#**+#&&**++*####**+**#+++$++++++++#++++#&#++$##+$++##",
"&&&&oo&&*#o#*###&&#*#*&&#&o#***..&##*oo&****&o#**#..****&.#**&&#",
"...o.o&oooOoo&&o.oo&oo&&&o.&&#& .&o&*ooo&##&oo#*##..&&&&..&&#*o.",
" X ..X.   O.. . ....  ooo..ooo. ....&o.o&oo. .&&&o .&oo&..&&#&..",
"..oo&ooooo.&..o...oo.....ooo.o......  ..... ...... ..o. .. . XOO",
"*####**+**#+++$++++++++#++++#&#++$##+$++##++++&&++**&#+**#.&****",
"&&#&o#***..&##*oo&****&o#**#..****&.#**&&#****&o&##*o&#**&..oo.o",
"&&&o.&&#& .&o&*ooo&##&oo#*##..&&&&..&&#*o.&&**o.&*##.o&&&&...oo.",
"ooo..ooo. ....&o.o&oo. .&&&o .&oo&..&&#&..&&&&.....o... ..  ....",
"OOOOOOOOOOOOOXOXOX   XOOX. .XXX   XX....XO   XXXOOXXO OOOXOOOOO ",
"*#+#&####&#+++++#+$+$$++++$$$*++***++$$$+#%%$$$++$+$+++$$$+*****",
"&&#&oo#&&oo#*++&&###++&&**++#&*****o#++##o*****#****###***#&&o&&",
"...o .......&o&oo.&&##.o&&&&&.o&.&&.#*&oo.&#&&o &&.....o&&...o..",
".o&&..o.o&&.o&o...o..oo.&o.o..&&ooo.&&&&..&&.o.&&o&*oo&&&&.oo.o.",
" . . ..XX .    Xo.. .O+X   ..&    ... ........ .  . o.o.o...   X",
"++@#+@++++++$$$%++$$$$$+$$$%++$$$%++$$%$++$%%%#+%%%%++%%=$&#$$$+",
"&#&&&.o&**&#**+#&&**++#&*+++##****#o***@##+++$o&++++o&+++*&o&***",
"&&&&oo&&*#o#*###&&#*#*&.#***o&****&o&***oo&**+oo****oo*++*.oo&&&",
"...o.o&oooOoo&&o.oo&oo..&o.&oo**&&oo&o&&oo&&&&..o&&&.o&*#*..oooo",
" X ..X.   O.. . ....   ..   ....... .  ....  ...  .. .....O   X ",
"..oo&ooooo.&..o...oo.....ooo.o......  ..... ...... ..o. .. . XOO",
"*####**+**#+++$++++++++#++++#&#++$##+$++##++++&&++**&#+**#.&****",
"&&#&o#***..&##*oo&****&o#**#..****&.#**&&#****&o&##*o&#**&..oo.o",
"&&&o.&&#& .&o&*ooo&##&oo#*##..&&&&..&&#*o.&&**o.&*##.o&&&&...oo.",
"..oo&ooooo.&..o....oo&ooooo.&..o...oo.....ooo.o......  ..... ...",
"*####**+**#+++$++*####**+**#+++$++++++++#++++#&#++$##+$++##++++&",
"&&#&o#***..&##*oo&&#&o#***..&##*oo&****&o#**#..****&.#**&&#****&",
"&&&o.&&#& .&o&*oo&&&o.&&#& .&o&*ooo&##&oo#*##..&&&&..&&#*o.&&**o",
"ooo..ooo. ....&o.ooo..ooo. ....&o.o&oo. .&&&o .&oo&..&&#&..&&&&.",
"OOOOOOOOOOOOOXOXOOOOOOOOOOOOOOXOXOX   XOOX. .XXX   XX....XO   XX",
"*#+#&####&#+++++#*#+#&####&#+++++#+$+$$++++$$$*++***++$$$+#%%$$$",
"&&#&oo#&&oo#*++&&&&#&oo#&&oo#*++&&###++&&**++#&*****o#++##o*****",
"...o .......&o&oo...o .......&o&oo.&&##.o&&&&&.o&.&&.#*&oo.&#&&o",
".o&&..o.o&&.o&o...o&&..o.o&&.o&o...o..oo.&o.o..&&ooo.&&&&..&&.o.",
" . . ..XX .    Xo . . ..XX .    Xo.. .O+X   ..&    ... ........ ",
"++@#+@++++++$$$%+++@#+@++++++$$$%++$$$$$+$$$%++$$$%++$$%$++$%%%#",
"&#&&&.o&**&#**+#&&#&&&.o&**&#**+#&&**++#&*+++##****#o***@##+++$o",
"&&&&oo&&*#o#*###&&&&&oo&&*#o#*###&&#*#*&.#***o&****&o&***oo&**+o",
"...o.o&oooOoo&&o....o.o&oooOoo&&o.oo&oo..&o.&oo**&&oo&o&&oo&&&&.",
" X ..X.   O.. . . X ..X.   O.. . ....   ..   ....... .  ....  ..",
"..oo&ooooo.&..o....oo&ooooo.&..o...oo.....ooo.o......  ..... ...",
"*####**+**#+++$++*####**+**#+++$++++++++#++++#&#++$##+$++##++++&",
"&&#&o#***..&##*oo&&#&o#***..&##*oo&****&o#**#..****&.#**&&#****&",
"&&&o.&&#& .&o&*oo&&&o.&&#& .&o&*ooo&##&oo#*##..&&&&..&&#*o.&&**o",
"ooo..ooo. ....&o.ooo..ooo. ....&o.o&oo. .&&&o .&oo&..&&#&..&&&&.",
"++@#+@++++++$$$%++$$$$$+$$$%++$$$%++$$%$++$%%%#+%%%%++%%=$&#$$$+",
"&#&&&.o&**&#**+#&&**++#&*+++##****#o***@##+++$o&++++o&+++*&o&***",
".o&&..o.o&&.o&o...o..oo.&o.o..&&ooo.&&&&..&&.o.&&o&*oo&&&&.oo.o.",
" . . ..XX .    Xo.. .O+X   ..&    ... ........ .  . o.o.o...   X",
"++@#+@++++++$$$%++$$$$$+$$$%++$$$%++$$%$++$%%%#+%%%%++%%=$&#$$$+",
"&#&&&.o&**&#**+#&&**++#&*+++##****#o***@##+++$o&++++o&+++*&o&***",
"&&&&oo&&*#o#*###&&#*#*&.#***o&****&o&***oo&**+oo****oo*++*.oo&&&",
"...o.o&oooOoo&&o.oo&oo..&o.&oo**&&oo&o&&oo&&&&..o&&&.o&*#*..oooo",
" X ..X.   O.. . ....   ..   ....... .  ....  ...  .. .....O   X ",
"..oo&ooooo.&..o...oo.....ooo.o......  ..... ...... ..o. .. . XOO",
"*####**+**#+++$++++++++#++++#&#++$##+$++##++++&&++**&#+**#.&****",
"&&#&o#***..&##*oo&****&o#**#..****&.#**&&#****&o&##*o&#**&..oo.o",
"&&&o.&&#& .&o&*ooo&##&oo#*##..&&&&..&&#*o.&&**o.&*##.o&&&&...oo.",
"ooo..ooo. ....&o.o&oo. .&&&o .&oo&..&&#&..&&&&.....o... ..  ....",
"OOOOOOOOOOOOOXOXOX   XOOX. .XXX   XX....XO   XXXOOXXO OOOXOOOOO ",
"&&&*##*#+*#+#++++#++#+#+$$++##++$+####++#+++++##++#+o#++++#&####",
" .......o..o&&&&.oo&&&oo#&&#.oo&##&oo**+o&&&&&oo&&oo..oo&o ....&"
};
