/* XPM */
static char *texture__40_1724505265[] = {
/* columns rows colors chars-per-pixel */
"64 64 18 1 ",
"  c #090A14",
". c #10141F",
"X c #151D28",
"o c #241527",
"O c #341C27",
"+ c #202E37",
"@ c #4D2B32",
"# c #602C2C",
"$ c #394A50",
"% c #7A4841",
"& c #577277",
"* c #AD7757",
"= c #C09473",
"- c #819796",
"; c #A8B5B2",
": c #D7B594",
"> c #E7D5B3",
", c #EBEDE9",
/* pixels */
"$$$$O&@.$&&&$;-&;$$$&$$$O+&OO@$$$$$$$$o$O$%&$&$-&&$$$@@@@O$@o+@$",
"@@$$+$OO$$$$$@$$$-;-$@@&OOOOOOO@@$@$$$OO+O%$$&&@$$@$O&&$@O+@oO++",
"&$$$&&$&---&-&-;-;;---&-&&&&&&&&&&$$$$@$$&&&-&------;--&&$$%$&&&",
"  .  .. .....O@@@@@Oo         .oOo... .  . .o.oo++@@+o         .",
"---$$&&**;;;;;;>;>&-;===%%$$%&-&;;;;-$&&&*==;-;;>;;;;--*-;%$$-&-",
"-;;OOOOOOO,,,,,>>>>;;oOO$oo%&$$&-;;;;O+OOOO@,,:,,>,,,,-oOOOo-&%&",
";;;O@ .$----&&&$&$$&$&&$$ $-&$$;;;;;-@$OO&&-&$OO@O%%&&$$$$@$;$&@",
"%--%- &-*=*-;>>,>;>;==*&&+-&-$$--;;--$&$&&**-:;>;;;==-%*%&@&+;%%",
"&-;%- @&***-;;;;;;;;%**@&O&--@$-*;;;-$-$&%**%;:;;;;--$*%%&@&$-&$",
"---%& o&*@O--;>;;----&=&$o&&-@@%*-;--$&+$-;%$---;>;-$&%#-&@&$-%$",
"&*&&& @&-;;&%%%$%$@.&--&@O&--o$%*-;--$&+$&---o%%$%%$o$--&-@&--$@",
"&&&@& @$&&@%%%%%%%%&@&&&Oo$$$@$-;----$-@$$&&$%*%%%%%%@&&&&$$$$OO",
"&&&$$ $---@$*:>>:;%%$&&&$O$@%%@&----&$$$&&--$%:=;-&%-$%&&&$$$@%O",
"&&-$$ $%%&O$%%*=**@&$-&$$@&@%%+------$$$$%&-@%%=%%%*@$&&&&$$$@%O",
"&$&OO @&%&O@#%%%%%#&$&&$+O&&$@O&&&&&&+@$&%&&@O%%%%%%%O$&$&$&@#%o",
"&&&++ +$%&O@@%%%%%@$$&$oo&&$%oO&&&&&&OO @$&&@$###%%%%@$&O$$&&#%O",
"$$$O+ .OO%OO$@#@##O$$$$$@$@@%.o$&&&$$O@$$OO&OO@@@@##@@$$$$$$+$$.",
"++@O@  %$$@OOO@@OOOO@$$o&&$$@.o$$$$$$O@$$$$$@oOooOOOooO@@$$-$@@.",
"OooO$oO$%$OOOOOOOO.oO$$O@$$&O..$@$$$@o@+$$%@OOOOOOOO.O$@@@@$&@O ",
"$&$.@O$%$&&&$$$-@$&&%&@OO$.&$&&$$$%@@O@@$%%%%%$$;-$$$@$$@@O+&$%&",
"$$$$@@ $@&&&$$$$$$&%&$$$O  +O@+$$@$$$$@@O$$%%$$$@@&$$&$%@$o ooOO",
"++     O+@@OO. oO@@$$@O$@  $$$@O+++OOO   OO@@@OO..@OO@@@O@@$$$+O",
"&-$+$oO$@@@@@@@@@@@@@$O@+ o$&--;;;---&+$@@@$$$$$$$$$$$$+O$O&$&--",
"O@+O$ $&o@$$@@@O  Oo .$.O  $$$$$$$&$$@$$$Oo.--;;>>;;--.oOOo&$$$$",
"OOoO$o+$$$$$@$$$$$@$@@.$$ .oo... . .. +$O...+$$@&%&%$$oo.+O$O...",
"O+$$@+$@@&-:>>,,,,>;-$ o.  $@@$+@@OO+@o+.$$.$@@@@@@@@$ OO@.@@@$@",
"-&&&$$&$$$%&%$@$$%&&&$$&$  $@@@@@@OOOO.$+O$++OOO$$%$$@@$$$@ +@@@",
"         .ooO.o...o   $$. O&&&&&&%@@@@@@$O@@@$$$$$$$$@@@OO@$&&&&",
"++++Oo.o+OOOOO+OoO+$$O&&&&%&&--&-&&&&&%&$$$o%-->>>;;--$&%&&$&&&&",
"&&$&$oO++@$$$$$$$@@$$+.............       . %&$$$&$$$o..        ",
"$&&$$.oO$$$$$$&&&&$O$@@$+.$$$$$$$$@@$+++.oX  . ..oo.o$.  Xo$$$$$",
"&$@$+o.O@$$%$$$$$$$$&&$$Oo$@@$$$$$$++O + @@+++O++++@++O++Xo$@$$$",
"    . ..$$$$$$$$$$@$+$@$Oo$$$$&&&&&&&&&O @+@$$$$$$$$$@@O+Xo$$&&&",
"&%&$.. .$$$$@O++$.&$OOoOO.$$@$&&&&&&$$&++O@$$$$$$&&$&$@++Oo$$&$&",
"&$$$ o.o$$@$@O$$$.$$@@@$O.@@O@$$$$$$$$ OO.$$$$$$&&&$$$$@@.oo$$$&",
"$$$$.o..$$$$@$+$@++O@++$+XOOOO$$$$$$$$oO++@$$$++@$@@@@@@@.oOo@@@",
"$$@@X@@.@$$$.++++++@OOO$OOoOO+++@$$$$$O$O$$$$$O..X+O@+$O@XO@o+O+",
"Xoo+o$O OO+$+@@@$$@$+Oo@&OOo....oXooo+O&.+@++$+@@$$+++@O+X$Oo ..",
";;;;;---&&&$$$&&&$$O&-;;;;;;;;;;>;;;;;;;;;,&-$$$&&&$@&--;;;;;;;;",
"      .O&----;,>;;;&&$        .  .       .&&--;;,,>;;&-&      o+",
"@$@@$$$%%&-----&&&&&&-*&&&@$O@@$@@@+$@$@@%*-;=&----&&&&:%&&$-&O+",
"o             ......   .       .          ..........    ..     .",
">>>;--&&--$$&&&&&&&$$$$&.o-->,,>;>>;>$;&@&-&&&&&&$&&&$$$$&+o&-;>",
"&&$&-$&&@#@&&&&&&&%$@@@$O&&&$&&--&;-&@&$&&#%#-&&-&-&&$@%@$O&+&$$",
"---&&oo&@@@%%%&&$%$%@@@$O%&&+;-------$-++&@@@@%&&&&&%%O@@$O&$&$$",
"&--$$O.$%-&$o      O-&&$O$&-$-&--&--&$&@@&--&$O.. ..oO&&&&O&&&$$",
"&%-$$O+$$$$$%;>>>;$O@$$$o$&&&&&&-%&-&@&@$$@@%$%;;;;&&O$&%$+$$&$$",
"%&%$$Oo$$%$$$$$$%$$@$%&$oO&&$&&&&%-&-@$+$$$&@$%$&&&&%O@$&$+@@&$$",
"%@@$$ .$$$$@@***-@O@$%&%o- o$&&&&O&&&O$+$$&&@$%-%&-%@.$$$@@&  OO",
"&$$@$  @@%$OO%#@@@O@+$$$O@@@$$$&&-&&&O$o@$&&$@%*%#@@@O$$$$+$O@%$",
"$$&+$  $@%$O@@@O@O@@+$$++@@@$$$&&$&&$O$o@&%&$@@#@O@O@O$$$OO@O@@O",
"$$&@@ o@@$OOOOOOOOO+@@@O+@$@$$$&&&&&&OO$@$$$@OOOOOOOOO@$$@+$$@@O",
"$$$$$ $.o@OoOOoOo.o+@O+o+O@O$$$$$$$$$O+O@oo%$OoOoOooOOO+@@+$@@@O",
"$$$@O $@@@.OOO@@OOoo@@@.+OOOO$$$$$$$$O$+$$@@ @@@O@@OOoO$O++@@@@O",
"$$$OO $O++@O.     .@$@+.oOOO@@$$$$$$$O+O@$$@@O       %@$@OOOOO@O",
"$$$OO +$@$@$$$@@O$$@@@$OO+@Oo+$$$$@@$O+O+$$$$%O$OO$$$$$$$@oOO@@O",
"@$$+O .O@@@@@@+OO$$$@@oO@@O@oO@$$$@@@@o.oO@@$@O$OO$O$$$@o+@OoO$.",
"O+Oo@ oOO@@OO+OOOOoOO@OO+O@+o+$$@@@@@+O .+@@@Oo+++$o+OO+oOOO++@ ",
"oo.o+ .O@@O@@OoOXOOOOOo.OO$oo+$$@@@@+++oO+O@@$$O+Oo+O+@+o.oo$+O ",
".   O.o$&$$&&&&&-%$$$$$O.O@&&&--;-&-&@oOO$&@&&&---&$$@o&@oo$$&$O",
".OX X.... OOO$$$+$@OO. OX..  . ..o.... . ...@$O@$$$@@@...+o.OooX",
"..X.o  +o.   .o.o.o..@++o++oO.o...oooX   oo .    ... o.+++OO+O.o",
"X.. O  oO+++$$$$&@O@@$@o.O..X..oOoX.. o@.+++$$$$$&$$$O+++$.OXXX.",
"$$$$@.O+O@+@+@@@@$$$@@@.  +@$$$&&&$$$$$+.OO++@@$@@+@@OO+++. $$$$"
};
