/* XPM */
static char *texture__35_1724505264[] = {
/* columns rows colors chars-per-pixel */
"64 64 16 1 ",
"  c #323232",
". c gray13",
"X c #191919",
"o c #373737",
"O c gray32",
"+ c #808080",
"@ c gray4",
"# c gray15",
"$ c gray21",
"% c #555555",
"& c #6C6C6C",
"* c #9A9A9A",
"= c #131313",
"- c #B9B9B9",
"; c #464646",
": c #929292",
/* pixels */
" .....X.ooOOO++OOOO@.+@X...XX...@..X.....OOO++OOOO@.+@...#..#...",
"o ......oo OOO+OO+OX.O@..#...... ....   o OOO+OO+OX.O@o..oooo..#",
"o ..#. #OOoOoOOOOOo@ O@.o..... #o  . oooooOoOOOOOo@ O@#o.oooooo.",
"oo .o  OO+OOoOO  O.O.+.oo.....  oo ..oo.oOOoOO  O.O.+.oo.oooooo.",
"oo oooooOO. ... ..X.XO@oooo.#. ooo...oooo. ... ..X.XO@$ooooo.ooo",
"oo.oooOOOo  OOOooO ..O.ooo.. .ooo... oo..  OOOooO ..O.%o.ooo.ooo",
"ooooooOO%%.       .XXOX#ooo.  ooo.... o.#.       .XXOXooo$oo.$oo",
"oOooooO%%%.O oOOOO  .+&.ooo.. ooo.#...#o#.O oOOOO  .+&ooooOooooo",
"oOooooOOOOX... o    .**oooo.  ooo.....oooX... o    .**oo.ooOoo.o",
"oooooooo$OX.  O.OO  .**oooo.  oo........oX.  O.OO  .**oo.ooOOooO",
"@@@.@.X&**=.  oOOOOO **   o    OO.OO+OOo.=.  oOOOOO ****...X@@@@",
"+OO+OOO+**=.  OOOO++ +-..OO  . . =.  oo X=.  OOOO++ +-+*OOO+oOOO",
".. .X.X...X..  O+O++OO*OOO++OO+*O.++++++.X..  O+O++OO*..@XX=..X=",
"@X@O..X   X..  OOO++O++o o OO OO .O++OO+XX..  OOO++O++. @X.O@=X@",
"OOo.X .   X.. OoOO++ O+.. OO .  O.OO+*++.X.. OoOO++ O+  X.X.OoOO",
"O+OO.O O O=. OOO+++O +OOOOOOO.  O OO+*O+@=. OOO+++O +OOO.O.OO+++",
"OOO .o O OX.  OOO++O +OO     .O O OO+OOO=X.  OOO++O +O  X  OOOO+",
"OOO  o Oo..   OOO+OO.O+OooOO X oO OOoOOO=.   OOO+OO.O+OOX oOOO++",
"++OO.O O OX..    ; .X**      Xo  . ++OOOXX..    ; .X**  .O OO+++",
"+OOO.O o. .    o o  X+*   O  .  OXoOOoOO..    o o  X+*  .O OOO+O",
"OOoo.O  . ....X....X.OO   oo .. O=. O  oX....X....X.OO. .O O OO+",
"OOOO   O...   OOo    OO........OOX  O.  =.   OOo    OO. .O OOOOO",
"O oO. ..XX OOOOOOOoOO. .X....=..O.   ...@ OOOOOOOoOO. X....  o O",
" .#oo ooOo..   OOO.oO. ..... .o.oo...o o ..   OOO.oO. ooo%%$o$oo",
" .ooo ooOoX.   o O. O. ...# o ooo....ooo#X.   o O. O. ooo%%$#%oo",
"ooooo.oooo..   o O oOO oo.ooo ooooo#.oooo..   o O oOO oooooooooo",
"o.ooo.ooOO..oO O OO +Oooooooo ooooo#.oooo..oO O OO +Ooooo$oooooo",
"ooooo.ooOO..o  O OOO+  ooooo  ooooo..oooo..o  O OOO+  oooooooooo",
"ooooo.ooOo..     O OO   oooo  oooo....ooo..     O OO  ooooo.oooo",
"ooo.o..oOo=...XX... O. .oooo. ooooo...ooo=...XX... O. oo.ooooooo",
".oooo..ooo... o O  O+  ooooo oooooo..oooo... o O  O+  oo.ooooooo",
"ooooo. ooo.O   o   O*.O ooo#. oooo...oooo.O   o   O*.Ooooooooooo",
"ooooo##oooOOOO OOOO O O# o.....oooo..ooooOOOO OOOO O Ooo.oo.oooo",
"ooooo#oo...X=X.   ...=......#....oo..ooo$.X=X.   ...=.oo.oo..ooo",
"..#..oo...  .o OOOOO+.OXXX...@X.....oo..o  .o OOOOO+.O...oo.oooo",
"oooooooooo   O+OOOO++ O..o   .#oooooooooo   O+OOOO++ Ooo.oo.oooo",
"..#o#. ooo OOO+o+++++ +@X.....##.  ....oo OOO+o+++++ +...oo#oo..",
"oooo...ooo.. oOOO**O+oO.......o   o..oooo.. oOOO**O+oOoooooooooo",
"ooooo. ooo.  OOOOO+O+oO..#....   .#..o$oo.  OOOOO+O+oOooooooooo.",
"ooo.o..ooo. oOOOO++++ o.oo.... .#oo..oooo. oOOOO++++ ooooo%%ooo.",
"ooooo..ooo@=X.X==@.X.X.oooo...#.#.o. oooo@=X.X==@.X.X.ooooooooo.",
"@@@.@.X&**X  oOOOo   =.   o    OO.OO+OOo.X  oOOOo   =.**...X@@@@",
"+OO+OOO+**X.X..     .OO..OO  . . =.  oo XX.X..     .OO+*OOO+oOOO",
".. .X.X...X.. ooooO .+*OOO++OO+*O.++++++.X.. ooooO .+*..@XX=..X=",
"@X@O..X   X . OOOo  .++o o OO OO .O++OO+XX . OOOo  .++. @X.O@=X@",
"OOo.X .   =  oOOOOOO ++.. OO .  O.OO+*++.=  oOOOOOO ++  X.X.OoOO",
"O+OO.O O O=.  OO OOO.+:OOOOOO.  O OO+*O+@=.  OO OOO.+:OO.O.OO+++",
"OOO .o O O@.  OOOO+O.+*O     .O O OO+OOO=@.  OOOO+O.+*  X  OOOO+",
"OOO  o Oo.=.   OOO++ +*OooOO X oO OOoOOO==.   OOO++ +*OOX oOOO++",
"++OO.O O OX..  +OOO+OO+      Xo  . ++OOOXX..  +OOO+OO+  .O OO+++",
"+OOO.O o. =.  OOOO++OO+   O  .  OXoOOoOO.=.  OOOO++OO+  .O OOO+O",
"OOoo.O  . =  OOOO++OOO+   oo .. O=. O  oX=  OOOO++OOO+. .O O OO+",
"OOOO   O..=. oOOO++OO++........OOX  O.  ==. oOOO++OO++. .O OOOOO",
"O oO. ..XX.  OOOOOOO.O+.X....=..O.   ...@.  OOOOOOO.O+X....  o O",
"#oo.... ooX..  O O ..+*oo..oo ooooo..ooooX..  O O ..+*#..o$$oooo",
" oo.... oo.    O O  .**ooooo  ooooo..oooo.    O O  .**.#.o$oooo.",
"oooo#.X oo.....XX.X@@O.ooooo  ooooo..oooo.....XX.X@@O.#o.$ooooo.",
"o#ooo.  oo.OOOO  O.XXO.ooooo .ooooo..oooo.OOOO  O.XXO.#o.o$ooooo",
"ooooo.  oo.    o .X.XO.oooo ..oooo...oooo.    o .X.XO..o.%oooooo",
"ooooo...o# OOOOOOO.O=+Xoooo ..#....X...o# OOOOOOO.O=+Xoo.oooooo.",
"oooo...... O OOOOOO@.o@...#.X......X@..#. O OOOOOO@.o@##.ooooo..",
"#ooo...X..oOOO+OO+o=.O@...#........X@....oOOO+OO+o=.O@...ooooooo",
"....@XXX@X OO+++O+OXXO@@@X....@.X@@@@@@@@ OO+++O+OXXO@@X@.ooooo.",
"....@X@@XXOO+O++++O@=O@@X@...X..XXXX..X@XOO+O++++O@=O@@@@......."
};
