/* XPM */
static char *texture__3_1724505257[] = {
/* columns rows colors chars-per-pixel */
"64 64 18 1 ",
"  c #090A14",
". c #10141F",
"X c #151D28",
"o c #241527",
"O c #341C27",
"+ c #19332D",
"@ c #202E37",
"# c #4D2B32",
"$ c #394A50",
"% c #7A4841",
"& c #577277",
"* c #AD7757",
"= c #C09473",
"- c #819796",
"; c #A8B5B2",
": c #D7B594",
"> c #E7D5B3",
", c #EBEDE9",
/* pixels */
"--;;;;----------&-&$$$$$$$$$$@  .-;-;;;;;;--;;-;;;;;;&    ---;-;",
"-&---&&&&&---&---$.#$$&&&&$&$@@@@---&&&&&%&$&&&&&&&-;&@@@@$&--&-",
"XX.. ............;>,,,#&$&$$$@$@@----------&--&-----;&$$$$@@X+oo",
".Xo@X@XXXXXXX@&;;;--;;,&-----&&$$@&----&------&-----O&$$$$$@X.X.",
". .oo.O.XXo$$.$;;;--;-$.....X.. ..X@$$$$$$$$$$$$$&-o$$$&&$$$$O. ",
";----;;;-;;;>;,,,,,,>;;;>>>>>>>>-o  .......  ......X$$&&&&$$;-&-",
"-;;-;;-&-;;;--;-;;;;;&;;;,>;:>,>,,>@XXo@@@@@@@@X@$$&&$&&-&$>;;-;",
"-;----;;;;--;--&;;;;;--;;;;;;;>;>,-,>#$$$$$$&$$&&&&&&$-&&&&;;-;;",
"--;&$$$$$$$--&$$&-;;;;OO@$$$#$$#;>>>,>>$$&&&&&&&&&&--#--&&&;;---",
"----&$$$$$$----$-;;;-;&$&&%&&%&$;;;;>,,>&$$&;;;-;;;>>;>>-$$;;---",
"------&&-&--------;;-;--&&-----;;;-;;;;&$&$;;;;-;;;;>,>,,$$;---;",
"---$-----&-------&-;----&-------;;----$O&&&--&--;--;;;;;;#$&----",
"$$$$$$$@$$$@$$$$$$$$$$$@$$$@@@@@$&&@o @$&$$-&-------&$&O;o@@--&-",
"X@@@@@@X@@X@X@XXXXX@@XXoXXXXXX@XXX..o$$@&$$-&&&&----&&&&-@@@X@@$",
"............                  ....XX#$$$$$O@@@@@@@@@@@oOoo@XXX..",
"@@XXXXXXXXXXXXXX@@@XXXXXX@XXXXXXXXo$$$&&-$@XXXXXX.XX.XXX@@@$$$@@",
"$O@@@@@@@@@$$$$@$$$$$$$$$$$$$@$@@#O$$$$-;;;---------@@@@&&&$$$$@",
"$$@@$@$@@@$$--;;;--;;;;;;;;;;>>@$$&&&&->>;;;;;>>>>>,>$$$---$&$@$",
"$&@$$$$$$@$--;;;---;;;;-;=;>>>>>-&&$$$----&-&&--------$&&--$&$$$",
"$&$&$&&$$$----$-----;;-$--;>>;>>>,&&$$--&&&-----&----;&$&&-&&&$&",
",>$&&&&$$&$&$#$$&&$&&$&&&$$$$$&----$@$$$$$$$$&$$&&$&&&@$&&&&&&$&",
">>;$$$$$@@@@@@@@@X@XXXXX.........XX@@@@@@@$@@@@@$$$#$@$@$$$o&&$&",
"@->&$&&$#$@.@@XXXXoX@&----&&-&&----&-&&@@$@oOOXXXXX.@$$$@$$&&&&&",
"&-#&;;;&$$$.$$@$@@@$-,;>>,,>,,,>>,,,,,,,,,-&$$#@@$$$&$%&--&&&&&$",
"&$-;>>>>&$$.@@@@@&&;>;;;;>>>;;>>>>>;>;,;,,;,,;&&&&&&-$&-,,&&&&$@",
";>-;;;;,>,-X$$$$@@@-;;;-$X.XX.XX@o.X@o&;>,>>>,,>,-&&-$$-;;&$&$$&",
"--@ooO@;>,,>;&&&&&$---;--&$&&&&&-&$-&&-;;>;;=-;>;;&--$$;;;&#-&$&",
"&&&&$&&;;=>,,,&&&&$--------------------;-;==-;;;;;;;&$$;;-$#&&$$",
"&--;-------&&&$&$$$&&&&&-&-&&--&&-&--&-&$&-%$$@@@oX&&$$X@#$$&$$$",
"&------&&&$$$ $$$$$@$&----&&&&--&-&&--&$$#@@oX.  .@&$$$@Xo$$$$$@",
"$$$$$$$@$X.X@###@@@XXX@@@@@@@@@@@@@@@o@@..XXXXooO#O&$$$$$$$$$$@$",
"$@$@@@@..o@@@@$@@@X.....   .  ..        .@@$&%&&&&&--&&------&&;",
".XX..X.X@#$$&&&&&&&$$$@X@XXXX@XXXXXXXXX@$$&-&;;;;;-;;;;----&&$-&",
"&&&$$$$&&&$$$$$@$$$$$$@X$$$$$$$$$$$$$$@@$$$&$&&&&&&&&$$$&&&&&$-&",
"----&-----$@@@XX.......-;;;;;;;;>>>>,;;&@@@@@@@@@@@@@@@$&$&&$$$&",
"&&&&&&&&$$$$@@@@o@@@@@&&&-*-&&-&-;;;;;;&XXXXXXXXXXXXXX@;;;>>;;;;",
"&&&&&&&&&&&$$&$$$$$$$$-------&&-------&@&-----;---;;$@@;---;;-&$",
"$$$$$&$$&------&&&&&@$&&&&&&&&&&$&&&&$o-;>;>>;>>>,,,>@@-$$&&--&$",
".....oo-;;;;;;;;;;;;-$.o@@oXo@XXXXXX.$&-&---;;-;&;--;@$---;-----",
"-&&&&&$&-----&&------&@X.XXXXoX@@X.@@-&$$$$$$$$$$$$&-@@&&-&&-&&&",
"&$$$$$@@$&&&&&&&&-&&&&&@X@$$$$@@@@@@$-&&-----&-----&-@o@@$$$$$&$",
"XXX.X$$@$$$$$$$$$$$$$$$@@@@$$$$$$$$@$&&-&-------&-&-Oo$@@X..X@@@",
"X@@@$$$@@X............X@@@$$$$&&&&$$@@##$#@#$$@OOOoOX#$$$@@X@XX.",
"$,,>,>;@@@@@@@@@@@@@@@@$$$$$$&&$$&&&&$&&#$$$$@@@@@oX$$$$$$@@@$$@",
"-;-;;;-$-$-&&&&&&&&&----&#&&&&&;;;;;;;$&&&-&&$$&&&&$$$$$&&$$$$$@",
"----&-#---;;------------&&$&$&&&--&&;;&XooO.@&&&&--#&$$$O....X@#",
"-;;;;;;;;;>;;;>>;;;>;>;,&$&#$$&;;---;;>>;;&&&&-&&&&@&#&%&$$@&&&&",
"-;;;;--;;-;-;;;;;;;;-;>;,;&&$$-&---;;;-;-->&$&-&--&@&&$-;-&$&&&-",
"----;&---;;;-;;;;;;--;>>>;>&$&-&&------$$$-&&&&&--&#&$&;--&$$$;-",
"&&----&$$$&&$$$$&$&$&&;;;-;&@&&-&$$$$--$$--&-&&--@O#&$&---&$$&;&",
"-----------&----------;----$X&&&&&&&$&&----$&-$&&&&#&$$&&$$@$&--",
"-----&&&&&-----&--------&-$$@@$$&$$$$&$$&&$&&&$&&&-#&$$oo@@@$&-&",
"&-&&&&&&&&&&&&-$-&-&&-&&#@o$$X             X@$$&-&&O&$$..@$@$&&&",
"&&$&&$$$&&&&&&$$$$&&&-#@@X$&$XXXXX.XXX.X.XO@$$$&&&&$&&$$$$$@$@$&",
"@@@XXXXXXXXXX@@XXXX@XXXXXX$$$X@@@@@@@$$$$$$&&&---&&&--$$$$$@$$@@",
"@... ....     .........X@$$$$X$-;;;;>;;;>>>;>>>>>>>>>>$&&$$@$$$@",
"$XXXXXX.XXXXX.X@o@@@@@@@$$&$$X$&&&&&&&&&&&&&&--&-----&$$&$$$$$$$",
"@@@@@@@@XXXoXX@@@@@@$$$$$$$&$.$$$$$$$$$$@$$$$$$$$$$$$$$-&$$$$$$$",
"@XX@o.XXXX@@@X@@@$#$$$$$$$&&&@@X$@@@@$@@$@@$@$@@$$$@@X$$&&&@$$$$",
"---;-;--&-&--;-$@@+@$$&$$$$$$@@XXXXXXXXXXXXXX.X..XXXo$&--;;-&&-;",
"-;-;;;;;;;;;>>>;$$$$$$&$@$$$$@$@@@@$$$@@@@@@@@@@@@@@$$$&----;;;;",
"--&-;-----;;;;;>>-$$$$&&$&--&$&-&--&----------------&&&&&&&-;--;",
"$&&&&$&&&$$$&&&#-,-$$$&&&$$$$&&&&&&&&&&&&&&&&&--------$$$$@&&$$$",
"&&&&&&&&&&&&&&&&O->-&$&&&&&&&&&-;;>>>;,,>>>,>>;>>;>--&$   &$&-&&"
};
