/* XPM */
static char *texture__11_1724505259[] = {
/* columns rows colors chars-per-pixel */
"64 64 15 1 ",
"  c #090A14",
". c #10141F",
"X c #151D28",
"o c #241527",
"O c #341C27",
"+ c #202E37",
"@ c #411D31",
"# c #4D2B32",
"$ c #394A50",
"% c #7A4841",
"& c #577277",
"* c #819796",
"= c #A8B5B2",
"- c #E7D5B3",
"; c #EBEDE9",
/* pixels */
"&**&O$$*==*$*===***===&****=$*==;=$***==&$&==*#$&******==**$&&&$",
"$*&*$#&&**$&&*=*$&&***&&*&**$$**&*%*****$$****$&****%&**=%&&&&$#",
"$***#O&***$&&&&*#$&$&&&&*&$&#$&*&*$&&*&&##&***$&****#$&**$O&**&#",
"$***$#&&**&&*&**$&*=**&&$**$$&***&&*&*&&$&&&**&*&***$&&*$$O&***#",
"$*%&#o#**=$o#*&=% $*&%#o*&&& &***&.$**&&O+$&&&O#*&*$$$&&$#.$*&&#",
"Oo+#&=ooOO#&oo#O#*.o.#=$...o&&.+$.&&ooo$&+ooo.*$OO$&*$o#$$&+Oo.=",
"$&-*-$&&$&=$&=**=*$-;;&&***-&&*;*-*&*---*$&;**$&*;;=$$****&$;=-$",
"#&*&$*&*=*$*&=*$O*&=*&&&**$=*&&*$$*&**&*=*$&&*&&**&&Oo&**$o===$+",
"$***#&&**=$$*===&&*==&*&***$$&*********&$&&&&*$&*&**$&***$$&**&$",
"#***$$&**=#$&*==&$****&%*&&&#$&&**$&&&&*##$&**$$**&*#$*&*$O&***#",
"&**&$#$&*=+$&&&*$$$=**%&****#&&&**#$&$&&#O$&&*#$&***#&***$O&*&*+",
"*&**&O&+$*#$&$*&&%***=$&$***$$*&&%$&O&$$#$*&$$#&&***$$$&&&$&*&#O",
"#$*$OOo&&&# O*&%o $*&& +*&$& .&*$o&O$$$$O#&&$#Oo&*&&OO&%*#$#*&% ",
"&+O $&$o.oO&$...*&OOOo&$.. O&&.. &&&oOO#$$Ooo$=$o  #$&...$#&O$#*",
"$*&$$&&&&**#$*O$&$&*&*+=****&$**$&&&&&&&$&*&$*#&&=$+$$=*&*O$**=&",
"#**&&&&****$&&****&**$&$**&&&$&$&&&&***&+&&$$&&$***#$+&*&&&**&*$",
"$***&&****&$&***&*&***&&*&$&&$**&*#$**&*$&&&&&$&&***&$&&$#*&***#",
"#****#&**&$#&***$$&&&*$%*&&$#$&&&&O$&&&&$$&&**$$$&&&#$**&#$&***#",
"$*==*$****&$&***$$&*&&$&*&&&#$&&&&O$$&&&#$*&&*#$&&&&#&$**$$%***$",
"$*&*&$$*&*$#$$**$&***$O&&&*&#$&*&$O$&$&&$$$*&&$$&$&&$$$&*#$&&*$O",
"+&$$&&o&**&&O&*&.*$$&$&.&&&$$#$$$O&O$$$$+o$$$$o##$$$$O#$#$##$%O&",
"&*&&&+&&*=*&$&**=$$***$&*&&&$$&$&&&&$$$$$&$$$=$&$&&&$&&&&*$$&**&",
"O*&O&&$&&$o&$&**+&***&$$*&##*o&&o$&$&$$**$=*$*&&&&$$$ &&$&*$&$*o",
"#&&*$&*&*&$$&**=&&&***%*&*&%o$$$&&&&&&&$$O&**&$&&&&&$$&&&##$*&&#",
"$***O&*&&&*%&***&&&***$$&&$&O$&&$&$$&$&&#O&***$&&*&&$#$$&##$**&#",
"$***O#&*&&&#&***&$$&**#$*&&*O#&$$&##&$$&#O$&**##&*&&#$$#$$$$&**#",
"&***$#&$**$$*$**$$&**&$&$***#**&$&$$$&$#@$$&**%$&&*&$$&&$$$&$*&$",
"$&&&$O$&*&$.$**&OO&**$##&&&& O**&#oO$$++ O$&$%Oo$*&$$o$&$$.$$%# ",
"O.. $&*+OO$$$.Oo*$OOO.&&o..O*&.oO&&#o.X+$$..o&*$o .$&$. o$$$o.&#",
"$*$$$&&&*$*&&*&&$&$*o&*&&&&&&$$$$*&&$**&&$**&&$$*&*&$&==&&&&&&+&",
"#&*&*+&$&$*O*&**$$$**$$$&&&&$&&&*$*$&&&*&$&$&$$&&$&$*&&&*&&&&&$o",
"#&*&$&&&$&O$&***$$&**&%&***&$&&&&&#&&*&&$&$$$&$$$&**$%*&*#$$$$$O",
"$&*&O#$&&&#+%&&$#$%&&&$$&&&*#$&&&&O#&&&&##%$&$O$$&&&#$&$&#o$++$O",
"%**&#O&&&*$$&*&$#&*=&&$$&*&&#&&$&&O$$&&&+$$&$$$$$&&&$$&$$#O$&$$$",
"&$**$.$&*$&$$$*&&O&$=*#$&**&#$$&&&o$$&&&#$&&$$$$&&*&#$$&&%O&$&$+",
"$&&%.$o$&$O$o$$& *O$&&.$&&&#.O$$#O&O$$+#$oO$$$Oo#$$#OO$&$O$O$&$&",
"$#$&**$#&&-&*&$$&&$oO.&&$$#*&$&&&$#&$OO&&*$$$$&&X.$&&$.oO=*$*&&&",
"#&&O&&$&$&*&$=-&**$*&&&&***+*$&&$O$O&&&&&$$&&&&#$&&&&O&&&$*+$$&&",
"$*&&$$$&**&&&*==#&&&$*&&&*&O&&&&&$$$&$&&$&$&&&&+$&&&##$$&OO$&&&&",
"$&&**$$***&&&***$&**&&$$&**&$%&&&$O$&&&&#$$&&&$$$&$$#$$$&$$$$$&+",
"$**&&#&&*&$$$$**$$$&&&#$$&&&##&$&&#+$&&$#$$$&&#$$$$#O$$$$$+$$$$#",
"&$*&&$&$**#$$&&*$$&$$&$O$&$&#&&&$#$$&$$$$$+&$&$&$&$$$$$&&$#$$$&$",
"$%&*& $*%&& $&*&$$&&$#O$$$&&o$&&&#&$$&$$O#$$$$OO&$&$Oo$#$$O$&$$#",
"o.O+.*o#$#&&oO+#&&###o$#O+#O$ooO#&##O$$.$#.oOO&&.OO&*$O#+$$$.OO$",
"$&**=$&&&&*$O*&&&$$&&&#&&&$&$&&&&$$$$&&&$&&$&&$$&&&&o&$&$$&$&&&$",
"O&&$**$*****&**&$*&&&$O$&**&*+&$$$&$$&&$&$$&$$$$&&$+&$$$$$&$$&&o",
"#*&&$&&***$$&***&&**&$*&&&&%+$$$&&&$$&&&$&$&$$O$$$$&$$$$&&$$&&$$",
"#&&&$#%***+$&***&$***&#$$&&&O#$$&$$&&&&&#$$&$#O$$$$&#$$$&$#$$$&#",
"$&*&$O$**&#$&*&&$#$&&*#$&&$%O#$&&&#$&&&&OO$$$$O#$$$&$$$$&$O&&&&#",
"*#**&$&&*&##&O*&%%*&*&$&&*&&#&&&&$$&#*&$##$&$&#$$&&$$$&&$$#&&&$#",
"#&*&#OO&$$# O&*$.O$**$OO&*&# o**&$&O&#$$Oo$$&$#O$$&+o+$$#$#$&&$.",
"&oO.$&+  .*&$ .o*+....$$#ooO&&oO$&&$o.o&O$OO#&$$.. O&&.oo#$#Oo&&",
"&$&$***&*;&**&&*&&$*&$&*-=$&&&;&*$*o&&*$&&O$$O&$$&&&&$&$&*=*$$&$",
"#&***=****$&$****#&**O$O**&*&&***$$&&&$#O&&&&$&&$$&&$#$&$$&$*&$o",
"$&&*&&&***$&&***&&&*&*&&***&#&&&**$&&&&&#$&&&&$&&&&&$$$&&$&&&&$$",
"%$&&&#$&**&$&&&&$#$*&$$&&$&&O$$$&&OO##$&OO&&&&O$$&&&#$$$$#O#$&#O",
"$&*$$+$&**$$&&&&$O&**&#$#$&$$&&&&&O&$$+$##$$&&+$$&$$O#&$&$O$$$$#",
"$*&*&#$&&*&+$&&&$.$&**O&&&&$#$&&&$#$$$#O+$$$&&o#$$&&O$$#&#.$$%&.",
"o$$&#oo###.&.$&$ $o$##$&#+#o$$o&$.&o$$#O$O$$##&$+$$O$o##O$$o$OoO",
"$&&**$&&==;=&&&&*#$&&*$$&&&&&&$$#&&&&&$&+$&$&&$&&**&$+$$&&&$&&&&",
"#***#&$&&#&*&*$*#&$*&$#$&&$$&#&&&+&$&&$+$$$&$&&#&&&O$$&&&o*+&#&o",
"&&*$O$&***&$&**&$$&&&&$&&&&&&$&&&&$$$$$$$$$&&$+O$&&&$$$&&#$$&$$$",
"$&*&O#&**=#$&*&*$$$&&*#$&&&&#$&&&&#$$&$&##$$$&#+$&&&+#$&&$O$&&&#",
"$&**O$&&&*$$&*&*$#$$&*$$&&$$O$$$&&O#$&$$##$$$$##$$&&$##$&$#$&$&O"
};
