/* XPM */
static char *d80d86ae6a894b769fb6cd7170b4611cBCF5G1iGFkw0GxHc[] = {
/* columns rows colors chars-per-pixel */
"64 64 63 1 ",
"  c #060606",
". c #080707",
"X c #070807",
"o c #080807",
"O c #070708",
"+ c #070808",
"@ c #0B0B0B",
"# c #100F0F",
"$ c #0F100F",
"% c #10100F",
"& c #100F10",
"* c #0F1010",
"= c #131413",
"- c #181717",
"; c #171817",
": c #181817",
"> c #181718",
", c #171818",
"< c #1B1C1B",
"1 c #1F201F",
"2 c #20201F",
"3 c #1F1F20",
"4 c #1F2020",
"5 c #232323",
"6 c #282727",
"7 c #272827",
"8 c #282827",
"9 c #282728",
"0 c #272828",
"q c #2B2B2B",
"w c #2D2E2D",
"e c #2F302F",
"r c #30302F",
"t c #2F3030",
"y c gray19",
"u c #323232",
"i c gray20",
"p c #333433",
"a c #343433",
"s c #353535",
"d c #383737",
"f c #373837",
"g c #383837",
"h c #373938",
"j c #383938",
"k c #3B3C3B",
"l c #3C3D3B",
"z c #3D3E3D",
"x c #3F403F",
"c c #40413F",
"v c #414140",
"b c #434442",
"n c #444543",
"m c #464645",
"M c #474847",
"N c #484947",
"B c #4A4B4A",
"V c #4B4C4A",
"C c #4C4C4B",
"Z c #4E4E4D",
"A c #4F504F",
"S c #51514F",
"D c #535452",
/* pixels */
"      ++ +@@@@@*@=====,::<<453<7q17q777:7usjw7sBxssvDZmBBZmmxxxz",
"    + ++ @@@@@*@@=====::::<5555q77qwwwu8qufszsqkjznvZZBmBZMVBBmn",
" +X + +++@+@@@$@@*=====:::<<555q97qwrjwujqswzmfsqwvbBBNMZZMVNBnm",
" ++++X  +@+@@@%@@*=======:<<555qqqqqwsquzjuqumzvj7jlCCMNZZNBBBnm",
".+++o++X =+@@#@@@@=======:::<<7qqqqqqw7ujxsq7bxvvfqwlBBNBAmBVBMM",
".++++++o @@@@=@=@$======::=:<<577q7q7qqwdjjuqzzjnzjsczbVZSnBCBmB",
".+o+o+++ @@@@$@==%=======:=<<<5555q7776qssuuqujsxxzjvBzmSmzmZVmv",
"  ++++++ @@@@@@============;:<55<5557857wr87uq<7wuwuuzzzbvzvZNmv",
"  ++++++.@%@@@$===========<==<::<5557777qq855esq7weujzdjzjjjmvfs",
"  ++++++.@=@@*@========;=:<::,:<57578q75q7qeuejjusjuvNBvnzvvjmxz",
"  + +++++%=@$===========:::<<:3:=<5=5557q<=wfuufw7swzvBjvmmn7mus",
"  +X++++@==%===========:::<<:<7q<@<5q77qq<=7ssasq=wuzmvvvvvvqzuz",
"++++++++ @=@*@+@@@@======::<<:5qw5=5qq87qq<5uusju7w7fvvnvvju<::z",
"++++++++ @=@@@%@+=========:<3<<5qq<=55qqqq==wuequ7qspjzzkzxvjgws",
"++++++@+ ==@==== =====;==:::<<557wu>:57q90<+wuwqq57q75qq7qjzzzsa",
"++++++@+ $=@@==@@*=========1==<755w<=:5555::wpwupwqwuusjs:<5sjjs",
"+++@++@+ @==*&@@==@===,,:==5::<<55qq557w77<=wueuurszsffzzaq7gssj",
"..++++@. +==@@@@@@@=====:@;51<<5158w7wq075<<==<755<55555qsssguus",
"..X+++@@@@====*===@=====@ :55<<155<<5757uwwuusw=5qw:  =@@wupswws",
" ..+++@+@====:::;===,==<= <71<1<55<<57+5wusruszujwwsu=57 uqwa7ws",
"+ X+++@+======:=:======:< :7555555:55< 7wwguujuujuujs2:<+sssjwqg",
"+++++++@=======::::::=::: :q7778755:71 quusswjurgwuakq=  sljjuws",
"++X+@++o=====::=:<<<:=<4: <q777q7555q<+quusuujuqjujuwsu: jzsfssj",
"++ +++  ==@=====:<<52::<= <q777qq552q<+5wwjpwzs7jujsuujq rzzfzsu",
"++++++ +==========:55:<<= =7555155557:+857quwuw58ugsasjq quuuss7",
"++++++.+=%===:=====<4<<<:@+<55555<<55=+71:<:wq75<5uuusf7+uwuuwwj",
"++++++ +=@===,;<<<54<5<:5<&==<5757555::557<=:77:5<<<7wq: :77q7qp",
"++++++ @=======::<<<<<<<55<4<:<7775573=5<:<7<1::<57q7uuw:<77qwqw",
"++++@+++@@=====:===::,==:::<<<=<<<:>,<;=@=577qwq755wssfuwwwqwsss",
"++++++++=+@===*<:==<3<@@==<<<<::<<<:<=<<:@577577q5<:w<5qwusuussp",
"++++++.@====;==<1<::<1<@=+>4<<<====<78575=5qw75quqqqwqqqqqqusssa",
"++@++@.+=======:<<<::<3==@=:::55:=@X@=:5<:q77q<<w775qwwqwwussjsu",
"++++++ +======@=<<<:<<<=@+=::<<554575::5<=2557<=wqq77qqquwusspuw",
"++++.+. ======@=::<:<4<=@ @===@==@=;<5:<====<<==wwwq57wqwwupssuw",
"+++++++ #=====#=::::<<<<<=@======@@@==5q<:57qq<@55<7757055q<:<7:",
"+++++++ @===@@+@=@=====;====:<=<,:::==55<<<<57<@====::<:==@5qqqw",
"+++++++ =======@@=:=::::<:==@====@==:=<755757q57quuquwuu7u77jzws",
"++++@++ ==@=@===%=<::<<:45:<55<<55:@5::75777555<77q7qwuw<q0qspss",
"++@@@@+ =========@,:,;:<<<<:55<::5:@<:<757777557757wqqw755@szssz",
"++++@@+ ========@======:<<:::<:::::=1=:75755557wq7qqqqqq<7:usush",
"+++++@+.$@======@=======:::::::,:=:=<,@25575577q57wq76q7qq:ufrss",
"+++++@++@+==@@@==@=====:<:<:::=====@=:=:<<75<<:<<<==<::<<<=5q<77",
"+++++@+@=@===@@==@=*===;:::==:,===@:57qwqq5auuqqqwuwq51::ww7wwqq",
"+.+.@@.+*@====@=+=<=,::<<:<:=<<<<:=<77qqq75jgj75qsssuqw7:pswwwwq",
".+++@+ +@+===@+=@@>====<5<<,<5<<5:=$:7577=5jjjqqqljssuuw:ussurew",
"++@@@@ @=+==*@@++=======5<<==<:<55:==777q<=uqwq55quw77wq=uusuwuw",
"+++@@@ +=+==@=@@ $:::===<<:;:=@==>:,==:<55:<547:<5577<5q<<,5q777",
"+++@@@+ ++@=@@+@  @:=:=<<<<<1<<:<,::==<5<2557775q7<<51:<55:=<<5:",
"    +++++@+@@@@@@@ ===@=:-::<<5<<:<:======:<=<5<wq<<<7qqq57usup7",
"      ++@@@@@==@+=======,== =:<<:;:=@:><< <w5:77557<<7weu77ssupu",
"++++++++@@@=$@*@ ====:=:<:= =<<<<<::==><5= <4:<:q<<:===<<:=usuuu",
"+++++++++++@@@@@ ====:==::= =1<<<<<<<<<<1<@==:<=@:<5<5<:<25<wuwq",
"+++++++++@+@@@@@o@==::===== =<:::<:::::<::===<<<==5:<<52=::<,:<<",
"o++++++++@@@@@@@@ @==::====.=<<<::<5755555=<25<5<<w:558t<5qquwqu",
".++++++@+++@@@@@@@@===::===+@@,::<555<7q57:515<<<<7<=:7qq<wwupww",
"+++++++@@++++@@@@@@=======,===:::1555<5557:qwq5<:><::=<77:5wqqqw",
".+++++@@@+@@======@====@@=::=+===<5<7:555:=qweqq055:@<455:<757q2",
".+++++@@@+++@=====@=:==+ ======+:5:55<:::= :qww77155<<555:<:5777",
" X++++++++++=++====@==== ======*=:<555<:<<= ==7w5:==5<5:+@=$@==:",
"  +  +++++++*=++@==>==:: =========14355<755:=+<wwq:+::57$=,::@:<",
"  ++++++++++@@@@  @==*== ========+=::<55<<5:=@<5q75=<==5=====@=<",
" oo+++++@@@@@@@@++%@@@@$ =====@==@+===::::<==@=qq5::<@:5<=======",
"  ++++++++@@@@=@+@====+@+@@@==@==@+@=@=<:::<:==5q7<5= @<5<======",
"  ++.++Xoo+@@@@@+=====@ +++@====;===::=:4555<=:=::=::=O+<3<====="
};
