/* XPM */
static char *_7ae3707a3dd4468c0becd8e248a2b25QNZ100mFwrsnqtur[] = {
/* columns rows colors chars-per-pixel */
"64 64 135 2 ",
"   c #010102",
".  c #03050A",
"X  c #050A0C",
"o  c #0A0C0E",
"O  c #000713",
"+  c #050D12",
"@  c #0B0E11",
"#  c #000F1A",
"$  c #061114",
"%  c #0D1214",
"&  c #05131A",
"*  c #0D1519",
"=  c #0D191D",
"-  c #111416",
";  c #111619",
":  c #141A1D",
">  c #181C1E",
",  c #16201F",
"<  c #061A20",
"1  c #0F1B21",
"2  c #091D28",
"3  c #151D21",
"4  c #191E22",
"5  c #0D2025",
"6  c #0C222C",
"7  c #162125",
"8  c #1B2225",
"9  c #15242A",
"0  c #1D252A",
"q  c #1E292D",
"w  c #172630",
"e  c #1B2730",
"r  c #1D2B32",
"t  c #1E3136",
"y  c #1C343E",
"u  c #202527",
"i  c #21262A",
"p  c #222A2D",
"a  c #292D2F",
"s  c #242D32",
"d  c #292E31",
"f  c #253135",
"g  c #2A3235",
"h  c #253339",
"j  c #2B353A",
"k  c #2D393D",
"l  c #31373B",
"z  c #323A3D",
"x  c #3B3E3F",
"c  c #2D3B42",
"v  c #333D42",
"b  c #383F42",
"n  c #323F48",
"m  c #2D4146",
"M  c #354145",
"N  c #3A4345",
"B  c #34434B",
"V  c #3A464B",
"C  c #37484A",
"Z  c #3C494E",
"A  c #374C52",
"S  c #3D4C52",
"D  c #3E5056",
"F  c #3E515A",
"G  c #404547",
"H  c #414749",
"J  c #424B4E",
"K  c #424E52",
"L  c #494F51",
"P  c #445155",
"I  c #4A5155",
"U  c #45545A",
"Y  c #4A565B",
"T  c #46585E",
"R  c #4C595D",
"E  c #525B5E",
"W  c #4D5C62",
"Q  c #525D63",
"!  c #4F6166",
"~  c #536166",
"^  c #54646A",
"/  c #54676F",
"(  c #59636B",
")  c #59666B",
"_  c #5B666B",
"`  c #57686E",
"'  c #58696F",
"]  c #5C696D",
"[  c #556771",
"{  c #5A6B70",
"}  c #5B6B72",
"|  c #5C6C73",
" . c #5E6C73",
".. c #5F7075",
"X. c #5E727A",
"o. c #61696E",
"O. c #636C71",
"+. c #616D72",
"@. c #606D73",
"#. c #626F74",
"$. c #637276",
"%. c #62717A",
"&. c #65757A",
"*. c #62757D",
"=. c #67767D",
"-. c #69757A",
";. c #69777D",
":. c #67787F",
">. c #6A797F",
",. c #6C7A7F",
"<. c #697780",
"1. c #6A7D83",
"2. c #6C7C82",
"3. c #6E7F84",
"4. c #717B83",
"5. c #717D83",
"6. c #707E85",
"7. c #718084",
"8. c #738185",
"9. c #73828A",
"0. c #76848A",
"q. c #77868C",
"w. c #79858C",
"e. c #78888E",
"r. c #7A8B90",
"t. c #7F8E93",
"y. c #7E8E96",
"u. c #83969B",
"i. c #869699",
"p. c #88949A",
"a. c #86989D",
"s. c #899AA0",
"d. c #939FA1",
"f. c #A7B6BA",
"g. c #CDDCE0",
/* pixels */
"=.>.3.r.r.r.9.} >.7.M K +. .;.e.>.u.,.+.3.6.w.q.s.q.d Q y.<.%.} ^ W K g d ^ R ~ ~ W R W S C c M B M b i v M b 0 0 7 V k f 0 8 3 ",
"S V W / W ^ *.F X.1.p Y } W R ' ~ W ! U Z }  .;.3.V   4.=.B B M c h e   d ' T D Z C S P S S C A C j % i K q & ; %   i d * : * $ ",
"  j c n c c P F T S   s ^ S P P c C B c 0 B T ^ S M   ( [ M c c f r s   Z ^ c S S Z A M n s j j 8 .   8 Z s p 4 ; . 0 d ; ; * 3 ",
"p c 0 j c h j z d     K T f r w M A c c   N W y c v 0 K K f r f r 0 3   7 s + n c s 7 = + 8 0 3 * : X : v q 4 ; @   % 7 * % % % ",
"v S s 0 Z U R Q K M k W R h V V M j k s 0 +.) V Q Y U Z V M r r r 0 0 : K ^ 0 j f 7 7 : 7 p 3 : ; % % % 8 3 : ; . 3 g * - % - % ",
"T T M s C W  .&.} ^ W 3.q.&./ T U K ) W W Q j V I 3 . $ 7 7 . . $ $ 0 ; J W   $ * * 4 . : : + $ X .   . ;     .   b K ; . o o o ",
"<   . * z     .       .  .+.j +   +         d X . a a -   l J b j z * * i d p g 8 %   8 3 4 : $ 8 8 p i : 4 8 ; p b d g 8 ; g l ",
"N J z &.+.Y b   J +.] &.q. .^ V K * z Q ) t.p.w.7.q.3.K H i.y.<.+.Q Z Q Z v ) +.~ k ' +.$.$.~ W V ~ R M Z V v s f f 8 7 g j g z ",
"o.o.V S A W v   7.3.^ T m t B q B @ ] $./ Q W W S C Z 7 ~ q.Z f 1 0 Z f s h s r q k 3.~ W Z U V k U z 3 q 3 7 4 + @ % % 3 p 3 0 ",
"v M j 9 r 7   K q.6 h k j k 0 d 7 G 3.A M   r k j 7 1   R ^ 2 0 : % g $ * : : s 3 k  .Z c r r = k s 1 * 3 ; % X o % ; * : : 3 * ",
"P V M v M V   ~  .0 8 : * 3 $ V s 3 &.T h : j f f 3 7   I ] e 0 @ ; l $ % % % : 3 f ^ k k v j j j f 0 0 p q ; @ o @ % @ ; > 8 ; ",
"> 8   X X     g Z & : 7 d = 3 j 0 : &.U j f q j d f s 3 ] $.9 7 X X j i 8 3 8 ; X ; V f j : : : : 7 * 7 8 : @ @ @ @ @ o o % ; ; ",
"b Y j p d J   I +.  0 0 g s j J   M ..Z c j f k f h s # R W . ; o o i : X   . .   o k .           X :     . . X X . X % 8 4 @ % ",
"  + : + g V 3 N V   . = z O * d M U ` Z 0 $ $ %       d K ] . 3 . o   : f f 0 3 f T W j 0 : 0 Z Y Z 0 p V 7 3 ; - i j g b 0 X o ",
"z g     d d 3 Y &.^ Y b g J ~ >.&.&.} W V M 8 j R Z Q &.&. .K d 7 ; p K V V M c S W D R K s M K K M k C B c f 8 7 j f ; : : * X ",
"K M z P Z N V W ~ R T k   5.&.) ) ~ ^ R C ~ M $.1.W W P T T h M j : j V K W Q ^  .%.} W N V Z Q ' Q R Z M v d : . ; 8 : 0 d s q ",
"8 1 W R h r r 9 e 0 9 e & S Z .   r M c V V s  .S 9 = r M r f M s 3   2.<.^  .} T Z M c = Q ^ b d g j z v f p 3   d q f k f d q ",
"s = v M h f h M B j f s 1 V P 8 j K Z C 7 & = ) V # q M j $ M j 3 * 3 9.P   s s # & r r   ) S k .     - ; % % @ X j 0 j f 7 3 p ",
"3   3 s f f h k f 0 M j 0 Q b   7 k v 7 k R 0 K k $ 0 v j * g 7 : ; 0 3.v q j s 7 h h q    .S Z j 7 0 0 3 : : : 8 M B M r 7 q d ",
"7 f Y Z j z k N a b J V Q $.U g * W P K  .~ s I Z z V J K 8 d * 4 : 3  .E R T Z M V 9 & d U P ) k @ * * 7 7 0 : 8 p z M $.) . 3 ",
"j k b d p p 7 : % : : 3 h j j z g k 0 q d p s p 7 8 7 : . + 8 ; ; X d S n n B j d * g Y P J k r q 8 i 0 3 + * p j s .   0.]   ; ",
"3 * + * * ; * ; = * 3 3 : 3 4 z j d & $ 0 0 3 3 7 7 3 @ @ ; : ; * * j s 8 0 h s 3   V Z . 4 q q s p p s 0 3 g g p 0 3 *     : 4 ",
"; ; : ; : 3 : 7 0 s 7 : : : : : : p 3 3 3 4 7 7 7 7 7 * % * ; : : 0 f k s h d h 0   b s : d p 7 ; X . . o % ; ; ; % % % ; 8 i * ",
"@ X % ; ; ; * : 7 q : @ . . X   3 p * : ; $ * ; * * ; % * * @       = 1             Q U 7 c k s 3 % : - % @ X @ % @ . . @ 8 X . ",
"@ . 0 g d i ; d k k j d p 8 ; > d d : 4 p j j f s s 0 7 % . i K R P R ) R ~ ~ Y Y R  .T R M V N g a % @ * 3 i ; @ ; 3 8 p i 7 : ",
"8 . p P V N M d 0 g 0 0 g j k 3 v Z Z K Z S Z k V B j 7 ; . z I Z P W ~ U W P Z c f 5 4 j s v z z N @ 7 j j d q * j M s g V v p ",
"3 * Z M d d s d 3 + @ i   p j V N W K n r & = . 7 7 $ @   z S   q d 9 O 9 f 9 9 9 q q 7 ; % X     X X ; p 7 ; 3 + v K 1 4 8 0 : ",
"% * J 3 0 0 7 8 : % ; l ; : p H s >.W r 0 ; : * 0 0 % -   N ) 3 - 3 k f 0 c h k 0 0 : % 8 8 > ; % @ o % ; - - :   Z Z 8 0 8 0 4 ",
". + I 7 3 * $ % @ % % . % + ; 8 8 +.Z 7 4 ; % ; p 8 @ *   z  .3 8 d k 0 * 3 7 : .     %     X ; % % * * - : % %   Y n + ; - : - ",
": @ l 3 % % ; 4 % % : 8 3 : ; 7 p V 3 3 3 4 : 7 j 0 X %   0 Z 0 p 0 : 7 7 3 : j b j p 7.a.7.7   * * ; 8 k j f j 7 k s   X . X X ",
": > j 7 ; 8 i 4 @ % : ; : > a 8 8 k g 8 0 8 : 3 8 4 j i : g : : : ; ; : . > L J Z M 4 Y f.g.d.  8 : , p j p f f 0 0 : 8 i a p i ",
"% % 8 ; % % @ @ % % % 4 % % @ @ 4 j p * : % % @ X * 7 3 a i : : ; ; ; ; o j p $   . %     J N   - ; % X X X . i 3 7 g p 7 0 3 * ",
"- ; 8 8 ; % @ % * * % u ; % % * * $ * 7 : @ % ; g p : 3 3 7 4 : - - : : 8 N . > : 4 ; i :     - @ % o @ - 8 > 8 $ 8 i * % - % o ",
": : 8 i ; % o % * * % % : : . u i % : ; - @ : * z 0 3 & 3 4 ; @ X @ X     g X X X X - @ % %     o % X : 8 0 8 8 3 3 : @     % ; ",
": % % ; % @ o o o X X o   . @ > 4 @ % X X   X X 8   : z j p 4 3 ;   X N b 3 4 8 ; o * i 8 8 z k ; X 4 8 7 0 p j j j f 3 a x X @ ",
"; : : ; ; ; p s s d g j N b 7 N z j j a d b j d   N J b j g p p 8   N R V j g p ;   N R J N g i . J P P P J M b z j d k K I p f ",
"X . : % : 4 p p 0 0 4 & K I   : ; % % d i 8 3 ; ; b :   X X X 4 4 @ g   @ * % X %   P z   X   . o p s s 7 : . .   X   i d = p q ",
"d I   ; : * % % % % -   N E   - @ % ; i u ; o   8 b . ; % % @ : > @ a   8 0 8 X o   K b   : i - @ 3 3 ; : % * X : ; . f z : : ; ",
"g V   : ; % % @ % % @ : a a X % @ - > @ X X 8 : z E   : @ o % @ @   z L 8 0 . X j   Q J   4 : % % z 3 : - % . d z X - C R : ; - ",
"+   - @ % % @ @ o X o 8 4 . % - - @ ; - @ % - @ i g @ ; % o % : @ * N Q : i   J ) #.-.& 4 : ; - . J a ; > ;   b g X : i p + ; : ",
"% - % @ @ % : * : 4 % : 8 %   u 8 . @ X X % o @ . . ; - - % - -   p 0         l Q >.K   7 4 % ;   V g . - - - %   X . .     @ . ",
"o o X o o % : % > 8 ; % X 8 i %   @ ; 8 : % o % % % @ % X .   8 v S S P W K V   7 $ g b p : : * 3 p 0 p p q g 8 a g g j j z g g ",
"- - - - - % o @ o o % @ X p : @ g N 8 8 i 7 8 j j K K B h p v M !  .1.3.3.^ f j N I J l g 8 8 ; Z Z j v k j v p a j j k j v v j ",
"i i i 8 ; % o - - % : - % . ; N z N k M h p : g k S n f k c d d s 0 k s       0 8 :   . % -   : R f   . @ X X X 0 7 0 7 : 3 $   ",
"@ * * @ X X o     8 4 ; ;   l N   : k v 8 d @ . + j 3 @ 8 : % % . * 0 7 : -   j j + : ; @ % : z N . a 7 3 : * ; j j j f q 8 ; % ",
"o o % - @ %   H d @ ; : ; X 4 : . p 3   i : . 8 z 0 % * $ ; 4 ; : 7 : $ % @ . z p p 0 0 0 0 p p * 4 K q 0 8 . 8 M q 0 i 4 ; % % ",
"- : - : % @ X i > . @ @ %   N N . 4 ; : : @ . j j 8 4 8 - ; % @ % % @ @ o X ; g 7 0 0 p 7 3 : 3 7 7 f 0 q 7 X 3 f 0 : % % @ @ @ ",
"; ; o X o X o   . % @ o @ X 8 : % : % % o @ X .   % o o @ o X o o @ @ o @ o ; f = * 4 7 ; : : 0 i . ; : % % . p v j p . % @ o % ",
"  o @ o   i i   X . o o X o X o @ X X o o . 8 P z   X X X @ @ X X X X o o   i M g 7 : ; . . . ; ; $ 7 s 0 8   3 j 3 ; % ; o ; 3 ",
"z @ + * : k g ; : 4 ; - - % X 3 4 ; - ; 4 X g K p > : - - X X : ; > > ; > u b K K z j d d i p z 4 M ` :.y.<.R V j M j p f 3 k S ",
"Q f j j v M k g d a 4 i 8 8 g j s 4 8 b g > 8 i 0 d a 4 3 d b n b l j 8 i a N v g g p 8 4 4 : 3 3 4 b k z g j p ; 0 p : : . k n ",
"  : p 4 % % o @ @ .   ; ; 4 j g f ; @ l p : % $ ; ; ; % @ b M d i @ + % @   j j . . X X @ - % % :   N V   + * * - 0 7 : -   k g ",
"4 * 4 : @ X @ ; * . i i @ % ; ; 3 - - 8 4 o > : % : - % X 7 p 7 ; % % % @ : j d @ - ; * ; ; ; ; : + P b + 7 7 * : d 4 3 -   d + ",
"% % ; % o o @ % @   i d @ % : ; % o o : % % ; : % % @ @ . * q 4 ; % o   8 > i : % @ > : % ; - : > ; 0 N 3 8 3 ; X @ : @ @   j R ",
"@ @ o X o - - @ o o @ 4 - - - % - % @ > X o % o % @ % %   d J : @ % % 4 8 > : @ @ % : - % @ @ : - o + W d @ ; @ % ; : 3 7 p v 1.",
"% @ X . o ; % o . . : 4 X X . . . .   N E X o X o o .     b )   ; @ 4 8     i 4 @ * .   % ; : * 8 : z ~ k p 4 4 g 4 ; : 4 7 : % ",
"X % - 8 8 4 7 : 0 i b V v r q q 0 d g b Y Z f j h j v j k Y &.g 0 3 : v k R Y p g d g g z g g V U ~ R B M M v V v v s j p 0 p : ",
"; 3 0 d i : ; > i 0 v j s s f f N K K S V S S S U P f v R ~ Y Z K Z v n P ^ W K g s b M d 0 p K U T n f k j g 0 7 0 d q : 3 8 8 ",
"; ; : % % @   8 g p 8 s 3 * ; * z g s p s 7 f j d :   j 0 1 s d h s h r U c & > ; . p p 7 ; 8 V = O 3 * : : 8 ; > 8 P   % % ; : ",
"; ; * % % % . u d b s d 7 ; - 7 q 3 : % $ X : 7 . X % 3 8 a 4 i @ :   N W 0 0 4 - * 8 3 : @ d N s 0 3 7 0 p 8 u - i Y   - % - - ",
"* * % % % % X : a 0 3 : : ; . 4 p 8 ; : : ; 4 : % o - 0 3 0 7 i ; 4   K ~ & : % % - % @ @ . d k s 7 3 3 : : @ % o ; b % o % % % ",
"% % % % % % o : i * : 3 : - > > 7 3 * * * * ; ; :   z d 3 0 7 4 3 ;   K ~   - % ; 4 : % % . 4 i * % % o @ X @ o o - 0 - % % @ o ",
"% % % @ o o X : : @ * ; ; - 4 j 0 .   . .   o @     a d $ @ . @ 3 v g ) Z 0 d * .     . ; ; 3 : * % @ % ; : - o ; % .   .   @ % ",
"% % - - ; : ; g 0 % % % ; : 7 j g d d d d s i i z z q d v j V V U Q W U T W W T T Q W K B c M V B k f h j j p J U U K N b b k k "
};
