/* XPM */
static char *_48f13c839c8421eacb38b73b21b9da1iYdWFNP2cshTC5c4[] = {
/* columns rows colors chars-per-pixel */
"64 64 167 2 ",
"   c #020100",
".  c #0C0302",
"X  c #0C0905",
"o  c #120401",
"O  c #1B0401",
"+  c #140A05",
"@  c #1B0C05",
"#  c #140D09",
"$  c #1B0E0A",
"%  c #1C1007",
"&  c #15110D",
"*  c #1C120C",
"=  c #171410",
"-  c #1C1511",
";  c #1E1914",
":  c #240501",
">  c #230D05",
",  c #2A0B06",
"<  c #200F0A",
"1  c #2B0F0C",
"2  c #221107",
"3  c #23130D",
"4  c #2A140C",
"5  c #22180E",
"6  c #2A180F",
"7  c #3C1806",
"8  c #31150C",
"9  c #32190A",
"0  c #221611",
"q  c #2B1712",
"w  c #241A14",
"e  c #2B1B15",
"r  c #261D19",
"t  c #2B1E19",
"y  c #331612",
"u  c #331C15",
"i  c #3A1D14",
"p  c #331E19",
"a  c #3A1E19",
"s  c #2D2117",
"d  c #26211B",
"f  c #2D221C",
"g  c #2F281F",
"h  c #332116",
"j  c #392117",
"k  c #33231D",
"l  c #3C241C",
"z  c #35281E",
"x  c #38291F",
"c  c #2E2521",
"v  c #2F2823",
"b  c #322621",
"n  c #3C2621",
"m  c #342A23",
"M  c #3A2C24",
"N  c #362D29",
"B  c #3B2F29",
"V  c #3C3127",
"C  c #37302D",
"Z  c #3D322B",
"A  c #3D3633",
"S  c #432110",
"D  c #42261E",
"F  c #49261D",
"G  c #43291E",
"H  c #4A291F",
"J  c #432721",
"K  c #442B23",
"L  c #4A2D24",
"P  c #452E29",
"I  c #482F2A",
"U  c #512D24",
"Y  c #423226",
"T  c #4C3226",
"R  c #42342C",
"E  c #4C322A",
"W  c #46392F",
"Q  c #4A3B2F",
"!  c #503127",
"~  c #52342B",
"^  c #433631",
"/  c #483730",
"(  c #463A32",
")  c #4B3C34",
"_  c #453D39",
"`  c #4C3F38",
"'  c #513E34",
"]  c #553F3A",
"[  c #4E4036",
"{  c #4D423A",
"}  c #524236",
"|  c #594737",
" . c #574539",
".. c #54443B",
"X. c #55473A",
"o. c #57433D",
"O. c #53443D",
"+. c #53463D",
"@. c #5A473B",
"#. c #5A463D",
"$. c #59453E",
"%. c #56493E",
"&. c #58483B",
"*. c #5A493E",
"=. c #5C4A3C",
"-. c #5F4B3F",
";. c #5E4C3D",
":. c #604D3E",
">. c #4E4541",
",. c #524540",
"<. c #544640",
"1. c #594641",
"2. c #564A42",
"3. c #5B4B40",
"4. c #5D4B41",
"5. c #5C4C42",
"6. c #5D4D43",
"7. c #5F4D44",
"8. c #564D48",
"9. c #5B4E49",
"0. c #5E5045",
"q. c #5E5149",
"w. c #624F42",
"e. c #614E44",
"r. c #605043",
"t. c #655142",
"y. c #615044",
"u. c #635245",
"i. c #605146",
"p. c #645144",
"a. c #665245",
"s. c #695646",
"d. c #665649",
"f. c #64544A",
"g. c #66554A",
"h. c #61544F",
"j. c #69564B",
"k. c #68574B",
"l. c #66584D",
"z. c #6B594B",
"x. c #6B5A4D",
"c. c #6E5D4F",
"v. c #705D4E",
"b. c #665B53",
"n. c #6A5B53",
"m. c #6C5C51",
"M. c #715E53",
"N. c #6E6054",
"B. c #726153",
"V. c #726255",
"C. c #786455",
"Z. c #75655A",
"A. c #79665A",
"S. c #76695C",
"D. c #7A6A5D",
"F. c #7D6D61",
"G. c #7E7063",
"H. c #816C5E",
"J. c #816F64",
"K. c #837365",
"L. c #837669",
"P. c #87796D",
"I. c #8C7B6D",
"U. c #917D6F",
"Y. c #8C7F72",
"T. c #938375",
"R. c #918378",
/* pixels */
"X * f x x Q ) ' *.a.w.x w *.-.;.-.*.y.a.@.z.c.m k y.f.f.k.f.[ } 6.f.*.f o p l l l l j e z #.*.@.-.y.r.M g } 3.6.7.4.f.( B z.a. .",
"0 t M M M V ) -.;.t.t.k f 6.;.@. . .6.4.e.z.B.R R r.*.r.;. .V R  .3.) ) V p l l l a a u e o.#.-.a.a.y.M M ' ) 3.4.4.' z ) w.} } ",
"m f M R e k M } 6.r.;.5 f &.} -.*.} } } M R ;.R _ +.[ *.%.W m m V ) ( +.n.t l J D a j p e } } } @.f.} 2 Z } R ) ) R ) f M  .&.} ",
"0 $ 0 w # & + f k g m & w w e m M t V R e * k f N m f V m 0 * * o w w R h.o 3 u p q f $ * m k f k m w o t M t w w   m b o M V k ",
"0 w * * k m & w 0 f f f m M k M R . - f f f t f ,.b o + 0 k w g W m . f m V t m k b ( Z w * k t + * 0 0   . f # f M t m t * # e ",
") R )  .&. .0 R *.*.*. . .*.*.w.y.b B +.%.7.R M ) E R n R #.-.f.f.} $ V )  .) 3.3.y.y.3.M k } ' ) 6.} ) ) R ) w ) )  .6.6.3.@. .",
"W } } t.t.@.w M  .@.;.y.6.w.a.k.y.M R 6.4.f.' R R R K ) z.z.Z.M.z.3.3 R ) }  .r.y.a.m.z.M t -.6.;.a.z.k.a.a.} 5 [ } 6.-.a.r.s.a.",
"Y Q Q ;.t.:.f M '  .;.;.w.w.a.z.f.k R -.e. .} ) . w h ' m.m.N.x.m.6.0 R [  .6.y.z.f.M.m.W x *.@.@.z.z.f.r.a.%.3 ) ;.a.t.t.r.z.k.",
"}  .| t.s.a.k P ' *.y.a.k.z.a.k.y.3 ( 4.a.e.P u > O 3 R a.m.m.z.6.W 0 R } f.z.-.z.a.y.y.M R 6.6.y.f.c.z.z.a.[ w  .6.a.w.a.z.a.} ",
"V Y W [ } M & k M R V }  .) ) ( M   V ) W } ' y 8 y O V ) R +.[ M e & f m } %.V ) W R R * f ) M ( M )  .) M t + V V V x V } V * ",
"$ & 0 * # w f f f 0 m 0 & c * * g m f w f e q t t e M M M w $ 0 c Z B f f o * w % 3 s M M t g Z m w % * t w M V g f g ^ f . x n ",
"0 g R ( )  . .@. .3.B...@  . .#.y.m.6.3.f.m.( 5 3.*.#.y.m.m.V R y.4.3.4.4.k r +.) }  .4.6. .3.f.f.R m Q [ 3.6.y.0.y.y.a.) 5 T L ",
"M m M [  .@.6.-.k.D.Z. .t @.-.y.f.y.a.y.Z.A.) x w.w.7.z.B.B.R ) k.e.6.y.M.[ f 6.*.4.6.w.6.w.k.z.k./ M }  .7.y.y.y.f.m.m.) e j y ",
"V 0 B } #.@.*.*.a.c.V.} k -.;.6.;.y.a.a.M.A.( M a.k.m.m.B.r.M } z.f.f.k.m. .g 6. . .4.6.a.z.f.f.z.R M 6. .3.y.f.a.y.B.A.' 2 D l ",
"b Z )  . .*.f.k.z.k.z.W t #.f.z.k.M.B.z.z.Z.R M k.f.k.M.m.} 3 <.m.m.B.B.0.M f +.7.7.y.f.m.f.B.m.f.M M *.3.0.6.f.k.f.f.6.W 3 e 4 ",
"f g b V t f V Z M M M t * M R R ( ) V x R R 0 * ) V M B M b - c Z B V m m * $ m z M Z R V t m R Z $ + w m M b w m k 0 0 0 0 m f ",
"Z R ( 2.[ W [ m + m m M Z V M ( ) * r f @ e M P u u $ m k V s m ( V f B f V 3.%.b.<.) 2.) w . R m B _ ^ ) ( Z ) o V +.( V [ y.f.",
" .} 6.0.7. . .) ) 3.2.6.q.6.y.N.m.h h.o.D T T T ~ E k 3.e.y.y.z.m.m.f.m. .W f.y.F.Z.n.m.q.R +.y. .y.y.6.6.6.6.B.k ) y.y.6.f.n.n.",
"[ Q ;.6.0. .} ) ( '  .3.f.m.l.r.w.z 7.l i D G l K T u } 6.y.c.m.z.B.B.V.&.W 6.B.S.m.6.%.6.R 3.*. .y.y.y.y.w.m.B.M R #.4.y.r.z.f.",
"Q Q -.a.r.@. .} R } 6.y.f.l.f.z.w.z V.) M R u j l l u 3.6.y.f.x.z.B.A.B.r.Y f.F.S.z.y.*.3.M } } *.y.y.z.f.z.B.z.k ) y.7.f.m.B.z.",
"M ) } ) W M R z R y.7.y.m.B.l.6. .+.F.B.n.%.e e l j e 4.y.z.B.B.c.m.B.A.a.Y 6.y.} 4.W R ) z  .4.6.k.f.S.B.B.0.} e  .y.y.f.z.f.6.",
"e f e . & & + . r B m e k M f e 3 C <.{ Z f + . O $ + e B R } } ) M M ) z f m w m Z * 0 * o r m e M V M M m m 3 w m k b b e 0 w ",
"4 4 q e k k k 3 k R k ) M ^ { . c c * . r 0 - _ B f { _ ) g o 2 u J n j x 4 3 e t 2 t ^ V ) ) R } V o 0 q u x j l l u e $ 3 w f ",
"y e u j j l l j n m.M.V.B.B. .5 V ) 3.y.q.) c m.m.n.N.F.z.w x K J L K T L K l j K l z  .l.S.D.F.S.0.s t J L K J G J j x J P L J ",
"2 5 e e 2 u j u 4 6.D.K.K.S.R e M ) z.V.l. .M m.D.D.S.G.l.$ x T n j l K l l x h l j k ) f.A.K.F.c. .f t h D j t 4 4 t k G G G l ",
"+ $ * o r m e > z.[ 6.F.B.y.R e M W 7.m.3.( * W f.B.m.B.3.o t p p 4 q x k e e e e t t R 3.S.S.m.*.R e t u l k * m A r $ h j j t ",
"+ + - m <.) t k 2.M } c.M f g 0 w b R M t w # 3 ( +.R R R f t w * N r + * - 0 * b t * B { ..)  .R t 0 3 5 M B 0 ^ q.N * 0 e 3 $ ",
"f f m g Z m R Z V M V R m & M _ ( _ { W V f Z ^ ( ) V ( [ R k m r m b k Z t m m m m w t Z ( ^ t b e B B m ( B M V m f m Z Z R ( ",
"m V R f [ +.2.2.q.^ f m f r g R R ) 6.%.( g Z ( { 0.m.l.2. .<._ r f 0 e k p k n t e 3 0 3 b 9.` t 3 B t M B ( ) 6.0.) m Z ^ ) 3.",
"V V f * R ) R ( Z - m g f w g %.[ 0.} ) [ z m M ^ m.R.L.S.0.{ C w ^ R e p K K l j ^ +.m f e O e q R I > ^ ) } ) }  .V f Z ( R ( ",
" .V m . ( [ V V f & & w d * Q A.y.S.3.}  .b g V 8.G.Y.L.l.m o o + >.^ e h l J u q e M M m b t k p n P O h.S.a.f.w.} [ w ( l.0.2.",
"} W m X ) l.{ Z m ; X # d 0 R t.| Z.y. .%.g c N + w @ V 3 + R f   X # 0 b u u u 3 t b b f w t p k t n > ) f.k.a.f.;. .f ) y. .0.",
"M ( d X m +.{ g d - X # w r M t.s.v.A.6.%.m f r   X M 8.V M m.Z   . # 0 b t 3 e e w b c w w k b b t e > )  .y.k.f.f.3.f +.K.B.+.",
"f m * . # = d r ; # .   # d m  .k.c.B.2.V f ; # .   _ b.[ h.L.{ C f   * - o $ k R z $ b 0 3 t t $ . 0 3 R y.k.f.w.} R w t D.B.w ",
"  X X     & # X # X X & & = w m B f 0 d ; X   X &   ` B.m.N.S.[ q.h.#       w  .f.m.y.0 # w m w   o w - N ( R k m & & # 0 R V & ",
"+         o * #   . X # - .       r r w + + # # v   n.U.I.L.S.+.n.F.q.  * . t B.I.K.D.( $   .   # X . w 2.m w g g m &   o o * & ",
"0 . 0 M j J J P n t ^ R R 8.+.) 2 ) y.} 3.3. .+.o o S.T.I.K.G.0.m.L.F.,.f   R c.K.D.B.m.M B C N t b $ f z.z.l.f.z.m.R e u E } } ",
"*   b E l J D K K m 3.f.l.V.S.c.M R m.m.M.S.S.n.@ V D.Z.G.F.D.m.z.F.V.B . . W c.Z.Z.B.m.( h.l.m.y.6.m R n.B.S.B.V.S.f.t } K.c.a.",
"Z b k j j l j l 4 M 3.f.m.B.B.z.Y M f.V.m.z.f.9.t f.S. .F.B.f.3.z.S.l.) [ t ) c.m.z.z.7.) S.D.B.D.B.R ( m.m.Z.V.m.z.f.e a.I.z.:.",
"( <.B u D D l y 2 R 1.e.B.S.D.l.V x } 7.3.) ( ` ^  .D.f.f.y.) Z { 3.y.z.S.M ( z.l.0.` 3.V z.K.V.A.M.t [ y.[ } R M ) } k  .m.4.w.",
"R +.f e l l y k. .k ) )  . .7. .3 V R k ) k f Z ( m ^ { ` B f w f k m  .S.m R +.R m g M V V [ y.3.) * V ) [ m f k R V m m ) 8.3.",
"* b * + e > q M f $ 0 w o 0 $ $ 0 * r 0 0 r w r - -   * r - . - f - . b ` ; -   r g g * 0 0 . + w w t $ t m f f 0 w * & & r w o ",
"k R ) ) ( [ 2.2.3.V 0 +.<.,.+.8.b.y.) k ) ,.,.{ +.f.6.+ Z ( ` 6.3.} f B ( +.+.) 7.f. .( e ` ) ) +.}  .3.h.h.V 0 ( ` ) ( [ [ M e ",
"M }  . .#.k.n.M.m.) e y.7.y.z.B.A.A.#.k 7.6.f.m.S.S.n.k f.n.m.m.m.k.M x -.a.k.f.k.v.B.y.t 6.e.e.y.y.k.m.m.D.7.w 3.6.e.m.M.V.} y ",
"k Q } -.*.a.M.m.m.) e *.-.a.a.z.C.A.6.k 7.y.z.B.V.S.f.f n.B.B.V.V.M.M E w.a.f.M.C.z.A.f.5 1.7.y.f.k.z.z.z.V.#.t 3.3.y.m.m.H.} , ",
"M } } *.y.k.z.B.M.) e 6.k.m.Z.A.M.V.-.t 7.f.m.B.A.k.2.t f.S.V.7.f.f.e ' w.w.a.B.H.V.V.y.t #.f.k.z.M.S.z.f.M.} t 3.e.f.m.M.H.] , ",
"w R ) } 3.6.7.z.e.k * } *...3.e.y.3.z t +.8.y.m.z.) 0 * R 2.3.) b f o m } *.e.*.z.y.w.R * ( 3.7.y.y.3.7.3. .R + +.7.7.y.z.V.B @ ",
"* w r g f r t w * * 0 w # # $ w w r r w t m f * m m ( M b ; r d m w r r - m b f t $ m w 0 w * r t $ w g f 0 r f m e w e m V - # ",
") M ) 8.+.o ( R [ 7.3.3.3.l.7.5 R 7.y.y.f.y.3.q.V h ' ' #.' e B ) <.<.+.M b B b V R )  . .7.} f.n.m _ +.R +. .6.7. .m.y.V $ ^ ) ",
") } -.7.#.3  .3.y.f.f.m.z.B.c.M [ y.f.m.B.S.F.Z.R i F H F ~ k I T K T ~ ' ~ p [ #.e.6.f.f.M.Z.Z.B.R W 4.7.6.7.f.n.B.A.B.} e R K ",
") } *.e.} 3 )  .7.e.6.y.k.V.a.M } y.f.k.m.D.J.f.M l K L F L n T T F F L L T a )  .y.6.f.k.m.A.D.M.R P }  .#.6.f.f.z.D.A.f.e n a ",
" .y.k.y.} * } 3.4.y.f.z.m.B.a.h  .f.f.z.z.m.f.) f n x u p k k n I ]  .K j J l ) ) } y.M.f.7.A.m.m.4.z 4.e.e.M.Z.f.S.B.z. .- M B ",
"R ) ) M k $ B ) ) ( +.) M ( V 0 B B V Z ) +.) k t $ w b . N r N 0 N ^ m 3 < < f g ( ) ) V ` ) M ) Z f ^ } ` } } ) } } ) f f t w ",
". o   . X 0 * w 3 & . 0 f 0 w w m ^ ( f . Z n E P l j n %.l.n.0.V.h.  P J x n w w + # 0 3 - # #   + 0   . *   $ $   o o o g 6.q.",
"u q 4 > : 1 u l n P j R 4. . .*.y.7.z.7.f q.R ~ ! L K x B.S.D.m.F.V.n L L ~ ~ j k n l E T l B R R R B V ) R x f ) 2.<.+._ { m.D.",
"3 e k ( 2.) p a D L a M 6.7.6.a.k.z.S.f.m 9.n G L L L x z.V.c.M.M.3.e L U ~ ~ K u J l K T F V 6.f.*.} e.4.} 6.R  .f.f.n.m.z.z.z.",
"f R 2.b.h.q.m u D J a M *.6.e.f.f.m.D.6.R 7.l D D D K J B.D.A.M.f.R @ K K P ~ K y a l D L l R ) w.m.z.z.6.} k.R } e.e.k.z.c.B.3.",
"R ,.9.8.2._ f q j l y M 7.f.y.Z.S.B.M. .) 7.k y a l l u y.B.F.m.M m 0 n K R I l u p a l J l M ) k.M.m.M.a.} y.R } f.f.m.V.Z.Z.3.",
"^ >.8.8.{ Z w O e 6 > f R V R 2.2.R M m b m w o 0 3 w B # . Z B t 0 * -   . - $ + < q e q 4 @ B  .} 3. .) V M k R ) R R ) ) ` V ",
"Z _ { >.^ b f B . 0 w f N . o O : h P l q k 0 * + 0 g ) R m k R } B   q t e k h t k 2 0 M w V ` f m o o @ @ h h k > 2 2 2 O @ k ",
"N C A _ V 0 B 7.%.%.6.q.3.2 h n l L L L G D K E j P z m.Z.z.l.S.B.8.m  . .E D G G T H k B.z.y.l.m.h.6 x l J K G G l l G l j x 6.",
"m N A B m b f 7.S.D.F.S.) > h u h j x x l K T E E E x m.D.J.K.G.K.7.R F.P.e.S L G T ! h B.I.K.K.I.f.e l l J l l l l K l l 4 V l.",
"c A C N c c b ) z.D.D.f.) e u e e e e 4 t k k t k n u 7.y.B.D.F.D.) f F.R.M.7 K K l 9 [ R F.T.I.L.6.6 e y u u u u e x h k 4 m l.",
"& # # + - - r Z %.3.*.) V 3 w f k b b k 0 3 3 $ e e f 3.%. .0.0.} m e R h.6.2 k M t M y.h q.L.f.*.Y @ e M V M M f f e t t e 0 R "
};
