/* XPM */
static char *_6ecd4a3509f4db6fc66911050fef9da85SeZrQ2wm8RhCCY[] = {
/* columns rows colors chars-per-pixel */
"64 64 88 1 ",
"  c #030301",
". c #080705",
"X c #080806",
"o c #060609",
"O c #080708",
"+ c #07080B",
"@ c #0A0A0B",
"# c #10100F",
"$ c #050612",
"% c #0D0E12",
"& c #01031A",
"* c #0C0D1A",
"= c #0F1015",
"- c #0F111C",
"; c #111116",
": c #13141B",
"> c #17181E",
", c #0D0F22",
"< c #0F1222",
"1 c #151622",
"2 c #171823",
"3 c #1A1B24",
"4 c #15162B",
"5 c #17192B",
"6 c #1C1D2B",
"7 c #1B1F31",
"8 c #1F2027",
"9 c #1F202C",
"0 c #1F2131",
"q c #202127",
"w c #22232D",
"e c #232434",
"r c #262835",
"t c #292B36",
"y c #242639",
"u c #272939",
"i c #2A2C3C",
"p c #2E303D",
"a c #2C2F41",
"s c #2E3142",
"d c #313445",
"f c #373A46",
"g c #323548",
"h c #343748",
"j c #343749",
"k c #353849",
"l c #34384B",
"z c #373B4D",
"x c #383B4F",
"c c #393C4D",
"v c #393D4F",
"b c #373C50",
"n c #3B3F52",
"m c #3B3F53",
"M c #3C3F53",
"N c #3E404F",
"B c #3B4054",
"V c #3C4054",
"C c #3D4156",
"Z c #3F4358",
"A c #404356",
"S c #424555",
"D c #404458",
"F c #414559",
"G c #424659",
"H c #43475B",
"J c #43475C",
"K c #44485C",
"L c #45495D",
"P c #494C5E",
"I c #474B60",
"U c #494D61",
"Y c #4A4E62",
"T c #4B4E64",
"R c #4D5165",
"E c #4F5368",
"W c #505466",
"Q c #53576B",
"! c #54576B",
"~ c #54586C",
"^ c #56596F",
"/ c #575B70",
"( c #575B71",
") c #595D73",
"_ c #5B5F74",
"` c #5C5F75",
"' c #5C6076",
"] c #5E6278",
/* pixels */
"CCCdo .    o.@iFnL)3 %@X+n/U2 @ein^r @kFn'j @ jFCCg1&$    .@ 3nZ",
"CFz .@   . o.@yvnFQp.@+ :vF)w @.yna; XkFnQz*X+kFCzu:   ..    6zC",
"CCj   o+. ..++ %nCF)8 ;;yzF`p +.rLd% @kFLi0y1unBk1      @%%%@eiz",
"gyy23:   @+  ..+uxJ^r-eyyen/F:..yQv@  kCQt-y0zFg-    o@%     eiz",
"MkinCz2:@  .+@++@rnCn0ey6;vFC: @uMs; >zLF9 5yvCu+.+@@   6tttiiuz",
")^LCCCCMdtw   +@X%yCC960+@nZCw +zLd%XjF/L: OjFs1@+@  6twP_/)Tduz",
"CI^CCCCCF_!rwr  16:nFn:%%@jCCC9 v/xoXgC)A ;wvFa03@ 6wP_)UCFFZniz",
"CCCCCCCCCCL/`^tw0e:kZC2is; nCZC9kId%+MU^C wkCkyyy*:U'JnFCCCCCCjz",
"CCCCCCCCCCCFFF)/g53:nCsnCs2danCix/v  R'Fu2wnC9%05sQInFCnvzgkzznC",
"CCCvuuuuuidgzCFLQs :CCCCCCCwiiiaaCs22uia9kCCk> -yQRCnxz6 @@+6iiz",
"CCCy++@@@X@@2sxCLQp kCCCnCCCCssnsxjnnsinnCCCs:;inFCnr.%+.... 6uu",
"CZk%.@+.X%@;6;2vCLQd%nFFdrinZCCCdnnCLFnCdvCCw;dCCns263 @@@%@@ 9d",
"CnuX..+@=eeeye6>xnL!rzF/j yuvCCCCCxn^LaiunZCe7nZZs:5e01     +@*L",
"uiy%@:6yyuuue06+%tnFCCF_k ;@uCCCCC^LCdy:enCnnnCnC91eissiuuw>;10z",
"ddiisCCCCnnCBi6 X;tCCCF^v ++ynsxZCLCsu: ynCC^Une.@ 9R'))))_Lueuz",
"_^FCCCZCCFCF)_^w  :vZCnL^r =@raivC!ky: +enF^Rne @oiQRCFFFFFFCBsg",
"FU^CCCnCCCCZFFLQj9 :xFnJ)w ; @dduid2X@++yn)Rve +eaERCZnnnnnnCCCC",
"CCFCnniuuyuvnnnL/^p :vBF^d %+X:zdux2 @+ ex)U9 %7zCFFnMayuuuuygnC",
"CCCk3y6+@@O>iianFUQp 6CCLRq ;  kCCF6 @+@ynFC6 unCCnnrO6e00001+wz",
"CZv; %%+X++ @@>ijvL^i@vZni;  >>rC)L; @ ekCd3@7zFCCi:+ %;%%==% 9a",
"CCu @+  .    +@@:ivL^iwCCvn6:QLin_U2 .@yndz90nCCCe  @+      .;wz",
"dny@ o>esw>>:  %+@inL^inFCC^)LCCCC)L2@jdinrsCCCCe %. ;>3iu>2X2,L",
"nsu#wn^)))^)Qw:  @;rC_daCCsCLCsnFF)LxnCCCCvCFCCeX  ;3P)^))/)A;1z",
"ussr^/FFFJLFL^Qw:. :vLQdnZi;kFaiQ_LdaanCCFF^Unr  ;8P)UFJFJJCEF3s",
"skFnLFnnnnnnnLL^Qw ;riLQFCs@:zsujxik3 uMF^'Td6;. P)RLCzbbbnbnQLz",
"/)^CznnssidCCznFTQ6&uivLFCa% :uiyg6:% en^U)C$9u%PELCndissizZnC^T",
"LLFCndu%%+:isnCgF)i,uisnCdu;@ =ysCs  %yaFds69s0PECaid6.%%+ezCnZF",
"nnCd6e:6+.+@;yunnLQu%:usaiir@++yn^v%X9iiui: ;U_UCd6+%+.XX 9ikCnn",
"CCCg6:eye6+@0e@3vnLQ8 :uiiit: @uCLdy%wvduj6  W^ng23: @ 6:669agdk",
"CCny:9yeyyeeyye66vCLQ>+ksivCQw yM^La;dFnMe  PRng25yeee0ye2936iui",
"CFn5=:=:yyuyyye29wzCF2 6zCCCUQreCL/FxCgnF6 PECg33yyeyyyyye3%@9aa",
"dCny:   @%;156e6: 3nnk;+nFCdzLQFnC_UCCgnC2p_Ua663%=;;%@@@%+.%1yz",
"zsa9@@@@XX.%%@=; + 3MZj2zFCsw:FLCC)LrinCi RRd3 :@ .  OXXXX+++21P",
"Muu::dzn^QC^W@ .+@@ 2nC23C^k-.ynCCvCw7nF9pLk:.@ O@@ 6U^^^^Ld9;1U",
"_^xsnCZFULFIU^Q% @+@ 6nz%n'k:;rsnCnd9ynCvCCs: @@@. F'RILFCQ]Usyn",
"LR^nCCCCnCCnCLTW: %+O%vjjF)k;X;rssdi6ynCC^U9 @@. 5URLCnnnnFUFR_U",
"nCLCCCCsssssdnBTR> ;+.6kgnL^Cg>eizs:>yaQ'Rk; %+ L)RCnCksddaizLLQ",
"CCCCCCi;;;%:idnnRR> ; %zdnCMFFziidv:dMakCs2+%. LEUFCzsw%;;;;rxnF",
"CCCCCi<5X  +:3szF_C +@+6xCdynCZnnvdkCFnie3X@. FQCnjs9%@  10%6anC",
"CCngd1526;+@ X:akL/v+@ ;nZvnt9vFCCnCiiCCnv3  FQCCx6%@  3e3039ijZ",
"CAnu:+:6:e6+X@.:inU/x@6ydCFC6 3iM^M3:ynFCge FQCCz6 X+.3yy0:33eax",
"dddr %6:6yy06+X 2dnU/s:esCCCw+ eC'L@:unCCi4PECCz3 ..30eyeye3@@9z",
"zuir@+:9yyyyy666 :dCUQ:6eiCC6  yCLk;;gCCu1UQCCz33066eyyyy6:%X 6z",
"dnxu@ O:::2eyyyy6.:sBURe rCCzkkinCi+sCCj PQCCz3320yyyy6:;. X%.6z",
"^Qi:+      ::2eyy6O:sC'w 3sCFFFnCCnkCZCw FFCk6333eyy6;+     . 6z",
"REP =ddds%   +::;16+;dUU3 rddnCCCQLCCCC3unCk615X;1::%   NQWd  3j",
"zL_ddZCF/^U3 @+   :@XyC]N@kiyenCC_MzFCCzCFCs;;%  .@  CQWURERQCL/",
"CFLCCCnCUUT!R0 %;+ X@2dIC:xCi.iCC))iiCCCnCz9@ X+;  A^UTQCzzLQLLR",
"CCnCngnsaznUR^R  @@++ ;anknZa;%sQLC26C^))C3 .@@; S^RRFznCFFCnCnn",
"CFCdsisiiddanUUQU@ ;++XuCFCCs% yCi$+rdMFFi@.@+  FQRFnzdgddddgdnZ",
"ddduy2:22:2idgbRQP: ;++2sCCgi%+yyu: :yguy3@%. AQRFnzde;::::966xZ",
"yyag33    +:3agzCEP% %.Xyddii; rzs; 6jzxr++. CQEFgge;%     %31un",
"QRgr636+@@+ .:3dgnEPX.+%uiuii; uCs% uCnC6   CQFzxw;% +@@@.16e12s",
"R^R 1623.++@@ X;3dnRU. %usigu+Xrnn:iisCnyoARRFgze  +@+++ 1eyy1:s",
"zZL@@y6y5.+++@@X 2dCRP;.6dv^^d yCZ0vdyisy ^)Cze;%X@+++X@@:eu0%3z",
"CFg +6yyy5X+@++@@ :iC]k36sCTE/vunCWLzvRx&iLFkw X+++++@%  $    wz",
"CCCi  o55e3  @@++@ :CR^xedCnnULnCCRFCCTQCCFk61;.++++@  <LQRUWt:b",
"CCFCkURWRs513. X. @6rnEQr3nZCCgdCQzRIBCULjtdy72 XO@@ vRQQEQQQWnI",
"kFCjJQQQQQQUe*1666613dC'v vFjididFxvpvvzkk:9ue9:3;X fQQQFnnnnUQQ",
"ijssnsvnCEQWRRUeyye6i6xTFynz3 rausQ3 wuddn9 5yy16e fQFznzkkkkkTA",
"uid9yszzznzCQQQU0eyy2 6nCxgk:. :uCRr  egQj @6yy5y1vQFnnzy;22rdbn",
"knz  62:6zzznnnQUeuu6% rCCzn2 % ynb: @yMUw +066i1wULnCe1%  X:9nn",
"CCCi. O +216jxCnWRu13%. sCFEw +@ynQr @enQt @:%;*rCCCd3% +@@@ 6nn",
"CCFv@ @++  +13jCCEU: @+@unF_r @+yn't @enRt @.+ rnCCv3 @++++++6xF"
};
