/* XPM */
static char *f0f750cb61a4476da50221faf6e7a0cffmNsjdkJ7zchX5tJ[] = {
/* columns rows colors chars-per-pixel */
"64 64 64 1 ",
"  c #1F1F1E",
". c #252525",
"X c #272827",
"o c #282827",
"O c #2C2C2C",
"+ c #2F302F",
"@ c #31312F",
"# c #2F3030",
"$ c #343434",
"% c #383737",
"& c #373837",
"* c #383837",
"= c #373838",
"- c #3C3C3C",
"; c #3F403F",
": c #40403F",
"> c #3F3F40",
", c #3F4040",
"< c #444444",
"1 c #474847",
"2 c #484847",
"3 c #474748",
"4 c #474848",
"5 c #4B4B4B",
"6 c #4C4C4B",
"7 c #4B4C4C",
"8 c #4C4C4C",
"9 c gray31",
"0 c #4F504F",
"q c #50504F",
"w c #4F5050",
"e c #505050",
"r c #515150",
"t c #535452",
"y c #545453",
"u c #545354",
"i c #535454",
"p c #545454",
"a c #565656",
"s c gray34",
"d c #575856",
"f c #585857",
"g c #575858",
"h c #5B5B5B",
"j c #5B5C5B",
"k c #5C5C5B",
"l c #5B5B5C",
"z c #5B5C5C",
"x c #5D5D5C",
"c c #5F605F",
"v c #60605F",
"b c #5F6060",
"n c gray38",
"m c #636463",
"M c #646464",
"N c gray40",
"B c #666667",
"V c #676867",
"C c #686867",
"Z c DimGray",
"A c #6B6C6B",
"S c #6C6C6C",
"D c #6F706F",
"F c #727271",
/* pixels */
"$O$--=-$$$=<<<<<-=<5<a55599<--9959ha9h9$$<<<$O=5<=--=--<<5<OO$$$",
"$O$$O=$$$$--5y<--<<5rr<<59r9-=9r9rxnrh9$=<<<$$=5<--<==<<55<$O$*$",
"$$==O:-OO--<r9<=$$--55<5a595==9rarrh9r<=-<9<=$$-=<<<%$<<55<$O$$*",
"$==<-=<$O$===:-===<-<5599=$-$<9raa9a59<=-<9<=$O=-<55<-<<955$O$==",
"-<-=$$=$O==$$=--<-<<59rr-$O=<-55aarh9r<==<r9<$O=<-<5<<<<966=O$*=",
"<<=-=%<$$---==<<<<5<5rr<<<=<5<<rhaax99<<<5r9<$O:<--<<<<<9r9=O$==",
"<-===-==$=$=<<<<5<559r95<599r<-rxahx5<=<5595<$O=<--<<<-<1rq=O$--",
"=-$$---=$:$-<<559<559rr9<599r5-9ahaa<$$-<<9<<$$-<<--<<<<<r9$O$-<",
"-=$O--==-<$=<599r<r5-ra9555555-<rara5=$-<<95=O$-<<=<<--<<qr$O$--",
"<-$$=<-$--==5<5559hr5aha99r995--9haa9<=<<<r5%#$=-<<5<--<<r9$O$-:",
"<-$$=<<----$--<<<-999harrar9rr5<5hha9<-<<-a9$$$==<<<<--<<95$O$=-",
"-$$$$:<=-=--<-<<<<<59haaraa59h9<rhrr9<<55<a9-$$==--<<-<5555$O$=-",
"$$O$$=$=-$#=559999r59hahyra5rh9-rxaa955995h9-$$-<--<<=9r5r5-$===",
"$$$$$-===$=<aar9try59hjxaar99haaxhdharahraxa<$$-<<<5-=9r592=$$$=",
"O$$$$==-<rrwhgrrr9dr5hhaaah9wxhhxahxaahhanNa<$$--<<<--99596=$$$=",
"OOOO$=%<axhrhhr995ar5raahjxhx99xh9rarr5rdxNa<$$--<<5<<r9<t9=$$==",
"OOO$$$=<9nxraa9695aa9aahhxxaxr9xhrraa5<9hrnr-==<-<<9<9awrr5=$$-<",
"OOO$$$$=-ah5975555rrrarahxxaahahhhaaa5<9r9k5-=-<<95999arfr<=$=-<",
"O$$OO$$$-95<555<95rr9a9ahhhrhnhaxaaha<<wr9x9<<<<<9rraai9fr9=$$--",
"O$$$O$$$<<<<<<<<99arrarhhax9hNahnhhha<5rnal9<5<<<9<iarraxhr=$$--",
"$$$$$$=$<,-<<<<595a9raahxhxhNZaxNnNnr5raZkxr<5<-5949ah99hzr=$+$$",
"$$$$O$=$-==<<5<9r<rr9araxhnnnNhxZnnx55raZha<5<<<5955rx95gxa-$o$$",
"OO$O$-=$=%-<<5599<ar9rrhxnZhahhnZnnh99ahNrr<<<<<<595raadnna=$$$=",
"OOO$$-<=--95<9ra55h995rhxxn9rhannhnhrrhxZrhh<5<-<599agaxNna=$$==",
"OO$$$<<<<59<<<55<5hr5<5hnxx<axrnxhxhrrahFfxr5<<--5rrxxrunma=$$=$",
"O$$$$=-<<55<55<--5N9=<5xVNN<rnanxxxarahhSra9=---<<rrznr9nxr-O$$=",
".$$$$--<<<-<<<<<<rha<<rnZnNahNnxhharr9ahZau<-<<<-<r9rxhhnhr=$$=-",
"O$$$=-><<<<<<<99<<h599rnnxnaNZnnx955<<r9nar<-59<-<999rxxnh9=$$==",
"O$=--=<55<555<r9<<a9haahxnZnSAnnxnSxrahhn5r5-<95<479r9hxxa5=$ O-",
"O$=-<-<r9<5955a5<9rraraxnZSZnNNnnNCgrarrh5h9<9r5<44999ahxk5-$.O=",
"O$$=<-5a9555959559a<959axZSZ9Nnhxnxraxarh9h<<a95<599whhhnh6<$$=-",
".$$-<-9h9955arhhrar59-<rhZFFanZxhNNxxxarh9h<5ara959a95hhxh9<$$<<",
"O$$-<-<95<<5aannaxa5r<9axnDZxZNNxZSnxnh9arr<<hr-959a9<rhnh5-OO$=",
"O$$=-=-<<-<5rhnxhha965axkxNNZNnxhNSNxNx-59a<<r5$9araa59hxh5-$OO$",
"O$$$-<<97;59ahxhxxa995aZnhNZFNxhhNZNNZN5ara<5rrgraaaa99aar5=$O$$",
"OO$=-599959raahhxnxrr9axnhNASZxahnhxZNxra9r59aaraaryhrraar5-$O$=",
"OO$--<<5999raahannx9r<9arhnZZNnraNhhxxxrarr55ar9599axtradr<$$O$$",
"O$=-=-55aa95ahxxnxarr<<9rnSZZmahxNnxxxa9hrr<5hr95rrahrrrr<<$OOOO",
"O$--<<9<r9r9aaxxNnara<<<rxNNZNnrahnxmxr<9ra5<9399rrfa55q9<-$OOOO",
"O$$<<5r9995rhraanNxhnraNhnZxNSZxahnxnxr<9<9<$<<<<rraa<<r9<-$OOOO",
"O$=<<<59ahrarxnxnnrNFxNnNNnnnnnxhxxhnh5<95<=$<<<<r9hh1<95<-$OOOO",
"$$--->-9zxhxrnZFFNhxNhnxnNnNNNNxhxnhnh9<r<<<-995$-rrr5<r<<-OOOOO",
"$$$=<955ahaaxZFSNnxxnxhxxnnnnNNNNNnxxhr<9<--=<<-$<rha95r9<=OOOOO",
"$$$-<599rrr5ahxhhnnhx55axxxNNhNnnNNxhaa-5<-$O=--<raxhr9a0<*OOOOO",
"$$=-<599r9<5599rxhhah59hnNxNZxNaxhnhhaa<5<-$O$,<<ranhrrar<$$OOOO",
"===-<5<599<r9rahhharh9rNZNnNSNha<9hrhar<5<-$O$-<5axharrr9<$$OO$O",
"=%$=-55<55<rr9ahnxrrnxxZZNZSSxxh<599arr<<<-O.$=<5hNarrrr9<=$$$$O",
"=$==-5<<<<5avxxnhahrhraxnhnNZnnh99rrhrr<5<;$.$$=<xZrar0r9--=$$#O",
"<<==-<<<<<arxhnnrxh5rra59<rrZbaarhaahaa<6<<=O=<<<xnqr9599-<-$$$O",
"<-$$-<<<-<99rhx9xnr<9xxhxhNnNNxkrxhaxaa551<=O-<<<hg99<<52=<-$=$O",
"<$$$<<<<<5<<5afynZh<<xnxnnxxNnxhhxkaxaa9995-O-5<<ha<<--<<-<===$O",
"$O$=<<<-<5=<5<9hhhr<5hxnZNnnbxxhaNnxxhfrarr<$-<<<rr-=$-<<<9-$&$O",
"O$$-<<<-<<=--5ahNvr5<hnZFSnhnNnxhZnnnxhrarr<=<r<<9<-$O-<<-a=$$$$",
"$$$-<<<<<-=<--hhxnhrranZSZnhnNxxhnnnmnhraha5=<r<<r2=OX$<-<a$$$$$",
"$$=--<<5<----<rr5xc9rxNNNNxhxaaxhxhxNnaaaxx9=<9<5xr-O.-<-<a==$$O",
"=$==<<<59<-<559<9hxraxZnnxxhhha5anjxnxhahhh9--5<hxx<OO<<<<9-=-$O",
"$=-=-<<595-<9<rhnhhraxmnxahhhhr$rhhhaalaaka<<<<5xax<OO569-5<$=@O",
"O$---<-9tr95<=anhar9aarnn5hhhxhraraaaar5ahr51r<9han5$O<ar<99$OOO",
"$=<--<<5arrr<=aa9599r9rjh-rarnnranhhnhrraah<<6<5aah5=O=r5<a<+OOO",
"$<<=-<<<rrrr99rh99959a9ra5<$-9a9hkahxhr9arr5<<5<5a5==O=<<=5$O.OO",
"$--=-<<<raarr59r999<99<<5<=<<<99a9daaa95r9<5><<=55<$$O$=-$=OOOO.",
"$$=-<<<599a95<59955<<<<%<-$<--aahrhaar95rq5<--=$<<$OOO$$$$$OO...",
"<$--<<29<55<5<<5<<<<<5<55==-<<hnhaaahr55rr1--=$$==$$OO$$$OOOO...",
"<$--<<<2<-@=<<<<<-<,<<<99<<<<<rNx69rar<<995--=$$=$$=$O$$$OOOOO.."
};
